<?xml version="1.0" encoding="UTF-8" standalone="no"?><svg xmlns="http://www.w3.org/2000/svg" xmlns:xlink="http://www.w3.org/1999/xlink" contentStyleType="text/css" height="1040px" preserveAspectRatio="none" style="width:1685px;height:1040px;background:#FFFFFF;" version="1.1" viewBox="0 0 1685 1040" width="1685px" zoomAndPan="magnify"><defs/><g><rect fill="#FFFFFF" height="834.2891" style="stroke:#181818;stroke-width:1.0;" width="10" x="44.5" y="114.9609"/><rect fill="#FFFFFF" height="272.1094" style="stroke:#181818;stroke-width:1.0;" width="10" x="319.5" y="114.9609"/><rect fill="#FFFFFF" height="133.6641" style="stroke:#181818;stroke-width:1.0;" width="10" x="319.5" y="478.125"/><rect fill="#FFFFFF" height="298.1094" style="stroke:#181818;stroke-width:1.0;" width="10" x="319.5" y="642.1406"/><rect fill="#FFFFFF" height="211.4063" style="stroke:#181818;stroke-width:1.0;" width="10" x="552.5" y="145.3125"/><rect fill="#FFFFFF" height="103.3125" style="stroke:#181818;stroke-width:1.0;" width="10" x="552.5" y="508.4766"/><rect fill="#FFFFFF" height="267.7578" style="stroke:#181818;stroke-width:1.0;" width="10" x="552.5" y="672.4922"/><rect fill="#FFFFFF" height="30" style="stroke:#181818;stroke-width:1.0;" width="10" x="841.5" y="175.6641"/><rect fill="#FFFFFF" height="72.9609" style="stroke:#181818;stroke-width:1.0;" width="10" x="841.5" y="538.8281"/><rect fill="#FFFFFF" height="30" style="stroke:#181818;stroke-width:1.0;" width="10" x="841.5" y="702.8438"/><rect fill="#FFFFFF" height="30" style="stroke:#181818;stroke-width:1.0;" width="10" x="957.5" y="236.0156"/><rect fill="#FFFFFF" height="60.3516" style="stroke:#181818;stroke-width:1.0;" width="10" x="1108.5" y="296.3672"/><rect fill="#FFFFFF" height="30" style="stroke:#181818;stroke-width:1.0;" width="10" x="1293.5" y="326.7188"/><rect fill="#FFFFFF" height="186.0547" style="stroke:#181818;stroke-width:1.0;" width="10" x="1446.5" y="763.1953"/><rect fill="#FFFFFF" height="28" style="stroke:#181818;stroke-width:1.0;" width="10" x="1451.5" y="801.5469"/><rect fill="#FFFFFF" height="28" style="stroke:#181818;stroke-width:1.0;" width="10" x="1451.5" y="874.8984"/><line style="stroke:#181818;stroke-width:0.5;stroke-dasharray:5.0,5.0;" x1="49" x2="49" y1="82.6094" y2="958.25"/><line style="stroke:#181818;stroke-width:0.5;stroke-dasharray:5.0,5.0;" x1="324.5" x2="324.5" y1="82.6094" y2="958.25"/><line style="stroke:#181818;stroke-width:0.5;stroke-dasharray:5.0,5.0;" x1="557.5" x2="557.5" y1="82.6094" y2="958.25"/><line style="stroke:#181818;stroke-width:0.5;stroke-dasharray:5.0,5.0;" x1="846.5" x2="846.5" y1="82.6094" y2="958.25"/><line style="stroke:#181818;stroke-width:0.5;stroke-dasharray:5.0,5.0;" x1="962.5" x2="962.5" y1="82.6094" y2="958.25"/><line style="stroke:#181818;stroke-width:0.5;stroke-dasharray:5.0,5.0;" x1="1113.5" x2="1113.5" y1="82.6094" y2="958.25"/><line style="stroke:#181818;stroke-width:0.5;stroke-dasharray:5.0,5.0;" x1="1298.5" x2="1298.5" y1="82.6094" y2="958.25"/><line style="stroke:#181818;stroke-width:0.5;stroke-dasharray:5.0,5.0;" x1="1451.5" x2="1451.5" y1="82.6094" y2="958.25"/><line style="stroke:#181818;stroke-width:0.5;stroke-dasharray:5.0,5.0;" x1="1634.5" x2="1634.5" y1="578.1328" y2="958.25"/><text fill="#000000" font-family="sans-serif" font-size="14" lengthAdjust="spacing" textLength="83" x="5" y="79.5332">Administrator</text><ellipse cx="49.5" cy="13.5" fill="#E2E2F0" rx="8" ry="8" style="stroke:#181818;stroke-width:0.5;"/><path d="M49.5,21.5 L49.5,48.5 M36.5,29.5 L62.5,29.5 M49.5,48.5 L36.5,63.5 M49.5,48.5 L62.5,63.5 " fill="none" style="stroke:#181818;stroke-width:0.5;"/><text fill="#000000" font-family="sans-serif" font-size="14" lengthAdjust="spacing" textLength="83" x="5" y="971.7832">Administrator</text><ellipse cx="49.5" cy="983.3594" fill="#E2E2F0" rx="8" ry="8" style="stroke:#181818;stroke-width:0.5;"/><path d="M49.5,991.3594 L49.5,1018.3594 M36.5,999.3594 L62.5,999.3594 M49.5,1018.3594 L36.5,1033.3594 M49.5,1018.3594 L62.5,1033.3594 " fill="none" style="stroke:#181818;stroke-width:0.5;"/><rect fill="#E2E2F0" height="31.6094" rx="2.5" ry="2.5" style="stroke:#181818;stroke-width:0.5;" width="80" x="284.5" y="50"/><text fill="#000000" font-family="sans-serif" font-size="14" lengthAdjust="spacing" textLength="66" x="291.5" y="71.5332">:VaccineUI</text><rect fill="#E2E2F0" height="31.6094" rx="2.5" ry="2.5" style="stroke:#181818;stroke-width:0.5;" width="80" x="284.5" y="957.25"/><text fill="#000000" font-family="sans-serif" font-size="14" lengthAdjust="spacing" textLength="66" x="291.5" y="978.7832">:VaccineUI</text><rect fill="#E2E2F0" height="31.6094" rx="2.5" ry="2.5" style="stroke:#181818;stroke-width:0.5;" width="130" x="492.5" y="50"/><text fill="#000000" font-family="sans-serif" font-size="14" lengthAdjust="spacing" textLength="116" x="499.5" y="71.5332">:VaccineController</text><rect fill="#E2E2F0" height="31.6094" rx="2.5" ry="2.5" style="stroke:#181818;stroke-width:0.5;" width="130" x="492.5" y="957.25"/><text fill="#000000" font-family="sans-serif" font-size="14" lengthAdjust="spacing" textLength="116" x="499.5" y="978.7832">:VaccineController</text><rect fill="#E2E2F0" height="31.6094" rx="2.5" ry="2.5" style="stroke:#181818;stroke-width:0.5;" width="78" x="807.5" y="50"/><text fill="#000000" font-family="sans-serif" font-size="14" lengthAdjust="spacing" textLength="64" x="814.5" y="71.5332">:Company</text><rect fill="#E2E2F0" height="31.6094" rx="2.5" ry="2.5" style="stroke:#181818;stroke-width:0.5;" width="78" x="807.5" y="957.25"/><text fill="#000000" font-family="sans-serif" font-size="14" lengthAdjust="spacing" textLength="64" x="814.5" y="978.7832">:Company</text><rect fill="#E2E2F0" height="31.6094" rx="2.5" ry="2.5" style="stroke:#181818;stroke-width:0.5;" width="134" x="895.5" y="50"/><text fill="#000000" font-family="sans-serif" font-size="14" lengthAdjust="spacing" textLength="120" x="902.5" y="71.5332">:VaccineTypeStore</text><rect fill="#E2E2F0" height="31.6094" rx="2.5" ry="2.5" style="stroke:#181818;stroke-width:0.5;" width="134" x="895.5" y="957.25"/><text fill="#000000" font-family="sans-serif" font-size="14" lengthAdjust="spacing" textLength="120" x="902.5" y="978.7832">:VaccineTypeStore</text><rect fill="#E2E2F0" height="31.6094" rx="2.5" ry="2.5" style="stroke:#181818;stroke-width:0.5;" width="148" x="1039.5" y="50"/><text fill="#000000" font-family="sans-serif" font-size="14" lengthAdjust="spacing" textLength="134" x="1046.5" y="71.5332">:VaccineTypeMapper</text><rect fill="#E2E2F0" height="31.6094" rx="2.5" ry="2.5" style="stroke:#181818;stroke-width:0.5;" width="148" x="1039.5" y="957.25"/><text fill="#000000" font-family="sans-serif" font-size="14" lengthAdjust="spacing" textLength="134" x="1046.5" y="978.7832">:VaccineTypeMapper</text><rect fill="#E2E2F0" height="31.6094" rx="2.5" ry="2.5" style="stroke:#181818;stroke-width:0.5;" width="184" x="1206.5" y="50"/><text fill="#000000" font-family="sans-serif" font-size="14" lengthAdjust="spacing" textLength="170" x="1213.5" y="71.5332">vacType:VaccineTypeDTO</text><rect fill="#E2E2F0" height="31.6094" rx="2.5" ry="2.5" style="stroke:#181818;stroke-width:0.5;" width="184" x="1206.5" y="957.25"/><text fill="#000000" font-family="sans-serif" font-size="14" lengthAdjust="spacing" textLength="170" x="1213.5" y="978.7832">vacType:VaccineTypeDTO</text><rect fill="#E2E2F0" height="31.6094" rx="2.5" ry="2.5" style="stroke:#181818;stroke-width:0.5;" width="102" x="1400.5" y="50"/><text fill="#000000" font-family="sans-serif" font-size="14" lengthAdjust="spacing" textLength="88" x="1407.5" y="71.5332">:VaccineStore</text><rect fill="#E2E2F0" height="31.6094" rx="2.5" ry="2.5" style="stroke:#181818;stroke-width:0.5;" width="102" x="1400.5" y="957.25"/><text fill="#000000" font-family="sans-serif" font-size="14" lengthAdjust="spacing" textLength="88" x="1407.5" y="978.7832">:VaccineStore</text><rect fill="#E2E2F0" height="31.6094" rx="2.5" ry="2.5" style="stroke:#181818;stroke-width:0.5;" width="90" x="1589.5" y="957.25"/><text fill="#000000" font-family="sans-serif" font-size="14" lengthAdjust="spacing" textLength="76" x="1596.5" y="978.7832">vac:Vaccine</text><rect fill="#FFFFFF" height="834.2891" style="stroke:#181818;stroke-width:1.0;" width="10" x="44.5" y="114.9609"/><rect fill="#FFFFFF" height="272.1094" style="stroke:#181818;stroke-width:1.0;" width="10" x="319.5" y="114.9609"/><rect fill="#FFFFFF" height="133.6641" style="stroke:#181818;stroke-width:1.0;" width="10" x="319.5" y="478.125"/><rect fill="#FFFFFF" height="298.1094" style="stroke:#181818;stroke-width:1.0;" width="10" x="319.5" y="642.1406"/><rect fill="#FFFFFF" height="211.4063" style="stroke:#181818;stroke-width:1.0;" width="10" x="552.5" y="145.3125"/><rect fill="#FFFFFF" height="103.3125" style="stroke:#181818;stroke-width:1.0;" width="10" x="552.5" y="508.4766"/><rect fill="#FFFFFF" height="267.7578" style="stroke:#181818;stroke-width:1.0;" width="10" x="552.5" y="672.4922"/><rect fill="#FFFFFF" height="30" style="stroke:#181818;stroke-width:1.0;" width="10" x="841.5" y="175.6641"/><rect fill="#FFFFFF" height="72.9609" style="stroke:#181818;stroke-width:1.0;" width="10" x="841.5" y="538.8281"/><rect fill="#FFFFFF" height="30" style="stroke:#181818;stroke-width:1.0;" width="10" x="841.5" y="702.8438"/><rect fill="#FFFFFF" height="30" style="stroke:#181818;stroke-width:1.0;" width="10" x="957.5" y="236.0156"/><rect fill="#FFFFFF" height="60.3516" style="stroke:#181818;stroke-width:1.0;" width="10" x="1108.5" y="296.3672"/><rect fill="#FFFFFF" height="30" style="stroke:#181818;stroke-width:1.0;" width="10" x="1293.5" y="326.7188"/><rect fill="#FFFFFF" height="186.0547" style="stroke:#181818;stroke-width:1.0;" width="10" x="1446.5" y="763.1953"/><rect fill="#FFFFFF" height="28" style="stroke:#181818;stroke-width:1.0;" width="10" x="1451.5" y="801.5469"/><rect fill="#FFFFFF" height="28" style="stroke:#181818;stroke-width:1.0;" width="10" x="1451.5" y="874.8984"/><polygon fill="#181818" points="307.5,110.9609,317.5,114.9609,307.5,118.9609,311.5,114.9609" style="stroke:#181818;stroke-width:1.0;"/><line style="stroke:#181818;stroke-width:1.0;" x1="54.5" x2="313.5" y1="114.9609" y2="114.9609"/><text fill="#000000" font-family="sans-serif" font-size="13" font-weight="bold" lengthAdjust="spacing" textLength="7" x="61.5" y="110.1045">1</text><text fill="#000000" font-family="sans-serif" font-size="13" lengthAdjust="spacing" textLength="173" x="72.5" y="110.1045">Requests list of vaccine types</text><polygon fill="#181818" points="540.5,141.3125,550.5,145.3125,540.5,149.3125,544.5,145.3125" style="stroke:#181818;stroke-width:1.0;"/><line style="stroke:#181818;stroke-width:1.0;" x1="329.5" x2="546.5" y1="145.3125" y2="145.3125"/><text fill="#000000" font-family="sans-serif" font-size="13" font-weight="bold" lengthAdjust="spacing" textLength="7" x="336.5" y="140.4561">2</text><text fill="#000000" font-family="sans-serif" font-size="13" lengthAdjust="spacing" textLength="193" x="347.5" y="140.4561">vaccineDTO = getVaccineTypes()</text><polygon fill="#181818" points="829.5,171.6641,839.5,175.6641,829.5,179.6641,833.5,175.6641" style="stroke:#181818;stroke-width:1.0;"/><line style="stroke:#181818;stroke-width:1.0;" x1="562.5" x2="835.5" y1="175.6641" y2="175.6641"/><text fill="#000000" font-family="sans-serif" font-size="13" font-weight="bold" lengthAdjust="spacing" textLength="7" x="569.5" y="170.8076">3</text><text fill="#000000" font-family="sans-serif" font-size="13" lengthAdjust="spacing" textLength="226" x="580.5" y="170.8076">vacTypeStore = getVaccineTypeStore()</text><polygon fill="#181818" points="945.5,232.0156,955.5,236.0156,945.5,240.0156,949.5,236.0156" style="stroke:#181818;stroke-width:1.0;"/><line style="stroke:#181818;stroke-width:1.0;" x1="562.5" x2="951.5" y1="236.0156" y2="236.0156"/><text fill="#000000" font-family="sans-serif" font-size="13" font-weight="bold" lengthAdjust="spacing" textLength="7" x="569.5" y="231.1592">4</text><text fill="#000000" font-family="sans-serif" font-size="13" lengthAdjust="spacing" textLength="171" x="580.5" y="231.1592">vacType = getVaccineTypes()</text><polygon fill="#181818" points="1096.5,292.3672,1106.5,296.3672,1096.5,300.3672,1100.5,296.3672" style="stroke:#181818;stroke-width:1.0;"/><line style="stroke:#181818;stroke-width:1.0;" x1="562.5" x2="1102.5" y1="296.3672" y2="296.3672"/><text fill="#000000" font-family="sans-serif" font-size="13" font-weight="bold" lengthAdjust="spacing" textLength="7" x="569.5" y="291.5107">5</text><text fill="#000000" font-family="sans-serif" font-size="13" lengthAdjust="spacing" textLength="232" x="580.5" y="291.5107">vacTypeDTO = toDTOVacType(vacType)</text><polygon fill="#181818" points="1281.5,322.7188,1291.5,326.7188,1281.5,330.7188,1285.5,326.7188" style="stroke:#181818;stroke-width:1.0;"/><line style="stroke:#181818;stroke-width:1.0;" x1="1118.5" x2="1287.5" y1="326.7188" y2="326.7188"/><text fill="#000000" font-family="sans-serif" font-size="13" font-weight="bold" lengthAdjust="spacing" textLength="7" x="1125.5" y="321.8623">6</text><text fill="#000000" font-family="sans-serif" font-size="13" lengthAdjust="spacing" textLength="145" x="1136.5" y="321.8623">createVaccineTypeDTO()</text><polygon fill="#181818" points="65.5,383.0703,55.5,387.0703,65.5,391.0703,61.5,387.0703" style="stroke:#181818;stroke-width:1.0;"/><line style="stroke:#181818;stroke-width:1.0;stroke-dasharray:2.0,2.0;" x1="59.5" x2="323.5" y1="387.0703" y2="387.0703"/><text fill="#000000" font-family="sans-serif" font-size="13" font-weight="bold" lengthAdjust="spacing" textLength="7" x="71.5" y="382.2139">7</text><text fill="#000000" font-family="sans-serif" font-size="13" lengthAdjust="spacing" textLength="201" x="82.5" y="382.2139">Requests selection of vaccine type</text><polygon fill="#181818" points="312.5,413.4219,322.5,417.4219,312.5,421.4219,316.5,417.4219" style="stroke:#181818;stroke-width:1.0;"/><line style="stroke:#181818;stroke-width:1.0;" x1="54.5" x2="318.5" y1="417.4219" y2="417.4219"/><text fill="#000000" font-family="sans-serif" font-size="13" font-weight="bold" lengthAdjust="spacing" textLength="7" x="61.5" y="412.5654">8</text><text fill="#000000" font-family="sans-serif" font-size="13" lengthAdjust="spacing" textLength="127" x="72.5" y="412.5654">Chooses vaccine type</text><polygon fill="#181818" points="65.5,443.7734,55.5,447.7734,65.5,451.7734,61.5,447.7734" style="stroke:#181818;stroke-width:1.0;"/><line style="stroke:#181818;stroke-width:1.0;stroke-dasharray:2.0,2.0;" x1="59.5" x2="323.5" y1="447.7734" y2="447.7734"/><text fill="#000000" font-family="sans-serif" font-size="13" font-weight="bold" lengthAdjust="spacing" textLength="7" x="71.5" y="442.917">9</text><text fill="#000000" font-family="sans-serif" font-size="13" lengthAdjust="spacing" textLength="235" x="82.5" y="442.917">Requests vaccine data (name, lot, id, ...)</text><polygon fill="#181818" points="307.5,474.125,317.5,478.125,307.5,482.125,311.5,478.125" style="stroke:#181818;stroke-width:1.0;"/><line style="stroke:#181818;stroke-width:1.0;" x1="54.5" x2="313.5" y1="478.125" y2="478.125"/><text fill="#000000" font-family="sans-serif" font-size="13" font-weight="bold" lengthAdjust="spacing" textLength="14" x="61.5" y="473.2686">10</text><text fill="#000000" font-family="sans-serif" font-size="13" lengthAdjust="spacing" textLength="125" x="79.5" y="473.2686">Types requested data</text><polygon fill="#181818" points="540.5,504.4766,550.5,508.4766,540.5,512.4766,544.5,508.4766" style="stroke:#181818;stroke-width:1.0;"/><line style="stroke:#181818;stroke-width:1.0;" x1="329.5" x2="546.5" y1="508.4766" y2="508.4766"/><text fill="#000000" font-family="sans-serif" font-size="13" font-weight="bold" lengthAdjust="spacing" textLength="14" x="336.5" y="503.6201">11</text><text fill="#000000" font-family="sans-serif" font-size="13" lengthAdjust="spacing" textLength="183" x="354.5" y="503.6201">createVaccine(name, lot, id, ...)</text><polygon fill="#181818" points="829.5,534.8281,839.5,538.8281,829.5,542.8281,833.5,538.8281" style="stroke:#181818;stroke-width:1.0;"/><line style="stroke:#181818;stroke-width:1.0;" x1="562.5" x2="835.5" y1="538.8281" y2="538.8281"/><text fill="#000000" font-family="sans-serif" font-size="13" font-weight="bold" lengthAdjust="spacing" textLength="14" x="569.5" y="533.9717">12</text><text fill="#000000" font-family="sans-serif" font-size="13" lengthAdjust="spacing" textLength="242" x="587.5" y="533.9717">vaccine = createVaccine(name, lot, id, ...)</text><polygon fill="#181818" points="1577.5,565.1797,1587.5,569.1797,1577.5,573.1797,1581.5,569.1797" style="stroke:#181818;stroke-width:1.0;"/><line style="stroke:#181818;stroke-width:1.0;" x1="851.5" x2="1583.5" y1="569.1797" y2="569.1797"/><text fill="#000000" font-family="sans-serif" font-size="13" font-weight="bold" lengthAdjust="spacing" textLength="14" x="858.5" y="564.3232">13</text><text fill="#000000" font-family="sans-serif" font-size="13" lengthAdjust="spacing" textLength="195" x="876.5" y="564.3232">vaccine = create(name, lot, id, ...)</text><rect fill="#E2E2F0" height="31.6094" rx="2.5" ry="2.5" style="stroke:#181818;stroke-width:0.5;" width="90" x="1589.5" y="546.8281"/><text fill="#000000" font-family="sans-serif" font-size="14" lengthAdjust="spacing" textLength="76" x="1596.5" y="568.3613">vac:Vaccine</text><polygon fill="#181818" points="65.5,607.7891,55.5,611.7891,65.5,615.7891,61.5,611.7891" style="stroke:#181818;stroke-width:1.0;"/><line style="stroke:#181818;stroke-width:1.0;stroke-dasharray:2.0,2.0;" x1="59.5" x2="323.5" y1="611.7891" y2="611.7891"/><text fill="#000000" font-family="sans-serif" font-size="13" font-weight="bold" lengthAdjust="spacing" textLength="14" x="71.5" y="606.9326">14</text><text fill="#000000" font-family="sans-serif" font-size="13" lengthAdjust="spacing" textLength="210" x="89.5" y="606.9326">Show data and asks for confirmation</text><polygon fill="#181818" points="307.5,638.1406,317.5,642.1406,307.5,646.1406,311.5,642.1406" style="stroke:#181818;stroke-width:1.0;"/><line style="stroke:#181818;stroke-width:1.0;" x1="54.5" x2="313.5" y1="642.1406" y2="642.1406"/><text fill="#000000" font-family="sans-serif" font-size="13" font-weight="bold" lengthAdjust="spacing" textLength="14" x="61.5" y="637.2842">15</text><text fill="#000000" font-family="sans-serif" font-size="13" lengthAdjust="spacing" textLength="102" x="79.5" y="637.2842">Confirms the data</text><polygon fill="#181818" points="540.5,668.4922,550.5,672.4922,540.5,676.4922,544.5,672.4922" style="stroke:#181818;stroke-width:1.0;"/><line style="stroke:#181818;stroke-width:1.0;" x1="329.5" x2="546.5" y1="672.4922" y2="672.4922"/><text fill="#000000" font-family="sans-serif" font-size="13" font-weight="bold" lengthAdjust="spacing" textLength="14" x="336.5" y="667.6357">16</text><text fill="#000000" font-family="sans-serif" font-size="13" lengthAdjust="spacing" textLength="81" x="354.5" y="667.6357">saveVaccine()</text><polygon fill="#181818" points="829.5,698.8438,839.5,702.8438,829.5,706.8438,833.5,702.8438" style="stroke:#181818;stroke-width:1.0;"/><line style="stroke:#181818;stroke-width:1.0;" x1="562.5" x2="835.5" y1="702.8438" y2="702.8438"/><text fill="#000000" font-family="sans-serif" font-size="13" font-weight="bold" lengthAdjust="spacing" textLength="14" x="569.5" y="697.9873">17</text><text fill="#000000" font-family="sans-serif" font-size="13" lengthAdjust="spacing" textLength="170" x="587.5" y="697.9873">vacStore = getVaccineStore()</text><polygon fill="#181818" points="1434.5,759.1953,1444.5,763.1953,1434.5,767.1953,1438.5,763.1953" style="stroke:#181818;stroke-width:1.0;"/><line style="stroke:#181818;stroke-width:1.0;" x1="562.5" x2="1440.5" y1="763.1953" y2="763.1953"/><text fill="#000000" font-family="sans-serif" font-size="13" font-weight="bold" lengthAdjust="spacing" textLength="14" x="569.5" y="758.3389">18</text><text fill="#000000" font-family="sans-serif" font-size="13" lengthAdjust="spacing" textLength="124" x="587.5" y="758.3389">saveVaccine(vaccine)</text><line style="stroke:#181818;stroke-width:1.0;" x1="1461.5" x2="1503.5" y1="793.5469" y2="793.5469"/><line style="stroke:#181818;stroke-width:1.0;" x1="1503.5" x2="1503.5" y1="793.5469" y2="806.5469"/><line style="stroke:#181818;stroke-width:1.0;" x1="1462.5" x2="1503.5" y1="806.5469" y2="806.5469"/><polygon fill="#181818" points="1472.5,802.5469,1462.5,806.5469,1472.5,810.5469,1468.5,806.5469" style="stroke:#181818;stroke-width:1.0;"/><text fill="#000000" font-family="sans-serif" font-size="13" font-weight="bold" lengthAdjust="spacing" textLength="14" x="1468.5" y="788.6904">19</text><text fill="#000000" font-family="sans-serif" font-size="13" lengthAdjust="spacing" textLength="141" x="1486.5" y="788.6904">validateVaccine(vaccine)</text><line style="stroke:#181818;stroke-width:1.0;" x1="1461.5" x2="1503.5" y1="866.8984" y2="866.8984"/><line style="stroke:#181818;stroke-width:1.0;" x1="1503.5" x2="1503.5" y1="866.8984" y2="879.8984"/><line style="stroke:#181818;stroke-width:1.0;" x1="1462.5" x2="1503.5" y1="879.8984" y2="879.8984"/><polygon fill="#181818" points="1472.5,875.8984,1462.5,879.8984,1472.5,883.8984,1468.5,879.8984" style="stroke:#181818;stroke-width:1.0;"/><text fill="#000000" font-family="sans-serif" font-size="13" font-weight="bold" lengthAdjust="spacing" textLength="14" x="1468.5" y="862.042">20</text><text fill="#000000" font-family="sans-serif" font-size="13" lengthAdjust="spacing" textLength="119" x="1486.5" y="862.042">addVaccine(vaccine)</text><polygon fill="#181818" points="65.5,936.25,55.5,940.25,65.5,944.25,61.5,940.25" style="stroke:#181818;stroke-width:1.0;"/><line style="stroke:#181818;stroke-width:1.0;stroke-dasharray:2.0,2.0;" x1="59.5" x2="323.5" y1="940.25" y2="940.25"/><text fill="#000000" font-family="sans-serif" font-size="13" font-weight="bold" lengthAdjust="spacing" textLength="14" x="71.5" y="935.3936">21</text><text fill="#000000" font-family="sans-serif" font-size="13" lengthAdjust="spacing" textLength="152" x="89.5" y="935.3936">Informs operation success</text><!--MD5=[6603ab405136a16d86bf9fdace0fc7fa]
@startuml
autonumber
actor "Administrator" as admin

participant ":VaccineUI" as ui
participant ":VaccineController" as controller
participant ":Company" as comp
participant ":VaccineTypeStore" as vtstore
participant ":VaccineTypeMapper" as vtmapper
participant "vacType:VaccineTypeDTO" as vtdto
participant ":VaccineStore" as vStore

admin -> ui ++: Requests list of vaccine types
activate admin

ui -> controller ++: vaccineDTO = getVaccineTypes()
controller -> comp ++: vacTypeStore = getVaccineTypeStore()
deactivate comp
controller -> vtstore ++: vacType = getVaccineTypes()
deactivate vtstore
controller -> vtmapper ++: vacTypeDTO = toDTOVacType(vacType)
vtmapper -> vtdto ++: createVaccineTypeDTO()
deactivate vtdto
deactivate vtmapper
deactivate controller
ui - -> admin : Requests selection of vaccine type
deactivate  ui

admin -> ui : Chooses vaccine type
ui - -> admin : Requests vaccine data (name, lot, id, ...)

admin -> ui ++: Types requested data
ui -> controller ++: createVaccine(name, lot, id, ...)
controller -> comp ++: vaccine = createVaccine(name, lot, id, ...)
create "vac:Vaccine" as vaccine
comp -> vaccine : vaccine = create(name, lot, id, ...)

ui - -> admin : Show data and asks for confirmation

deactivate comp
deactivate controller
deactivate ui

admin -> ui ++: Confirms the data
ui -> controller ++: saveVaccine()
controller -> comp ++: vacStore = getVaccineStore()
deactivate comp
controller -> vStore ++: saveVaccine(vaccine)
vStore -> vStore ++: validateVaccine(vaccine)
deactivate vStore
vStore -> vStore ++: addVaccine(vaccine)
deactivate vStore
ui - -> admin : Informs operation success
deactivate comp
deactivate controller
deactivate ui
@enduml

PlantUML version 1.2022.4(Sat Apr 09 14:29:17 BST 2022)
(GPL source distribution)
Java Runtime: OpenJDK Runtime Environment
JVM: OpenJDK 64-Bit Server VM
Default Encoding: Cp1252
Language: en
Country: GB
--></g></svg>