<?xml version="1.0" encoding="UTF-8" standalone="no"?><svg xmlns="http://www.w3.org/2000/svg" xmlns:xlink="http://www.w3.org/1999/xlink" contentStyleType="text/css" height="600px" preserveAspectRatio="none" style="width:1517px;height:600px;background:#FFFFFF;" version="1.1" viewBox="0 0 1517 600" width="1517px" zoomAndPan="magnify"><defs/><g><!--MD5=[7ab50a2bd096837550e4a3b49d8c864e]
class LoadCSVUI--><g id="elem_LoadCSVUI"><rect codeLine="1" fill="#F1F1F1" height="48" id="LoadCSVUI" rx="2.5" ry="2.5" style="stroke:#181818;stroke-width:0.5;" width="104" x="510" y="7"/><ellipse cx="525" cy="23" fill="#ADD1B2" rx="11" ry="11" style="stroke:#181818;stroke-width:1.0;"/><path d="M527,19.5 Q527.2031,19 527.4375,18.75 Q527.6719,18.5 527.9375,18.5 Q528.4063,18.5 528.7031,18.7813 Q529,19.0625 529,19.7188 L529,21.2813 Q529,21.9375 528.7188,22.2188 Q528.4375,22.5 528,22.5 Q527.6094,22.5 527.3594,22.3281 Q527.1094,22.1563 527,21.7031 Q526.9531,21.3906 526.7813,21.2188 Q526.4688,20.8906 525.9063,20.7031 Q525.3438,20.5 524.7813,20.5 Q524.0781,20.5 523.4844,20.7813 Q522.9063,21.0625 522.4531,21.6875 Q522,22.3125 522,23.1719 L522,24.0938 Q522,25.125 522.8438,25.8125 Q523.6875,26.5 525.1875,26.5 Q526.0781,26.5 526.7031,26.2969 Q527.0625,26.1875 527.4688,25.8281 Q527.7344,25.625 527.875,25.5625 Q528.0156,25.5 528.1875,25.5 Q528.5156,25.5 528.75,25.7656 Q529,26.0156 529,26.375 Q529,26.7188 528.6563,27.125 Q528.1563,27.7188 527.3594,28.0469 Q526.3125,28.5 525.0313,28.5 Q523.5313,28.5 522.3281,27.9063 Q521.3594,27.4375 520.6719,26.4219 Q520,25.4063 520,24.2031 L520,23.1094 Q520,21.8594 520.5938,20.7656 Q521.2031,19.6719 522.25,19.0938 Q523.3125,18.5 524.5,18.5 Q525.2188,18.5 525.8438,18.75 Q526.4688,19 527,19.5 Z " fill="#000000"/><text fill="#000000" font-family="sans-serif" font-size="14" lengthAdjust="spacing" textLength="72" x="539" y="28.7285">LoadCSVUI</text><line style="stroke:#181818;stroke-width:0.5;" x1="511" x2="613" y1="39" y2="39"/><line style="stroke:#181818;stroke-width:0.5;" x1="511" x2="613" y1="47" y2="47"/></g><!--MD5=[7ceb7033b3c1ff874813cbc84fb79212]
class LoadCSVController--><g id="elem_LoadCSVController"><rect codeLine="4" fill="#F1F1F1" height="100.8281" id="LoadCSVController" rx="2.5" ry="2.5" style="stroke:#181818;stroke-width:0.5;" width="154" x="485" y="116"/><ellipse cx="500" cy="132" fill="#ADD1B2" rx="11" ry="11" style="stroke:#181818;stroke-width:1.0;"/><path d="M502,128.5 Q502.2031,128 502.4375,127.75 Q502.6719,127.5 502.9375,127.5 Q503.4063,127.5 503.7031,127.7813 Q504,128.0625 504,128.7188 L504,130.2813 Q504,130.9375 503.7188,131.2188 Q503.4375,131.5 503,131.5 Q502.6094,131.5 502.3594,131.3281 Q502.1094,131.1563 502,130.7031 Q501.9531,130.3906 501.7813,130.2188 Q501.4688,129.8906 500.9063,129.7031 Q500.3438,129.5 499.7813,129.5 Q499.0781,129.5 498.4844,129.7813 Q497.9063,130.0625 497.4531,130.6875 Q497,131.3125 497,132.1719 L497,133.0938 Q497,134.125 497.8438,134.8125 Q498.6875,135.5 500.1875,135.5 Q501.0781,135.5 501.7031,135.2969 Q502.0625,135.1875 502.4688,134.8281 Q502.7344,134.625 502.875,134.5625 Q503.0156,134.5 503.1875,134.5 Q503.5156,134.5 503.75,134.7656 Q504,135.0156 504,135.375 Q504,135.7188 503.6563,136.125 Q503.1563,136.7188 502.3594,137.0469 Q501.3125,137.5 500.0313,137.5 Q498.5313,137.5 497.3281,136.9063 Q496.3594,136.4375 495.6719,135.4219 Q495,134.4063 495,133.2031 L495,132.1094 Q495,130.8594 495.5938,129.7656 Q496.2031,128.6719 497.25,128.0938 Q498.3125,127.5 499.5,127.5 Q500.2188,127.5 500.8438,127.75 Q501.4688,128 502,128.5 Z " fill="#000000"/><text fill="#000000" font-family="sans-serif" font-size="14" lengthAdjust="spacing" textLength="122" x="514" y="137.7285">LoadCSVController</text><line style="stroke:#181818;stroke-width:0.5;" x1="486" x2="638" y1="148" y2="148"/><line style="stroke:#181818;stroke-width:0.5;" x1="486" x2="638" y1="156" y2="156"/><ellipse cx="496" cy="167" fill="#84BE84" rx="3" ry="3" style="stroke:#038048;stroke-width:1.0;"/><text fill="#000000" font-family="sans-serif" font-size="14" lengthAdjust="spacing" textLength="93" x="505" y="174.5332">loadCSV(path)</text><ellipse cx="496" cy="184.6094" fill="#84BE84" rx="3" ry="3" style="stroke:#038048;stroke-width:1.0;"/><text fill="#000000" font-family="sans-serif" font-size="14" lengthAdjust="spacing" textLength="106" x="505" y="192.1426">identifyFile(path)</text><ellipse cx="496" cy="202.2188" fill="#84BE84" rx="3" ry="3" style="stroke:#038048;stroke-width:1.0;"/><text fill="#000000" font-family="sans-serif" font-size="14" lengthAdjust="spacing" textLength="110" x="505" y="209.752">validateFile(path)</text></g><!--MD5=[02e4b9b7573f1156f41e60aa5b4e25a4]
class Company--><g id="elem_Company"><rect codeLine="10" fill="#F1F1F1" height="83.2188" id="Company" rx="2.5" ry="2.5" style="stroke:#181818;stroke-width:0.5;" width="146" x="7" y="331"/><ellipse cx="46.3" cy="347" fill="#ADD1B2" rx="11" ry="11" style="stroke:#181818;stroke-width:1.0;"/><path d="M48.3,343.5 Q48.5031,343 48.7375,342.75 Q48.9719,342.5 49.2375,342.5 Q49.7063,342.5 50.0031,342.7813 Q50.3,343.0625 50.3,343.7188 L50.3,345.2813 Q50.3,345.9375 50.0188,346.2188 Q49.7375,346.5 49.3,346.5 Q48.9094,346.5 48.6594,346.3281 Q48.4094,346.1563 48.3,345.7031 Q48.2531,345.3906 48.0813,345.2188 Q47.7688,344.8906 47.2063,344.7031 Q46.6438,344.5 46.0813,344.5 Q45.3781,344.5 44.7844,344.7813 Q44.2063,345.0625 43.7531,345.6875 Q43.3,346.3125 43.3,347.1719 L43.3,348.0938 Q43.3,349.125 44.1438,349.8125 Q44.9875,350.5 46.4875,350.5 Q47.3781,350.5 48.0031,350.2969 Q48.3625,350.1875 48.7688,349.8281 Q49.0344,349.625 49.175,349.5625 Q49.3156,349.5 49.4875,349.5 Q49.8156,349.5 50.05,349.7656 Q50.3,350.0156 50.3,350.375 Q50.3,350.7188 49.9563,351.125 Q49.4563,351.7188 48.6594,352.0469 Q47.6125,352.5 46.3313,352.5 Q44.8313,352.5 43.6281,351.9063 Q42.6594,351.4375 41.9719,350.4219 Q41.3,349.4063 41.3,348.2031 L41.3,347.1094 Q41.3,345.8594 41.8938,344.7656 Q42.5031,343.6719 43.55,343.0938 Q44.6125,342.5 45.8,342.5 Q46.5188,342.5 47.1438,342.75 Q47.7688,343 48.3,343.5 Z " fill="#000000"/><text fill="#000000" font-family="sans-serif" font-size="14" lengthAdjust="spacing" textLength="60" x="65.7" y="352.7285">Company</text><line style="stroke:#181818;stroke-width:0.5;" x1="8" x2="152" y1="363" y2="363"/><line style="stroke:#181818;stroke-width:0.5;" x1="8" x2="152" y1="371" y2="371"/><ellipse cx="18" cy="382" fill="#84BE84" rx="3" ry="3" style="stroke:#038048;stroke-width:1.0;"/><text fill="#000000" font-family="sans-serif" font-size="14" lengthAdjust="spacing" textLength="120" x="27" y="389.5332">getSNSUserStore()</text><ellipse cx="18" cy="399.6094" fill="#84BE84" rx="3" ry="3" style="stroke:#038048;stroke-width:1.0;"/><text fill="#000000" font-family="sans-serif" font-size="14" lengthAdjust="spacing" textLength="107" x="27" y="407.1426">getAuthFacade()</text></g><!--MD5=[a5ad3856b0c65e07b10297b4477b22bb]
class SNSUserStore--><g id="elem_SNSUserStore"><rect codeLine="15" fill="#F1F1F1" height="83.2188" id="SNSUserStore" rx="2.5" ry="2.5" style="stroke:#181818;stroke-width:0.5;" width="676" x="224" y="331"/><ellipse cx="512.75" cy="347" fill="#ADD1B2" rx="11" ry="11" style="stroke:#181818;stroke-width:1.0;"/><path d="M514.75,343.5 Q514.9531,343 515.1875,342.75 Q515.4219,342.5 515.6875,342.5 Q516.1563,342.5 516.4531,342.7813 Q516.75,343.0625 516.75,343.7188 L516.75,345.2813 Q516.75,345.9375 516.4688,346.2188 Q516.1875,346.5 515.75,346.5 Q515.3594,346.5 515.1094,346.3281 Q514.8594,346.1563 514.75,345.7031 Q514.7031,345.3906 514.5313,345.2188 Q514.2188,344.8906 513.6563,344.7031 Q513.0938,344.5 512.5313,344.5 Q511.8281,344.5 511.2344,344.7813 Q510.6563,345.0625 510.2031,345.6875 Q509.75,346.3125 509.75,347.1719 L509.75,348.0938 Q509.75,349.125 510.5938,349.8125 Q511.4375,350.5 512.9375,350.5 Q513.8281,350.5 514.4531,350.2969 Q514.8125,350.1875 515.2188,349.8281 Q515.4844,349.625 515.625,349.5625 Q515.7656,349.5 515.9375,349.5 Q516.2656,349.5 516.5,349.7656 Q516.75,350.0156 516.75,350.375 Q516.75,350.7188 516.4063,351.125 Q515.9063,351.7188 515.1094,352.0469 Q514.0625,352.5 512.7813,352.5 Q511.2813,352.5 510.0781,351.9063 Q509.1094,351.4375 508.4219,350.4219 Q507.75,349.4063 507.75,348.2031 L507.75,347.1094 Q507.75,345.8594 508.3438,344.7656 Q508.9531,343.6719 510,343.0938 Q511.0625,342.5 512.25,342.5 Q512.9688,342.5 513.5938,342.75 Q514.2188,343 514.75,343.5 Z " fill="#000000"/><text fill="#000000" font-family="sans-serif" font-size="14" lengthAdjust="spacing" textLength="90" x="533.25" y="352.7285">SNSUserStore</text><line style="stroke:#181818;stroke-width:0.5;" x1="225" x2="899" y1="363" y2="363"/><line style="stroke:#181818;stroke-width:0.5;" x1="225" x2="899" y1="371" y2="371"/><ellipse cx="235" cy="382" fill="#84BE84" rx="3" ry="3" style="stroke:#038048;stroke-width:1.0;"/><text fill="#000000" font-family="sans-serif" font-size="14" lengthAdjust="spacing" textLength="650" x="244" y="389.5332">createUser(name,address,sex,phoneNumber,email,birthDate,SNSUserNumber,citizenCardNumber,auth)</text><ellipse cx="235" cy="399.6094" fill="#84BE84" rx="3" ry="3" style="stroke:#038048;stroke-width:1.0;"/><text fill="#000000" font-family="sans-serif" font-size="14" lengthAdjust="spacing" textLength="230" x="244" y="407.1426">validateUser(email,SNSUserNumber)</text></g><!--MD5=[72be06cc7ae02ccc98efe28a50e62246]
class SNSUser--><g id="elem_SNSUser"><rect codeLine="20" fill="#F1F1F1" height="188.875" id="SNSUser" rx="2.5" ry="2.5" style="stroke:#181818;stroke-width:0.5;" width="190" x="971" y="278"/><ellipse cx="1033.75" cy="294" fill="#ADD1B2" rx="11" ry="11" style="stroke:#181818;stroke-width:1.0;"/><path d="M1035.75,290.5 Q1035.9531,290 1036.1875,289.75 Q1036.4219,289.5 1036.6875,289.5 Q1037.1563,289.5 1037.4531,289.7813 Q1037.75,290.0625 1037.75,290.7188 L1037.75,292.2813 Q1037.75,292.9375 1037.4688,293.2188 Q1037.1875,293.5 1036.75,293.5 Q1036.3594,293.5 1036.1094,293.3281 Q1035.8594,293.1563 1035.75,292.7031 Q1035.7031,292.3906 1035.5313,292.2188 Q1035.2188,291.8906 1034.6563,291.7031 Q1034.0938,291.5 1033.5313,291.5 Q1032.8281,291.5 1032.2344,291.7813 Q1031.6563,292.0625 1031.2031,292.6875 Q1030.75,293.3125 1030.75,294.1719 L1030.75,295.0938 Q1030.75,296.125 1031.5938,296.8125 Q1032.4375,297.5 1033.9375,297.5 Q1034.8281,297.5 1035.4531,297.2969 Q1035.8125,297.1875 1036.2188,296.8281 Q1036.4844,296.625 1036.625,296.5625 Q1036.7656,296.5 1036.9375,296.5 Q1037.2656,296.5 1037.5,296.7656 Q1037.75,297.0156 1037.75,297.375 Q1037.75,297.7188 1037.4063,298.125 Q1036.9063,298.7188 1036.1094,299.0469 Q1035.0625,299.5 1033.7813,299.5 Q1032.2813,299.5 1031.0781,298.9063 Q1030.1094,298.4375 1029.4219,297.4219 Q1028.75,296.4063 1028.75,295.2031 L1028.75,294.1094 Q1028.75,292.8594 1029.3438,291.7656 Q1029.9531,290.6719 1031,290.0938 Q1032.0625,289.5 1033.25,289.5 Q1033.9688,289.5 1034.5938,289.75 Q1035.2188,290 1035.75,290.5 Z " fill="#000000"/><text fill="#000000" font-family="sans-serif" font-size="14" lengthAdjust="spacing" textLength="56" x="1054.25" y="299.7285">SNSUser</text><line style="stroke:#181818;stroke-width:0.5;" x1="972" x2="1160" y1="310" y2="310"/><rect fill="none" height="6" style="stroke:#C82930;stroke-width:1.0;" width="6" x="979" y="318"/><text fill="#000000" font-family="sans-serif" font-size="14" lengthAdjust="spacing" textLength="80" x="991" y="328.5332">name: String</text><rect fill="none" height="6" style="stroke:#C82930;stroke-width:1.0;" width="6" x="979" y="335.6094"/><text fill="#000000" font-family="sans-serif" font-size="14" lengthAdjust="spacing" textLength="96" x="991" y="346.1426">address: String</text><rect fill="none" height="6" style="stroke:#C82930;stroke-width:1.0;" width="6" x="979" y="353.2188"/><text fill="#000000" font-family="sans-serif" font-size="14" lengthAdjust="spacing" textLength="66" x="991" y="363.752">sex: String</text><rect fill="none" height="6" style="stroke:#C82930;stroke-width:1.0;" width="6" x="979" y="370.8281"/><text fill="#000000" font-family="sans-serif" font-size="14" lengthAdjust="spacing" textLength="134" x="991" y="381.3613">phoneNumber: String</text><rect fill="none" height="6" style="stroke:#C82930;stroke-width:1.0;" width="6" x="979" y="388.4375"/><text fill="#000000" font-family="sans-serif" font-size="14" lengthAdjust="spacing" textLength="78" x="991" y="398.9707">email: String</text><rect fill="none" height="6" style="stroke:#C82930;stroke-width:1.0;" width="6" x="979" y="406.0469"/><text fill="#000000" font-family="sans-serif" font-size="14" lengthAdjust="spacing" textLength="103" x="991" y="416.5801">birthDate: String</text><rect fill="none" height="6" style="stroke:#C82930;stroke-width:1.0;" width="6" x="979" y="423.6563"/><text fill="#000000" font-family="sans-serif" font-size="14" lengthAdjust="spacing" textLength="150" x="991" y="434.1895">SNSUserNumber: String</text><rect fill="none" height="6" style="stroke:#C82930;stroke-width:1.0;" width="6" x="979" y="441.2656"/><text fill="#000000" font-family="sans-serif" font-size="14" lengthAdjust="spacing" textLength="164" x="991" y="451.7988">citizenCardNumber: String</text><line style="stroke:#181818;stroke-width:0.5;" x1="972" x2="1160" y1="458.875" y2="458.875"/></g><!--MD5=[8ae808d068a8995f06b9b3ec51357f0b]
class AuthFacade--><g id="elem_AuthFacade"><rect codeLine="31" fill="#F1F1F1" height="65.6094" id="AuthFacade" rx="2.5" ry="2.5" style="stroke:#181818;stroke-width:0.5;" width="275" x="298.5" y="528"/><ellipse cx="393.25" cy="544" fill="#ADD1B2" rx="11" ry="11" style="stroke:#181818;stroke-width:1.0;"/><path d="M395.25,540.5 Q395.4531,540 395.6875,539.75 Q395.9219,539.5 396.1875,539.5 Q396.6563,539.5 396.9531,539.7813 Q397.25,540.0625 397.25,540.7188 L397.25,542.2813 Q397.25,542.9375 396.9688,543.2188 Q396.6875,543.5 396.25,543.5 Q395.8594,543.5 395.6094,543.3281 Q395.3594,543.1563 395.25,542.7031 Q395.2031,542.3906 395.0313,542.2188 Q394.7188,541.8906 394.1563,541.7031 Q393.5938,541.5 393.0313,541.5 Q392.3281,541.5 391.7344,541.7813 Q391.1563,542.0625 390.7031,542.6875 Q390.25,543.3125 390.25,544.1719 L390.25,545.0938 Q390.25,546.125 391.0938,546.8125 Q391.9375,547.5 393.4375,547.5 Q394.3281,547.5 394.9531,547.2969 Q395.3125,547.1875 395.7188,546.8281 Q395.9844,546.625 396.125,546.5625 Q396.2656,546.5 396.4375,546.5 Q396.7656,546.5 397,546.7656 Q397.25,547.0156 397.25,547.375 Q397.25,547.7188 396.9063,548.125 Q396.4063,548.7188 395.6094,549.0469 Q394.5625,549.5 393.2813,549.5 Q391.7813,549.5 390.5781,548.9063 Q389.6094,548.4375 388.9219,547.4219 Q388.25,546.4063 388.25,545.2031 L388.25,544.1094 Q388.25,542.8594 388.8438,541.7656 Q389.4531,540.6719 390.5,540.0938 Q391.5625,539.5 392.75,539.5 Q393.4688,539.5 394.0938,539.75 Q394.7188,540 395.25,540.5 Z " fill="#000000"/><text fill="#000000" font-family="sans-serif" font-size="14" lengthAdjust="spacing" textLength="77" x="413.75" y="549.7285">AuthFacade</text><line style="stroke:#181818;stroke-width:0.5;" x1="299.5" x2="572.5" y1="560" y2="560"/><line style="stroke:#181818;stroke-width:0.5;" x1="299.5" x2="572.5" y1="568" y2="568"/><ellipse cx="309.5" cy="579" fill="#84BE84" rx="3" ry="3" style="stroke:#038048;stroke-width:1.0;"/><text fill="#000000" font-family="sans-serif" font-size="14" lengthAdjust="spacing" textLength="249" x="318.5" y="586.5332">addUserWithRole(name,email,pwd,role)</text></g><!--MD5=[9a2889027d1a5f59ee05c53124f224f8]
class PasswordGenerator--><g id="elem_PasswordGenerator"><rect codeLine="35" fill="#F1F1F1" height="65.6094" id="PasswordGenerator" rx="2.5" ry="2.5" style="stroke:#181818;stroke-width:0.5;" width="158" x="609" y="528"/><ellipse cx="624" cy="544" fill="#ADD1B2" rx="11" ry="11" style="stroke:#181818;stroke-width:1.0;"/><path d="M626,540.5 Q626.2031,540 626.4375,539.75 Q626.6719,539.5 626.9375,539.5 Q627.4063,539.5 627.7031,539.7813 Q628,540.0625 628,540.7188 L628,542.2813 Q628,542.9375 627.7188,543.2188 Q627.4375,543.5 627,543.5 Q626.6094,543.5 626.3594,543.3281 Q626.1094,543.1563 626,542.7031 Q625.9531,542.3906 625.7813,542.2188 Q625.4688,541.8906 624.9063,541.7031 Q624.3438,541.5 623.7813,541.5 Q623.0781,541.5 622.4844,541.7813 Q621.9063,542.0625 621.4531,542.6875 Q621,543.3125 621,544.1719 L621,545.0938 Q621,546.125 621.8438,546.8125 Q622.6875,547.5 624.1875,547.5 Q625.0781,547.5 625.7031,547.2969 Q626.0625,547.1875 626.4688,546.8281 Q626.7344,546.625 626.875,546.5625 Q627.0156,546.5 627.1875,546.5 Q627.5156,546.5 627.75,546.7656 Q628,547.0156 628,547.375 Q628,547.7188 627.6563,548.125 Q627.1563,548.7188 626.3594,549.0469 Q625.3125,549.5 624.0313,549.5 Q622.5313,549.5 621.3281,548.9063 Q620.3594,548.4375 619.6719,547.4219 Q619,546.4063 619,545.2031 L619,544.1094 Q619,542.8594 619.5938,541.7656 Q620.2031,540.6719 621.25,540.0938 Q622.3125,539.5 623.5,539.5 Q624.2188,539.5 624.8438,539.75 Q625.4688,540 626,540.5 Z " fill="#000000"/><text fill="#000000" font-family="sans-serif" font-size="14" lengthAdjust="spacing" textLength="126" x="638" y="549.7285">PasswordGenerator</text><line style="stroke:#181818;stroke-width:0.5;" x1="610" x2="766" y1="560" y2="560"/><line style="stroke:#181818;stroke-width:0.5;" x1="610" x2="766" y1="568" y2="568"/><ellipse cx="620" cy="579" fill="#84BE84" rx="3" ry="3" style="stroke:#038048;stroke-width:1.0;"/><text fill="#000000" font-family="sans-serif" font-size="14" lengthAdjust="spacing" textLength="128" x="629" y="586.5332">generatePassword()</text></g><!--MD5=[7be1ba106cd0c498d55c36639e75ae5a]
class Validations--><g id="elem_Validations"><rect codeLine="39" fill="#F1F1F1" height="188.875" id="Validations" rx="2.5" ry="2.5" style="stroke:#181818;stroke-width:0.5;" width="314" x="1196" y="278"/><ellipse cx="1314.25" cy="294" fill="#ADD1B2" rx="11" ry="11" style="stroke:#181818;stroke-width:1.0;"/><path d="M1316.25,290.5 Q1316.4531,290 1316.6875,289.75 Q1316.9219,289.5 1317.1875,289.5 Q1317.6563,289.5 1317.9531,289.7813 Q1318.25,290.0625 1318.25,290.7188 L1318.25,292.2813 Q1318.25,292.9375 1317.9688,293.2188 Q1317.6875,293.5 1317.25,293.5 Q1316.8594,293.5 1316.6094,293.3281 Q1316.3594,293.1563 1316.25,292.7031 Q1316.2031,292.3906 1316.0313,292.2188 Q1315.7188,291.8906 1315.1563,291.7031 Q1314.5938,291.5 1314.0313,291.5 Q1313.3281,291.5 1312.7344,291.7813 Q1312.1563,292.0625 1311.7031,292.6875 Q1311.25,293.3125 1311.25,294.1719 L1311.25,295.0938 Q1311.25,296.125 1312.0938,296.8125 Q1312.9375,297.5 1314.4375,297.5 Q1315.3281,297.5 1315.9531,297.2969 Q1316.3125,297.1875 1316.7188,296.8281 Q1316.9844,296.625 1317.125,296.5625 Q1317.2656,296.5 1317.4375,296.5 Q1317.7656,296.5 1318,296.7656 Q1318.25,297.0156 1318.25,297.375 Q1318.25,297.7188 1317.9063,298.125 Q1317.4063,298.7188 1316.6094,299.0469 Q1315.5625,299.5 1314.2813,299.5 Q1312.7813,299.5 1311.5781,298.9063 Q1310.6094,298.4375 1309.9219,297.4219 Q1309.25,296.4063 1309.25,295.2031 L1309.25,294.1094 Q1309.25,292.8594 1309.8438,291.7656 Q1310.4531,290.6719 1311.5,290.0938 Q1312.5625,289.5 1313.75,289.5 Q1314.4688,289.5 1315.0938,289.75 Q1315.7188,290 1316.25,290.5 Z " fill="#000000"/><text fill="#000000" font-family="sans-serif" font-size="14" lengthAdjust="spacing" textLength="69" x="1334.75" y="299.7285">Validations</text><line style="stroke:#181818;stroke-width:0.5;" x1="1197" x2="1509" y1="310" y2="310"/><line style="stroke:#181818;stroke-width:0.5;" x1="1197" x2="1509" y1="318" y2="318"/><ellipse cx="1207" cy="329" fill="#84BE84" rx="3" ry="3" style="stroke:#038048;stroke-width:1.0;"/><text fill="#000000" font-family="sans-serif" font-size="14" lengthAdjust="spacing" textLength="118" x="1216" y="336.5332">checkName(name)</text><ellipse cx="1207" cy="346.6094" fill="#84BE84" rx="3" ry="3" style="stroke:#038048;stroke-width:1.0;"/><text fill="#000000" font-family="sans-serif" font-size="14" lengthAdjust="spacing" textLength="91" x="1216" y="354.1426">checkSex(sex)</text><ellipse cx="1207" cy="364.2188" fill="#84BE84" rx="3" ry="3" style="stroke:#038048;stroke-width:1.0;"/><text fill="#000000" font-family="sans-serif" font-size="14" lengthAdjust="spacing" textLength="164" x="1216" y="371.752">checkBirthDate(birthDate)</text><ellipse cx="1207" cy="381.8281" fill="#84BE84" rx="3" ry="3" style="stroke:#038048;stroke-width:1.0;"/><text fill="#000000" font-family="sans-serif" font-size="14" lengthAdjust="spacing" textLength="150" x="1216" y="389.3613">checkAddress(address)</text><ellipse cx="1207" cy="399.4375" fill="#84BE84" rx="3" ry="3" style="stroke:#038048;stroke-width:1.0;"/><text fill="#000000" font-family="sans-serif" font-size="14" lengthAdjust="spacing" textLength="226" x="1216" y="406.9707">checkPhoneNumber(phoneNumber)</text><ellipse cx="1207" cy="417.0469" fill="#84BE84" rx="3" ry="3" style="stroke:#038048;stroke-width:1.0;"/><text fill="#000000" font-family="sans-serif" font-size="14" lengthAdjust="spacing" textLength="114" x="1216" y="424.5801">checkEmail(email)</text><ellipse cx="1207" cy="434.6563" fill="#84BE84" rx="3" ry="3" style="stroke:#038048;stroke-width:1.0;"/><text fill="#000000" font-family="sans-serif" font-size="14" lengthAdjust="spacing" textLength="252" x="1216" y="442.1895">checkSNSUserNumber(snsUserNumber)</text><ellipse cx="1207" cy="452.2656" fill="#84BE84" rx="3" ry="3" style="stroke:#038048;stroke-width:1.0;"/><text fill="#000000" font-family="sans-serif" font-size="14" lengthAdjust="spacing" textLength="288" x="1216" y="459.7988">checkCitizenCardNumber(citizenCardNumber)</text></g><!--MD5=[2b188c7cc4822b9adb6999fad5e09590]
link LoadCSVUI to LoadCSVController--><g id="link_LoadCSVUI_LoadCSVController"><path codeLine="51" d="M562,55.25 C562,70.55 562,91.24 562,110.57 " fill="none" id="LoadCSVUI-to-LoadCSVController" style="stroke:#181818;stroke-width:1.0;stroke-dasharray:7.0,7.0;"/><polygon fill="#181818" points="562,115.98,566,106.98,562,110.98,558,106.98,562,115.98" style="stroke:#181818;stroke-width:1.0;"/></g><!--MD5=[e5714aa17dd3a37d20afce9b5d0b2be4]
link LoadCSVController to Company--><g id="link_LoadCSVController_Company"><path codeLine="52" d="M484.81,183.5 C410.69,200.67 296.89,231.87 206,278 C179.59,291.41 152.88,310.29 130.9,327.58 " fill="none" id="LoadCSVController-to-Company" style="stroke:#181818;stroke-width:1.0;stroke-dasharray:7.0,7.0;"/><polygon fill="#181818" points="126.85,330.79,136.3931,328.355,130.7751,327.6927,131.4374,322.0748,126.85,330.79" style="stroke:#181818;stroke-width:1.0;"/></g><!--MD5=[261758989ab6ac4a4f0b10272e99c6bd]
link LoadCSVController to Validations--><g id="link_LoadCSVController_Validations"><path codeLine="53" d="M639.48,173.49 C758.38,184.41 991.71,212.77 1179,278 C1182.96,279.38 1186.93,280.84 1190.92,282.37 " fill="none" id="LoadCSVController-to-Validations" style="stroke:#181818;stroke-width:1.0;stroke-dasharray:7.0,7.0;"/><polygon fill="#181818" points="1195.6,284.2,1188.6845,277.1874,1190.9459,282.3726,1185.7607,284.634,1195.6,284.2" style="stroke:#181818;stroke-width:1.0;"/></g><!--MD5=[f3dee79d0978af74da71eaa0dd9f85d2]
link LoadCSVController to SNSUserStore--><g id="link_LoadCSVController_SNSUserStore"><path codeLine="54" d="M562,217.14 C562,250.28 562,293.53 562,325.82 " fill="none" id="LoadCSVController-to-SNSUserStore" style="stroke:#181818;stroke-width:1.0;stroke-dasharray:7.0,7.0;"/><polygon fill="#181818" points="562,330.9,566,321.9,562,325.9,558,321.9,562,330.9" style="stroke:#181818;stroke-width:1.0;"/></g><!--MD5=[bc3349464b4fa8eddccb337858e655b4]
link SNSUserStore to AuthFacade--><g id="link_SNSUserStore_AuthFacade"><path codeLine="55" d="M534.35,414.43 C512.39,446.93 481.97,491.96 460.79,523.3 " fill="none" id="SNSUserStore-to-AuthFacade" style="stroke:#181818;stroke-width:1.0;stroke-dasharray:7.0,7.0;"/><polygon fill="#181818" points="457.74,527.83,466.0937,522.6132,460.5398,523.6874,459.4656,518.1335,457.74,527.83" style="stroke:#181818;stroke-width:1.0;"/></g><!--MD5=[b6e2ea40e00707054540f9b1c5529f61]
link SNSUserStore to PasswordGenerator--><g id="link_SNSUserStore_PasswordGenerator"><path codeLine="56" d="M589.65,414.43 C611.61,446.93 642.03,491.96 663.21,523.3 " fill="none" id="SNSUserStore-to-PasswordGenerator" style="stroke:#181818;stroke-width:1.0;stroke-dasharray:7.0,7.0;"/><polygon fill="#181818" points="666.26,527.83,664.5344,518.1335,663.4602,523.6874,657.9063,522.6132,666.26,527.83" style="stroke:#181818;stroke-width:1.0;"/></g><!--MD5=[1bd9080c7e199931e49bc5a1616681ac]
link Company to SNSUserStore--><g id="link_Company_SNSUserStore"><path codeLine="57" d="M153.21,372.5 C173.88,372.5 197.82,372.5 223.55,372.5 " fill="none" id="Company-SNSUserStore" style="stroke:#181818;stroke-width:1.0;"/><polygon fill="#000000" points="180.5,360.6758,171.4549,357.7369,171.4549,363.6147,180.5,360.6758" style="stroke:#000000;stroke-width:1.0;"/><text fill="#000000" font-family="sans-serif" font-size="13" lengthAdjust="spacing" textLength="21" x="184.5" y="365.9951">has</text><text fill="#000000" font-family="sans-serif" font-size="13" lengthAdjust="spacing" textLength="7" x="161.1207" y="369.177">1</text><text fill="#000000" font-family="sans-serif" font-size="13" lengthAdjust="spacing" textLength="7" x="208.5355" y="369.8092">1</text></g><!--MD5=[b01d27099955aced792f1ce85db49798]
link SNSUserStore to SNSUser--><g id="link_SNSUserStore_SNSUser"><path codeLine="58" d="M900.27,372.5 C925.47,372.5 949.36,372.5 970.74,372.5 " fill="none" id="SNSUserStore-SNSUser" style="stroke:#181818;stroke-width:1.0;"/><polygon fill="#000000" points="927.5,360.6758,918.4549,357.7369,918.4549,363.6147,927.5,360.6758" style="stroke:#000000;stroke-width:1.0;"/><text fill="#000000" font-family="sans-serif" font-size="13" lengthAdjust="spacing" textLength="21" x="931.5" y="365.9951">has</text><text fill="#000000" font-family="sans-serif" font-size="13" lengthAdjust="spacing" textLength="7" x="908.2802" y="369.8092">1</text><text fill="#000000" font-family="sans-serif" font-size="13" lengthAdjust="spacing" textLength="5" x="957.9498" y="369.3766">*</text></g><!--MD5=[ff2d9b13b3cbc276069df4034f17f524]
@startuml
class LoadCSVUI{
}

class LoadCSVController{
+loadCSV(path)
+identifyFile(path)
+validateFile(path)
}

class Company{
+getSNSUserStore()
+getAuthFacade()
}

class SNSUserStore{
+createUser(name,address,sex,phoneNumber,email,birthDate,SNSUserNumber,citizenCardNumber,auth)
+validateUser(email,SNSUserNumber)
}

class SNSUser{
- name: String
-address: String
-sex: String
-phoneNumber: String
-email: String
-birthDate: String
-SNSUserNumber: String
-citizenCardNumber: String
}

class AuthFacade{
+addUserWithRole(name,email,pwd,role)
}

class PasswordGenerator{
+generatePassword()
}

class Validations{
+checkName(name)
+checkSex(sex)
+checkBirthDate(birthDate)
+checkAddress(address)
+checkPhoneNumber(phoneNumber)
+checkEmail(email)
+checkSNSUserNumber(snsUserNumber)
+checkCitizenCardNumber(citizenCardNumber)
}


LoadCSVUI ..> LoadCSVController
LoadCSVController ..> Company
LoadCSVController ..> Validations
LoadCSVController ..> SNSUserStore
SNSUserStore ..> AuthFacade
SNSUserStore ..> PasswordGenerator
Company "1" -right- "1" SNSUserStore: has >
SNSUserStore "1" -right- "*" SNSUser: has >

@enduml

PlantUML version 1.2022.4(Sat Apr 09 14:29:17 BST 2022)
(GPL source distribution)
Java Runtime: OpenJDK Runtime Environment
JVM: OpenJDK 64-Bit Server VM
Default Encoding: Cp1252
Language: pt
Country: PT
--></g></svg>