<?xml version="1.0" encoding="UTF-8" standalone="no"?><svg xmlns="http://www.w3.org/2000/svg" xmlns:xlink="http://www.w3.org/1999/xlink" contentStyleType="text/css" height="1553px" preserveAspectRatio="none" style="width:1914px;height:1553px;background:#FFFFFF;" version="1.1" viewBox="0 0 1914 1553" width="1914px" zoomAndPan="magnify"><defs/><g><rect fill="#FFFFFF" height="1370.1953" style="stroke:#181818;stroke-width:1.0;" width="10" x="42" y="92.6094"/><rect fill="#FFFFFF" height="181.4063" style="stroke:#181818;stroke-width:1.0;" width="10" x="381" y="114.9609"/><rect fill="#FFFFFF" height="574.2188" style="stroke:#181818;stroke-width:1.0;" width="10" x="381" y="326.7188"/><rect fill="#FFFFFF" height="522.5156" style="stroke:#181818;stroke-width:1.0;" width="10" x="381" y="931.2891"/><rect fill="#FFFFFF" height="120.7031" style="stroke:#181818;stroke-width:1.0;" width="10" x="599" y="145.3125"/><rect fill="#FFFFFF" height="151.0547" style="stroke:#181818;stroke-width:1.0;" width="10" x="599" y="357.0703"/><rect fill="#FFFFFF" height="60.3516" style="stroke:#181818;stroke-width:1.0;" width="10" x="599" y="538.4766"/><rect fill="#FFFFFF" height="120.7031" style="stroke:#181818;stroke-width:1.0;" width="10" x="599" y="629.1797"/><rect fill="#FFFFFF" height="243.4063" style="stroke:#181818;stroke-width:1.0;" width="10" x="599" y="961.6406"/><rect fill="#FFFFFF" height="181.0547" style="stroke:#181818;stroke-width:1.0;" width="10" x="599" y="1242.3984"/><rect fill="#FFFFFF" height="30" style="stroke:#181818;stroke-width:1.0;" width="10" x="924" y="175.6641"/><rect fill="#FFFFFF" height="30" style="stroke:#181818;stroke-width:1.0;" width="10" x="924" y="387.4219"/><rect fill="#FFFFFF" height="30" style="stroke:#181818;stroke-width:1.0;" width="10" x="924" y="659.5313"/><rect fill="#FFFFFF" height="30" style="stroke:#181818;stroke-width:1.0;" width="10" x="1016.5" y="236.0156"/><rect fill="#FFFFFF" height="60.3516" style="stroke:#181818;stroke-width:1.0;" width="10" x="1124" y="447.7734"/><rect fill="#FFFFFF" height="30" style="stroke:#181818;stroke-width:1.0;" width="10" x="1296" y="478.125"/><rect fill="#FFFFFF" height="30" style="stroke:#181818;stroke-width:1.0;" width="10" x="1296" y="568.8281"/><rect fill="#FFFFFF" height="213.0547" style="stroke:#181818;stroke-width:1.0;" width="10" x="1296" y="991.9922"/><rect fill="#FFFFFF" height="28" style="stroke:#181818;stroke-width:1.0;" width="10" x="1301" y="1030.3438"/><rect fill="#FFFFFF" height="28" style="stroke:#181818;stroke-width:1.0;" width="10" x="1301" y="1103.6953"/><rect fill="#FFFFFF" height="28" style="stroke:#181818;stroke-width:1.0;" width="10" x="1301" y="1177.0469"/><rect fill="#FFFFFF" height="150.7031" style="stroke:#181818;stroke-width:1.0;" width="10" x="1488" y="719.8828"/><rect fill="#FFFFFF" height="30" style="stroke:#181818;stroke-width:1.0;" width="10" x="1661" y="780.2344"/><rect fill="#FFFFFF" height="30" style="stroke:#181818;stroke-width:1.0;" width="10" x="1661" y="840.5859"/><rect fill="#FFFFFF" height="30" style="stroke:#181818;stroke-width:1.0;" width="10" x="1772.5" y="1272.75"/><rect fill="#FFFFFF" height="30" style="stroke:#181818;stroke-width:1.0;" width="10" x="1857" y="1333.1016"/><rect fill="#FFFFFF" height="30" style="stroke:#181818;stroke-width:1.0;" width="10" x="1857" y="1393.4531"/><line style="stroke:#181818;stroke-width:0.5;stroke-dasharray:5.0,5.0;" x1="47" x2="47" y1="82.6094" y2="1471.8047"/><line style="stroke:#181818;stroke-width:0.5;stroke-dasharray:5.0,5.0;" x1="385.5" x2="385.5" y1="82.6094" y2="1471.8047"/><line style="stroke:#181818;stroke-width:0.5;stroke-dasharray:5.0,5.0;" x1="603.5" x2="603.5" y1="82.6094" y2="1471.8047"/><line style="stroke:#181818;stroke-width:0.5;stroke-dasharray:5.0,5.0;" x1="929" x2="929" y1="82.6094" y2="1471.8047"/><line style="stroke:#181818;stroke-width:0.5;stroke-dasharray:5.0,5.0;" x1="1021" x2="1021" y1="82.6094" y2="1471.8047"/><line style="stroke:#181818;stroke-width:0.5;stroke-dasharray:5.0,5.0;" x1="1129" x2="1129" y1="82.6094" y2="1471.8047"/><line style="stroke:#181818;stroke-width:0.5;stroke-dasharray:5.0,5.0;" x1="1301" x2="1301" y1="82.6094" y2="1471.8047"/><line style="stroke:#181818;stroke-width:0.5;stroke-dasharray:5.0,5.0;" x1="1493" x2="1493" y1="82.6094" y2="1471.8047"/><line style="stroke:#181818;stroke-width:0.5;stroke-dasharray:5.0,5.0;" x1="1666" x2="1666" y1="82.6094" y2="1471.8047"/><line style="stroke:#181818;stroke-width:0.5;stroke-dasharray:5.0,5.0;" x1="1777" x2="1777" y1="82.6094" y2="1471.8047"/><line style="stroke:#181818;stroke-width:0.5;stroke-dasharray:5.0,5.0;" x1="1862" x2="1862" y1="82.6094" y2="1471.8047"/><text fill="#000000" font-family="sans-serif" font-size="14" lengthAdjust="spacing" textLength="78" x="5" y="79.5332">Receptionist</text><ellipse cx="47" cy="13.5" fill="#E2E2F0" rx="8" ry="8" style="stroke:#181818;stroke-width:0.5;"/><path d="M47,21.5 L47,48.5 M34,29.5 L60,29.5 M47,48.5 L34,63.5 M47,48.5 L60,63.5 " fill="none" style="stroke:#181818;stroke-width:0.5;"/><text fill="#000000" font-family="sans-serif" font-size="14" lengthAdjust="spacing" textLength="78" x="5" y="1485.3379">Receptionist</text><ellipse cx="47" cy="1496.9141" fill="#E2E2F0" rx="8" ry="8" style="stroke:#181818;stroke-width:0.5;"/><path d="M47,1504.9141 L47,1531.9141 M34,1512.9141 L60,1512.9141 M47,1531.9141 L34,1546.9141 M47,1531.9141 L60,1546.9141 " fill="none" style="stroke:#181818;stroke-width:0.5;"/><rect fill="#E2E2F0" height="31.6094" rx="2.5" ry="2.5" style="stroke:#181818;stroke-width:0.5;" width="97" x="337.5" y="50"/><text fill="#000000" font-family="sans-serif" font-size="14" lengthAdjust="spacing" textLength="83" x="344.5" y="71.5332">ArrivalTimeUI</text><rect fill="#E2E2F0" height="31.6094" rx="2.5" ry="2.5" style="stroke:#181818;stroke-width:0.5;" width="97" x="337.5" y="1470.8047"/><text fill="#000000" font-family="sans-serif" font-size="14" lengthAdjust="spacing" textLength="83" x="344.5" y="1492.3379">ArrivalTimeUI</text><rect fill="#E2E2F0" height="31.6094" rx="2.5" ry="2.5" style="stroke:#181818;stroke-width:0.5;" width="147" x="530.5" y="50"/><text fill="#000000" font-family="sans-serif" font-size="14" lengthAdjust="spacing" textLength="133" x="537.5" y="71.5332">ArrivalTimeController</text><rect fill="#E2E2F0" height="31.6094" rx="2.5" ry="2.5" style="stroke:#181818;stroke-width:0.5;" width="147" x="530.5" y="1470.8047"/><text fill="#000000" font-family="sans-serif" font-size="14" lengthAdjust="spacing" textLength="133" x="537.5" y="1492.3379">ArrivalTimeController</text><rect fill="#E2E2F0" height="31.6094" rx="2.5" ry="2.5" style="stroke:#181818;stroke-width:0.5;" width="74" x="892" y="50"/><text fill="#000000" font-family="sans-serif" font-size="14" lengthAdjust="spacing" textLength="60" x="899" y="71.5332">Company</text><rect fill="#E2E2F0" height="31.6094" rx="2.5" ry="2.5" style="stroke:#181818;stroke-width:0.5;" width="74" x="892" y="1470.8047"/><text fill="#000000" font-family="sans-serif" font-size="14" lengthAdjust="spacing" textLength="60" x="899" y="1492.3379">Company</text><rect fill="#E2E2F0" height="31.6094" rx="2.5" ry="2.5" style="stroke:#181818;stroke-width:0.5;" width="91" x="976" y="50"/><text fill="#000000" font-family="sans-serif" font-size="14" lengthAdjust="spacing" textLength="77" x="983" y="71.5332">CenterStore</text><rect fill="#E2E2F0" height="31.6094" rx="2.5" ry="2.5" style="stroke:#181818;stroke-width:0.5;" width="91" x="976" y="1470.8047"/><text fill="#000000" font-family="sans-serif" font-size="14" lengthAdjust="spacing" textLength="77" x="983" y="1492.3379">CenterStore</text><rect fill="#E2E2F0" height="31.6094" rx="2.5" ry="2.5" style="stroke:#181818;stroke-width:0.5;" width="104" x="1077" y="50"/><text fill="#000000" font-family="sans-serif" font-size="14" lengthAdjust="spacing" textLength="90" x="1084" y="71.5332">SNSUserStore</text><rect fill="#E2E2F0" height="31.6094" rx="2.5" ry="2.5" style="stroke:#181818;stroke-width:0.5;" width="104" x="1077" y="1470.8047"/><text fill="#000000" font-family="sans-serif" font-size="14" lengthAdjust="spacing" textLength="90" x="1084" y="1492.3379">SNSUserStore</text><rect fill="#E2E2F0" height="31.6094" rx="2.5" ry="2.5" style="stroke:#181818;stroke-width:0.5;" width="70" x="1266" y="50"/><text fill="#000000" font-family="sans-serif" font-size="14" lengthAdjust="spacing" textLength="56" x="1273" y="71.5332">SNSUser</text><rect fill="#E2E2F0" height="31.6094" rx="2.5" ry="2.5" style="stroke:#181818;stroke-width:0.5;" width="70" x="1266" y="1470.8047"/><text fill="#000000" font-family="sans-serif" font-size="14" lengthAdjust="spacing" textLength="56" x="1273" y="1492.3379">SNSUser</text><rect fill="#E2E2F0" height="31.6094" rx="2.5" ry="2.5" style="stroke:#181818;stroke-width:0.5;" width="180" x="1403" y="50"/><text fill="#000000" font-family="sans-serif" font-size="14" lengthAdjust="spacing" textLength="166" x="1410" y="71.5332">VaccinationScheduleStore</text><rect fill="#E2E2F0" height="31.6094" rx="2.5" ry="2.5" style="stroke:#181818;stroke-width:0.5;" width="180" x="1403" y="1470.8047"/><text fill="#000000" font-family="sans-serif" font-size="14" lengthAdjust="spacing" textLength="166" x="1410" y="1492.3379">VaccinationScheduleStore</text><rect fill="#E2E2F0" height="31.6094" rx="2.5" ry="2.5" style="stroke:#181818;stroke-width:0.5;" width="146" x="1593" y="50"/><text fill="#000000" font-family="sans-serif" font-size="14" lengthAdjust="spacing" textLength="132" x="1600" y="71.5332">VaccinationSchedule</text><rect fill="#E2E2F0" height="31.6094" rx="2.5" ry="2.5" style="stroke:#181818;stroke-width:0.5;" width="146" x="1593" y="1470.8047"/><text fill="#000000" font-family="sans-serif" font-size="14" lengthAdjust="spacing" textLength="132" x="1600" y="1492.3379">VaccinationSchedule</text><rect fill="#E2E2F0" height="31.6094" rx="2.5" ry="2.5" style="stroke:#181818;stroke-width:0.5;" width="57" x="1749" y="50"/><text fill="#000000" font-family="sans-serif" font-size="14" lengthAdjust="spacing" textLength="43" x="1756" y="71.5332">Center</text><rect fill="#E2E2F0" height="31.6094" rx="2.5" ry="2.5" style="stroke:#181818;stroke-width:0.5;" width="57" x="1749" y="1470.8047"/><text fill="#000000" font-family="sans-serif" font-size="14" lengthAdjust="spacing" textLength="43" x="1756" y="1492.3379">Center</text><rect fill="#E2E2F0" height="31.6094" rx="2.5" ry="2.5" style="stroke:#181818;stroke-width:0.5;" width="92" x="1816" y="50"/><text fill="#000000" font-family="sans-serif" font-size="14" lengthAdjust="spacing" textLength="78" x="1823" y="71.5332">SNSUserList</text><rect fill="#E2E2F0" height="31.6094" rx="2.5" ry="2.5" style="stroke:#181818;stroke-width:0.5;" width="92" x="1816" y="1470.8047"/><text fill="#000000" font-family="sans-serif" font-size="14" lengthAdjust="spacing" textLength="78" x="1823" y="1492.3379">SNSUserList</text><rect fill="#FFFFFF" height="1370.1953" style="stroke:#181818;stroke-width:1.0;" width="10" x="42" y="92.6094"/><rect fill="#FFFFFF" height="181.4063" style="stroke:#181818;stroke-width:1.0;" width="10" x="381" y="114.9609"/><rect fill="#FFFFFF" height="574.2188" style="stroke:#181818;stroke-width:1.0;" width="10" x="381" y="326.7188"/><rect fill="#FFFFFF" height="522.5156" style="stroke:#181818;stroke-width:1.0;" width="10" x="381" y="931.2891"/><rect fill="#FFFFFF" height="120.7031" style="stroke:#181818;stroke-width:1.0;" width="10" x="599" y="145.3125"/><rect fill="#FFFFFF" height="151.0547" style="stroke:#181818;stroke-width:1.0;" width="10" x="599" y="357.0703"/><rect fill="#FFFFFF" height="60.3516" style="stroke:#181818;stroke-width:1.0;" width="10" x="599" y="538.4766"/><rect fill="#FFFFFF" height="120.7031" style="stroke:#181818;stroke-width:1.0;" width="10" x="599" y="629.1797"/><rect fill="#FFFFFF" height="243.4063" style="stroke:#181818;stroke-width:1.0;" width="10" x="599" y="961.6406"/><rect fill="#FFFFFF" height="181.0547" style="stroke:#181818;stroke-width:1.0;" width="10" x="599" y="1242.3984"/><rect fill="#FFFFFF" height="30" style="stroke:#181818;stroke-width:1.0;" width="10" x="924" y="175.6641"/><rect fill="#FFFFFF" height="30" style="stroke:#181818;stroke-width:1.0;" width="10" x="924" y="387.4219"/><rect fill="#FFFFFF" height="30" style="stroke:#181818;stroke-width:1.0;" width="10" x="924" y="659.5313"/><rect fill="#FFFFFF" height="30" style="stroke:#181818;stroke-width:1.0;" width="10" x="1016.5" y="236.0156"/><rect fill="#FFFFFF" height="60.3516" style="stroke:#181818;stroke-width:1.0;" width="10" x="1124" y="447.7734"/><rect fill="#FFFFFF" height="30" style="stroke:#181818;stroke-width:1.0;" width="10" x="1296" y="478.125"/><rect fill="#FFFFFF" height="30" style="stroke:#181818;stroke-width:1.0;" width="10" x="1296" y="568.8281"/><rect fill="#FFFFFF" height="213.0547" style="stroke:#181818;stroke-width:1.0;" width="10" x="1296" y="991.9922"/><rect fill="#FFFFFF" height="28" style="stroke:#181818;stroke-width:1.0;" width="10" x="1301" y="1030.3438"/><rect fill="#FFFFFF" height="28" style="stroke:#181818;stroke-width:1.0;" width="10" x="1301" y="1103.6953"/><rect fill="#FFFFFF" height="28" style="stroke:#181818;stroke-width:1.0;" width="10" x="1301" y="1177.0469"/><rect fill="#FFFFFF" height="150.7031" style="stroke:#181818;stroke-width:1.0;" width="10" x="1488" y="719.8828"/><rect fill="#FFFFFF" height="30" style="stroke:#181818;stroke-width:1.0;" width="10" x="1661" y="780.2344"/><rect fill="#FFFFFF" height="30" style="stroke:#181818;stroke-width:1.0;" width="10" x="1661" y="840.5859"/><rect fill="#FFFFFF" height="30" style="stroke:#181818;stroke-width:1.0;" width="10" x="1772.5" y="1272.75"/><rect fill="#FFFFFF" height="30" style="stroke:#181818;stroke-width:1.0;" width="10" x="1857" y="1333.1016"/><rect fill="#FFFFFF" height="30" style="stroke:#181818;stroke-width:1.0;" width="10" x="1857" y="1393.4531"/><polygon fill="#181818" points="369,110.9609,379,114.9609,369,118.9609,373,114.9609" style="stroke:#181818;stroke-width:1.0;"/><line style="stroke:#181818;stroke-width:1.0;" x1="52" x2="375" y1="114.9609" y2="114.9609"/><text fill="#000000" font-family="sans-serif" font-size="13" font-weight="bold" lengthAdjust="spacing" textLength="7" x="59" y="110.1045">1</text><text fill="#000000" font-family="sans-serif" font-size="13" lengthAdjust="spacing" textLength="299" x="70" y="110.1045">Starts registering the arrival time of an SNS session</text><polygon fill="#181818" points="587,141.3125,597,145.3125,587,149.3125,591,145.3125" style="stroke:#181818;stroke-width:1.0;"/><line style="stroke:#181818;stroke-width:1.0;" x1="391" x2="593" y1="145.3125" y2="145.3125"/><text fill="#000000" font-family="sans-serif" font-size="13" font-weight="bold" lengthAdjust="spacing" textLength="7" x="398" y="140.4561">2</text><text fill="#000000" font-family="sans-serif" font-size="13" lengthAdjust="spacing" textLength="178" x="409" y="140.4561">getCenterByIndex(centerIndex)</text><polygon fill="#181818" points="912,171.6641,922,175.6641,912,179.6641,916,175.6641" style="stroke:#181818;stroke-width:1.0;"/><line style="stroke:#181818;stroke-width:1.0;" x1="609" x2="918" y1="175.6641" y2="175.6641"/><text fill="#000000" font-family="sans-serif" font-size="13" font-weight="bold" lengthAdjust="spacing" textLength="7" x="616" y="170.8076">3</text><text fill="#000000" font-family="sans-serif" font-size="13" lengthAdjust="spacing" textLength="95" x="627" y="170.8076">getCenterStore()</text><polygon fill="#181818" points="1004.5,232.0156,1014.5,236.0156,1004.5,240.0156,1008.5,236.0156" style="stroke:#181818;stroke-width:1.0;"/><line style="stroke:#181818;stroke-width:1.0;" x1="609" x2="1010.5" y1="236.0156" y2="236.0156"/><text fill="#000000" font-family="sans-serif" font-size="13" font-weight="bold" lengthAdjust="spacing" textLength="7" x="616" y="231.1592">4</text><text fill="#000000" font-family="sans-serif" font-size="13" lengthAdjust="spacing" textLength="230" x="627" y="231.1592">center = getCenterByIndex(centerIndex)</text><polygon fill="#181818" points="63,292.3672,53,296.3672,63,300.3672,59,296.3672" style="stroke:#181818;stroke-width:1.0;"/><line style="stroke:#181818;stroke-width:1.0;stroke-dasharray:2.0,2.0;" x1="57" x2="385" y1="296.3672" y2="296.3672"/><text fill="#000000" font-family="sans-serif" font-size="13" font-weight="bold" lengthAdjust="spacing" textLength="7" x="69" y="291.5107">5</text><text fill="#000000" font-family="sans-serif" font-size="13" lengthAdjust="spacing" textLength="166" x="80" y="291.5107">Requests SNS User Number</text><polygon fill="#181818" points="369,322.7188,379,326.7188,369,330.7188,373,326.7188" style="stroke:#181818;stroke-width:1.0;"/><line style="stroke:#181818;stroke-width:1.0;" x1="52" x2="375" y1="326.7188" y2="326.7188"/><text fill="#000000" font-family="sans-serif" font-size="13" font-weight="bold" lengthAdjust="spacing" textLength="7" x="59" y="321.8623">6</text><text fill="#000000" font-family="sans-serif" font-size="13" lengthAdjust="spacing" textLength="146" x="70" y="321.8623">Types SNS User Number</text><polygon fill="#181818" points="587,353.0703,597,357.0703,587,361.0703,591,357.0703" style="stroke:#181818;stroke-width:1.0;"/><line style="stroke:#181818;stroke-width:1.0;" x1="391" x2="593" y1="357.0703" y2="357.0703"/><text fill="#000000" font-family="sans-serif" font-size="13" font-weight="bold" lengthAdjust="spacing" textLength="7" x="398" y="352.2139">7</text><text fill="#000000" font-family="sans-serif" font-size="13" lengthAdjust="spacing" textLength="171" x="409" y="352.2139">getSNSUserByNum(snsNum)</text><polygon fill="#181818" points="912,383.4219,922,387.4219,912,391.4219,916,387.4219" style="stroke:#181818;stroke-width:1.0;"/><line style="stroke:#181818;stroke-width:1.0;" x1="609" x2="918" y1="387.4219" y2="387.4219"/><text fill="#000000" font-family="sans-serif" font-size="13" font-weight="bold" lengthAdjust="spacing" textLength="7" x="616" y="382.5654">8</text><text fill="#000000" font-family="sans-serif" font-size="13" lengthAdjust="spacing" textLength="206" x="627" y="382.5654">snsUserStore = getSNSUserStore()</text><polygon fill="#181818" points="1112,443.7734,1122,447.7734,1112,451.7734,1116,447.7734" style="stroke:#181818;stroke-width:1.0;"/><line style="stroke:#181818;stroke-width:1.0;" x1="609" x2="1118" y1="447.7734" y2="447.7734"/><text fill="#000000" font-family="sans-serif" font-size="13" font-weight="bold" lengthAdjust="spacing" textLength="7" x="616" y="442.917">9</text><text fill="#000000" font-family="sans-serif" font-size="13" lengthAdjust="spacing" textLength="235" x="627" y="442.917">snsUser = getSNSUserByNum(snsNum)</text><polygon fill="#181818" points="1284,474.125,1294,478.125,1284,482.125,1288,478.125" style="stroke:#181818;stroke-width:1.0;"/><line style="stroke:#181818;stroke-width:1.0;" x1="1134" x2="1290" y1="478.125" y2="478.125"/><text fill="#000000" font-family="sans-serif" font-size="13" font-weight="bold" lengthAdjust="spacing" textLength="14" x="1141" y="473.2686">10</text><text fill="#000000" font-family="sans-serif" font-size="13" lengthAdjust="spacing" textLength="125" x="1159" y="473.2686">getSNSUserNumber()</text><polygon fill="#181818" points="587,534.4766,597,538.4766,587,542.4766,591,538.4766" style="stroke:#181818;stroke-width:1.0;"/><line style="stroke:#181818;stroke-width:1.0;" x1="391" x2="593" y1="538.4766" y2="538.4766"/><text fill="#000000" font-family="sans-serif" font-size="13" font-weight="bold" lengthAdjust="spacing" textLength="14" x="398" y="533.6201">11</text><text fill="#000000" font-family="sans-serif" font-size="13" lengthAdjust="spacing" textLength="138" x="416" y="533.6201">validateDate(arrivalDate)</text><polygon fill="#181818" points="1284,564.8281,1294,568.8281,1284,572.8281,1288,568.8281" style="stroke:#181818;stroke-width:1.0;"/><line style="stroke:#181818;stroke-width:1.0;" x1="609" x2="1290" y1="568.8281" y2="568.8281"/><text fill="#000000" font-family="sans-serif" font-size="13" font-weight="bold" lengthAdjust="spacing" textLength="14" x="616" y="563.9717">12</text><text fill="#000000" font-family="sans-serif" font-size="13" lengthAdjust="spacing" textLength="138" x="634" y="563.9717">validateDate(arrivalDate)</text><polygon fill="#181818" points="587,625.1797,597,629.1797,587,633.1797,591,629.1797" style="stroke:#181818;stroke-width:1.0;"/><line style="stroke:#181818;stroke-width:1.0;" x1="391" x2="593" y1="629.1797" y2="629.1797"/><text fill="#000000" font-family="sans-serif" font-size="13" font-weight="bold" lengthAdjust="spacing" textLength="14" x="398" y="624.3232">13</text><text fill="#000000" font-family="sans-serif" font-size="13" lengthAdjust="spacing" textLength="129" x="416" y="624.3232">checkSchedule(today)</text><polygon fill="#181818" points="912,655.5313,922,659.5313,912,663.5313,916,659.5313" style="stroke:#181818;stroke-width:1.0;"/><line style="stroke:#181818;stroke-width:1.0;" x1="609" x2="918" y1="659.5313" y2="659.5313"/><text fill="#000000" font-family="sans-serif" font-size="13" font-weight="bold" lengthAdjust="spacing" textLength="14" x="616" y="654.6748">14</text><text fill="#000000" font-family="sans-serif" font-size="13" lengthAdjust="spacing" textLength="278" x="634" y="654.6748">scheduleStore = getVaccinationScheduleStore()</text><polygon fill="#181818" points="1476,715.8828,1486,719.8828,1476,723.8828,1480,719.8828" style="stroke:#181818;stroke-width:1.0;"/><line style="stroke:#181818;stroke-width:1.0;" x1="609" x2="1482" y1="719.8828" y2="719.8828"/><text fill="#000000" font-family="sans-serif" font-size="13" font-weight="bold" lengthAdjust="spacing" textLength="14" x="616" y="715.0264">15</text><text fill="#000000" font-family="sans-serif" font-size="13" lengthAdjust="spacing" textLength="185" x="634" y="715.0264">checkSchedule(snsUser, today)</text><polygon fill="#181818" points="1649,776.2344,1659,780.2344,1649,784.2344,1653,780.2344" style="stroke:#181818;stroke-width:1.0;"/><line style="stroke:#181818;stroke-width:1.0;" x1="1498" x2="1655" y1="780.2344" y2="780.2344"/><text fill="#000000" font-family="sans-serif" font-size="13" font-weight="bold" lengthAdjust="spacing" textLength="14" x="1505" y="775.3779">16</text><text fill="#000000" font-family="sans-serif" font-size="13" lengthAdjust="spacing" textLength="125" x="1523" y="775.3779">getSNSUserNumber()</text><polygon fill="#181818" points="1649,836.5859,1659,840.5859,1649,844.5859,1653,840.5859" style="stroke:#181818;stroke-width:1.0;"/><line style="stroke:#181818;stroke-width:1.0;" x1="1498" x2="1655" y1="840.5859" y2="840.5859"/><text fill="#000000" font-family="sans-serif" font-size="13" font-weight="bold" lengthAdjust="spacing" textLength="14" x="1505" y="835.7295">17</text><text fill="#000000" font-family="sans-serif" font-size="13" lengthAdjust="spacing" textLength="53" x="1523" y="835.7295">getDate()</text><polygon fill="#181818" points="63,896.9375,53,900.9375,63,904.9375,59,900.9375" style="stroke:#181818;stroke-width:1.0;"/><line style="stroke:#181818;stroke-width:1.0;stroke-dasharray:2.0,2.0;" x1="57" x2="385" y1="900.9375" y2="900.9375"/><text fill="#000000" font-family="sans-serif" font-size="13" font-weight="bold" lengthAdjust="spacing" textLength="14" x="69" y="896.0811">18</text><text fill="#000000" font-family="sans-serif" font-size="13" lengthAdjust="spacing" textLength="217" x="87" y="896.0811">Shows data and asks for confirmation</text><polygon fill="#181818" points="369,927.2891,379,931.2891,369,935.2891,373,931.2891" style="stroke:#181818;stroke-width:1.0;"/><line style="stroke:#181818;stroke-width:1.0;" x1="52" x2="375" y1="931.2891" y2="931.2891"/><text fill="#000000" font-family="sans-serif" font-size="13" font-weight="bold" lengthAdjust="spacing" textLength="14" x="59" y="926.4326">19</text><text fill="#000000" font-family="sans-serif" font-size="13" lengthAdjust="spacing" textLength="102" x="77" y="926.4326">Confirms the data</text><polygon fill="#181818" points="587,957.6406,597,961.6406,587,965.6406,591,961.6406" style="stroke:#181818;stroke-width:1.0;"/><line style="stroke:#181818;stroke-width:1.0;" x1="391" x2="593" y1="961.6406" y2="961.6406"/><text fill="#000000" font-family="sans-serif" font-size="13" font-weight="bold" lengthAdjust="spacing" textLength="14" x="398" y="956.7842">20</text><text fill="#000000" font-family="sans-serif" font-size="13" lengthAdjust="spacing" textLength="161" x="416" y="956.7842">saveArrival(now, arrivalTime)</text><polygon fill="#181818" points="1284,987.9922,1294,991.9922,1284,995.9922,1288,991.9922" style="stroke:#181818;stroke-width:1.0;"/><line style="stroke:#181818;stroke-width:1.0;" x1="609" x2="1290" y1="991.9922" y2="991.9922"/><text fill="#000000" font-family="sans-serif" font-size="13" font-weight="bold" lengthAdjust="spacing" textLength="14" x="616" y="987.1357">21</text><text fill="#000000" font-family="sans-serif" font-size="13" lengthAdjust="spacing" textLength="197" x="634" y="987.1357">setArrival(now, arrivalTime, center)</text><line style="stroke:#181818;stroke-width:1.0;" x1="1311" x2="1353" y1="1022.3438" y2="1022.3438"/><line style="stroke:#181818;stroke-width:1.0;" x1="1353" x2="1353" y1="1022.3438" y2="1035.3438"/><line style="stroke:#181818;stroke-width:1.0;" x1="1312" x2="1353" y1="1035.3438" y2="1035.3438"/><polygon fill="#181818" points="1322,1031.3438,1312,1035.3438,1322,1039.3438,1318,1035.3438" style="stroke:#181818;stroke-width:1.0;"/><text fill="#000000" font-family="sans-serif" font-size="13" font-weight="bold" lengthAdjust="spacing" textLength="14" x="1318" y="1017.4873">22</text><text fill="#000000" font-family="sans-serif" font-size="13" lengthAdjust="spacing" textLength="111" x="1336" y="1017.4873">setArrivalDate(now)</text><line style="stroke:#181818;stroke-width:1.0;" x1="1311" x2="1353" y1="1095.6953" y2="1095.6953"/><line style="stroke:#181818;stroke-width:1.0;" x1="1353" x2="1353" y1="1095.6953" y2="1108.6953"/><line style="stroke:#181818;stroke-width:1.0;" x1="1312" x2="1353" y1="1108.6953" y2="1108.6953"/><polygon fill="#181818" points="1322,1104.6953,1312,1108.6953,1322,1112.6953,1318,1108.6953" style="stroke:#181818;stroke-width:1.0;"/><text fill="#000000" font-family="sans-serif" font-size="13" font-weight="bold" lengthAdjust="spacing" textLength="14" x="1318" y="1090.8389">23</text><text fill="#000000" font-family="sans-serif" font-size="13" lengthAdjust="spacing" textLength="150" x="1336" y="1090.8389">setArrivalTime(arrivalTime)</text><line style="stroke:#181818;stroke-width:1.0;" x1="1311" x2="1353" y1="1169.0469" y2="1169.0469"/><line style="stroke:#181818;stroke-width:1.0;" x1="1353" x2="1353" y1="1169.0469" y2="1182.0469"/><line style="stroke:#181818;stroke-width:1.0;" x1="1312" x2="1353" y1="1182.0469" y2="1182.0469"/><polygon fill="#181818" points="1322,1178.0469,1312,1182.0469,1322,1186.0469,1318,1182.0469" style="stroke:#181818;stroke-width:1.0;"/><text fill="#000000" font-family="sans-serif" font-size="13" font-weight="bold" lengthAdjust="spacing" textLength="14" x="1318" y="1164.1904">24</text><text fill="#000000" font-family="sans-serif" font-size="13" lengthAdjust="spacing" textLength="135" x="1336" y="1164.1904">setArrivalCenter(center)</text><polygon fill="#181818" points="587,1238.3984,597,1242.3984,587,1246.3984,591,1242.3984" style="stroke:#181818;stroke-width:1.0;"/><line style="stroke:#181818;stroke-width:1.0;" x1="391" x2="593" y1="1242.3984" y2="1242.3984"/><text fill="#000000" font-family="sans-serif" font-size="13" font-weight="bold" lengthAdjust="spacing" textLength="14" x="398" y="1237.542">25</text><text fill="#000000" font-family="sans-serif" font-size="13" lengthAdjust="spacing" textLength="108" x="416" y="1237.542">addToWaitingList()</text><polygon fill="#181818" points="1760.5,1268.75,1770.5,1272.75,1760.5,1276.75,1764.5,1272.75" style="stroke:#181818;stroke-width:1.0;"/><line style="stroke:#181818;stroke-width:1.0;" x1="609" x2="1766.5" y1="1272.75" y2="1272.75"/><text fill="#000000" font-family="sans-serif" font-size="13" font-weight="bold" lengthAdjust="spacing" textLength="14" x="616" y="1267.8936">26</text><text fill="#000000" font-family="sans-serif" font-size="13" lengthAdjust="spacing" textLength="91" x="634" y="1267.8936">getWaitingList()</text><polygon fill="#181818" points="1845,1329.1016,1855,1333.1016,1845,1337.1016,1849,1333.1016" style="stroke:#181818;stroke-width:1.0;"/><line style="stroke:#181818;stroke-width:1.0;" x1="609" x2="1851" y1="1333.1016" y2="1333.1016"/><text fill="#000000" font-family="sans-serif" font-size="13" font-weight="bold" lengthAdjust="spacing" textLength="14" x="616" y="1328.2451">27</text><text fill="#000000" font-family="sans-serif" font-size="13" lengthAdjust="spacing" textLength="159" x="634" y="1328.2451">containsSNSUser(snsUser)</text><polygon fill="#181818" points="1845,1389.4531,1855,1393.4531,1845,1397.4531,1849,1393.4531" style="stroke:#181818;stroke-width:1.0;"/><line style="stroke:#181818;stroke-width:1.0;" x1="609" x2="1851" y1="1393.4531" y2="1393.4531"/><text fill="#000000" font-family="sans-serif" font-size="13" font-weight="bold" lengthAdjust="spacing" textLength="14" x="616" y="1388.5967">28</text><text fill="#000000" font-family="sans-serif" font-size="13" lengthAdjust="spacing" textLength="77" x="634" y="1388.5967">add(snsUser)</text><polygon fill="#181818" points="63,1449.8047,53,1453.8047,63,1457.8047,59,1453.8047" style="stroke:#181818;stroke-width:1.0;"/><line style="stroke:#181818;stroke-width:1.0;stroke-dasharray:2.0,2.0;" x1="57" x2="385" y1="1453.8047" y2="1453.8047"/><text fill="#000000" font-family="sans-serif" font-size="13" font-weight="bold" lengthAdjust="spacing" textLength="14" x="69" y="1448.9482">29</text><text fill="#000000" font-family="sans-serif" font-size="13" lengthAdjust="spacing" textLength="170" x="87" y="1448.9482">Informs operation (in)success</text><!--MD5=[6ce37013ff18e5cd678e9f602e2f88d2]
@startuml

autonumber

actor "Receptionist" as recep
participant "ArrivalTimeUI" as ui
participant "ArrivalTimeController" as controller
participant "Company" as company
participant "CenterStore" as centerStore
participant "SNSUserStore" as snsStore
participant "SNSUser" as snsUser
participant "VaccinationScheduleStore" as schedStore
participant "VaccinationSchedule" as vacSched
participant "Center" as center
participant "SNSUserList" as userList

activate recep
recep -> ui++: Starts registering the arrival time of an SNS session
ui -> controller++: getCenterByIndex(centerIndex)
controller -> company++: getCenterStore()
company- -
controller -> centerStore++: center = getCenterByIndex(centerIndex)
centerStore- -
controller- -
ui - -> recep- -: Requests SNS User Number

recep -> ui++: Types SNS User Number
ui -> controller++: getSNSUserByNum(snsNum)
controller -> company++: snsUserStore = getSNSUserStore()
company- -
controller -> snsStore++: snsUser = getSNSUserByNum(snsNum)
snsStore -> snsUser++- -: getSNSUserNumber()
snsUser- -
controller- -
ui -> controller++: validateDate(arrivalDate)
controller -> snsUser++: validateDate(arrivalDate)
snsUser- -
controller- -
ui -> controller++: checkSchedule(today)
controller -> company++: scheduleStore = getVaccinationScheduleStore()
company- -
controller -> schedStore++- -: checkSchedule(snsUser, today)
schedStore -> vacSched++: getSNSUserNumber()
vacSched- -
schedStore -> vacSched++:getDate()
vacSched- -
schedStore- -
ui - -> recep: Shows data and asks for confirmation
ui- -

recep -> ui++: Confirms the data
ui -> controller++: saveArrival(now, arrivalTime)
controller -> snsUser++: setArrival(now, arrivalTime, center)
snsUser -> snsUser++: setArrivalDate(now)
snsUser- -
snsUser -> snsUser++: setArrivalTime(arrivalTime)
snsUser- -
snsUser -> snsUser++: setArrivalCenter(center)
snsUser- -
snsUser- -
controller- -
ui -> controller++: addToWaitingList()
controller -> center++: getWaitingList()
center- -
controller -> userList++: containsSNSUser(snsUser)
userList- -
controller -> userList++: add(snsUser)
userList- -
controller- -
ui - -> recep- -: Informs operation (in)success
ui- -

@enduml

PlantUML version 1.2022.4(Sat Apr 09 14:29:17 BST 2022)
(GPL source distribution)
Java Runtime: OpenJDK Runtime Environment
JVM: OpenJDK 64-Bit Server VM
Default Encoding: Cp1252
Language: en
Country: GB
--></g></svg>