<?xml version="1.0" encoding="UTF-8" standalone="no"?><svg xmlns="http://www.w3.org/2000/svg" xmlns:xlink="http://www.w3.org/1999/xlink" contentStyleType="text/css" height="1710px" preserveAspectRatio="none" style="width:1217px;height:1710px;background:#FFFFFF;" version="1.1" viewBox="0 0 1217 1710" width="1217px" zoomAndPan="magnify"><defs/><g><!--MD5=[7b806713327d8b3141b26157fe4990fd]
class ArrivalTimeUI--><g id="elem_ArrivalTimeUI"><rect codeLine="1" fill="#F1F1F1" height="48" id="ArrivalTimeUI" rx="2.5" ry="2.5" style="stroke:#181818;stroke-width:0.5;" width="115" x="363.5" y="7"/><ellipse cx="378.5" cy="23" fill="#ADD1B2" rx="11" ry="11" style="stroke:#181818;stroke-width:1.0;"/><path d="M380.5,19.5 Q380.7031,19 380.9375,18.75 Q381.1719,18.5 381.4375,18.5 Q381.9063,18.5 382.2031,18.7813 Q382.5,19.0625 382.5,19.7188 L382.5,21.2813 Q382.5,21.9375 382.2188,22.2188 Q381.9375,22.5 381.5,22.5 Q381.1094,22.5 380.8594,22.3281 Q380.6094,22.1563 380.5,21.7031 Q380.4531,21.3906 380.2813,21.2188 Q379.9688,20.8906 379.4063,20.7031 Q378.8438,20.5 378.2813,20.5 Q377.5781,20.5 376.9844,20.7813 Q376.4063,21.0625 375.9531,21.6875 Q375.5,22.3125 375.5,23.1719 L375.5,24.0938 Q375.5,25.125 376.3438,25.8125 Q377.1875,26.5 378.6875,26.5 Q379.5781,26.5 380.2031,26.2969 Q380.5625,26.1875 380.9688,25.8281 Q381.2344,25.625 381.375,25.5625 Q381.5156,25.5 381.6875,25.5 Q382.0156,25.5 382.25,25.7656 Q382.5,26.0156 382.5,26.375 Q382.5,26.7188 382.1563,27.125 Q381.6563,27.7188 380.8594,28.0469 Q379.8125,28.5 378.5313,28.5 Q377.0313,28.5 375.8281,27.9063 Q374.8594,27.4375 374.1719,26.4219 Q373.5,25.4063 373.5,24.2031 L373.5,23.1094 Q373.5,21.8594 374.0938,20.7656 Q374.7031,19.6719 375.75,19.0938 Q376.8125,18.5 378,18.5 Q378.7188,18.5 379.3438,18.75 Q379.9688,19 380.5,19.5 Z " fill="#000000"/><text fill="#000000" font-family="sans-serif" font-size="14" lengthAdjust="spacing" textLength="83" x="392.5" y="28.7285">ArrivalTimeUI</text><line style="stroke:#181818;stroke-width:0.5;" x1="364.5" x2="477.5" y1="39" y2="39"/><line style="stroke:#181818;stroke-width:0.5;" x1="364.5" x2="477.5" y1="47" y2="47"/></g><!--MD5=[9afce9657ca7838dd25ca6fd4f1db266]
class ArrivalTimeController--><g id="elem_ArrivalTimeController"><rect codeLine="2" fill="#F1F1F1" height="276.9219" id="ArrivalTimeController" rx="2.5" ry="2.5" style="stroke:#181818;stroke-width:0.5;" width="305" x="268.5" y="116"/><ellipse cx="350.25" cy="132" fill="#ADD1B2" rx="11" ry="11" style="stroke:#181818;stroke-width:1.0;"/><path d="M352.25,128.5 Q352.4531,128 352.6875,127.75 Q352.9219,127.5 353.1875,127.5 Q353.6563,127.5 353.9531,127.7813 Q354.25,128.0625 354.25,128.7188 L354.25,130.2813 Q354.25,130.9375 353.9688,131.2188 Q353.6875,131.5 353.25,131.5 Q352.8594,131.5 352.6094,131.3281 Q352.3594,131.1563 352.25,130.7031 Q352.2031,130.3906 352.0313,130.2188 Q351.7188,129.8906 351.1563,129.7031 Q350.5938,129.5 350.0313,129.5 Q349.3281,129.5 348.7344,129.7813 Q348.1563,130.0625 347.7031,130.6875 Q347.25,131.3125 347.25,132.1719 L347.25,133.0938 Q347.25,134.125 348.0938,134.8125 Q348.9375,135.5 350.4375,135.5 Q351.3281,135.5 351.9531,135.2969 Q352.3125,135.1875 352.7188,134.8281 Q352.9844,134.625 353.125,134.5625 Q353.2656,134.5 353.4375,134.5 Q353.7656,134.5 354,134.7656 Q354.25,135.0156 354.25,135.375 Q354.25,135.7188 353.9063,136.125 Q353.4063,136.7188 352.6094,137.0469 Q351.5625,137.5 350.2813,137.5 Q348.7813,137.5 347.5781,136.9063 Q346.6094,136.4375 345.9219,135.4219 Q345.25,134.4063 345.25,133.2031 L345.25,132.1094 Q345.25,130.8594 345.8438,129.7656 Q346.4531,128.6719 347.5,128.0938 Q348.5625,127.5 349.75,127.5 Q350.4688,127.5 351.0938,127.75 Q351.7188,128 352.25,128.5 Z " fill="#000000"/><text fill="#000000" font-family="sans-serif" font-size="14" lengthAdjust="spacing" textLength="133" x="370.75" y="137.7285">ArrivalTimeController</text><line style="stroke:#181818;stroke-width:0.5;" x1="269.5" x2="572.5" y1="148" y2="148"/><text fill="#000000" font-family="sans-serif" font-size="14" lengthAdjust="spacing" textLength="129" x="274.5" y="166.5332">Company : company</text><text fill="#000000" font-family="sans-serif" font-size="14" lengthAdjust="spacing" textLength="95" x="274.5" y="184.1426">Center : center</text><text fill="#000000" font-family="sans-serif" font-size="14" lengthAdjust="spacing" textLength="187" x="274.5" y="201.752">SNSUserStore : snsUserStore</text><text fill="#000000" font-family="sans-serif" font-size="14" lengthAdjust="spacing" textLength="119" x="274.5" y="219.3613">SNSUser : snsUser</text><text fill="#000000" font-family="sans-serif" font-size="14" lengthAdjust="spacing" textLength="163" x="274.5" y="236.9707">CenterStore : centerStore</text><text fill="#000000" font-family="sans-serif" font-size="14" lengthAdjust="spacing" textLength="293" x="274.5" y="254.5801">VaccinationScheduleStore : vacScheduleStore</text><line style="stroke:#181818;stroke-width:0.5;" x1="269.5" x2="572.5" y1="261.6563" y2="261.6563"/><text fill="#000000" font-family="sans-serif" font-size="14" lengthAdjust="spacing" textLength="195" x="274.5" y="280.1895">getCenterByIndex(centerIndex)</text><text fill="#000000" font-family="sans-serif" font-size="14" lengthAdjust="spacing" textLength="180" x="274.5" y="297.7988">getSNSUserByNum(snsNum)</text><text fill="#000000" font-family="sans-serif" font-size="14" lengthAdjust="spacing" textLength="141" x="274.5" y="315.4082">checkSchedule(today)</text><text fill="#000000" font-family="sans-serif" font-size="14" lengthAdjust="spacing" textLength="183" x="274.5" y="333.0176">saveArrival(now, arrivalTime)</text><text fill="#000000" font-family="sans-serif" font-size="14" lengthAdjust="spacing" textLength="92" x="274.5" y="350.627">containsUser()</text><text fill="#000000" font-family="sans-serif" font-size="14" lengthAdjust="spacing" textLength="120" x="274.5" y="368.2363">addToWaitingList()</text><text fill="#000000" font-family="sans-serif" font-size="14" lengthAdjust="spacing" textLength="158" x="274.5" y="385.8457">validateDate(arrivalDate)</text></g><!--MD5=[02e4b9b7573f1156f41e60aa5b4e25a4]
class Company--><g id="elem_Company"><rect codeLine="17" fill="#F1F1F1" height="153.6563" id="Company" rx="2.5" ry="2.5" style="stroke:#181818;stroke-width:0.5;" width="278" x="481" y="1033"/><ellipse cx="585.75" cy="1049" fill="#ADD1B2" rx="11" ry="11" style="stroke:#181818;stroke-width:1.0;"/><path d="M587.75,1045.5 Q587.9531,1045 588.1875,1044.75 Q588.4219,1044.5 588.6875,1044.5 Q589.1563,1044.5 589.4531,1044.7813 Q589.75,1045.0625 589.75,1045.7188 L589.75,1047.2813 Q589.75,1047.9375 589.4688,1048.2188 Q589.1875,1048.5 588.75,1048.5 Q588.3594,1048.5 588.1094,1048.3281 Q587.8594,1048.1563 587.75,1047.7031 Q587.7031,1047.3906 587.5313,1047.2188 Q587.2188,1046.8906 586.6563,1046.7031 Q586.0938,1046.5 585.5313,1046.5 Q584.8281,1046.5 584.2344,1046.7813 Q583.6563,1047.0625 583.2031,1047.6875 Q582.75,1048.3125 582.75,1049.1719 L582.75,1050.0938 Q582.75,1051.125 583.5938,1051.8125 Q584.4375,1052.5 585.9375,1052.5 Q586.8281,1052.5 587.4531,1052.2969 Q587.8125,1052.1875 588.2188,1051.8281 Q588.4844,1051.625 588.625,1051.5625 Q588.7656,1051.5 588.9375,1051.5 Q589.2656,1051.5 589.5,1051.7656 Q589.75,1052.0156 589.75,1052.375 Q589.75,1052.7188 589.4063,1053.125 Q588.9063,1053.7188 588.1094,1054.0469 Q587.0625,1054.5 585.7813,1054.5 Q584.2813,1054.5 583.0781,1053.9063 Q582.1094,1053.4375 581.4219,1052.4219 Q580.75,1051.4063 580.75,1050.2031 L580.75,1049.1094 Q580.75,1047.8594 581.3438,1046.7656 Q581.9531,1045.6719 583,1045.0938 Q584.0625,1044.5 585.25,1044.5 Q585.9688,1044.5 586.5938,1044.75 Q587.2188,1045 587.75,1045.5 Z " fill="#000000"/><text fill="#000000" font-family="sans-serif" font-size="14" lengthAdjust="spacing" textLength="60" x="606.25" y="1054.7285">Company</text><line style="stroke:#181818;stroke-width:0.5;" x1="482" x2="758" y1="1065" y2="1065"/><text fill="#000000" font-family="sans-serif" font-size="14" lengthAdjust="spacing" textLength="163" x="487" y="1083.5332">CenterStore : centerStore</text><text fill="#000000" font-family="sans-serif" font-size="14" lengthAdjust="spacing" textLength="164" x="487" y="1101.1426">SNSUserStore : userStore</text><text fill="#000000" font-family="sans-serif" font-size="14" lengthAdjust="spacing" textLength="266" x="487" y="1118.752">VaccinatonScheduleStore : scheduleStore</text><line style="stroke:#181818;stroke-width:0.5;" x1="482" x2="758" y1="1125.8281" y2="1125.8281"/><text fill="#000000" font-family="sans-serif" font-size="14" lengthAdjust="spacing" textLength="107" x="487" y="1144.3613">getCenterStore()</text><text fill="#000000" font-family="sans-serif" font-size="14" lengthAdjust="spacing" textLength="120" x="487" y="1161.9707">getSNSUserStore()</text><text fill="#000000" font-family="sans-serif" font-size="14" lengthAdjust="spacing" textLength="196" x="487" y="1179.5801">getVaccinationScheduleStore()</text></g><!--MD5=[a5ad3856b0c65e07b10297b4477b22bb]
class SNSUserStore--><g id="elem_SNSUserStore"><rect codeLine="25" fill="#F1F1F1" height="65.6094" id="SNSUserStore" rx="2.5" ry="2.5" style="stroke:#181818;stroke-width:0.5;" width="192" x="166" y="1370.5"/><ellipse cx="212.75" cy="1386.5" fill="#ADD1B2" rx="11" ry="11" style="stroke:#181818;stroke-width:1.0;"/><path d="M214.75,1383 Q214.9531,1382.5 215.1875,1382.25 Q215.4219,1382 215.6875,1382 Q216.1563,1382 216.4531,1382.2813 Q216.75,1382.5625 216.75,1383.2188 L216.75,1384.7813 Q216.75,1385.4375 216.4688,1385.7188 Q216.1875,1386 215.75,1386 Q215.3594,1386 215.1094,1385.8281 Q214.8594,1385.6563 214.75,1385.2031 Q214.7031,1384.8906 214.5313,1384.7188 Q214.2188,1384.3906 213.6563,1384.2031 Q213.0938,1384 212.5313,1384 Q211.8281,1384 211.2344,1384.2813 Q210.6563,1384.5625 210.2031,1385.1875 Q209.75,1385.8125 209.75,1386.6719 L209.75,1387.5938 Q209.75,1388.625 210.5938,1389.3125 Q211.4375,1390 212.9375,1390 Q213.8281,1390 214.4531,1389.7969 Q214.8125,1389.6875 215.2188,1389.3281 Q215.4844,1389.125 215.625,1389.0625 Q215.7656,1389 215.9375,1389 Q216.2656,1389 216.5,1389.2656 Q216.75,1389.5156 216.75,1389.875 Q216.75,1390.2188 216.4063,1390.625 Q215.9063,1391.2188 215.1094,1391.5469 Q214.0625,1392 212.7813,1392 Q211.2813,1392 210.0781,1391.4063 Q209.1094,1390.9375 208.4219,1389.9219 Q207.75,1388.9063 207.75,1387.7031 L207.75,1386.6094 Q207.75,1385.3594 208.3438,1384.2656 Q208.9531,1383.1719 210,1382.5938 Q211.0625,1382 212.25,1382 Q212.9688,1382 213.5938,1382.25 Q214.2188,1382.5 214.75,1383 Z " fill="#000000"/><text fill="#000000" font-family="sans-serif" font-size="14" lengthAdjust="spacing" textLength="90" x="233.25" y="1392.2285">SNSUserStore</text><line style="stroke:#181818;stroke-width:0.5;" x1="167" x2="357" y1="1402.5" y2="1402.5"/><line style="stroke:#181818;stroke-width:0.5;" x1="167" x2="357" y1="1410.5" y2="1410.5"/><text fill="#000000" font-family="sans-serif" font-size="14" lengthAdjust="spacing" textLength="180" x="172" y="1429.0332">getSNSUserByNum(snsNum)</text></g><!--MD5=[21decfe067c1a9d9926435088e0dcf8f]
class CenterStore--><g id="elem_CenterStore"><rect codeLine="28" fill="#F1F1F1" height="65.6094" id="CenterStore" rx="2.5" ry="2.5" style="stroke:#181818;stroke-width:0.5;" width="207" x="701.5" y="1370.5"/><ellipse cx="762.25" cy="1386.5" fill="#ADD1B2" rx="11" ry="11" style="stroke:#181818;stroke-width:1.0;"/><path d="M764.25,1383 Q764.4531,1382.5 764.6875,1382.25 Q764.9219,1382 765.1875,1382 Q765.6563,1382 765.9531,1382.2813 Q766.25,1382.5625 766.25,1383.2188 L766.25,1384.7813 Q766.25,1385.4375 765.9688,1385.7188 Q765.6875,1386 765.25,1386 Q764.8594,1386 764.6094,1385.8281 Q764.3594,1385.6563 764.25,1385.2031 Q764.2031,1384.8906 764.0313,1384.7188 Q763.7188,1384.3906 763.1563,1384.2031 Q762.5938,1384 762.0313,1384 Q761.3281,1384 760.7344,1384.2813 Q760.1563,1384.5625 759.7031,1385.1875 Q759.25,1385.8125 759.25,1386.6719 L759.25,1387.5938 Q759.25,1388.625 760.0938,1389.3125 Q760.9375,1390 762.4375,1390 Q763.3281,1390 763.9531,1389.7969 Q764.3125,1389.6875 764.7188,1389.3281 Q764.9844,1389.125 765.125,1389.0625 Q765.2656,1389 765.4375,1389 Q765.7656,1389 766,1389.2656 Q766.25,1389.5156 766.25,1389.875 Q766.25,1390.2188 765.9063,1390.625 Q765.4063,1391.2188 764.6094,1391.5469 Q763.5625,1392 762.2813,1392 Q760.7813,1392 759.5781,1391.4063 Q758.6094,1390.9375 757.9219,1389.9219 Q757.25,1388.9063 757.25,1387.7031 L757.25,1386.6094 Q757.25,1385.3594 757.8438,1384.2656 Q758.4531,1383.1719 759.5,1382.5938 Q760.5625,1382 761.75,1382 Q762.4688,1382 763.0938,1382.25 Q763.7188,1382.5 764.25,1383 Z " fill="#000000"/><text fill="#000000" font-family="sans-serif" font-size="14" lengthAdjust="spacing" textLength="77" x="782.75" y="1392.2285">CenterStore</text><line style="stroke:#181818;stroke-width:0.5;" x1="702.5" x2="907.5" y1="1402.5" y2="1402.5"/><line style="stroke:#181818;stroke-width:0.5;" x1="702.5" x2="907.5" y1="1410.5" y2="1410.5"/><text fill="#000000" font-family="sans-serif" font-size="14" lengthAdjust="spacing" textLength="195" x="707.5" y="1429.0332">getCenterByIndex(centerIndex)</text></g><!--MD5=[72be06cc7ae02ccc98efe28a50e62246]
class SNSUser--><g id="elem_SNSUser"><rect codeLine="31" fill="#F1F1F1" height="382.5781" id="SNSUser" rx="2.5" ry="2.5" style="stroke:#181818;stroke-width:0.5;" width="232" x="7" y="620"/><ellipse cx="90.75" cy="636" fill="#ADD1B2" rx="11" ry="11" style="stroke:#181818;stroke-width:1.0;"/><path d="M92.75,632.5 Q92.9531,632 93.1875,631.75 Q93.4219,631.5 93.6875,631.5 Q94.1563,631.5 94.4531,631.7813 Q94.75,632.0625 94.75,632.7188 L94.75,634.2813 Q94.75,634.9375 94.4688,635.2188 Q94.1875,635.5 93.75,635.5 Q93.3594,635.5 93.1094,635.3281 Q92.8594,635.1563 92.75,634.7031 Q92.7031,634.3906 92.5313,634.2188 Q92.2188,633.8906 91.6563,633.7031 Q91.0938,633.5 90.5313,633.5 Q89.8281,633.5 89.2344,633.7813 Q88.6563,634.0625 88.2031,634.6875 Q87.75,635.3125 87.75,636.1719 L87.75,637.0938 Q87.75,638.125 88.5938,638.8125 Q89.4375,639.5 90.9375,639.5 Q91.8281,639.5 92.4531,639.2969 Q92.8125,639.1875 93.2188,638.8281 Q93.4844,638.625 93.625,638.5625 Q93.7656,638.5 93.9375,638.5 Q94.2656,638.5 94.5,638.7656 Q94.75,639.0156 94.75,639.375 Q94.75,639.7188 94.4063,640.125 Q93.9063,640.7188 93.1094,641.0469 Q92.0625,641.5 90.7813,641.5 Q89.2813,641.5 88.0781,640.9063 Q87.1094,640.4375 86.4219,639.4219 Q85.75,638.4063 85.75,637.2031 L85.75,636.1094 Q85.75,634.8594 86.3438,633.7656 Q86.9531,632.6719 88,632.0938 Q89.0625,631.5 90.25,631.5 Q90.9688,631.5 91.5938,631.75 Q92.2188,632 92.75,632.5 Z " fill="#000000"/><text fill="#000000" font-family="sans-serif" font-size="14" lengthAdjust="spacing" textLength="56" x="111.25" y="641.7285">SNSUser</text><line style="stroke:#181818;stroke-width:0.5;" x1="8" x2="238" y1="652" y2="652"/><text fill="#000000" font-family="sans-serif" font-size="14" lengthAdjust="spacing" textLength="84" x="13" y="670.5332">String : name</text><text fill="#000000" font-family="sans-serif" font-size="14" lengthAdjust="spacing" textLength="100" x="13" y="688.1426">String : address</text><text fill="#000000" font-family="sans-serif" font-size="14" lengthAdjust="spacing" textLength="70" x="13" y="705.752">String : sex</text><text fill="#000000" font-family="sans-serif" font-size="14" lengthAdjust="spacing" textLength="116" x="13" y="723.3613">int : phoneNumber</text><text fill="#000000" font-family="sans-serif" font-size="14" lengthAdjust="spacing" textLength="82" x="13" y="740.9707">String : email</text><text fill="#000000" font-family="sans-serif" font-size="14" lengthAdjust="spacing" textLength="100" x="13" y="758.5801">String : birthday</text><text fill="#000000" font-family="sans-serif" font-size="14" lengthAdjust="spacing" textLength="127" x="13" y="776.1895">int : snsUserNumber</text><text fill="#000000" font-family="sans-serif" font-size="14" lengthAdjust="spacing" textLength="146" x="13" y="793.7988">int : citizenCardNumber</text><text fill="#000000" font-family="sans-serif" font-size="14" lengthAdjust="spacing" textLength="137" x="13" y="811.4082">Center : arrivalCenter</text><text fill="#000000" font-family="sans-serif" font-size="14" lengthAdjust="spacing" textLength="147" x="13" y="829.0176">LocalTime : arrivalTime</text><text fill="#000000" font-family="sans-serif" font-size="14" lengthAdjust="spacing" textLength="172" x="13" y="846.627">LocalDate : scheduledTime</text><text fill="#000000" font-family="sans-serif" font-size="14" lengthAdjust="spacing" textLength="116" x="13" y="864.2363">int : vaccinePeriod</text><text fill="#000000" font-family="sans-serif" font-size="14" lengthAdjust="spacing" textLength="145" x="13" y="881.8457">LocalDate : arrivalDate</text><line style="stroke:#181818;stroke-width:0.5;" x1="8" x2="238" y1="888.9219" y2="888.9219"/><text fill="#000000" font-family="sans-serif" font-size="14" lengthAdjust="spacing" textLength="135" x="13" y="907.4551">getSNSUserNumber()</text><text fill="#000000" font-family="sans-serif" font-size="14" lengthAdjust="spacing" textLength="220" x="13" y="925.0645">setArrival(now, arrivalTime, center)</text><text fill="#000000" font-family="sans-serif" font-size="14" lengthAdjust="spacing" textLength="170" x="13" y="942.6738">setArrivalTime(arrivalTime)</text><text fill="#000000" font-family="sans-serif" font-size="14" lengthAdjust="spacing" textLength="152" x="13" y="960.2832">setArrivalCenter(center)</text><text fill="#000000" font-family="sans-serif" font-size="14" lengthAdjust="spacing" textLength="124" x="13" y="977.8926">setArrivalDate(now)</text><text fill="#000000" font-family="sans-serif" font-size="14" lengthAdjust="spacing" textLength="158" x="13" y="995.502">validateDate(arrivalDate)</text></g><!--MD5=[c08e285a0fa8a6d5e0549be306e0feaa]
class VaccinationScheduleStore--><g id="elem_VaccinationScheduleStore"><rect codeLine="52" fill="#F1F1F1" height="65.6094" id="VaccinationScheduleStore" rx="2.5" ry="2.5" style="stroke:#181818;stroke-width:0.5;" width="212" x="315" y="489"/><ellipse cx="336.3" cy="505" fill="#ADD1B2" rx="11" ry="11" style="stroke:#181818;stroke-width:1.0;"/><path d="M338.3,501.5 Q338.5031,501 338.7375,500.75 Q338.9719,500.5 339.2375,500.5 Q339.7063,500.5 340.0031,500.7813 Q340.3,501.0625 340.3,501.7188 L340.3,503.2813 Q340.3,503.9375 340.0188,504.2188 Q339.7375,504.5 339.3,504.5 Q338.9094,504.5 338.6594,504.3281 Q338.4094,504.1563 338.3,503.7031 Q338.2531,503.3906 338.0813,503.2188 Q337.7688,502.8906 337.2063,502.7031 Q336.6438,502.5 336.0813,502.5 Q335.3781,502.5 334.7844,502.7813 Q334.2063,503.0625 333.7531,503.6875 Q333.3,504.3125 333.3,505.1719 L333.3,506.0938 Q333.3,507.125 334.1438,507.8125 Q334.9875,508.5 336.4875,508.5 Q337.3781,508.5 338.0031,508.2969 Q338.3625,508.1875 338.7688,507.8281 Q339.0344,507.625 339.175,507.5625 Q339.3156,507.5 339.4875,507.5 Q339.8156,507.5 340.05,507.7656 Q340.3,508.0156 340.3,508.375 Q340.3,508.7188 339.9563,509.125 Q339.4563,509.7188 338.6594,510.0469 Q337.6125,510.5 336.3313,510.5 Q334.8313,510.5 333.6281,509.9063 Q332.6594,509.4375 331.9719,508.4219 Q331.3,507.4063 331.3,506.2031 L331.3,505.1094 Q331.3,503.8594 331.8938,502.7656 Q332.5031,501.6719 333.55,501.0938 Q334.6125,500.5 335.8,500.5 Q336.5188,500.5 337.1438,500.75 Q337.7688,501 338.3,501.5 Z " fill="#000000"/><text fill="#000000" font-family="sans-serif" font-size="14" lengthAdjust="spacing" textLength="166" x="351.7" y="510.7285">VaccinationScheduleStore</text><line style="stroke:#181818;stroke-width:0.5;" x1="316" x2="526" y1="521" y2="521"/><line style="stroke:#181818;stroke-width:0.5;" x1="316" x2="526" y1="529" y2="529"/><text fill="#000000" font-family="sans-serif" font-size="14" lengthAdjust="spacing" textLength="200" x="321" y="547.5332">checkSchedule(snsUser, today)</text></g><!--MD5=[1612b8357b70f5d13ccd48e3242747ad]
class VaccinationSchedule--><g id="elem_VaccinationSchedule"><rect codeLine="55" fill="#F1F1F1" height="136.0469" id="VaccinationSchedule" rx="2.5" ry="2.5" style="stroke:#181818;stroke-width:0.5;" width="164" x="598" y="454"/><ellipse cx="613" cy="470" fill="#ADD1B2" rx="11" ry="11" style="stroke:#181818;stroke-width:1.0;"/><path d="M615,466.5 Q615.2031,466 615.4375,465.75 Q615.6719,465.5 615.9375,465.5 Q616.4063,465.5 616.7031,465.7813 Q617,466.0625 617,466.7188 L617,468.2813 Q617,468.9375 616.7188,469.2188 Q616.4375,469.5 616,469.5 Q615.6094,469.5 615.3594,469.3281 Q615.1094,469.1563 615,468.7031 Q614.9531,468.3906 614.7813,468.2188 Q614.4688,467.8906 613.9063,467.7031 Q613.3438,467.5 612.7813,467.5 Q612.0781,467.5 611.4844,467.7813 Q610.9063,468.0625 610.4531,468.6875 Q610,469.3125 610,470.1719 L610,471.0938 Q610,472.125 610.8438,472.8125 Q611.6875,473.5 613.1875,473.5 Q614.0781,473.5 614.7031,473.2969 Q615.0625,473.1875 615.4688,472.8281 Q615.7344,472.625 615.875,472.5625 Q616.0156,472.5 616.1875,472.5 Q616.5156,472.5 616.75,472.7656 Q617,473.0156 617,473.375 Q617,473.7188 616.6563,474.125 Q616.1563,474.7188 615.3594,475.0469 Q614.3125,475.5 613.0313,475.5 Q611.5313,475.5 610.3281,474.9063 Q609.3594,474.4375 608.6719,473.4219 Q608,472.4063 608,471.2031 L608,470.1094 Q608,468.8594 608.5938,467.7656 Q609.2031,466.6719 610.25,466.0938 Q611.3125,465.5 612.5,465.5 Q613.2188,465.5 613.8438,465.75 Q614.4688,466 615,466.5 Z " fill="#000000"/><text fill="#000000" font-family="sans-serif" font-size="14" lengthAdjust="spacing" textLength="132" x="627" y="475.7285">VaccinationSchedule</text><line style="stroke:#181818;stroke-width:0.5;" x1="599" x2="761" y1="486" y2="486"/><text fill="#000000" font-family="sans-serif" font-size="14" lengthAdjust="spacing" textLength="127" x="604" y="504.5332">int : snsUserNumber</text><text fill="#000000" font-family="sans-serif" font-size="14" lengthAdjust="spacing" textLength="104" x="604" y="522.1426">LocalDate : date</text><text fill="#000000" font-family="sans-serif" font-size="14" lengthAdjust="spacing" textLength="139" x="604" y="539.752">String : vacTypeName</text><text fill="#000000" font-family="sans-serif" font-size="14" lengthAdjust="spacing" textLength="150" x="604" y="557.3613">String : vacCenterName</text><line style="stroke:#181818;stroke-width:0.5;" x1="599" x2="761" y1="564.4375" y2="564.4375"/><text fill="#000000" font-family="sans-serif" font-size="14" lengthAdjust="spacing" textLength="60" x="604" y="582.9707">getDate()</text></g><!--MD5=[bbd32abb87742158d8b9937325662454]
class Center--><g id="elem_Center"><rect codeLine="62" fill="#F1F1F1" height="276.9219" id="Center" rx="2.5" ry="2.5" style="stroke:#181818;stroke-width:0.5;" width="231" x="979.5" y="1265"/><ellipse cx="1069.25" cy="1281" fill="#ADD1B2" rx="11" ry="11" style="stroke:#181818;stroke-width:1.0;"/><path d="M1071.25,1277.5 Q1071.4531,1277 1071.6875,1276.75 Q1071.9219,1276.5 1072.1875,1276.5 Q1072.6563,1276.5 1072.9531,1276.7813 Q1073.25,1277.0625 1073.25,1277.7188 L1073.25,1279.2813 Q1073.25,1279.9375 1072.9688,1280.2188 Q1072.6875,1280.5 1072.25,1280.5 Q1071.8594,1280.5 1071.6094,1280.3281 Q1071.3594,1280.1563 1071.25,1279.7031 Q1071.2031,1279.3906 1071.0313,1279.2188 Q1070.7188,1278.8906 1070.1563,1278.7031 Q1069.5938,1278.5 1069.0313,1278.5 Q1068.3281,1278.5 1067.7344,1278.7813 Q1067.1563,1279.0625 1066.7031,1279.6875 Q1066.25,1280.3125 1066.25,1281.1719 L1066.25,1282.0938 Q1066.25,1283.125 1067.0938,1283.8125 Q1067.9375,1284.5 1069.4375,1284.5 Q1070.3281,1284.5 1070.9531,1284.2969 Q1071.3125,1284.1875 1071.7188,1283.8281 Q1071.9844,1283.625 1072.125,1283.5625 Q1072.2656,1283.5 1072.4375,1283.5 Q1072.7656,1283.5 1073,1283.7656 Q1073.25,1284.0156 1073.25,1284.375 Q1073.25,1284.7188 1072.9063,1285.125 Q1072.4063,1285.7188 1071.6094,1286.0469 Q1070.5625,1286.5 1069.2813,1286.5 Q1067.7813,1286.5 1066.5781,1285.9063 Q1065.6094,1285.4375 1064.9219,1284.4219 Q1064.25,1283.4063 1064.25,1282.2031 L1064.25,1281.1094 Q1064.25,1279.8594 1064.8438,1278.7656 Q1065.4531,1277.6719 1066.5,1277.0938 Q1067.5625,1276.5 1068.75,1276.5 Q1069.4688,1276.5 1070.0938,1276.75 Q1070.7188,1277 1071.25,1277.5 Z " fill="#000000"/><text fill="#000000" font-family="sans-serif" font-size="14" lengthAdjust="spacing" textLength="43" x="1089.75" y="1286.7285">Center</text><line style="stroke:#181818;stroke-width:0.5;" x1="980.5" x2="1209.5" y1="1297" y2="1297"/><text fill="#000000" font-family="sans-serif" font-size="14" lengthAdjust="spacing" textLength="84" x="985.5" y="1315.5332">String : name</text><text fill="#000000" font-family="sans-serif" font-size="14" lengthAdjust="spacing" textLength="100" x="985.5" y="1333.1426">String : address</text><text fill="#000000" font-family="sans-serif" font-size="14" lengthAdjust="spacing" textLength="138" x="985.5" y="1350.752">String : phoneNumber</text><text fill="#000000" font-family="sans-serif" font-size="14" lengthAdjust="spacing" textLength="134" x="985.5" y="1368.3613">String : emailAddress</text><text fill="#000000" font-family="sans-serif" font-size="14" lengthAdjust="spacing" textLength="116" x="985.5" y="1385.9707">String : faxNumber</text><text fill="#000000" font-family="sans-serif" font-size="14" lengthAdjust="spacing" textLength="148" x="985.5" y="1403.5801">String : websiteAddress</text><text fill="#000000" font-family="sans-serif" font-size="14" lengthAdjust="spacing" textLength="137" x="985.5" y="1421.1895">String : openingHours</text><text fill="#000000" font-family="sans-serif" font-size="14" lengthAdjust="spacing" textLength="130" x="985.5" y="1438.7988">String : closingHours</text><text fill="#000000" font-family="sans-serif" font-size="14" lengthAdjust="spacing" textLength="131" x="985.5" y="1456.4082">double : slotDuration</text><text fill="#000000" font-family="sans-serif" font-size="14" lengthAdjust="spacing" textLength="219" x="985.5" y="1474.0176">int : maxNumberOfVaccinesPerSlot</text><text fill="#000000" font-family="sans-serif" font-size="14" lengthAdjust="spacing" textLength="202" x="985.5" y="1491.627">CenterCoordinator : coordinator</text><text fill="#000000" font-family="sans-serif" font-size="14" lengthAdjust="spacing" textLength="155" x="985.5" y="1509.2363">SNSUserList : waitingList</text><line style="stroke:#181818;stroke-width:0.5;" x1="980.5" x2="1209.5" y1="1516.3125" y2="1516.3125"/><text fill="#000000" font-family="sans-serif" font-size="14" lengthAdjust="spacing" textLength="99" x="985.5" y="1534.8457">getWaitingList()</text></g><!--MD5=[7f65de2712b5b708f0dbcc1ce7b9cf5f]
class SNSUserList--><g id="elem_SNSUserList"><rect codeLine="77" fill="#F1F1F1" height="83.2188" id="SNSUserList" rx="2.5" ry="2.5" style="stroke:#181818;stroke-width:0.5;" width="155" x="1017.5" y="1620"/><ellipse cx="1052.75" cy="1636" fill="#ADD1B2" rx="11" ry="11" style="stroke:#181818;stroke-width:1.0;"/><path d="M1054.75,1632.5 Q1054.9531,1632 1055.1875,1631.75 Q1055.4219,1631.5 1055.6875,1631.5 Q1056.1563,1631.5 1056.4531,1631.7813 Q1056.75,1632.0625 1056.75,1632.7188 L1056.75,1634.2813 Q1056.75,1634.9375 1056.4688,1635.2188 Q1056.1875,1635.5 1055.75,1635.5 Q1055.3594,1635.5 1055.1094,1635.3281 Q1054.8594,1635.1563 1054.75,1634.7031 Q1054.7031,1634.3906 1054.5313,1634.2188 Q1054.2188,1633.8906 1053.6563,1633.7031 Q1053.0938,1633.5 1052.5313,1633.5 Q1051.8281,1633.5 1051.2344,1633.7813 Q1050.6563,1634.0625 1050.2031,1634.6875 Q1049.75,1635.3125 1049.75,1636.1719 L1049.75,1637.0938 Q1049.75,1638.125 1050.5938,1638.8125 Q1051.4375,1639.5 1052.9375,1639.5 Q1053.8281,1639.5 1054.4531,1639.2969 Q1054.8125,1639.1875 1055.2188,1638.8281 Q1055.4844,1638.625 1055.625,1638.5625 Q1055.7656,1638.5 1055.9375,1638.5 Q1056.2656,1638.5 1056.5,1638.7656 Q1056.75,1639.0156 1056.75,1639.375 Q1056.75,1639.7188 1056.4063,1640.125 Q1055.9063,1640.7188 1055.1094,1641.0469 Q1054.0625,1641.5 1052.7813,1641.5 Q1051.2813,1641.5 1050.0781,1640.9063 Q1049.1094,1640.4375 1048.4219,1639.4219 Q1047.75,1638.4063 1047.75,1637.2031 L1047.75,1636.1094 Q1047.75,1634.8594 1048.3438,1633.7656 Q1048.9531,1632.6719 1050,1632.0938 Q1051.0625,1631.5 1052.25,1631.5 Q1052.9688,1631.5 1053.5938,1631.75 Q1054.2188,1632 1054.75,1632.5 Z " fill="#000000"/><text fill="#000000" font-family="sans-serif" font-size="14" lengthAdjust="spacing" textLength="78" x="1071.25" y="1641.7285">SNSUserList</text><line style="stroke:#181818;stroke-width:0.5;" x1="1018.5" x2="1171.5" y1="1652" y2="1652"/><line style="stroke:#181818;stroke-width:0.5;" x1="1018.5" x2="1171.5" y1="1660" y2="1660"/><text fill="#000000" font-family="sans-serif" font-size="14" lengthAdjust="spacing" textLength="143" x="1023.5" y="1678.5332">containsUser(snsUser)</text><text fill="#000000" font-family="sans-serif" font-size="14" lengthAdjust="spacing" textLength="85" x="1023.5" y="1696.1426">add(snsUser)</text></g><!--MD5=[82c2edf415da751a92ea145065d15216]
link ArrivalTimeUI to ArrivalTimeController--><g id="link_ArrivalTimeUI_ArrivalTimeController"><path codeLine="81" d="M421,55.29 C421,69.58 421,89.21 421,110.59 " fill="none" id="ArrivalTimeUI-to-ArrivalTimeController" style="stroke:#181818;stroke-width:1.0;stroke-dasharray:7.0,7.0;"/><polygon fill="#181818" points="421,115.76,425,106.76,421,110.76,417,106.76,421,115.76" style="stroke:#181818;stroke-width:1.0;"/></g><!--MD5=[c255d58d195b1b3de82a441c8aea97c4]
link ArrivalTimeController to Company--><g id="link_ArrivalTimeController_Company"><path codeLine="82" d="M573.59,298.91 C649.85,329.18 735.23,378.08 780,454 C889.9,640.34 757.74,898.99 675.74,1028.44 " fill="none" id="ArrivalTimeController-to-Company" style="stroke:#181818;stroke-width:1.0;stroke-dasharray:7.0,7.0;"/><polygon fill="#181818" points="672.84,1032.99,681.0501,1027.5499,675.5272,1028.7735,674.3036,1023.2505,672.84,1032.99" style="stroke:#181818;stroke-width:1.0;"/></g><!--MD5=[1bd9080c7e199931e49bc5a1616681ac]
link Company to SNSUserStore--><g id="link_Company_SNSUserStore"><path codeLine="83" d="M526.41,1187.21 C453.28,1246.75 355.3,1326.53 301.5,1370.34 " fill="none" id="Company-SNSUserStore" style="stroke:#181818;stroke-width:1.0;"/><polygon fill="#000000" points="485.1227,1229.3328,493.9924,1225.9007,490.2811,1221.3427,485.1227,1229.3328" style="stroke:#000000;stroke-width:1.0;"/><text fill="#000000" font-family="sans-serif" font-size="13" lengthAdjust="spacing" textLength="21" x="498" y="1231.4951">has</text><text fill="#000000" font-family="sans-serif" font-size="13" lengthAdjust="spacing" textLength="7" x="511.0663" y="1208.0577">1</text><text fill="#000000" font-family="sans-serif" font-size="13" lengthAdjust="spacing" textLength="7" x="301.925" y="1359.4224">1</text></g><!--MD5=[157550e802a606eda93b62604f431d62]
link Company to CenterStore--><g id="link_Company_CenterStore"><path codeLine="84" d="M668.36,1187.21 C706.16,1246.75 756.79,1326.53 784.59,1370.34 " fill="none" id="Company-CenterStore" style="stroke:#181818;stroke-width:1.0;"/><polygon fill="#000000" points="702.6793,1230.3973,700.3137,1221.1856,695.351,1224.3354,702.6793,1230.3973" style="stroke:#000000;stroke-width:1.0;"/><text fill="#000000" font-family="sans-serif" font-size="13" lengthAdjust="spacing" textLength="21" x="709" y="1231.4951">has</text><text fill="#000000" font-family="sans-serif" font-size="13" lengthAdjust="spacing" textLength="7" x="665.2152" y="1208.0577">1</text><text fill="#000000" font-family="sans-serif" font-size="13" lengthAdjust="spacing" textLength="7" x="772.6586" y="1359.4224">1</text></g><!--MD5=[e5bf126f375a76a7ec96879bd1a83309]
link VaccinationScheduleStore to Company--><g id="link_VaccinationScheduleStore_Company"><path codeLine="85" d="M431.98,555.34 C462.72,645.86 550.24,903.57 594.17,1032.95 " fill="none" id="VaccinationScheduleStore-Company" style="stroke:#181818;stroke-width:1.0;"/><polygon fill="#000000" points="584.3922,806.9413,584.5179,816.4511,590.0836,814.561,584.3922,806.9413" style="stroke:#000000;stroke-width:1.0;"/><text fill="#000000" font-family="sans-serif" font-size="13" lengthAdjust="spacing" textLength="21" x="595" y="816.9951">has</text><text fill="#000000" font-family="sans-serif" font-size="13" lengthAdjust="spacing" textLength="7" x="426.2656" y="576.0042">1</text><text fill="#000000" font-family="sans-serif" font-size="13" lengthAdjust="spacing" textLength="7" x="584.2828" y="1022.1072">1</text></g><!--MD5=[c060be5756a0a049483c26d3287498b8]
link ArrivalTimeController to SNSUserStore--><g id="link_ArrivalTimeController_SNSUserStore"><path codeLine="86" d="M322.66,393.16 C312.33,412.84 303.32,433.41 297,454 C243.51,628.37 256.36,1210.44 260.81,1364.71 " fill="none" id="ArrivalTimeController-to-SNSUserStore" style="stroke:#181818;stroke-width:1.0;stroke-dasharray:7.0,7.0;"/><polygon fill="#181818" points="260.97,1370.01,264.7113,1360.8994,260.8272,1365.012,256.7146,1361.1279,260.97,1370.01" style="stroke:#181818;stroke-width:1.0;"/></g><!--MD5=[33b652ac0ccb9c38a97ce80df33a2a44]
link ArrivalTimeController to SNSUser--><g id="link_ArrivalTimeController_SNSUser"><path codeLine="87" d="M268.44,379.88 C256.44,393.59 245.37,408.04 236,423 C199.85,480.74 174.86,550.51 157.77,614.85 " fill="none" id="ArrivalTimeController-to-SNSUser" style="stroke:#181818;stroke-width:1.0;stroke-dasharray:7.0,7.0;"/><polygon fill="#181818" points="156.45,619.86,162.6099,612.1752,157.7232,615.0248,154.8736,610.1381,156.45,619.86" style="stroke:#181818;stroke-width:1.0;"/></g><!--MD5=[6fd602868da20192da99a352fb523968]
link ArrivalTimeController to CenterStore--><g id="link_ArrivalTimeController_CenterStore"><path codeLine="88" d="M573.68,283.01 C667.32,309.13 778.14,359.2 826,454 C987.04,773.01 860.03,1232.57 817.55,1365.31 " fill="none" id="ArrivalTimeController-to-CenterStore" style="stroke:#181818;stroke-width:1.0;stroke-dasharray:7.0,7.0;"/><polygon fill="#181818" points="815.96,1370.27,822.5215,1362.9251,817.4896,1365.5097,814.905,1360.4778,815.96,1370.27" style="stroke:#181818;stroke-width:1.0;"/></g><!--MD5=[7593f04d016b81acf4373be97258f617]
link ArrivalTimeController to VaccinationScheduleStore--><g id="link_ArrivalTimeController_VaccinationScheduleStore"><path codeLine="89" d="M421,393.3 C421,426.78 421,459.83 421,483.92 " fill="none" id="ArrivalTimeController-to-VaccinationScheduleStore" style="stroke:#181818;stroke-width:1.0;stroke-dasharray:7.0,7.0;"/><polygon fill="#181818" points="421,488.92,425,479.92,421,483.92,417,479.92,421,488.92" style="stroke:#181818;stroke-width:1.0;"/></g><!--MD5=[7abf6cf0408f0c79d5d757e2560c0f7d]
link SNSUser to SNSUserStore--><g id="link_SNSUser_SNSUserStore"><path codeLine="90" d="M159.24,1003.18 C171.27,1062.31 185.36,1127.54 200,1187 C216.15,1252.59 238.89,1328.26 251.87,1370.22 " fill="none" id="SNSUser-SNSUserStore" style="stroke:#181818;stroke-width:1.0;"/><polygon fill="#000000" points="203.7765,1105.3278,203.1402,1114.817,208.8394,1113.3787,203.7765,1105.3278" style="stroke:#000000;stroke-width:1.0;"/><text fill="#000000" font-family="sans-serif" font-size="13" lengthAdjust="spacing" textLength="21" x="214" y="1115.4951">has</text><text fill="#000000" font-family="sans-serif" font-size="13" lengthAdjust="spacing" textLength="5" x="155.4525" y="1023.865">*</text><text fill="#000000" font-family="sans-serif" font-size="13" lengthAdjust="spacing" textLength="7" x="242.1866" y="1359.6612">1</text></g><!--MD5=[dfef3bdc297665c27c6d2484b60015bc]
link VaccinationScheduleStore to VaccinationSchedule--><g id="link_VaccinationScheduleStore_VaccinationSchedule"><path codeLine="91" d="M527.09,522 C550.7,522 575.38,522 597.86,522 " fill="none" id="VaccinationScheduleStore-VaccinationSchedule" style="stroke:#181818;stroke-width:1.0;"/><polygon fill="#000000" points="554.5,510.1758,545.4549,507.2369,545.4549,513.1147,554.5,510.1758" style="stroke:#000000;stroke-width:1.0;"/><text fill="#000000" font-family="sans-serif" font-size="13" lengthAdjust="spacing" textLength="21" x="558.5" y="515.4951">has</text><text fill="#000000" font-family="sans-serif" font-size="13" lengthAdjust="spacing" textLength="7" x="535.138" y="518.9349">1</text><text fill="#000000" font-family="sans-serif" font-size="13" lengthAdjust="spacing" textLength="5" x="585.0573" y="518.7717">*</text></g><!--MD5=[e93151bfde0f13801c8601e26aa5ffda]
link CenterStore to Center--><g id="link_CenterStore_Center"><path codeLine="92" d="M908.88,1403.5 C931.63,1403.5 955.86,1403.5 979.05,1403.5 " fill="none" id="CenterStore-Center" style="stroke:#181818;stroke-width:1.0;"/><polygon fill="#000000" points="936,1391.6758,926.9549,1388.7369,926.9549,1394.6147,936,1391.6758" style="stroke:#000000;stroke-width:1.0;"/><text fill="#000000" font-family="sans-serif" font-size="13" lengthAdjust="spacing" textLength="21" x="940" y="1396.9951">has</text><text fill="#000000" font-family="sans-serif" font-size="13" lengthAdjust="spacing" textLength="7" x="916.4302" y="1400.4587">1</text><text fill="#000000" font-family="sans-serif" font-size="13" lengthAdjust="spacing" textLength="7" x="964.3977" y="1400.4964">1</text></g><!--MD5=[e92a4079e75696647ba489dcfedd77fe]
link Center to SNSUserList--><g id="link_Center_SNSUserList"><path codeLine="93" d="M1095,1542.24 C1095,1570.64 1095,1598.4 1095,1619.88 " fill="none" id="Center-SNSUserList" style="stroke:#181818;stroke-width:1.0;"/><polygon fill="#000000" points="1100,1586.1758,1102.9389,1577.1307,1097.0611,1577.1307,1100,1586.1758" style="stroke:#000000;stroke-width:1.0;"/><text fill="#000000" font-family="sans-serif" font-size="13" lengthAdjust="spacing" textLength="21" x="1109" y="1586.4951">has</text><text fill="#000000" font-family="sans-serif" font-size="13" lengthAdjust="spacing" textLength="7" x="1087.8195" y="1563.3125">1</text><text fill="#000000" font-family="sans-serif" font-size="13" lengthAdjust="spacing" textLength="7" x="1087.4203" y="1609.1678">1</text></g><!--MD5=[09c1def4c67fd6a9412cf6892ea6b8dd]
@startuml
class ArrivalTimeUI
class ArrivalTimeController{
Company : company
Center : center
SNSUserStore : snsUserStore
SNSUser : snsUser
CenterStore : centerStore
VaccinationScheduleStore : vacScheduleStore
getCenterByIndex(centerIndex)
getSNSUserByNum(snsNum)
checkSchedule(today)
saveArrival(now, arrivalTime)
containsUser()
addToWaitingList()
validateDate(arrivalDate)
}
class Company {
CenterStore : centerStore
SNSUserStore : userStore
VaccinatonScheduleStore : scheduleStore
getCenterStore()
getSNSUserStore()
getVaccinationScheduleStore()
}
class SNSUserStore {
getSNSUserByNum(snsNum)
}
class CenterStore {
getCenterByIndex(centerIndex)
}
class SNSUser {
    String : name
    String : address
    String : sex
    int : phoneNumber
    String : email
    String : birthday
    int : snsUserNumber
    int : citizenCardNumber
    Center : arrivalCenter
    LocalTime : arrivalTime
    LocalDate : scheduledTime
    int : vaccinePeriod
    LocalDate : arrivalDate
    getSNSUserNumber()
    setArrival(now, arrivalTime, center)
    setArrivalTime(arrivalTime)
    setArrivalCenter(center)
    setArrivalDate(now)
    validateDate(arrivalDate)
}
class VaccinationScheduleStore {
checkSchedule(snsUser, today)
}
class VaccinationSchedule {
int : snsUserNumber
LocalDate : date
String : vacTypeName
String : vacCenterName
getDate()
}
class Center {
String : name
String : address
String : phoneNumber
String : emailAddress
String : faxNumber
String : websiteAddress
String : openingHours
String : closingHours
double : slotDuration
int : maxNumberOfVaccinesPerSlot
CenterCoordinator : coordinator
SNSUserList : waitingList
getWaitingList()
}
class SNSUserList {
containsUser(snsUser)
add(snsUser)
}
ArrivalTimeUI ..> ArrivalTimeController
ArrivalTimeController ..> Company
Company "1" -down- "1" SNSUserStore: has >
Company "1" -down- "1" CenterStore: has >
Company "1" -up- "1" VaccinationScheduleStore: has >
ArrivalTimeController ..> SNSUserStore
ArrivalTimeController ..> SNSUser
ArrivalTimeController ..> CenterStore
ArrivalTimeController ..> VaccinationScheduleStore
SNSUserStore "1" -up- "*" SNSUser: has >
VaccinationScheduleStore "1" -right- "*" VaccinationSchedule: has >
CenterStore "1" -right- "1" Center: has >
Center "1" -down- "1" SNSUserList: has >

@enduml

PlantUML version 1.2022.4(Sat Apr 09 14:29:17 BST 2022)
(GPL source distribution)
Java Runtime: OpenJDK Runtime Environment
JVM: OpenJDK 64-Bit Server VM
Default Encoding: Cp1252
Language: en
Country: GB
--></g></svg>