<?xml version="1.0" encoding="UTF-8" standalone="no"?><svg xmlns="http://www.w3.org/2000/svg" xmlns:xlink="http://www.w3.org/1999/xlink" contentStyleType="text/css" height="1137.6px" preserveAspectRatio="none" style="width:1449px;height:1137px;background:#FFFFFF;" version="1.1" viewBox="0 0 1449 1137" width="1449px" zoomAndPan="magnify"><defs/><g><!--MD5=[d0a5a65fe6f1caee67ac0dcb4193126d]
class VaccineAdministrationUI--><g id="elem_VaccineAdministrationUI"><rect codeLine="2" fill="#F1F1F1" height="28.8" id="VaccineAdministrationUI" rx="1.5" ry="1.5" style="stroke:#181818;stroke-width:0.3;" width="109.8" x="509.7" y="4.2"/><ellipse cx="518.7" cy="13.8" fill="#ADD1B2" rx="6.6" ry="6.6" style="stroke:#181818;stroke-width:0.6;"/><path d="M519.9,11.7 Q520.0219,11.4 520.1625,11.25 Q520.3031,11.1 520.4625,11.1 Q520.7438,11.1 520.9219,11.2687 Q521.1,11.4375 521.1,11.8312 L521.1,12.7687 Q521.1,13.1625 520.9313,13.3312 Q520.7625,13.5 520.5,13.5 Q520.2656,13.5 520.1156,13.3969 Q519.9656,13.2938 519.9,13.0219 Q519.8719,12.8344 519.7688,12.7313 Q519.5813,12.5344 519.2438,12.4219 Q518.9063,12.3 518.5688,12.3 Q518.1469,12.3 517.7906,12.4688 Q517.4438,12.6375 517.1719,13.0125 Q516.9,13.3875 516.9,13.9031 L516.9,14.4562 Q516.9,15.075 517.4063,15.4875 Q517.9125,15.9 518.8125,15.9 Q519.3469,15.9 519.7219,15.7781 Q519.9375,15.7125 520.1813,15.4969 Q520.3406,15.375 520.425,15.3375 Q520.5094,15.3 520.6125,15.3 Q520.8094,15.3 520.95,15.4594 Q521.1,15.6094 521.1,15.825 Q521.1,16.0313 520.8938,16.275 Q520.5938,16.6312 520.1156,16.8281 Q519.4875,17.1 518.7188,17.1 Q517.8188,17.1 517.0969,16.7438 Q516.5156,16.4625 516.1031,15.8531 Q515.7,15.2437 515.7,14.5219 L515.7,13.8656 Q515.7,13.1156 516.0563,12.4594 Q516.4219,11.8031 517.05,11.4562 Q517.6875,11.1 518.4,11.1 Q518.8313,11.1 519.2063,11.25 Q519.5813,11.4 519.9,11.7 Z " fill="#000000"/><text fill="#000000" font-family="sans-serif" font-size="8.4" lengthAdjust="spacing" textLength="90.6" x="527.1" y="17.2371">VaccineAdministrationUI</text><line style="stroke:#181818;stroke-width:0.3;" x1="510.3" x2="618.9" y1="23.4" y2="23.4"/><line style="stroke:#181818;stroke-width:0.3;" x1="510.3" x2="618.9" y1="28.2" y2="28.2"/></g><!--MD5=[1128c2817e8932270c5bed2adaae6e0e]
class VaccineAdministrationController--><g id="elem_VaccineAdministrationController"><rect codeLine="4" fill="#F1F1F1" height="208.4156" id="VaccineAdministrationController" rx="1.5" ry="1.5" style="stroke:#181818;stroke-width:0.3;" width="183" x="473.1" y="69.6"/><ellipse cx="501.75" cy="79.2" fill="#ADD1B2" rx="6.6" ry="6.6" style="stroke:#181818;stroke-width:0.6;"/><path d="M502.95,77.1 Q503.0719,76.8 503.2125,76.65 Q503.3531,76.5 503.5125,76.5 Q503.7938,76.5 503.9719,76.6688 Q504.15,76.8375 504.15,77.2313 L504.15,78.1688 Q504.15,78.5625 503.9813,78.7313 Q503.8125,78.9 503.55,78.9 Q503.3156,78.9 503.1656,78.7969 Q503.0156,78.6938 502.95,78.4219 Q502.9219,78.2344 502.8187,78.1313 Q502.6312,77.9344 502.2938,77.8219 Q501.9562,77.7 501.6188,77.7 Q501.1969,77.7 500.8406,77.8687 Q500.4938,78.0375 500.2219,78.4125 Q499.95,78.7875 499.95,79.3031 L499.95,79.8563 Q499.95,80.475 500.4562,80.8875 Q500.9625,81.3 501.8625,81.3 Q502.3969,81.3 502.7719,81.1781 Q502.9875,81.1125 503.2313,80.8969 Q503.3906,80.775 503.475,80.7375 Q503.5594,80.7 503.6625,80.7 Q503.8594,80.7 504,80.8594 Q504.15,81.0094 504.15,81.225 Q504.15,81.4312 503.9437,81.675 Q503.6437,82.0313 503.1656,82.2281 Q502.5375,82.5 501.7687,82.5 Q500.8688,82.5 500.1469,82.1438 Q499.5656,81.8625 499.1531,81.2531 Q498.75,80.6438 498.75,79.9219 L498.75,79.2656 Q498.75,78.5156 499.1063,77.8594 Q499.4719,77.2031 500.1,76.8563 Q500.7375,76.5 501.45,76.5 Q501.8812,76.5 502.2562,76.65 Q502.6312,76.8 502.95,77.1 Z " fill="#000000"/><text fill="#000000" font-family="sans-serif" font-size="8.4" lengthAdjust="spacing" textLength="120.6" x="514.05" y="82.6371">VaccineAdministrationController</text><line style="stroke:#181818;stroke-width:0.3;" x1="473.7" x2="655.5" y1="88.8" y2="88.8"/><text fill="#000000" font-family="sans-serif" font-size="8.4" lengthAdjust="spacing" textLength="97.8" x="476.7" y="99.9199">CenterStore : centerStore</text><text fill="#000000" font-family="sans-serif" font-size="8.4" lengthAdjust="spacing" textLength="57" x="476.7" y="110.4855">Center : center</text><text fill="#000000" font-family="sans-serif" font-size="8.4" lengthAdjust="spacing" textLength="93" x="476.7" y="121.0512">SNSUserList : waitingList</text><text fill="#000000" font-family="sans-serif" font-size="8.4" lengthAdjust="spacing" textLength="71.4" x="476.7" y="131.6168">SNSUser : snsUser</text><text fill="#000000" font-family="sans-serif" font-size="8.4" lengthAdjust="spacing" textLength="175.8" x="476.7" y="142.1824">VaccinationScheduleStore : vacScheduleStore</text><text fill="#000000" font-family="sans-serif" font-size="8.4" lengthAdjust="spacing" textLength="104.4" x="476.7" y="152.748">VaccineType : vaccineType</text><text fill="#000000" font-family="sans-serif" font-size="8.4" lengthAdjust="spacing" textLength="67.2" x="476.7" y="163.3137">String : typeName</text><text fill="#000000" font-family="sans-serif" font-size="8.4" lengthAdjust="spacing" textLength="140.4" x="476.7" y="173.8793">VaccineAdministrationStore : vaStore</text><text fill="#000000" font-family="sans-serif" font-size="8.4" lengthAdjust="spacing" textLength="82.2" x="476.7" y="184.4449">VaccineStore : vStore</text><text fill="#000000" font-family="sans-serif" font-size="8.4" lengthAdjust="spacing" textLength="60" x="476.7" y="195.0105">int : centerIndex</text><text fill="#000000" font-family="sans-serif" font-size="8.4" lengthAdjust="spacing" textLength="99.6" x="476.7" y="205.5762">VaccineAdministration : va</text><line style="stroke:#181818;stroke-width:0.3;" x1="473.7" x2="655.5" y1="209.8219" y2="209.8219"/><text fill="#000000" font-family="sans-serif" font-size="8.4" lengthAdjust="spacing" textLength="136.2" x="476.7" y="220.9418">checkUserInWaitingList(snsNumber)</text><text fill="#000000" font-family="sans-serif" font-size="8.4" lengthAdjust="spacing" textLength="85.8" x="476.7" y="231.5074">checkVaccineRecord()</text><text fill="#000000" font-family="sans-serif" font-size="8.4" lengthAdjust="spacing" textLength="111" x="476.7" y="242.073">showVaccineList(snsNumber)</text><text fill="#000000" font-family="sans-serif" font-size="8.4" lengthAdjust="spacing" textLength="48" x="476.7" y="252.6387">createDTO()</text><text fill="#000000" font-family="sans-serif" font-size="8.4" lengthAdjust="spacing" textLength="110.4" x="476.7" y="263.2043">addAdministration(vaccineID)</text><text fill="#000000" font-family="sans-serif" font-size="8.4" lengthAdjust="spacing" textLength="42" x="476.7" y="273.7699">sendSMS()</text></g><!--MD5=[02e4b9b7573f1156f41e60aa5b4e25a4]
class Company--><g id="elem_Company"><rect codeLine="24" fill="#F1F1F1" height="81.6281" id="Company" rx="1.5" ry="1.5" style="stroke:#181818;stroke-width:0.3;" width="129" x="348.3" y="314.4"/><ellipse cx="392.25" cy="324" fill="#ADD1B2" rx="6.6" ry="6.6" style="stroke:#181818;stroke-width:0.6;"/><path d="M393.45,321.9 Q393.5719,321.6 393.7125,321.45 Q393.8531,321.3 394.0125,321.3 Q394.2938,321.3 394.4719,321.4688 Q394.65,321.6375 394.65,322.0313 L394.65,322.9688 Q394.65,323.3625 394.4813,323.5313 Q394.3125,323.7 394.05,323.7 Q393.8156,323.7 393.6656,323.5969 Q393.5156,323.4938 393.45,323.2219 Q393.4219,323.0344 393.3187,322.9313 Q393.1312,322.7344 392.7938,322.6219 Q392.4563,322.5 392.1188,322.5 Q391.6969,322.5 391.3406,322.6688 Q390.9938,322.8375 390.7219,323.2125 Q390.45,323.5875 390.45,324.1031 L390.45,324.6563 Q390.45,325.275 390.9563,325.6875 Q391.4625,326.1 392.3625,326.1 Q392.8969,326.1 393.2719,325.9781 Q393.4875,325.9125 393.7313,325.6969 Q393.8906,325.575 393.975,325.5375 Q394.0594,325.5 394.1625,325.5 Q394.3594,325.5 394.5,325.6594 Q394.65,325.8094 394.65,326.025 Q394.65,326.2313 394.4437,326.475 Q394.1438,326.8313 393.6656,327.0281 Q393.0375,327.3 392.2688,327.3 Q391.3688,327.3 390.6469,326.9437 Q390.0656,326.6625 389.6531,326.0531 Q389.25,325.4437 389.25,324.7219 L389.25,324.0656 Q389.25,323.3156 389.6063,322.6594 Q389.9719,322.0031 390.6,321.6563 Q391.2375,321.3 391.95,321.3 Q392.3812,321.3 392.7562,321.45 Q393.1312,321.6 393.45,321.9 Z " fill="#000000"/><text fill="#000000" font-family="sans-serif" font-size="8.4" lengthAdjust="spacing" textLength="36" x="404.55" y="327.4371">Company</text><line style="stroke:#181818;stroke-width:0.3;" x1="348.9" x2="476.7" y1="333.6" y2="333.6"/><line style="stroke:#181818;stroke-width:0.3;" x1="348.9" x2="476.7" y1="338.4" y2="338.4"/><text fill="#000000" font-family="sans-serif" font-size="8.4" lengthAdjust="spacing" textLength="64.2" x="351.9" y="349.5199">getCenterStore()</text><text fill="#000000" font-family="sans-serif" font-size="8.4" lengthAdjust="spacing" textLength="72" x="351.9" y="360.0855">getSNSUserStore()</text><text fill="#000000" font-family="sans-serif" font-size="8.4" lengthAdjust="spacing" textLength="117.6" x="351.9" y="370.6512">getVaccinationScheduleStore()</text><text fill="#000000" font-family="sans-serif" font-size="8.4" lengthAdjust="spacing" textLength="121.8" x="351.9" y="381.2168">getVaccineAdministrationStore()</text><text fill="#000000" font-family="sans-serif" font-size="8.4" lengthAdjust="spacing" textLength="68.4" x="351.9" y="391.7824">getVaccineStore()</text></g><!--MD5=[21decfe067c1a9d9926435088e0dcf8f]
class CenterStore--><g id="elem_CenterStore"><rect codeLine="31" fill="#F1F1F1" height="49.9313" id="CenterStore" rx="1.5" ry="1.5" style="stroke:#181818;stroke-width:0.3;" width="124.2" x="120.9" y="453.3"/><ellipse cx="157.35" cy="462.9" fill="#ADD1B2" rx="6.6" ry="6.6" style="stroke:#181818;stroke-width:0.6;"/><path d="M158.55,460.8 Q158.6719,460.5 158.8125,460.35 Q158.9531,460.2 159.1125,460.2 Q159.3937,460.2 159.5719,460.3688 Q159.75,460.5375 159.75,460.9313 L159.75,461.8688 Q159.75,462.2625 159.5812,462.4313 Q159.4125,462.6 159.15,462.6 Q158.9156,462.6 158.7656,462.4969 Q158.6156,462.3937 158.55,462.1219 Q158.5219,461.9344 158.4188,461.8312 Q158.2313,461.6344 157.8937,461.5219 Q157.5563,461.4 157.2188,461.4 Q156.7969,461.4 156.4406,461.5687 Q156.0938,461.7375 155.8219,462.1125 Q155.55,462.4875 155.55,463.0031 L155.55,463.5563 Q155.55,464.175 156.0563,464.5875 Q156.5625,465 157.4625,465 Q157.9969,465 158.3719,464.8781 Q158.5875,464.8125 158.8312,464.5969 Q158.9906,464.475 159.075,464.4375 Q159.1594,464.4 159.2625,464.4 Q159.4594,464.4 159.6,464.5594 Q159.75,464.7094 159.75,464.925 Q159.75,465.1312 159.5438,465.375 Q159.2438,465.7313 158.7656,465.9281 Q158.1375,466.2 157.3688,466.2 Q156.4688,466.2 155.7469,465.8438 Q155.1656,465.5625 154.7531,464.9531 Q154.35,464.3438 154.35,463.6219 L154.35,462.9656 Q154.35,462.2156 154.7062,461.5594 Q155.0719,460.9031 155.7,460.5563 Q156.3375,460.2 157.05,460.2 Q157.4813,460.2 157.8563,460.35 Q158.2313,460.5 158.55,460.8 Z " fill="#000000"/><text fill="#000000" font-family="sans-serif" font-size="8.4" lengthAdjust="spacing" textLength="46.2" x="169.65" y="466.3371">CenterStore</text><line style="stroke:#181818;stroke-width:0.3;" x1="121.5" x2="244.5" y1="472.5" y2="472.5"/><text fill="#000000" font-family="sans-serif" font-size="8.4" lengthAdjust="spacing" textLength="100.2" x="124.5" y="483.6199">ArrayList&lt;Center&gt; : center</text><line style="stroke:#181818;stroke-width:0.3;" x1="121.5" x2="244.5" y1="487.8656" y2="487.8656"/><text fill="#000000" font-family="sans-serif" font-size="8.4" lengthAdjust="spacing" textLength="117" x="124.5" y="498.9855">getCenterByIndex(centerIndex)</text></g><!--MD5=[bbd32abb87742158d8b9937325662454]
class Center--><g id="elem_Center"><rect codeLine="35" fill="#F1F1F1" height="71.0625" id="Center" rx="1.5" ry="1.5" style="stroke:#181818;stroke-width:0.3;" width="116.4" x="94.2" y="805.5"/><ellipse cx="136.95" cy="815.1" fill="#ADD1B2" rx="6.6" ry="6.6" style="stroke:#181818;stroke-width:0.6;"/><path d="M138.15,813 Q138.2719,812.7 138.4125,812.55 Q138.5531,812.4 138.7125,812.4 Q138.9938,812.4 139.1719,812.5688 Q139.35,812.7375 139.35,813.1313 L139.35,814.0688 Q139.35,814.4625 139.1813,814.6313 Q139.0125,814.8 138.75,814.8 Q138.5156,814.8 138.3656,814.6969 Q138.2156,814.5938 138.15,814.3219 Q138.1219,814.1344 138.0187,814.0313 Q137.8312,813.8344 137.4938,813.7219 Q137.1563,813.6 136.8188,813.6 Q136.3969,813.6 136.0406,813.7688 Q135.6938,813.9375 135.4219,814.3125 Q135.15,814.6875 135.15,815.2031 L135.15,815.7563 Q135.15,816.375 135.6563,816.7875 Q136.1625,817.2 137.0625,817.2 Q137.5969,817.2 137.9719,817.0781 Q138.1875,817.0125 138.4313,816.7969 Q138.5906,816.675 138.675,816.6375 Q138.7594,816.6 138.8625,816.6 Q139.0594,816.6 139.2,816.7594 Q139.35,816.9094 139.35,817.125 Q139.35,817.3313 139.1437,817.575 Q138.8438,817.9313 138.3656,818.1281 Q137.7375,818.4 136.9688,818.4 Q136.0688,818.4 135.3469,818.0437 Q134.7656,817.7625 134.3531,817.1531 Q133.95,816.5437 133.95,815.8219 L133.95,815.1656 Q133.95,814.4156 134.3063,813.7594 Q134.6719,813.1031 135.3,812.7563 Q135.9375,812.4 136.65,812.4 Q137.0812,812.4 137.4562,812.55 Q137.8312,812.7 138.15,813 Z " fill="#000000"/><text fill="#000000" font-family="sans-serif" font-size="8.4" lengthAdjust="spacing" textLength="25.8" x="149.25" y="818.5371">Center</text><line style="stroke:#181818;stroke-width:0.3;" x1="94.8" x2="210" y1="824.7" y2="824.7"/><text fill="#000000" font-family="sans-serif" font-size="8.4" lengthAdjust="spacing" textLength="93" x="97.8" y="835.8199">SNSUserList : waitingList</text><text fill="#000000" font-family="sans-serif" font-size="8.4" lengthAdjust="spacing" textLength="109.2" x="97.8" y="846.3855">SNSUserList : recoveryRoom</text><line style="stroke:#181818;stroke-width:0.3;" x1="94.8" x2="210" y1="850.6313" y2="850.6313"/><text fill="#000000" font-family="sans-serif" font-size="8.4" lengthAdjust="spacing" textLength="76.2" x="97.8" y="861.7512">getRecoveryRoom()</text><text fill="#000000" font-family="sans-serif" font-size="8.4" lengthAdjust="spacing" textLength="59.4" x="97.8" y="872.3168">getWaitingList()</text></g><!--MD5=[7f65de2712b5b708f0dbcc1ce7b9cf5f]
class SNSUserList--><g id="elem_SNSUserList"><rect codeLine="41" fill="#F1F1F1" height="60.4969" id="SNSUserList" rx="1.5" ry="1.5" style="stroke:#181818;stroke-width:0.3;" width="101.4" x="68.7" y="976.2"/><ellipse cx="93.63" cy="985.8" fill="#ADD1B2" rx="6.6" ry="6.6" style="stroke:#181818;stroke-width:0.6;"/><path d="M94.83,983.7 Q94.9519,983.4 95.0925,983.25 Q95.2331,983.1 95.3925,983.1 Q95.6738,983.1 95.8519,983.2688 Q96.03,983.4375 96.03,983.8313 L96.03,984.7688 Q96.03,985.1625 95.8613,985.3313 Q95.6925,985.5 95.43,985.5 Q95.1956,985.5 95.0456,985.3969 Q94.8956,985.2937 94.83,985.0219 Q94.8019,984.8344 94.6988,984.7312 Q94.5113,984.5344 94.1738,984.4219 Q93.8363,984.3 93.4988,984.3 Q93.0769,984.3 92.7206,984.4688 Q92.3738,984.6375 92.1019,985.0125 Q91.83,985.3875 91.83,985.9031 L91.83,986.4563 Q91.83,987.075 92.3363,987.4875 Q92.8425,987.9 93.7425,987.9 Q94.2769,987.9 94.6519,987.7781 Q94.8675,987.7125 95.1113,987.4969 Q95.2706,987.375 95.355,987.3375 Q95.4394,987.3 95.5425,987.3 Q95.7394,987.3 95.88,987.4594 Q96.03,987.6094 96.03,987.825 Q96.03,988.0313 95.8238,988.275 Q95.5238,988.6312 95.0456,988.8281 Q94.4175,989.1 93.6488,989.1 Q92.7488,989.1 92.0269,988.7438 Q91.4456,988.4625 91.0331,987.8531 Q90.63,987.2438 90.63,986.5219 L90.63,985.8656 Q90.63,985.1156 90.9863,984.4594 Q91.3519,983.8031 91.98,983.4563 Q92.6175,983.1 93.33,983.1 Q93.7613,983.1 94.1363,983.25 Q94.5113,983.4 94.83,983.7 Z " fill="#000000"/><text fill="#000000" font-family="sans-serif" font-size="8.4" lengthAdjust="spacing" textLength="46.8" x="105.57" y="989.2371">SNSUserList</text><line style="stroke:#181818;stroke-width:0.3;" x1="69.3" x2="169.5" y1="995.4" y2="995.4"/><text fill="#000000" font-family="sans-serif" font-size="8.4" lengthAdjust="spacing" textLength="94.2" x="72.3" y="1006.5199">ArrayList&lt;SNSUser&gt; : list</text><line style="stroke:#181818;stroke-width:0.3;" x1="69.3" x2="169.5" y1="1010.7656" y2="1010.7656"/><text fill="#000000" font-family="sans-serif" font-size="8.4" lengthAdjust="spacing" textLength="37.8" x="72.3" y="1021.8855">get(index)</text><text fill="#000000" font-family="sans-serif" font-size="8.4" lengthAdjust="spacing" textLength="34.2" x="72.3" y="1032.4512">remove()</text></g><!--MD5=[c08e285a0fa8a6d5e0549be306e0feaa]
class VaccinationScheduleStore--><g id="elem_VaccinationScheduleStore"><rect codeLine="46" fill="#F1F1F1" height="49.9313" id="VaccinationScheduleStore" rx="1.5" ry="1.5" style="stroke:#181818;stroke-width:0.3;" width="200.4" x="1039.8" y="453.3"/><ellipse cx="1087.65" cy="462.9" fill="#ADD1B2" rx="6.6" ry="6.6" style="stroke:#181818;stroke-width:0.6;"/><path d="M1088.85,460.8 Q1088.9719,460.5 1089.1125,460.35 Q1089.2531,460.2 1089.4125,460.2 Q1089.6938,460.2 1089.8719,460.3688 Q1090.05,460.5375 1090.05,460.9313 L1090.05,461.8688 Q1090.05,462.2625 1089.8813,462.4313 Q1089.7125,462.6 1089.45,462.6 Q1089.2156,462.6 1089.0656,462.4969 Q1088.9156,462.3937 1088.85,462.1219 Q1088.8219,461.9344 1088.7188,461.8312 Q1088.5313,461.6344 1088.1938,461.5219 Q1087.8563,461.4 1087.5188,461.4 Q1087.0969,461.4 1086.7406,461.5687 Q1086.3938,461.7375 1086.1219,462.1125 Q1085.85,462.4875 1085.85,463.0031 L1085.85,463.5563 Q1085.85,464.175 1086.3563,464.5875 Q1086.8625,465 1087.7625,465 Q1088.2969,465 1088.6719,464.8781 Q1088.8875,464.8125 1089.1313,464.5969 Q1089.2906,464.475 1089.375,464.4375 Q1089.4594,464.4 1089.5625,464.4 Q1089.7594,464.4 1089.9,464.5594 Q1090.05,464.7094 1090.05,464.925 Q1090.05,465.1312 1089.8438,465.375 Q1089.5438,465.7313 1089.0656,465.9281 Q1088.4375,466.2 1087.6688,466.2 Q1086.7688,466.2 1086.0469,465.8438 Q1085.4656,465.5625 1085.0531,464.9531 Q1084.65,464.3438 1084.65,463.6219 L1084.65,462.9656 Q1084.65,462.2156 1085.0063,461.5594 Q1085.3719,460.9031 1086,460.5563 Q1086.6375,460.2 1087.35,460.2 Q1087.7813,460.2 1088.1563,460.35 Q1088.5313,460.5 1088.85,460.8 Z " fill="#000000"/><text fill="#000000" font-family="sans-serif" font-size="8.4" lengthAdjust="spacing" textLength="99.6" x="1099.95" y="466.3371">VaccinationScheduleStore</text><line style="stroke:#181818;stroke-width:0.3;" x1="1040.4" x2="1239.6" y1="472.5" y2="472.5"/><text fill="#000000" font-family="sans-serif" font-size="8.4" lengthAdjust="spacing" textLength="148.8" x="1043.4" y="483.6199">ArrayList&lt;VaccinationSchedule&gt; : store</text><line style="stroke:#181818;stroke-width:0.3;" x1="1040.4" x2="1239.6" y1="487.8656" y2="487.8656"/><text fill="#000000" font-family="sans-serif" font-size="8.4" lengthAdjust="spacing" textLength="193.2" x="1043.4" y="498.9855">getVaccinationScheduleBySnsNumber(snsNumber)</text></g><!--MD5=[1612b8357b70f5d13ccd48e3242747ad]
class VaccinationSchedule--><g id="elem_VaccinationSchedule"><rect codeLine="50" fill="#F1F1F1" height="49.9313" id="VaccinationSchedule" rx="1.5" ry="1.5" style="stroke:#181818;stroke-width:0.3;" width="111.6" x="1117.2" y="613.2"/><ellipse cx="1132.14" cy="622.8" fill="#ADD1B2" rx="6.6" ry="6.6" style="stroke:#181818;stroke-width:0.6;"/><path d="M1133.34,620.7 Q1133.4619,620.4 1133.6025,620.25 Q1133.7431,620.1 1133.9025,620.1 Q1134.1838,620.1 1134.3619,620.2688 Q1134.54,620.4375 1134.54,620.8313 L1134.54,621.7688 Q1134.54,622.1625 1134.3713,622.3313 Q1134.2025,622.5 1133.94,622.5 Q1133.7056,622.5 1133.5556,622.3969 Q1133.4056,622.2937 1133.34,622.0219 Q1133.3119,621.8344 1133.2088,621.7312 Q1133.0213,621.5344 1132.6838,621.4219 Q1132.3463,621.3 1132.0088,621.3 Q1131.5869,621.3 1131.2306,621.4688 Q1130.8838,621.6375 1130.6119,622.0125 Q1130.34,622.3875 1130.34,622.9031 L1130.34,623.4563 Q1130.34,624.075 1130.8463,624.4875 Q1131.3525,624.9 1132.2525,624.9 Q1132.7869,624.9 1133.1619,624.7781 Q1133.3775,624.7125 1133.6213,624.4969 Q1133.7806,624.375 1133.865,624.3375 Q1133.9494,624.3 1134.0525,624.3 Q1134.2494,624.3 1134.39,624.4594 Q1134.54,624.6094 1134.54,624.825 Q1134.54,625.0313 1134.3338,625.275 Q1134.0338,625.6313 1133.5556,625.8281 Q1132.9275,626.1 1132.1588,626.1 Q1131.2588,626.1 1130.5369,625.7438 Q1129.9556,625.4625 1129.5431,624.8531 Q1129.14,624.2438 1129.14,623.5219 L1129.14,622.8656 Q1129.14,622.1156 1129.4963,621.4594 Q1129.8619,620.8031 1130.49,620.4563 Q1131.1275,620.1 1131.84,620.1 Q1132.2713,620.1 1132.6463,620.25 Q1133.0213,620.4 1133.34,620.7 Z " fill="#000000"/><text fill="#000000" font-family="sans-serif" font-size="8.4" lengthAdjust="spacing" textLength="79.2" x="1141.86" y="626.2371">VaccinationSchedule</text><line style="stroke:#181818;stroke-width:0.3;" x1="1117.8" x2="1228.2" y1="632.4" y2="632.4"/><text fill="#000000" font-family="sans-serif" font-size="8.4" lengthAdjust="spacing" textLength="104.4" x="1120.8" y="643.5199">VaccineType : vaccineType</text><line style="stroke:#181818;stroke-width:0.3;" x1="1117.8" x2="1228.2" y1="647.7656" y2="647.7656"/><text fill="#000000" font-family="sans-serif" font-size="8.4" lengthAdjust="spacing" textLength="67.2" x="1120.8" y="658.8855">getVaccineType()</text></g><!--MD5=[0e501da62322464167c8ec4d233a6b7e]
class VaccineType--><g id="elem_VaccineType"><rect codeLine="54" fill="#F1F1F1" height="49.9313" id="VaccineType" rx="1.5" ry="1.5" style="stroke:#181818;stroke-width:0.3;" width="68.4" x="1207.2" y="816"/><ellipse cx="1216.2" cy="825.6" fill="#ADD1B2" rx="6.6" ry="6.6" style="stroke:#181818;stroke-width:0.6;"/><path d="M1217.4,823.5 Q1217.5219,823.2 1217.6625,823.05 Q1217.8031,822.9 1217.9625,822.9 Q1218.2437,822.9 1218.4219,823.0688 Q1218.6,823.2375 1218.6,823.6313 L1218.6,824.5688 Q1218.6,824.9625 1218.4312,825.1313 Q1218.2625,825.3 1218,825.3 Q1217.7656,825.3 1217.6156,825.1969 Q1217.4656,825.0938 1217.4,824.8219 Q1217.3719,824.6344 1217.2688,824.5313 Q1217.0813,824.3344 1216.7437,824.2219 Q1216.4063,824.1 1216.0688,824.1 Q1215.6469,824.1 1215.2906,824.2688 Q1214.9438,824.4375 1214.6719,824.8125 Q1214.4,825.1875 1214.4,825.7031 L1214.4,826.2563 Q1214.4,826.875 1214.9063,827.2875 Q1215.4125,827.7 1216.3125,827.7 Q1216.8469,827.7 1217.2219,827.5781 Q1217.4375,827.5125 1217.6812,827.2969 Q1217.8406,827.175 1217.925,827.1375 Q1218.0094,827.1 1218.1125,827.1 Q1218.3094,827.1 1218.45,827.2594 Q1218.6,827.4094 1218.6,827.625 Q1218.6,827.8313 1218.3938,828.075 Q1218.0938,828.4313 1217.6156,828.6281 Q1216.9875,828.9 1216.2188,828.9 Q1215.3188,828.9 1214.5969,828.5437 Q1214.0156,828.2625 1213.6031,827.6531 Q1213.2,827.0437 1213.2,826.3219 L1213.2,825.6656 Q1213.2,824.9156 1213.5562,824.2594 Q1213.9219,823.6031 1214.55,823.2563 Q1215.1875,822.9 1215.9,822.9 Q1216.3313,822.9 1216.7063,823.05 Q1217.0813,823.2 1217.4,823.5 Z " fill="#000000"/><text fill="#000000" font-family="sans-serif" font-size="8.4" lengthAdjust="spacing" textLength="49.2" x="1224.6" y="829.0371">VaccineType</text><line style="stroke:#181818;stroke-width:0.3;" x1="1207.8" x2="1275" y1="835.2" y2="835.2"/><line style="stroke:#181818;stroke-width:0.3;" x1="1207.8" x2="1275" y1="840" y2="840"/><text fill="#000000" font-family="sans-serif" font-size="8.4" lengthAdjust="spacing" textLength="25.8" x="1210.8" y="851.1199">getID()</text><text fill="#000000" font-family="sans-serif" font-size="8.4" lengthAdjust="spacing" textLength="39.6" x="1210.8" y="861.6855">getName()</text></g><!--MD5=[16e898dea44373438d7a6991ca77efa0]
class VaccineStore--><g id="elem_VaccineStore"><rect codeLine="58" fill="#F1F1F1" height="60.4969" id="VaccineStore" rx="1.5" ry="1.5" style="stroke:#181818;stroke-width:0.3;" width="156.6" x="520.5" y="447.9"/><ellipse cx="571.05" cy="457.5" fill="#ADD1B2" rx="6.6" ry="6.6" style="stroke:#181818;stroke-width:0.6;"/><path d="M572.25,455.4 Q572.3719,455.1 572.5125,454.95 Q572.6531,454.8 572.8125,454.8 Q573.0938,454.8 573.2719,454.9688 Q573.45,455.1375 573.45,455.5313 L573.45,456.4688 Q573.45,456.8625 573.2813,457.0313 Q573.1125,457.2 572.85,457.2 Q572.6156,457.2 572.4656,457.0969 Q572.3156,456.9938 572.25,456.7219 Q572.2219,456.5344 572.1188,456.4313 Q571.9313,456.2344 571.5938,456.1219 Q571.2563,456 570.9187,456 Q570.4969,456 570.1406,456.1688 Q569.7937,456.3375 569.5219,456.7125 Q569.25,457.0875 569.25,457.6031 L569.25,458.1563 Q569.25,458.775 569.7563,459.1875 Q570.2625,459.6 571.1625,459.6 Q571.6969,459.6 572.0719,459.4781 Q572.2875,459.4125 572.5313,459.1969 Q572.6906,459.075 572.775,459.0375 Q572.8594,459 572.9625,459 Q573.1594,459 573.3,459.1594 Q573.45,459.3094 573.45,459.525 Q573.45,459.7313 573.2438,459.975 Q572.9438,460.3313 572.4656,460.5281 Q571.8375,460.8 571.0688,460.8 Q570.1687,460.8 569.4469,460.4437 Q568.8656,460.1625 568.4531,459.5531 Q568.05,458.9437 568.05,458.2219 L568.05,457.5656 Q568.05,456.8156 568.4063,456.1594 Q568.7719,455.5031 569.4,455.1563 Q570.0375,454.8 570.75,454.8 Q571.1813,454.8 571.5563,454.95 Q571.9313,455.1 572.25,455.4 Z " fill="#000000"/><text fill="#000000" font-family="sans-serif" font-size="8.4" lengthAdjust="spacing" textLength="50.4" x="583.35" y="460.9371">VaccineStore</text><line style="stroke:#181818;stroke-width:0.3;" x1="521.1" x2="676.5" y1="467.1" y2="467.1"/><text fill="#000000" font-family="sans-serif" font-size="8.4" lengthAdjust="spacing" textLength="99.6" x="524.1" y="478.2199">ArrayList&lt;Vaccine&gt; : store</text><line style="stroke:#181818;stroke-width:0.3;" x1="521.1" x2="676.5" y1="482.4656" y2="482.4656"/><text fill="#000000" font-family="sans-serif" font-size="8.4" lengthAdjust="spacing" textLength="149.4" x="524.1" y="493.5855">getVaccineListByTypeName(typeName)</text><text fill="#000000" font-family="sans-serif" font-size="8.4" lengthAdjust="spacing" textLength="72" x="524.1" y="504.1512">getVaccineByID(id)</text></g><!--MD5=[9c7b75a82c767e41b11326b2fcd2ffcc]
class VaccineMapper--><g id="elem_VaccineMapper"><rect codeLine="63" fill="#F1F1F1" height="49.9313" id="VaccineMapper" rx="1.5" ry="1.5" style="stroke:#181818;stroke-width:0.3;" width="232.8" x="711.6" y="330.3"/><ellipse cx="796.05" cy="339.9" fill="#ADD1B2" rx="6.6" ry="6.6" style="stroke:#181818;stroke-width:0.6;"/><path d="M797.25,337.8 Q797.3719,337.5 797.5125,337.35 Q797.6531,337.2 797.8125,337.2 Q798.0938,337.2 798.2719,337.3688 Q798.45,337.5375 798.45,337.9313 L798.45,338.8688 Q798.45,339.2625 798.2813,339.4313 Q798.1125,339.6 797.85,339.6 Q797.6156,339.6 797.4656,339.4969 Q797.3156,339.3938 797.25,339.1219 Q797.2219,338.9344 797.1188,338.8313 Q796.9313,338.6344 796.5938,338.5219 Q796.2563,338.4 795.9187,338.4 Q795.4969,338.4 795.1406,338.5687 Q794.7937,338.7375 794.5219,339.1125 Q794.25,339.4875 794.25,340.0031 L794.25,340.5563 Q794.25,341.175 794.7563,341.5875 Q795.2625,342 796.1625,342 Q796.6969,342 797.0719,341.8781 Q797.2875,341.8125 797.5313,341.5969 Q797.6906,341.475 797.775,341.4375 Q797.8594,341.4 797.9625,341.4 Q798.1594,341.4 798.3,341.5594 Q798.45,341.7094 798.45,341.925 Q798.45,342.1312 798.2438,342.375 Q797.9438,342.7313 797.4656,342.9281 Q796.8375,343.2 796.0688,343.2 Q795.1687,343.2 794.4469,342.8438 Q793.8656,342.5625 793.4531,341.9531 Q793.05,341.3438 793.05,340.6219 L793.05,339.9656 Q793.05,339.2156 793.4063,338.5594 Q793.7719,337.9031 794.4,337.5563 Q795.0375,337.2 795.75,337.2 Q796.1813,337.2 796.5563,337.35 Q796.9313,337.5 797.25,337.8 Z " fill="#000000"/><text fill="#000000" font-family="sans-serif" font-size="8.4" lengthAdjust="spacing" textLength="58.8" x="808.35" y="343.3371">VaccineMapper</text><line style="stroke:#181818;stroke-width:0.3;" x1="712.2" x2="943.8" y1="349.5" y2="349.5"/><line style="stroke:#181818;stroke-width:0.3;" x1="712.2" x2="943.8" y1="354.3" y2="354.3"/><text fill="#000000" font-family="sans-serif" font-size="8.4" lengthAdjust="spacing" textLength="73.2" x="715.2" y="365.4199">toDTO(vaccineList)</text><text fill="#000000" font-family="sans-serif" font-size="8.4" lengthAdjust="spacing" textLength="225.6" x="715.2" y="375.9855">create(typeId,name,id,dosage,ageGroupMax,ageGroupMin)</text></g><!--MD5=[04d641994c2dd95a530e2fa170bbe70e]
class VaccineList--><g id="elem_VaccineList"><rect codeLine="67" fill="#F1F1F1" height="60.4969" id="VaccineList" rx="1.5" ry="1.5" style="stroke:#181818;stroke-width:0.3;" width="97.8" x="698.1" y="447.9"/><ellipse cx="723.03" cy="457.5" fill="#ADD1B2" rx="6.6" ry="6.6" style="stroke:#181818;stroke-width:0.6;"/><path d="M724.23,455.4 Q724.3519,455.1 724.4925,454.95 Q724.6331,454.8 724.7925,454.8 Q725.0737,454.8 725.2519,454.9688 Q725.43,455.1375 725.43,455.5313 L725.43,456.4688 Q725.43,456.8625 725.2612,457.0313 Q725.0925,457.2 724.83,457.2 Q724.5956,457.2 724.4456,457.0969 Q724.2956,456.9938 724.23,456.7219 Q724.2019,456.5344 724.0988,456.4313 Q723.9113,456.2344 723.5737,456.1219 Q723.2362,456 722.8988,456 Q722.4769,456 722.1206,456.1688 Q721.7738,456.3375 721.5019,456.7125 Q721.23,457.0875 721.23,457.6031 L721.23,458.1563 Q721.23,458.775 721.7362,459.1875 Q722.2425,459.6 723.1425,459.6 Q723.6769,459.6 724.0519,459.4781 Q724.2675,459.4125 724.5112,459.1969 Q724.6706,459.075 724.755,459.0375 Q724.8394,459 724.9425,459 Q725.1394,459 725.28,459.1594 Q725.43,459.3094 725.43,459.525 Q725.43,459.7313 725.2238,459.975 Q724.9237,460.3313 724.4456,460.5281 Q723.8175,460.8 723.0487,460.8 Q722.1488,460.8 721.4269,460.4437 Q720.8456,460.1625 720.4331,459.5531 Q720.03,458.9437 720.03,458.2219 L720.03,457.5656 Q720.03,456.8156 720.3862,456.1594 Q720.7519,455.5031 721.38,455.1563 Q722.0175,454.8 722.73,454.8 Q723.1613,454.8 723.5363,454.95 Q723.9113,455.1 724.23,455.4 Z " fill="#000000"/><text fill="#000000" font-family="sans-serif" font-size="8.4" lengthAdjust="spacing" textLength="43.2" x="734.97" y="460.9371">VaccineList</text><line style="stroke:#181818;stroke-width:0.3;" x1="698.7" x2="795.3" y1="467.1" y2="467.1"/><text fill="#000000" font-family="sans-serif" font-size="8.4" lengthAdjust="spacing" textLength="90.6" x="701.7" y="478.2199">ArrayList&lt;Vaccine&gt; : list</text><line style="stroke:#181818;stroke-width:0.3;" x1="698.7" x2="795.3" y1="482.4656" y2="482.4656"/><text fill="#000000" font-family="sans-serif" font-size="8.4" lengthAdjust="spacing" textLength="19.8" x="701.7" y="493.5855">get(i)</text><text fill="#000000" font-family="sans-serif" font-size="8.4" lengthAdjust="spacing" textLength="49.2" x="701.7" y="504.1512">add(vaccine)</text></g><!--MD5=[19e445fc4d3b48519cbe33da05496394]
class Vaccine--><g id="elem_Vaccine"><rect codeLine="72" fill="#F1F1F1" height="176.7188" id="Vaccine" rx="1.5" ry="1.5" style="stroke:#181818;stroke-width:0.3;" width="79.2" x="633.6" y="752.4"/><ellipse cx="656.1" cy="762" fill="#ADD1B2" rx="6.6" ry="6.6" style="stroke:#181818;stroke-width:0.6;"/><path d="M657.3,759.9 Q657.4219,759.6 657.5625,759.45 Q657.7031,759.3 657.8625,759.3 Q658.1438,759.3 658.3219,759.4688 Q658.5,759.6375 658.5,760.0313 L658.5,760.9688 Q658.5,761.3625 658.3313,761.5313 Q658.1625,761.7 657.9,761.7 Q657.6656,761.7 657.5156,761.5969 Q657.3656,761.4938 657.3,761.2219 Q657.2719,761.0344 657.1687,760.9313 Q656.9812,760.7344 656.6438,760.6219 Q656.3063,760.5 655.9688,760.5 Q655.5469,760.5 655.1906,760.6687 Q654.8438,760.8375 654.5719,761.2125 Q654.3,761.5875 654.3,762.1031 L654.3,762.6563 Q654.3,763.275 654.8063,763.6875 Q655.3125,764.1 656.2125,764.1 Q656.7469,764.1 657.1219,763.9781 Q657.3375,763.9125 657.5813,763.6969 Q657.7406,763.575 657.825,763.5375 Q657.9094,763.5 658.0125,763.5 Q658.2094,763.5 658.35,763.6594 Q658.5,763.8094 658.5,764.025 Q658.5,764.2312 658.2937,764.475 Q657.9938,764.8313 657.5156,765.0281 Q656.8875,765.3 656.1188,765.3 Q655.2188,765.3 654.4969,764.9438 Q653.9156,764.6625 653.5031,764.0531 Q653.1,763.4438 653.1,762.7219 L653.1,762.0656 Q653.1,761.3156 653.4563,760.6594 Q653.8219,760.0031 654.45,759.6563 Q655.0875,759.3 655.8,759.3 Q656.2312,759.3 656.6062,759.45 Q656.9812,759.6 657.3,759.9 Z " fill="#000000"/><text fill="#000000" font-family="sans-serif" font-size="8.4" lengthAdjust="spacing" textLength="30" x="667.5" y="765.4371">Vaccine</text><line style="stroke:#181818;stroke-width:0.3;" x1="634.2" x2="712.2" y1="771.6" y2="771.6"/><text fill="#000000" font-family="sans-serif" font-size="8.4" lengthAdjust="spacing" textLength="40.2" x="637.2" y="782.7199">int : typeID</text><text fill="#000000" font-family="sans-serif" font-size="8.4" lengthAdjust="spacing" textLength="50.4" x="637.2" y="793.2855">String : name</text><text fill="#000000" font-family="sans-serif" font-size="8.4" lengthAdjust="spacing" textLength="22.8" x="637.2" y="803.8512">int : id</text><text fill="#000000" font-family="sans-serif" font-size="8.4" lengthAdjust="spacing" textLength="61.2" x="637.2" y="814.4168">double : dosage</text><text fill="#000000" font-family="sans-serif" font-size="8.4" lengthAdjust="spacing" textLength="69.6" x="637.2" y="824.9824">int : ageGroupMax</text><text fill="#000000" font-family="sans-serif" font-size="8.4" lengthAdjust="spacing" textLength="67.8" x="637.2" y="835.548">int : ageGroupMin</text><text fill="#000000" font-family="sans-serif" font-size="8.4" lengthAdjust="spacing" textLength="54" x="637.2" y="846.1137">int : nOfDoses</text><line style="stroke:#181818;stroke-width:0.3;" x1="634.2" x2="712.2" y1="850.3594" y2="850.3594"/><text fill="#000000" font-family="sans-serif" font-size="8.4" lengthAdjust="spacing" textLength="45" x="637.2" y="861.4793">getTypeID()</text><text fill="#000000" font-family="sans-serif" font-size="8.4" lengthAdjust="spacing" textLength="39.6" x="637.2" y="872.0449">getName()</text><text fill="#000000" font-family="sans-serif" font-size="8.4" lengthAdjust="spacing" textLength="25.8" x="637.2" y="882.6105">getID()</text><text fill="#000000" font-family="sans-serif" font-size="8.4" lengthAdjust="spacing" textLength="47.4" x="637.2" y="893.1762">getDosage()</text><text fill="#000000" font-family="sans-serif" font-size="8.4" lengthAdjust="spacing" textLength="72" x="637.2" y="903.7418">getAgeGroupMax()</text><text fill="#000000" font-family="sans-serif" font-size="8.4" lengthAdjust="spacing" textLength="70.2" x="637.2" y="914.3074">getAgeGroupMin()</text><text fill="#000000" font-family="sans-serif" font-size="8.4" lengthAdjust="spacing" textLength="56.4" x="637.2" y="924.873">getNOfDoses()</text></g><!--MD5=[92b5363bf864e65d893f7702c4daabf8]
class VaccineListDTO--><g id="elem_VaccineListDTO"><rect codeLine="89" fill="#F1F1F1" height="49.9313" id="VaccineListDTO" rx="1.5" ry="1.5" style="stroke:#181818;stroke-width:0.3;" width="115.8" x="902.7" y="453.3"/><ellipse cx="927.63" cy="462.9" fill="#ADD1B2" rx="6.6" ry="6.6" style="stroke:#181818;stroke-width:0.6;"/><path d="M928.83,460.8 Q928.9519,460.5 929.0925,460.35 Q929.2331,460.2 929.3925,460.2 Q929.6737,460.2 929.8519,460.3688 Q930.03,460.5375 930.03,460.9313 L930.03,461.8688 Q930.03,462.2625 929.8612,462.4313 Q929.6925,462.6 929.43,462.6 Q929.1956,462.6 929.0456,462.4969 Q928.8956,462.3937 928.83,462.1219 Q928.8019,461.9344 928.6987,461.8312 Q928.5112,461.6344 928.1737,461.5219 Q927.8363,461.4 927.4988,461.4 Q927.0769,461.4 926.7206,461.5687 Q926.3738,461.7375 926.1019,462.1125 Q925.83,462.4875 925.83,463.0031 L925.83,463.5563 Q925.83,464.175 926.3363,464.5875 Q926.8425,465 927.7425,465 Q928.2769,465 928.6519,464.8781 Q928.8675,464.8125 929.1112,464.5969 Q929.2706,464.475 929.355,464.4375 Q929.4394,464.4 929.5425,464.4 Q929.7394,464.4 929.88,464.5594 Q930.03,464.7094 930.03,464.925 Q930.03,465.1312 929.8237,465.375 Q929.5238,465.7313 929.0456,465.9281 Q928.4175,466.2 927.6488,466.2 Q926.7488,466.2 926.0269,465.8438 Q925.4456,465.5625 925.0331,464.9531 Q924.63,464.3438 924.63,463.6219 L924.63,462.9656 Q924.63,462.2156 924.9862,461.5594 Q925.3519,460.9031 925.98,460.5563 Q926.6175,460.2 927.33,460.2 Q927.7612,460.2 928.1362,460.35 Q928.5112,460.5 928.83,460.8 Z " fill="#000000"/><text fill="#000000" font-family="sans-serif" font-size="8.4" lengthAdjust="spacing" textLength="61.2" x="939.57" y="466.3371">VaccineListDTO</text><line style="stroke:#181818;stroke-width:0.3;" x1="903.3" x2="1017.9" y1="472.5" y2="472.5"/><text fill="#000000" font-family="sans-serif" font-size="8.4" lengthAdjust="spacing" textLength="108.6" x="906.3" y="483.6199">ArrayList&lt;VaccineDTO&gt; : list</text><line style="stroke:#181818;stroke-width:0.3;" x1="903.3" x2="1017.9" y1="487.8656" y2="487.8656"/><text fill="#000000" font-family="sans-serif" font-size="8.4" lengthAdjust="spacing" textLength="67.2" x="906.3" y="498.9855">add(vaccineDTO)</text></g><!--MD5=[706b5eb15aa802b388238e64b463a252]
class VaccineDTO--><g id="elem_VaccineDTO"><rect codeLine="93" fill="#F1F1F1" height="155.5875" id="VaccineDTO" rx="1.5" ry="1.5" style="stroke:#181818;stroke-width:0.3;" width="79.2" x="876.6" y="560.4"/><ellipse cx="891" cy="570" fill="#ADD1B2" rx="6.6" ry="6.6" style="stroke:#181818;stroke-width:0.6;"/><path d="M892.2,567.9 Q892.3219,567.6 892.4625,567.45 Q892.6031,567.3 892.7625,567.3 Q893.0437,567.3 893.2219,567.4688 Q893.4,567.6375 893.4,568.0313 L893.4,568.9688 Q893.4,569.3625 893.2312,569.5313 Q893.0625,569.7 892.8,569.7 Q892.5656,569.7 892.4156,569.5969 Q892.2656,569.4938 892.2,569.2219 Q892.1719,569.0344 892.0688,568.9313 Q891.8813,568.7344 891.5437,568.6219 Q891.2063,568.5 890.8688,568.5 Q890.4469,568.5 890.0906,568.6687 Q889.7438,568.8375 889.4719,569.2125 Q889.2,569.5875 889.2,570.1031 L889.2,570.6563 Q889.2,571.275 889.7063,571.6875 Q890.2125,572.1 891.1125,572.1 Q891.6469,572.1 892.0219,571.9781 Q892.2375,571.9125 892.4812,571.6969 Q892.6406,571.575 892.725,571.5375 Q892.8094,571.5 892.9125,571.5 Q893.1094,571.5 893.25,571.6594 Q893.4,571.8094 893.4,572.025 Q893.4,572.2312 893.1938,572.475 Q892.8938,572.8313 892.4156,573.0281 Q891.7875,573.3 891.0188,573.3 Q890.1188,573.3 889.3969,572.9438 Q888.8156,572.6625 888.4031,572.0531 Q888,571.4438 888,570.7219 L888,570.0656 Q888,569.3156 888.3562,568.6594 Q888.7219,568.0031 889.35,567.6563 Q889.9875,567.3 890.7,567.3 Q891.1313,567.3 891.5063,567.45 Q891.8813,567.6 892.2,567.9 Z " fill="#000000"/><text fill="#000000" font-family="sans-serif" font-size="8.4" lengthAdjust="spacing" textLength="48" x="900.6" y="573.4371">VaccineDTO</text><line style="stroke:#181818;stroke-width:0.3;" x1="877.2" x2="955.2" y1="579.6" y2="579.6"/><text fill="#000000" font-family="sans-serif" font-size="8.4" lengthAdjust="spacing" textLength="40.2" x="880.2" y="590.7199">int : typeID</text><text fill="#000000" font-family="sans-serif" font-size="8.4" lengthAdjust="spacing" textLength="50.4" x="880.2" y="601.2855">String : name</text><text fill="#000000" font-family="sans-serif" font-size="8.4" lengthAdjust="spacing" textLength="22.8" x="880.2" y="611.8512">int : id</text><text fill="#000000" font-family="sans-serif" font-size="8.4" lengthAdjust="spacing" textLength="61.2" x="880.2" y="622.4168">double : dosage</text><text fill="#000000" font-family="sans-serif" font-size="8.4" lengthAdjust="spacing" textLength="69.6" x="880.2" y="632.9824">int : ageGroupMax</text><text fill="#000000" font-family="sans-serif" font-size="8.4" lengthAdjust="spacing" textLength="67.8" x="880.2" y="643.548">int : ageGroupMin</text><line style="stroke:#181818;stroke-width:0.3;" x1="877.2" x2="955.2" y1="647.7937" y2="647.7937"/><text fill="#000000" font-family="sans-serif" font-size="8.4" lengthAdjust="spacing" textLength="45" x="880.2" y="658.9137">getTypeID()</text><text fill="#000000" font-family="sans-serif" font-size="8.4" lengthAdjust="spacing" textLength="39.6" x="880.2" y="669.4793">getName()</text><text fill="#000000" font-family="sans-serif" font-size="8.4" lengthAdjust="spacing" textLength="25.8" x="880.2" y="680.0449">getID()</text><text fill="#000000" font-family="sans-serif" font-size="8.4" lengthAdjust="spacing" textLength="47.4" x="880.2" y="690.6105">getDosage()</text><text fill="#000000" font-family="sans-serif" font-size="8.4" lengthAdjust="spacing" textLength="72" x="880.2" y="701.1762">getAgeGroupMax()</text><text fill="#000000" font-family="sans-serif" font-size="8.4" lengthAdjust="spacing" textLength="70.2" x="880.2" y="711.7418">getAgeGroupMin()</text></g><!--MD5=[5ddb3901a3b177819463bfb72cbada42]
class VaccineAdministrationStore--><g id="elem_VaccineAdministrationStore"><rect codeLine="108" fill="#F1F1F1" height="71.0625" id="VaccineAdministrationStore" rx="1.5" ry="1.5" style="stroke:#181818;stroke-width:0.3;" width="190.2" x="266.1" y="442.8"/><ellipse cx="306.75" cy="452.4" fill="#ADD1B2" rx="6.6" ry="6.6" style="stroke:#181818;stroke-width:0.6;"/><path d="M307.95,450.3 Q308.0719,450 308.2125,449.85 Q308.3531,449.7 308.5125,449.7 Q308.7938,449.7 308.9719,449.8688 Q309.15,450.0375 309.15,450.4313 L309.15,451.3688 Q309.15,451.7625 308.9813,451.9313 Q308.8125,452.1 308.55,452.1 Q308.3156,452.1 308.1656,451.9969 Q308.0156,451.8938 307.95,451.6219 Q307.9219,451.4344 307.8187,451.3313 Q307.6312,451.1344 307.2938,451.0219 Q306.9563,450.9 306.6188,450.9 Q306.1969,450.9 305.8406,451.0687 Q305.4938,451.2375 305.2219,451.6125 Q304.95,451.9875 304.95,452.5031 L304.95,453.0563 Q304.95,453.675 305.4563,454.0875 Q305.9625,454.5 306.8625,454.5 Q307.3969,454.5 307.7719,454.3781 Q307.9875,454.3125 308.2313,454.0969 Q308.3906,453.975 308.475,453.9375 Q308.5594,453.9 308.6625,453.9 Q308.8594,453.9 309,454.0594 Q309.15,454.2094 309.15,454.425 Q309.15,454.6312 308.9437,454.875 Q308.6438,455.2313 308.1656,455.4281 Q307.5375,455.7 306.7688,455.7 Q305.8688,455.7 305.1469,455.3438 Q304.5656,455.0625 304.1531,454.4531 Q303.75,453.8438 303.75,453.1219 L303.75,452.4656 Q303.75,451.7156 304.1063,451.0594 Q304.4719,450.4031 305.1,450.0563 Q305.7375,449.7 306.45,449.7 Q306.8812,449.7 307.2562,449.85 Q307.6312,450 307.95,450.3 Z " fill="#000000"/><text fill="#000000" font-family="sans-serif" font-size="8.4" lengthAdjust="spacing" textLength="103.8" x="319.05" y="455.8371">VaccineAdministrationStore</text><line style="stroke:#181818;stroke-width:0.3;" x1="266.7" x2="455.7" y1="462" y2="462"/><text fill="#000000" font-family="sans-serif" font-size="8.4" lengthAdjust="spacing" textLength="153" x="269.7" y="473.1199">ArrayList&lt;VaccineAdministration&gt; : store</text><line style="stroke:#181818;stroke-width:0.3;" x1="266.7" x2="455.7" y1="477.3656" y2="477.3656"/><text fill="#000000" font-family="sans-serif" font-size="8.4" lengthAdjust="spacing" textLength="121.8" x="269.7" y="488.4855">getVaccineAdministrationStore()</text><text fill="#000000" font-family="sans-serif" font-size="8.4" lengthAdjust="spacing" textLength="173.4" x="269.7" y="499.0512">add(snsUser, center, vaccine, nOfDose, date)</text><text fill="#000000" font-family="sans-serif" font-size="8.4" lengthAdjust="spacing" textLength="183" x="269.7" y="509.6168">create(snsUser, center, vaccine, nOfDose, date)</text></g><!--MD5=[107cfa23aa516ff83d0cf17a6f9fe7ba]
class VaccineAdministration--><g id="elem_VaccineAdministration"><rect codeLine="114" fill="#F1F1F1" height="123.8906" id="VaccineAdministration" rx="1.5" ry="1.5" style="stroke:#181818;stroke-width:0.3;" width="190.2" x="266.1" y="576.3"/><ellipse cx="316.95" cy="585.9" fill="#ADD1B2" rx="6.6" ry="6.6" style="stroke:#181818;stroke-width:0.6;"/><path d="M318.15,583.8 Q318.2719,583.5 318.4125,583.35 Q318.5531,583.2 318.7125,583.2 Q318.9938,583.2 319.1719,583.3688 Q319.35,583.5375 319.35,583.9313 L319.35,584.8688 Q319.35,585.2625 319.1813,585.4313 Q319.0125,585.6 318.75,585.6 Q318.5156,585.6 318.3656,585.4969 Q318.2156,585.3938 318.15,585.1219 Q318.1219,584.9344 318.0188,584.8313 Q317.8313,584.6344 317.4938,584.5219 Q317.1563,584.4 316.8187,584.4 Q316.3969,584.4 316.0406,584.5688 Q315.6937,584.7375 315.4219,585.1125 Q315.15,585.4875 315.15,586.0031 L315.15,586.5563 Q315.15,587.175 315.6563,587.5875 Q316.1625,588 317.0625,588 Q317.5969,588 317.9719,587.8781 Q318.1875,587.8125 318.4313,587.5969 Q318.5906,587.475 318.675,587.4375 Q318.7594,587.4 318.8625,587.4 Q319.0594,587.4 319.2,587.5594 Q319.35,587.7094 319.35,587.925 Q319.35,588.1313 319.1438,588.375 Q318.8438,588.7312 318.3656,588.9281 Q317.7375,589.2 316.9688,589.2 Q316.0687,589.2 315.3469,588.8438 Q314.7656,588.5625 314.3531,587.9531 Q313.95,587.3438 313.95,586.6219 L313.95,585.9656 Q313.95,585.2156 314.3063,584.5594 Q314.6719,583.9031 315.3,583.5563 Q315.9375,583.2 316.65,583.2 Q317.0813,583.2 317.4563,583.35 Q317.8313,583.5 318.15,583.8 Z " fill="#000000"/><text fill="#000000" font-family="sans-serif" font-size="8.4" lengthAdjust="spacing" textLength="83.4" x="329.25" y="589.3371">VaccineAdministration</text><line style="stroke:#181818;stroke-width:0.3;" x1="266.7" x2="455.7" y1="595.5" y2="595.5"/><text fill="#000000" font-family="sans-serif" font-size="8.4" lengthAdjust="spacing" textLength="71.4" x="269.7" y="606.6199">SNSUser : snsUser</text><text fill="#000000" font-family="sans-serif" font-size="8.4" lengthAdjust="spacing" textLength="57" x="269.7" y="617.1855">Center : center</text><text fill="#000000" font-family="sans-serif" font-size="8.4" lengthAdjust="spacing" textLength="66" x="269.7" y="627.7512">Vaccine : vaccine</text><text fill="#000000" font-family="sans-serif" font-size="8.4" lengthAdjust="spacing" textLength="63" x="269.7" y="638.3168">String : nOfDose</text><text fill="#000000" font-family="sans-serif" font-size="8.4" lengthAdjust="spacing" textLength="62.4" x="269.7" y="648.8824">LocalDate : date</text><line style="stroke:#181818;stroke-width:0.3;" x1="266.7" x2="455.7" y1="653.1281" y2="653.1281"/><text fill="#000000" font-family="sans-serif" font-size="8.4" lengthAdjust="spacing" textLength="49.8" x="269.7" y="664.248">getSnsUser()</text><text fill="#000000" font-family="sans-serif" font-size="8.4" lengthAdjust="spacing" textLength="48" x="269.7" y="674.8137">getVaccine()</text><text fill="#000000" font-family="sans-serif" font-size="8.4" lengthAdjust="spacing" textLength="52.2" x="269.7" y="685.3793">getNOfDose()</text><text fill="#000000" font-family="sans-serif" font-size="8.4" lengthAdjust="spacing" textLength="183" x="269.7" y="695.9449">create(snsUser, center, vaccine, nOfDose, date)</text></g><!--MD5=[72be06cc7ae02ccc98efe28a50e62246]
class SNSUser--><g id="elem_SNSUser"><rect codeLine="125" fill="#F1F1F1" height="49.9313" id="SNSUser" rx="1.5" ry="1.5" style="stroke:#181818;stroke-width:0.3;" width="120" x="59.4" y="1083.6"/><ellipse cx="100.05" cy="1093.2" fill="#ADD1B2" rx="6.6" ry="6.6" style="stroke:#181818;stroke-width:0.6;"/><path d="M101.25,1091.1 Q101.3719,1090.8 101.5125,1090.65 Q101.6531,1090.5 101.8125,1090.5 Q102.0938,1090.5 102.2719,1090.6688 Q102.45,1090.8375 102.45,1091.2313 L102.45,1092.1688 Q102.45,1092.5625 102.2813,1092.7313 Q102.1125,1092.9 101.85,1092.9 Q101.6156,1092.9 101.4656,1092.7969 Q101.3156,1092.6938 101.25,1092.4219 Q101.2219,1092.2344 101.1187,1092.1313 Q100.9312,1091.9344 100.5938,1091.8219 Q100.2563,1091.7 99.9188,1091.7 Q99.4969,1091.7 99.1406,1091.8687 Q98.7938,1092.0375 98.5219,1092.4125 Q98.25,1092.7875 98.25,1093.3031 L98.25,1093.8563 Q98.25,1094.475 98.7563,1094.8875 Q99.2625,1095.3 100.1625,1095.3 Q100.6969,1095.3 101.0719,1095.1781 Q101.2875,1095.1125 101.5313,1094.8969 Q101.6906,1094.775 101.775,1094.7375 Q101.8594,1094.7 101.9625,1094.7 Q102.1594,1094.7 102.3,1094.8594 Q102.45,1095.0094 102.45,1095.225 Q102.45,1095.4312 102.2437,1095.675 Q101.9438,1096.0313 101.4656,1096.2281 Q100.8375,1096.5 100.0688,1096.5 Q99.1688,1096.5 98.4469,1096.1438 Q97.8656,1095.8625 97.4531,1095.2531 Q97.05,1094.6438 97.05,1093.9219 L97.05,1093.2656 Q97.05,1092.5156 97.4063,1091.8594 Q97.7719,1091.2031 98.4,1090.8563 Q99.0375,1090.5 99.75,1090.5 Q100.1812,1090.5 100.5562,1090.65 Q100.9312,1090.8 101.25,1091.1 Z " fill="#000000"/><text fill="#000000" font-family="sans-serif" font-size="8.4" lengthAdjust="spacing" textLength="33.6" x="112.35" y="1096.6371">SNSUser</text><line style="stroke:#181818;stroke-width:0.3;" x1="60" x2="178.8" y1="1102.8" y2="1102.8"/><text fill="#000000" font-family="sans-serif" font-size="8.4" lengthAdjust="spacing" textLength="112.8" x="63" y="1113.9199">SNSUserNumber : snsNumber</text><line style="stroke:#181818;stroke-width:0.3;" x1="60" x2="178.8" y1="1118.1656" y2="1118.1656"/><text fill="#000000" font-family="sans-serif" font-size="8.4" lengthAdjust="spacing" textLength="81" x="63" y="1129.2855">getSNSUserNumber()</text></g><!--MD5=[a0462e3e771c8caf2b5bb3854d99331b]
class SendSMS--><g id="elem_SendSMS"><rect codeLine="129" fill="#F1F1F1" height="49.9313" id="SendSMS" rx="1.5" ry="1.5" style="stroke:#181818;stroke-width:0.3;" width="78.6" x="1304.1" y="330.3"/><ellipse cx="1323.09" cy="339.9" fill="#ADD1B2" rx="6.6" ry="6.6" style="stroke:#181818;stroke-width:0.6;"/><path d="M1324.29,337.8 Q1324.4119,337.5 1324.5525,337.35 Q1324.6931,337.2 1324.8525,337.2 Q1325.1338,337.2 1325.3119,337.3688 Q1325.49,337.5375 1325.49,337.9313 L1325.49,338.8688 Q1325.49,339.2625 1325.3213,339.4313 Q1325.1525,339.6 1324.89,339.6 Q1324.6556,339.6 1324.5056,339.4969 Q1324.3556,339.3938 1324.29,339.1219 Q1324.2619,338.9344 1324.1588,338.8313 Q1323.9713,338.6344 1323.6338,338.5219 Q1323.2963,338.4 1322.9588,338.4 Q1322.5369,338.4 1322.1806,338.5687 Q1321.8338,338.7375 1321.5619,339.1125 Q1321.29,339.4875 1321.29,340.0031 L1321.29,340.5563 Q1321.29,341.175 1321.7963,341.5875 Q1322.3025,342 1323.2025,342 Q1323.7369,342 1324.1119,341.8781 Q1324.3275,341.8125 1324.5713,341.5969 Q1324.7306,341.475 1324.815,341.4375 Q1324.8994,341.4 1325.0025,341.4 Q1325.1994,341.4 1325.34,341.5594 Q1325.49,341.7094 1325.49,341.925 Q1325.49,342.1312 1325.2838,342.375 Q1324.9838,342.7313 1324.5056,342.9281 Q1323.8775,343.2 1323.1088,343.2 Q1322.2088,343.2 1321.4869,342.8438 Q1320.9056,342.5625 1320.4931,341.9531 Q1320.09,341.3438 1320.09,340.6219 L1320.09,339.9656 Q1320.09,339.2156 1320.4463,338.5594 Q1320.8119,337.9031 1321.44,337.5563 Q1322.0775,337.2 1322.79,337.2 Q1323.2213,337.2 1323.5963,337.35 Q1323.9713,337.5 1324.29,337.8 Z " fill="#000000"/><text fill="#000000" font-family="sans-serif" font-size="8.4" lengthAdjust="spacing" textLength="37.2" x="1333.71" y="343.3371">SendSMS</text><line style="stroke:#181818;stroke-width:0.3;" x1="1304.7" x2="1382.1" y1="349.5" y2="349.5"/><text fill="#000000" font-family="sans-serif" font-size="8.4" lengthAdjust="spacing" textLength="71.4" x="1307.7" y="360.6199">SNSUser : snsUser</text><line style="stroke:#181818;stroke-width:0.3;" x1="1304.7" x2="1382.1" y1="364.8656" y2="364.8656"/><text fill="#000000" font-family="sans-serif" font-size="8.4" lengthAdjust="spacing" textLength="18.6" x="1307.7" y="375.9855">run()</text></g><!--MD5=[1b844c90688aafb95cd8c95626c3b83a]
class Timer--><g id="elem_Timer"><rect codeLine="133" fill="#F1F1F1" height="28.8" id="Timer" rx="1.5" ry="1.5" style="stroke:#181818;stroke-width:0.3;" width="40.8" x="1404" y="340.8"/><ellipse cx="1413" cy="350.4" fill="#ADD1B2" rx="6.6" ry="6.6" style="stroke:#181818;stroke-width:0.6;"/><path d="M1414.2,348.3 Q1414.3219,348 1414.4625,347.85 Q1414.6031,347.7 1414.7625,347.7 Q1415.0438,347.7 1415.2219,347.8688 Q1415.4,348.0375 1415.4,348.4313 L1415.4,349.3688 Q1415.4,349.7625 1415.2313,349.9313 Q1415.0625,350.1 1414.8,350.1 Q1414.5656,350.1 1414.4156,349.9969 Q1414.2656,349.8938 1414.2,349.6219 Q1414.1719,349.4344 1414.0688,349.3313 Q1413.8813,349.1344 1413.5438,349.0219 Q1413.2063,348.9 1412.8687,348.9 Q1412.4469,348.9 1412.0906,349.0687 Q1411.7437,349.2375 1411.4719,349.6125 Q1411.2,349.9875 1411.2,350.5031 L1411.2,351.0563 Q1411.2,351.675 1411.7063,352.0875 Q1412.2125,352.5 1413.1125,352.5 Q1413.6469,352.5 1414.0219,352.3781 Q1414.2375,352.3125 1414.4813,352.0969 Q1414.6406,351.975 1414.725,351.9375 Q1414.8094,351.9 1414.9125,351.9 Q1415.1094,351.9 1415.25,352.0594 Q1415.4,352.2094 1415.4,352.425 Q1415.4,352.6312 1415.1938,352.875 Q1414.8938,353.2313 1414.4156,353.4281 Q1413.7875,353.7 1413.0188,353.7 Q1412.1187,353.7 1411.3969,353.3438 Q1410.8156,353.0625 1410.4031,352.4531 Q1410,351.8438 1410,351.1219 L1410,350.4656 Q1410,349.7156 1410.3563,349.0594 Q1410.7219,348.4031 1411.35,348.0563 Q1411.9875,347.7 1412.7,347.7 Q1413.1313,347.7 1413.5063,347.85 Q1413.8813,348 1414.2,348.3 Z " fill="#000000"/><text fill="#000000" font-family="sans-serif" font-size="8.4" lengthAdjust="spacing" textLength="21.6" x="1421.4" y="353.8371">Timer</text><line style="stroke:#181818;stroke-width:0.3;" x1="1404.6" x2="1444.2" y1="360" y2="360"/><line style="stroke:#181818;stroke-width:0.3;" x1="1404.6" x2="1444.2" y1="364.8" y2="364.8"/></g><!--MD5=[74054751ba3b9eca75fda5044dcc84d9]
class TimerTask--><g id="elem_TimerTask"><rect codeLine="135" fill="#F1F1F1" height="28.8" id="TimerTask" rx="1.5" ry="1.5" style="stroke:#181818;stroke-width:0.3;" width="59.4" x="1313.7" y="463.8"/><ellipse cx="1322.7" cy="473.4" fill="#ADD1B2" rx="6.6" ry="6.6" style="stroke:#181818;stroke-width:0.6;"/><path d="M1323.9,471.3 Q1324.0219,471 1324.1625,470.85 Q1324.3031,470.7 1324.4625,470.7 Q1324.7437,470.7 1324.9219,470.8688 Q1325.1,471.0375 1325.1,471.4313 L1325.1,472.3688 Q1325.1,472.7625 1324.9312,472.9313 Q1324.7625,473.1 1324.5,473.1 Q1324.2656,473.1 1324.1156,472.9969 Q1323.9656,472.8937 1323.9,472.6219 Q1323.8719,472.4344 1323.7688,472.3312 Q1323.5813,472.1344 1323.2437,472.0219 Q1322.9063,471.9 1322.5688,471.9 Q1322.1469,471.9 1321.7906,472.0687 Q1321.4438,472.2375 1321.1719,472.6125 Q1320.9,472.9875 1320.9,473.5031 L1320.9,474.0563 Q1320.9,474.675 1321.4063,475.0875 Q1321.9125,475.5 1322.8125,475.5 Q1323.3469,475.5 1323.7219,475.3781 Q1323.9375,475.3125 1324.1812,475.0969 Q1324.3406,474.975 1324.425,474.9375 Q1324.5094,474.9 1324.6125,474.9 Q1324.8094,474.9 1324.95,475.0594 Q1325.1,475.2094 1325.1,475.425 Q1325.1,475.6312 1324.8938,475.875 Q1324.5938,476.2313 1324.1156,476.4281 Q1323.4875,476.7 1322.7188,476.7 Q1321.8188,476.7 1321.0969,476.3438 Q1320.5156,476.0625 1320.1031,475.4531 Q1319.7,474.8438 1319.7,474.1219 L1319.7,473.4656 Q1319.7,472.7156 1320.0562,472.0594 Q1320.4219,471.4031 1321.05,471.0563 Q1321.6875,470.7 1322.4,470.7 Q1322.8313,470.7 1323.2063,470.85 Q1323.5813,471 1323.9,471.3 Z " fill="#000000"/><text fill="#000000" font-family="sans-serif" font-size="8.4" lengthAdjust="spacing" textLength="40.2" x="1331.1" y="476.8371">TimerTask</text><line style="stroke:#181818;stroke-width:0.3;" x1="1314.3" x2="1372.5" y1="483" y2="483"/><line style="stroke:#181818;stroke-width:0.3;" x1="1314.3" x2="1372.5" y1="487.8" y2="487.8"/></g><!--MD5=[4fb7023e3ec88a8c13d55ede096a9465]
link VaccineAdministrationUI to VaccineAdministrationController--><g id="link_VaccineAdministrationUI_VaccineAdministrationController"><path codeLine="138" d="M564.6,33.132 C564.6,41.658 564.6,53.442 564.6,66.588 " fill="none" id="VaccineAdministrationUI-to-VaccineAdministrationController" style="stroke:#181818;stroke-width:0.6;stroke-dasharray:7.0,7.0;"/><polygon fill="#181818" points="564.6,69.588,567,64.188,564.6,66.588,562.2,64.188,564.6,69.588" style="stroke:#181818;stroke-width:0.6;"/></g><!--MD5=[8e21eacc8261db4fae5956d938f00eb8]
link VaccineAdministrationController to Company--><g id="link_VaccineAdministrationController_Company"><path codeLine="140" d="M477.396,277.878 C467.322,289.842 457.518,301.482 448.722,311.934 " fill="none" id="VaccineAdministrationController-to-Company" style="stroke:#181818;stroke-width:0.6;stroke-dasharray:7.0,7.0;"/><polygon fill="#181818" points="446.742,314.286,452.0522,311.6935,448.671,311.9884,448.3761,308.6071,446.742,314.286" style="stroke:#181818;stroke-width:0.6;"/></g><!--MD5=[583c1bad94939fd27b438f925159b8d0]
link VaccineAdministrationController to CenterStore--><g id="link_VaccineAdministrationController_CenterStore"><path codeLine="141" d="M473.04,214.464 C423.036,239.022 361.83,273.54 314.4,314.4 C266.586,355.584 223.236,415.896 200.256,450.498 " fill="none" id="VaccineAdministrationController-to-CenterStore" style="stroke:#181818;stroke-width:0.6;stroke-dasharray:7.0,7.0;"/><polygon fill="#181818" points="198.498,453.15,203.4853,449.9803,200.1581,450.6512,199.4872,447.3241,198.498,453.15" style="stroke:#181818;stroke-width:0.6;"/></g><!--MD5=[85504154c228076332bb430f13ca0ec5]
link VaccineAdministrationController to Center--><g id="link_VaccineAdministrationController_Center"><path codeLine="142" d="M472.86,189.78 C334.602,215.742 88.8,273.33 88.8,354.6 C88.8,354.6 88.8,354.6 88.8,638.7 C88.8,698.106 114.228,762.984 132.924,802.668 " fill="none" id="VaccineAdministrationController-to-Center" style="stroke:#181818;stroke-width:0.6;stroke-dasharray:7.0,7.0;"/><polygon fill="#181818" points="134.262,805.482,134.1145,799.5745,132.9755,802.7718,129.7782,801.6329,134.262,805.482" style="stroke:#181818;stroke-width:0.6;"/></g><!--MD5=[375a30444b1b30c7a1c8f047938f71e0]
link VaccineAdministrationController to SNSUserList--><g id="link_VaccineAdministrationController_SNSUserList"><path codeLine="143" d="M472.818,186.978 C323.922,210.144 46.2,265.326 46.2,354.6 C46.2,354.6 46.2,354.6 46.2,841.5 C46.2,890.73 73.932,941.64 95.256,973.512 " fill="none" id="VaccineAdministrationController-to-SNSUserList" style="stroke:#181818;stroke-width:0.6;stroke-dasharray:7.0,7.0;"/><polygon fill="#181818" points="97.038,976.152,96.0026,970.3341,95.3581,973.6664,92.0258,973.0219,97.038,976.152" style="stroke:#181818;stroke-width:0.6;"/></g><!--MD5=[79b60d4656e560ad05a9dd4f4790846a]
link VaccineAdministrationController to SNSUser--><g id="link_VaccineAdministrationController_SNSUser"><path codeLine="144" d="M473.058,184.554 C314.046,204.93 3.6,257.19 3.6,354.6 C3.6,354.6 3.6,354.6 3.6,1007.1 C3.6,1040.472 31.302,1065.312 59.61,1081.986 " fill="none" id="VaccineAdministrationController-to-SNSUser" style="stroke:#181818;stroke-width:0.6;stroke-dasharray:7.0,7.0;"/><polygon fill="#181818" points="62.346,1083.576,58.8771,1078.792,59.7503,1082.0719,56.4705,1082.9451,62.346,1083.576" style="stroke:#181818;stroke-width:0.6;"/></g><!--MD5=[145c9adee8bf8e060b21d9663ac360fd]
link VaccineAdministrationController to VaccinationScheduleStore--><g id="link_VaccineAdministrationController_VaccinationScheduleStore"><path codeLine="145" d="M656.166,196.638 C738.036,219.006 859.428,258.21 954.6,314.4 C1019.46,352.692 1082.592,415.266 1115.838,450.774 " fill="none" id="VaccineAdministrationController-to-VaccinationScheduleStore" style="stroke:#181818;stroke-width:0.6;stroke-dasharray:7.0,7.0;"/><polygon fill="#181818" points="1117.986,453.072,1116.0552,447.487,1115.9387,450.8791,1112.5466,450.7626,1117.986,453.072" style="stroke:#181818;stroke-width:0.6;"/></g><!--MD5=[a746b7d93d02b8f3f2717b3a58d037ef]
link VaccineAdministrationController to VaccineAdministrationStore--><g id="link_VaccineAdministrationController_VaccineAdministrationStore"><path codeLine="146" d="M473.016,207.15 C424.398,229.584 368.502,264.414 337.8,314.4 C312.048,356.334 316.224,377.388 329.4,424.8 C330.828,429.93 332.898,435.066 335.316,440.004 " fill="none" id="VaccineAdministrationController-to-VaccineAdministrationStore" style="stroke:#181818;stroke-width:0.6;stroke-dasharray:7.0,7.0;"/><polygon fill="#181818" points="336.69,442.728,336.3915,436.8262,335.3347,440.0516,332.1093,438.9948,336.69,442.728" style="stroke:#181818;stroke-width:0.6;"/></g><!--MD5=[81d16d09cac01fbd6c318733e113aab2]
link VaccineAdministrationController to VaccineAdministration--><g id="link_VaccineAdministrationController_VaccineAdministration"><path codeLine="147" d="M546.666,277.944 C531.822,347.484 506.604,439.554 466.8,513.6 C455.436,534.744 439.986,555.498 424.416,573.792 " fill="none" id="VaccineAdministrationController-to-VaccineAdministration" style="stroke:#181818;stroke-width:0.6;stroke-dasharray:7.0,7.0;"/><polygon fill="#181818" points="422.316,576.24,427.6572,573.7119,424.2726,573.9659,424.0186,570.5813,422.316,576.24" style="stroke:#181818;stroke-width:0.6;"/></g><!--MD5=[6cbd45157fcbf8c66ef451fcd3b69d00]
link VaccineAdministrationController to VaccineType--><g id="link_VaccineAdministrationController_VaccineType"><path codeLine="148" d="M656.172,178.494 C847.494,189.768 1272,228.93 1272,354.6 C1272,354.6 1272,354.6 1272,638.7 C1272,701.664 1257.228,774.456 1248.21,813.018 " fill="none" id="VaccineAdministrationController-to-VaccineType" style="stroke:#181818;stroke-width:0.6;stroke-dasharray:7.0,7.0;"/><polygon fill="#181818" points="1247.52,815.964,1251.0899,811.2549,1248.2052,813.0433,1246.4168,810.1586,1247.52,815.964" style="stroke:#181818;stroke-width:0.6;"/></g><!--MD5=[75ea80765acc0e4883a960ce5fb160e3]
link VaccineAdministrationController to VaccineStore--><g id="link_VaccineAdministrationController_VaccineStore"><path codeLine="149" d="M576.276,277.83 C582.846,336.12 590.61,404.988 595.098,444.744 " fill="none" id="VaccineAdministrationController-to-VaccineStore" style="stroke:#181818;stroke-width:0.6;stroke-dasharray:7.0,7.0;"/><polygon fill="#181818" points="595.44,447.792,597.2237,442.1583,595.1059,444.8107,592.4535,442.6929,595.44,447.792" style="stroke:#181818;stroke-width:0.6;"/></g><!--MD5=[a6b995aeb89646dbcb6d61fad4f361f4]
link VaccineAdministrationController to VaccineMapper--><g id="link_VaccineAdministrationController_VaccineMapper"><path codeLine="150" d="M656.172,236.982 C702.006,268.356 755.01,304.638 789.894,328.512 " fill="none" id="VaccineAdministrationController-to-VaccineMapper" style="stroke:#181818;stroke-width:0.6;stroke-dasharray:7.0,7.0;"/><polygon fill="#181818" points="792.372,330.21,789.2737,325.178,789.8971,328.5144,786.5608,329.1378,792.372,330.21" style="stroke:#181818;stroke-width:0.6;"/></g><!--MD5=[a4d937e15d66b2e6e6680ee4dd1d6431]
link VaccineAdministrationController to VaccineList--><g id="link_VaccineAdministrationController_VaccineList"><path codeLine="151" d="M626.862,277.83 C661.986,336.234 703.494,405.264 727.386,444.984 " fill="none" id="VaccineAdministrationController-to-VaccineList" style="stroke:#181818;stroke-width:0.6;stroke-dasharray:7.0,7.0;"/><polygon fill="#181818" points="729.072,447.792,728.3374,441.9285,727.5222,445.2233,724.2274,444.4082,729.072,447.792" style="stroke:#181818;stroke-width:0.6;"/></g><!--MD5=[542b2100f807e9bc01ad534fd281c24b]
link VaccineAdministrationController to SendSMS--><g id="link_VaccineAdministrationController_SendSMS"><path codeLine="152" d="M656.184,182.412 C825.372,198.576 1179.486,238.266 1287.6,295.8 C1301.808,303.36 1314.456,315.9 1324.104,327.462 " fill="none" id="VaccineAdministrationController-to-SendSMS" style="stroke:#181818;stroke-width:0.6;stroke-dasharray:7.0,7.0;"/><polygon fill="#181818" points="1326.24,330.06,1324.6746,324.3618,1324.3389,327.7393,1320.9614,327.4036,1326.24,330.06" style="stroke:#181818;stroke-width:0.6;"/></g><!--MD5=[7d90f6a0307f59334a8610b2d91c02a4]
link VaccineAdministrationController to Timer--><g id="link_VaccineAdministrationController_Timer"><path codeLine="153" d="M656.352,188.16 C796.2,209.568 1070.976,252.72 1303.2,295.8 C1343.358,303.252 1358.538,292.8 1393.2,314.4 C1402.506,320.202 1410.126,329.832 1415.502,338.214 " fill="none" id="VaccineAdministrationController-to-Timer" style="stroke:#181818;stroke-width:0.6;stroke-dasharray:7.0,7.0;"/><polygon fill="#181818" points="1417.104,340.764,1416.2861,334.9116,1415.5179,338.2176,1412.2118,337.4494,1417.104,340.764" style="stroke:#181818;stroke-width:0.6;"/></g><!--MD5=[3a8f80b898a1e3d4c0ded1e94a0c85b3]
link VaccineMapper to VaccineListDTO--><g id="link_VaccineMapper_VaccineListDTO"><path codeLine="155" d="M895.05,380.22 C911.418,388.812 927.642,399.93 939.6,414 C948.246,424.17 953.358,438.006 956.37,450.174 " fill="none" id="VaccineMapper-to-VaccineListDTO" style="stroke:#181818;stroke-width:0.6;stroke-dasharray:7.0,7.0;"/><polygon fill="#181818" points="957.09,453.228,958.1771,447.4195,956.3967,450.3092,953.507,448.5288,957.09,453.228" style="stroke:#181818;stroke-width:0.6;"/></g><!--MD5=[e4238df48d42ef9e4056559dde73040b]
link VaccineMapper to VaccineList--><g id="link_VaccineMapper_VaccineList"><path codeLine="156" d="M811.806,380.154 C799.434,398.76 782.256,424.578 768.702,444.972 " fill="none" id="VaccineMapper-to-VaccineList" style="stroke:#181818;stroke-width:0.6;stroke-dasharray:7.0,7.0;"/><polygon fill="#181818" points="766.896,447.684,771.8757,444.5025,768.5502,445.1813,767.8714,441.8557,766.896,447.684" style="stroke:#181818;stroke-width:0.6;"/></g><!--MD5=[ccfbdd3c0ac287688fc7f0da75771929]
link VaccineMapper to Vaccine--><g id="link_VaccineMapper_Vaccine"><path codeLine="157" d="M826.884,380.274 C823.392,440.076 809.532,597.384 757.2,715.8 C746.112,740.892 729.948,766.392 714.75,787.722 " fill="none" id="VaccineMapper-to-Vaccine" style="stroke:#181818;stroke-width:0.6;stroke-dasharray:7.0,7.0;"/><polygon fill="#181818" points="712.902,790.308,717.9966,787.3139,714.6481,787.8685,714.0935,784.5201,712.902,790.308" style="stroke:#181818;stroke-width:0.6;"/></g><!--MD5=[41c6159196e7b8664a7f104dc19bf710]
link VaccineMapper to VaccineDTO--><g id="link_VaccineMapper_VaccineDTO"><path codeLine="158" d="M835.674,380.304 C847.896,419.334 872.31,497.322 891.072,557.238 " fill="none" id="VaccineMapper-to-VaccineDTO" style="stroke:#181818;stroke-width:0.6;stroke-dasharray:7.0,7.0;"/><polygon fill="#181818" points="892.014,560.256,892.6841,554.3848,891.1143,557.3941,888.105,555.8243,892.014,560.256" style="stroke:#181818;stroke-width:0.6;"/></g><!--MD5=[157550e802a606eda93b62604f431d62]
link Company to CenterStore--><g id="link_Company_CenterStore"><path codeLine="160" d="M348.174,390.054 C310.212,410.178 263.118,435.132 228.942,453.246 " fill="none" id="Company-CenterStore" style="stroke:#181818;stroke-width:0.6;"/><polygon fill="#000000" points="298.5493,420.9103,304.1702,419.927,302.5187,416.8109,298.5493,420.9103" style="stroke:#000000;stroke-width:0.6;"/><text fill="#000000" font-family="sans-serif" font-size="7.8" lengthAdjust="spacing" textLength="12.6" x="306.6" y="422.6971">has</text><text fill="#000000" font-family="sans-serif" font-size="7.8" lengthAdjust="spacing" textLength="4.2" x="339.2823" y="390.6707">1</text><text fill="#000000" font-family="sans-serif" font-size="7.8" lengthAdjust="spacing" textLength="4.2" x="232.0033" y="446.8217">1</text></g><!--MD5=[e4a19020ae2b93a8d6c847c59dba0431]
link Company to VaccinationScheduleStore--><g id="link_Company_VaccinationScheduleStore"><path codeLine="161" d="M477.336,364.842 C634.026,386.802 1022.274,441.282 1029,442.8 C1041.804,445.692 1055.262,449.358 1068.216,453.216 " fill="none" id="Company-VaccinationScheduleStore" style="stroke:#181818;stroke-width:0.6;"/><polygon fill="#000000" points="898.167,419.9492,893.0605,417.4025,892.5388,420.8904,898.167,419.9492" style="stroke:#000000;stroke-width:0.6;"/><text fill="#000000" font-family="sans-serif" font-size="7.8" lengthAdjust="spacing" textLength="12.6" x="900.6" y="422.6971">has</text><text fill="#000000" font-family="sans-serif" font-size="7.8" lengthAdjust="spacing" textLength="4.2" x="482.0213" y="363.686">1</text><text fill="#000000" font-family="sans-serif" font-size="7.8" lengthAdjust="spacing" textLength="4.2" x="1051.779" y="446.7867">1</text></g><!--MD5=[30ef39b2ee092a2de45b8d9be2f78c33]
link Company to VaccineAdministrationStore--><g id="link_Company_VaccineAdministrationStore"><path codeLine="162" d="M397.056,396.066 C393.258,405.522 389.154,415.542 385.2,424.8 C382.71,430.632 379.992,436.794 377.31,442.764 " fill="none" id="Company-VaccineAdministrationStore" style="stroke:#181818;stroke-width:0.6;"/><polygon fill="#000000" points="391.2316,422.2686,394.9694,417.9568,391.7211,416.5833,391.2316,422.2686" style="stroke:#000000;stroke-width:0.6;"/><text fill="#000000" font-family="sans-serif" font-size="7.8" lengthAdjust="spacing" textLength="12.6" x="397.8" y="422.6971">has</text><text fill="#000000" font-family="sans-serif" font-size="7.8" lengthAdjust="spacing" textLength="4.2" x="391.0158" y="408.8818">1</text><text fill="#000000" font-family="sans-serif" font-size="7.8" lengthAdjust="spacing" textLength="4.2" x="374.8175" y="436.3542">1</text></g><!--MD5=[f2e0045a3c67c0696cf082af1b4c8493]
link Company to VaccineStore--><g id="link_Company_VaccineStore"><path codeLine="163" d="M474.216,396.018 C500.04,412.926 529.542,432.246 553.356,447.84 " fill="none" id="Company-VaccineStore" style="stroke:#181818;stroke-width:0.6;"/><polygon fill="#000000" points="522.7098,421.1489,519.1355,416.7007,517.2035,419.6511,522.7098,421.1489" style="stroke:#000000;stroke-width:0.6;"/><text fill="#000000" font-family="sans-serif" font-size="7.8" lengthAdjust="spacing" textLength="12.6" x="525.6" y="422.6971">has</text><text fill="#000000" font-family="sans-serif" font-size="7.8" lengthAdjust="spacing" textLength="4.2" x="476.133" y="408.8289">1</text><text fill="#000000" font-family="sans-serif" font-size="7.8" lengthAdjust="spacing" textLength="4.2" x="542.4701" y="441.4148">1</text></g><!--MD5=[e93151bfde0f13801c8601e26aa5ffda]
link CenterStore to Center--><g id="link_CenterStore_Center"><path codeLine="165" d="M180.918,503.364 C175.608,566.136 161.52,732.594 155.352,805.392 " fill="none" id="CenterStore-Center" style="stroke:#181818;stroke-width:0.6;"/><polygon fill="#000000" points="179.147,641.1948,181.3618,635.9358,177.8476,635.6383,179.147,641.1948" style="stroke:#000000;stroke-width:0.6;"/><text fill="#000000" font-family="sans-serif" font-size="7.8" lengthAdjust="spacing" textLength="12.6" x="184.8" y="641.3971">has</text><text fill="#000000" font-family="sans-serif" font-size="7.8" lengthAdjust="spacing" textLength="4.2" x="176.0776" y="516.0554">1</text><text fill="#000000" font-family="sans-serif" font-size="7.8" lengthAdjust="spacing" textLength="3" x="152.529" y="798.9734">*</text></g><!--MD5=[89791a9cd8c9c78fd39f4b892a053799]
link VaccineStore to Vaccine--><g id="link_VaccineStore_Vaccine"><path codeLine="167" d="M604.92,508.536 C615.774,561.276 638.784,673.08 655.086,752.292 " fill="none" id="VaccineStore-Vaccine" style="stroke:#181818;stroke-width:0.6;"/><polygon fill="#000000" points="651.0047,641.1439,651.6379,635.4728,648.1836,636.1837,651.0047,641.1439" style="stroke:#000000;stroke-width:0.6;"/><text fill="#000000" font-family="sans-serif" font-size="7.8" lengthAdjust="spacing" textLength="12.6" x="655.8" y="641.3971">has</text><text fill="#000000" font-family="sans-serif" font-size="7.8" lengthAdjust="spacing" textLength="4.2" x="601.2602" y="521.3756">1</text><text fill="#000000" font-family="sans-serif" font-size="7.8" lengthAdjust="spacing" textLength="3" x="651.0747" y="745.9854">*</text></g><!--MD5=[ed389c7523bc925a69eb5d2b98a4a5f2]
link VaccineAdministrationStore to VaccineAdministration--><g id="link_VaccineAdministrationStore_VaccineAdministration"><path codeLine="169" d="M361.2,513.63 C361.2,531.966 361.2,555 361.2,576.21 " fill="none" id="VaccineAdministrationStore-VaccineAdministration" style="stroke:#181818;stroke-width:0.6;"/><polygon fill="#000000" points="364.2,540.1055,365.9634,534.6784,362.4366,534.6784,364.2,540.1055" style="stroke:#000000;stroke-width:0.6;"/><text fill="#000000" font-family="sans-serif" font-size="7.8" lengthAdjust="spacing" textLength="12.6" x="369.6" y="540.2971">has</text><text fill="#000000" font-family="sans-serif" font-size="7.8" lengthAdjust="spacing" textLength="4.2" x="356.7309" y="526.8782">1</text><text fill="#000000" font-family="sans-serif" font-size="7.8" lengthAdjust="spacing" textLength="3" x="358.0898" y="569.8066">*</text></g><!--MD5=[dfef3bdc297665c27c6d2484b60015bc]
link VaccinationScheduleStore to VaccinationSchedule--><g id="link_VaccinationScheduleStore_VaccinationSchedule"><path codeLine="171" d="M1145.082,503.25 C1151.286,533.07 1161.708,583.188 1167.912,613.026 " fill="none" id="VaccinationScheduleStore-VaccinationSchedule" style="stroke:#181818;stroke-width:0.6;"/><polygon fill="#000000" points="1156.2108,540.0426,1156.8322,534.3702,1153.3794,535.0883,1156.2108,540.0426" style="stroke:#000000;stroke-width:0.6;"/><text fill="#000000" font-family="sans-serif" font-size="7.8" lengthAdjust="spacing" textLength="12.6" x="1161" y="540.2971">has</text><text fill="#000000" font-family="sans-serif" font-size="7.8" lengthAdjust="spacing" textLength="4.2" x="1141.3573" y="516.1108">1</text><text fill="#000000" font-family="sans-serif" font-size="7.8" lengthAdjust="spacing" textLength="3" x="1163.862" y="606.7683">*</text></g><!--MD5=[99dd6d19cba2ed89c38d8d16ebaed089]
link VaccineList to Vaccine--><g id="link_VaccineList_Vaccine"><path codeLine="173" d="M740.928,508.536 C730.164,561.276 707.34,673.08 691.164,752.292 " fill="none" id="VaccineList-Vaccine" style="stroke:#181818;stroke-width:0.6;"/><polygon fill="#000000" points="733.1999,641.1448,736.0132,636.1802,732.5578,635.4747,733.1999,641.1448" style="stroke:#000000;stroke-width:0.6;"/><text fill="#000000" font-family="sans-serif" font-size="7.8" lengthAdjust="spacing" textLength="12.6" x="739.2" y="641.3971">has</text><text fill="#000000" font-family="sans-serif" font-size="7.8" lengthAdjust="spacing" textLength="4.2" x="735.6299" y="521.3756">1</text><text fill="#000000" font-family="sans-serif" font-size="7.8" lengthAdjust="spacing" textLength="3" x="689.0129" y="745.9854">*</text></g><!--MD5=[71d84884d1e835d4167dda284985bc34]
link VaccineAdministration to Center--><g id="link_VaccineAdministration_Center"><path codeLine="175" d="M273.18,699.936 C259.752,710.646 246.438,722.118 234.6,733.8 C213.354,754.77 192.834,781.344 177.612,802.704 " fill="none" id="VaccineAdministration-to-Center" style="stroke:#181818;stroke-width:0.6;stroke-dasharray:7.0,7.0;"/><polygon fill="#181818" points="175.782,805.284,180.8697,802.278,177.5225,802.8405,176.96,799.4933,175.782,805.284" style="stroke:#181818;stroke-width:0.6;"/></g><!--MD5=[951a07871a6512bd4f8e62baa1d062ce]
link VaccineAdministration to SNSUser--><g id="link_VaccineAdministration_SNSUser"><path codeLine="176" d="M339.678,699.942 C309.978,780.552 251.928,925.104 180.6,1036.8 C170.574,1052.502 157.29,1068.366 145.662,1081.11 " fill="none" id="VaccineAdministration-to-SNSUser" style="stroke:#181818;stroke-width:0.6;stroke-dasharray:7.0,7.0;"/><polygon fill="#181818" points="143.508,1083.456,148.9286,1081.1028,145.5375,1081.2467,145.3936,1077.8556,143.508,1083.456" style="stroke:#181818;stroke-width:0.6;"/></g><!--MD5=[d96ee281cdb1021d3c4ed227c45512e2]
link VaccineAdministration to Vaccine--><g id="link_VaccineAdministration_Vaccine"><path codeLine="177" d="M456.084,700.008 C514.35,737.658 586.14,784.044 630.798,812.898 " fill="none" id="VaccineAdministration-to-Vaccine" style="stroke:#181818;stroke-width:0.6;stroke-dasharray:7.0,7.0;"/><polygon fill="#181818" points="633.432,814.602,630.1993,809.6553,630.9124,812.9737,627.594,813.6867,633.432,814.602" style="stroke:#181818;stroke-width:0.6;"/></g><!--MD5=[cefc05298308075d69dd86505569dd9d]
link SNSUserList to SNSUser--><g id="link_SNSUserList_SNSUser"><path codeLine="179" d="M119.4,1037.07 C119.4,1051.866 119.4,1069.494 119.4,1083.462 " fill="none" id="SNSUserList-SNSUser" style="stroke:#181818;stroke-width:0.6;"/><polygon fill="#000000" points="122.4,1063.3055,124.1634,1057.8784,120.6366,1057.8784,122.4,1063.3055" style="stroke:#000000;stroke-width:0.6;"/><text fill="#000000" font-family="sans-serif" font-size="7.8" lengthAdjust="spacing" textLength="12.6" x="127.8" y="1063.4971">has</text><text fill="#000000" font-family="sans-serif" font-size="7.8" lengthAdjust="spacing" textLength="4.2" x="114.9441" y="1049.4969">1</text><text fill="#000000" font-family="sans-serif" font-size="7.8" lengthAdjust="spacing" textLength="3" x="116.1516" y="1077.0238">*</text></g><!--MD5=[b47d9e86b2831185617ebc2327547752]
link VaccineListDTO to VaccineDTO--><g id="link_VaccineListDTO_VaccineDTO"><path codeLine="181" d="M953.76,503.25 C949.44,518.682 943.602,539.55 937.818,560.226 " fill="none" id="VaccineListDTO-VaccineDTO" style="stroke:#181818;stroke-width:0.6;"/><polygon fill="#000000" points="947.1916,539.9945,950.3521,535.2433,946.9558,534.293,947.1916,539.9945" style="stroke:#000000;stroke-width:0.6;"/><text fill="#000000" font-family="sans-serif" font-size="7.8" lengthAdjust="spacing" textLength="12.6" x="953.4" y="540.2971">has</text><text fill="#000000" font-family="sans-serif" font-size="7.8" lengthAdjust="spacing" textLength="4.2" x="948.1352" y="516.1108">1</text><text fill="#000000" font-family="sans-serif" font-size="7.8" lengthAdjust="spacing" textLength="3" x="935.9811" y="553.9442">*</text></g><!--MD5=[e92a4079e75696647ba489dcfedd77fe]
link Center to SNSUserList--><g id="link_Center_SNSUserList"><path codeLine="183" d="M145.404,876.366 C139.458,905.958 131.028,947.976 125.394,976.044 " fill="none" id="Center-SNSUserList" style="stroke:#181818;stroke-width:0.6;"/><polygon fill="#000000" points="133.8095,955.8468,136.6066,950.873,133.1488,950.1788,133.8095,955.8468" style="stroke:#000000;stroke-width:0.6;"/><text fill="#000000" font-family="sans-serif" font-size="7.8" lengthAdjust="spacing" textLength="12.6" x="139.8" y="956.0971">has</text><text fill="#000000" font-family="sans-serif" font-size="7.8" lengthAdjust="spacing" textLength="4.2" x="140.0954" y="889.3673">1</text><text fill="#000000" font-family="sans-serif" font-size="7.8" lengthAdjust="spacing" textLength="4.2" x="121.7416" y="969.6053">1</text></g><!--MD5=[2603ade932e2e48d9bff175ea23b910b]
link VaccinationSchedule to VaccineType--><g id="link_VaccinationSchedule_VaccineType"><path codeLine="185" d="M1181.25,663.018 C1194.066,700.782 1218.666,773.292 1232.094,812.868 " fill="none" id="VaccinationSchedule-to-VaccineType" style="stroke:#181818;stroke-width:0.6;stroke-dasharray:7.0,7.0;"/><polygon fill="#181818" points="1233.12,815.898,1233.6626,810.0136,1232.1584,813.0563,1229.1158,811.5521,1233.12,815.898" style="stroke:#181818;stroke-width:0.6;"/></g><!--MD5=[943cc7c2c0f7833c53730118ba97170f]
reverse link SendSMS to TimerTask--><g id="link_SendSMS_TimerTask"><path codeLine="187" d="M1343.4,392.244 C1343.4,416.292 1343.4,446.436 1343.4,463.71 " fill="none" id="SendSMS-backto-TimerTask" style="stroke:#181818;stroke-width:0.6;"/><polygon fill="none" points="1339.2,392.154,1343.4,380.154,1347.6,392.154,1339.2,392.154" style="stroke:#181818;stroke-width:0.6;"/><text fill="#000000" font-family="sans-serif" font-size="7.8" lengthAdjust="spacing" textLength="27.6" x="1344" y="422.6971">extends</text></g><!--MD5=[62905321e3de423a79294e847acf999e]
@startuml

class VaccineAdministrationUI {
}
class VaccineAdministrationController {
CenterStore : centerStore
Center : center
SNSUserList : waitingList
SNSUser : snsUser
VaccinationScheduleStore : vacScheduleStore
VaccineType : vaccineType
String : typeName
VaccineAdministrationStore : vaStore
VaccineStore : vStore
int : centerIndex
VaccineAdministration : va

checkUserInWaitingList(snsNumber)
checkVaccineRecord()
showVaccineList(snsNumber)
createDTO()
addAdministration(vaccineID)
sendSMS()
}
class Company {
getCenterStore()
getSNSUserStore()
getVaccinationScheduleStore()
getVaccineAdministrationStore()
getVaccineStore()
}
class CenterStore {
ArrayList<Center> : center
getCenterByIndex(centerIndex)
}
class Center {
SNSUserList : waitingList
SNSUserList : recoveryRoom
getRecoveryRoom()
getWaitingList()
}
class SNSUserList {
ArrayList<SNSUser> : list
get(index)
remove()
}
class VaccinationScheduleStore {
ArrayList<VaccinationSchedule> : store
getVaccinationScheduleBySnsNumber(snsNumber)
}
class VaccinationSchedule {
VaccineType : vaccineType
getVaccineType()
}
class VaccineType {
getID()
getName()
}
class VaccineStore {
ArrayList<Vaccine> : store
getVaccineListByTypeName(typeName)
getVaccineByID(id)
}
class VaccineMapper {
toDTO(vaccineList)
create(typeId,name,id,dosage,ageGroupMax,ageGroupMin)
}
class VaccineList {
ArrayList<Vaccine> : list
get(i)
add(vaccine)
}
class Vaccine {
int : typeID
String : name
int : id
double : dosage
int : ageGroupMax
int : ageGroupMin
int : nOfDoses

getTypeID()
getName()
getID()
getDosage()
getAgeGroupMax()
getAgeGroupMin()
getNOfDoses()
}
class VaccineListDTO {
ArrayList<VaccineDTO> : list
add(vaccineDTO)
}
class VaccineDTO {
int : typeID
String : name
int : id
double : dosage
int : ageGroupMax
int : ageGroupMin

getTypeID()
getName()
getID()
getDosage()
getAgeGroupMax()
getAgeGroupMin()
}
class VaccineAdministrationStore {
ArrayList<VaccineAdministration> : store
getVaccineAdministrationStore()
add(snsUser, center, vaccine, nOfDose, date)
create(snsUser, center, vaccine, nOfDose, date)
}
class VaccineAdministration {
SNSUser : snsUser
Center : center
Vaccine : vaccine
String : nOfDose
LocalDate : date
getSnsUser()
getVaccine()
getNOfDose()
create(snsUser, center, vaccine, nOfDose, date)
}
class SNSUser {
SNSUserNumber : snsNumber
getSNSUserNumber()
}
class SendSMS {
SNSUser : snsUser
run()
}
class Timer {
}
class TimerTask {
}

VaccineAdministrationUI ..> VaccineAdministrationController

VaccineAdministrationController ..> Company
VaccineAdministrationController ..> CenterStore
VaccineAdministrationController ..> Center
VaccineAdministrationController ..> SNSUserList
VaccineAdministrationController ..> SNSUser
VaccineAdministrationController ..> VaccinationScheduleStore
VaccineAdministrationController ..> VaccineAdministrationStore
VaccineAdministrationController ..> VaccineAdministration
VaccineAdministrationController ..> VaccineType
VaccineAdministrationController ..> VaccineStore
VaccineAdministrationController ..> VaccineMapper
VaccineAdministrationController ..> VaccineList
VaccineAdministrationController ..> SendSMS
VaccineAdministrationController ..> Timer

VaccineMapper ..> VaccineListDTO
VaccineMapper ..> VaccineList
VaccineMapper ..> Vaccine
VaccineMapper ..> VaccineDTO

Company "1" - - "1" CenterStore: has >
Company "1" - - "1" VaccinationScheduleStore: has >
Company "1" - - "1" VaccineAdministrationStore : has >
Company "1" - - "1" VaccineStore: has >

CenterStore "1" - - "*" Center: has >

VaccineStore "1" - - "*" Vaccine: has >

VaccineAdministrationStore "1" - - "*" VaccineAdministration: has >

VaccinationScheduleStore "1" - - "*" VaccinationSchedule: has >

VaccineList "1" - - "*" Vaccine: has >

VaccineAdministration ..> Center
VaccineAdministration ..> SNSUser
VaccineAdministration ..> Vaccine

SNSUserList "1" - - "*" SNSUser: has >

VaccineListDTO "1" - - "*" VaccineDTO: has >

Center "1" - - "1" SNSUserList: has >

VaccinationSchedule ..> VaccineType

SendSMS <|- - TimerTask: extends

@enduml

PlantUML version 1.2022.4(Sat Apr 09 14:29:17 BST 2022)
(GPL source distribution)
Java Runtime: OpenJDK Runtime Environment
JVM: OpenJDK 64-Bit Server VM
Default Encoding: Cp1252
Language: en
Country: GB
--></g></svg>