<?xml version="1.0" encoding="UTF-8" standalone="no"?><svg xmlns="http://www.w3.org/2000/svg" xmlns:xlink="http://www.w3.org/1999/xlink" contentStyleType="text/css" height="579px" preserveAspectRatio="none" style="width:861px;height:579px;background:#FFFFFF;" version="1.1" viewBox="0 0 861 579" width="861px" zoomAndPan="magnify"><defs/><g><!--MD5=[a126dd63c8621c017159ae62771fbe54]
class RegisterEmployeeUI--><g id="elem_RegisterEmployeeUI"><rect codeLine="1" fill="#F1F1F1" height="48" id="RegisterEmployeeUI" rx="2.5" ry="2.5" style="stroke:#181818;stroke-width:0.5;" width="159" x="409.5" y="7"/><ellipse cx="424.5" cy="23" fill="#ADD1B2" rx="11" ry="11" style="stroke:#181818;stroke-width:1.0;"/><path d="M426.5,19.5 Q426.7031,19 426.9375,18.75 Q427.1719,18.5 427.4375,18.5 Q427.9063,18.5 428.2031,18.7813 Q428.5,19.0625 428.5,19.7188 L428.5,21.2813 Q428.5,21.9375 428.2188,22.2188 Q427.9375,22.5 427.5,22.5 Q427.1094,22.5 426.8594,22.3281 Q426.6094,22.1563 426.5,21.7031 Q426.4531,21.3906 426.2813,21.2188 Q425.9688,20.8906 425.4063,20.7031 Q424.8438,20.5 424.2813,20.5 Q423.5781,20.5 422.9844,20.7813 Q422.4063,21.0625 421.9531,21.6875 Q421.5,22.3125 421.5,23.1719 L421.5,24.0938 Q421.5,25.125 422.3438,25.8125 Q423.1875,26.5 424.6875,26.5 Q425.5781,26.5 426.2031,26.2969 Q426.5625,26.1875 426.9688,25.8281 Q427.2344,25.625 427.375,25.5625 Q427.5156,25.5 427.6875,25.5 Q428.0156,25.5 428.25,25.7656 Q428.5,26.0156 428.5,26.375 Q428.5,26.7188 428.1563,27.125 Q427.6563,27.7188 426.8594,28.0469 Q425.8125,28.5 424.5313,28.5 Q423.0313,28.5 421.8281,27.9063 Q420.8594,27.4375 420.1719,26.4219 Q419.5,25.4063 419.5,24.2031 L419.5,23.1094 Q419.5,21.8594 420.0938,20.7656 Q420.7031,19.6719 421.75,19.0938 Q422.8125,18.5 424,18.5 Q424.7188,18.5 425.3438,18.75 Q425.9688,19 426.5,19.5 Z " fill="#000000"/><text fill="#000000" font-family="sans-serif" font-size="14" lengthAdjust="spacing" textLength="127" x="438.5" y="28.7285">RegisterEmployeeUI</text><line style="stroke:#181818;stroke-width:0.5;" x1="410.5" x2="567.5" y1="39" y2="39"/><line style="stroke:#181818;stroke-width:0.5;" x1="410.5" x2="567.5" y1="47" y2="47"/></g><!--MD5=[6a4e699b59c2ecf8286aba2faa72e4bd]
class RegisterEmployeeController--><g id="elem_RegisterEmployeeController"><rect codeLine="4" fill="#F1F1F1" height="83.2188" id="RegisterEmployeeController" rx="2.5" ry="2.5" style="stroke:#181818;stroke-width:0.5;" width="209" x="384.5" y="115"/><ellipse cx="399.5" cy="131" fill="#ADD1B2" rx="11" ry="11" style="stroke:#181818;stroke-width:1.0;"/><path d="M401.5,127.5 Q401.7031,127 401.9375,126.75 Q402.1719,126.5 402.4375,126.5 Q402.9063,126.5 403.2031,126.7813 Q403.5,127.0625 403.5,127.7188 L403.5,129.2813 Q403.5,129.9375 403.2188,130.2188 Q402.9375,130.5 402.5,130.5 Q402.1094,130.5 401.8594,130.3281 Q401.6094,130.1563 401.5,129.7031 Q401.4531,129.3906 401.2813,129.2188 Q400.9688,128.8906 400.4063,128.7031 Q399.8438,128.5 399.2813,128.5 Q398.5781,128.5 397.9844,128.7813 Q397.4063,129.0625 396.9531,129.6875 Q396.5,130.3125 396.5,131.1719 L396.5,132.0938 Q396.5,133.125 397.3438,133.8125 Q398.1875,134.5 399.6875,134.5 Q400.5781,134.5 401.2031,134.2969 Q401.5625,134.1875 401.9688,133.8281 Q402.2344,133.625 402.375,133.5625 Q402.5156,133.5 402.6875,133.5 Q403.0156,133.5 403.25,133.7656 Q403.5,134.0156 403.5,134.375 Q403.5,134.7188 403.1563,135.125 Q402.6563,135.7188 401.8594,136.0469 Q400.8125,136.5 399.5313,136.5 Q398.0313,136.5 396.8281,135.9063 Q395.8594,135.4375 395.1719,134.4219 Q394.5,133.4063 394.5,132.2031 L394.5,131.1094 Q394.5,129.8594 395.0938,128.7656 Q395.7031,127.6719 396.75,127.0938 Q397.8125,126.5 399,126.5 Q399.7188,126.5 400.3438,126.75 Q400.9688,127 401.5,127.5 Z " fill="#000000"/><text fill="#000000" font-family="sans-serif" font-size="14" lengthAdjust="spacing" textLength="177" x="413.5" y="136.7285">RegisterEmployeeController</text><line style="stroke:#181818;stroke-width:0.5;" x1="385.5" x2="592.5" y1="147" y2="147"/><line style="stroke:#181818;stroke-width:0.5;" x1="385.5" x2="592.5" y1="155" y2="155"/><ellipse cx="395.5" cy="166" fill="#84BE84" rx="3" ry="3" style="stroke:#038048;stroke-width:1.0;"/><text fill="#000000" font-family="sans-serif" font-size="14" lengthAdjust="spacing" textLength="66" x="404.5" y="173.5332">getRoles()</text><ellipse cx="395.5" cy="183.6094" fill="#84BE84" rx="3" ry="3" style="stroke:#038048;stroke-width:1.0;"/><text fill="#000000" font-family="sans-serif" font-size="14" lengthAdjust="spacing" textLength="102" x="404.5" y="191.1426">saveEmployee()</text></g><!--MD5=[02e4b9b7573f1156f41e60aa5b4e25a4]
class Company--><g id="elem_Company"><rect codeLine="9" fill="#F1F1F1" height="65.6094" id="Company" rx="2.5" ry="2.5" style="stroke:#181818;stroke-width:0.5;" width="524" x="7" y="266.5"/><ellipse cx="234.75" cy="282.5" fill="#ADD1B2" rx="11" ry="11" style="stroke:#181818;stroke-width:1.0;"/><path d="M236.75,279 Q236.9531,278.5 237.1875,278.25 Q237.4219,278 237.6875,278 Q238.1563,278 238.4531,278.2813 Q238.75,278.5625 238.75,279.2188 L238.75,280.7813 Q238.75,281.4375 238.4688,281.7188 Q238.1875,282 237.75,282 Q237.3594,282 237.1094,281.8281 Q236.8594,281.6563 236.75,281.2031 Q236.7031,280.8906 236.5313,280.7188 Q236.2188,280.3906 235.6563,280.2031 Q235.0938,280 234.5313,280 Q233.8281,280 233.2344,280.2813 Q232.6563,280.5625 232.2031,281.1875 Q231.75,281.8125 231.75,282.6719 L231.75,283.5938 Q231.75,284.625 232.5938,285.3125 Q233.4375,286 234.9375,286 Q235.8281,286 236.4531,285.7969 Q236.8125,285.6875 237.2188,285.3281 Q237.4844,285.125 237.625,285.0625 Q237.7656,285 237.9375,285 Q238.2656,285 238.5,285.2656 Q238.75,285.5156 238.75,285.875 Q238.75,286.2188 238.4063,286.625 Q237.9063,287.2188 237.1094,287.5469 Q236.0625,288 234.7813,288 Q233.2813,288 232.0781,287.4063 Q231.1094,286.9375 230.4219,285.9219 Q229.75,284.9063 229.75,283.7031 L229.75,282.6094 Q229.75,281.3594 230.3438,280.2656 Q230.9531,279.1719 232,278.5938 Q233.0625,278 234.25,278 Q234.9688,278 235.5938,278.25 Q236.2188,278.5 236.75,279 Z " fill="#000000"/><text fill="#000000" font-family="sans-serif" font-size="14" lengthAdjust="spacing" textLength="60" x="255.25" y="288.2285">Company</text><line style="stroke:#181818;stroke-width:0.5;" x1="8" x2="530" y1="298.5" y2="298.5"/><line style="stroke:#181818;stroke-width:0.5;" x1="8" x2="530" y1="306.5" y2="306.5"/><ellipse cx="18" cy="317.5" fill="#84BE84" rx="3" ry="3" style="stroke:#038048;stroke-width:1.0;"/><text fill="#000000" font-family="sans-serif" font-size="14" lengthAdjust="spacing" textLength="498" x="27" y="325.0332">createEmployee(id,role,name,address,phoneNumber,email,citizenCardNumber)</text></g><!--MD5=[829fb52c07ade3ad64ef85b99d1fca10]
class EmployeeStore--><g id="elem_EmployeeStore"><rect codeLine="13" fill="#F1F1F1" height="83.2188" id="EmployeeStore" rx="2.5" ry="2.5" style="stroke:#181818;stroke-width:0.5;" width="155" x="87.5" y="445"/><ellipse cx="114.65" cy="461" fill="#ADD1B2" rx="11" ry="11" style="stroke:#181818;stroke-width:1.0;"/><path d="M116.65,457.5 Q116.8531,457 117.0875,456.75 Q117.3219,456.5 117.5875,456.5 Q118.0563,456.5 118.3531,456.7813 Q118.65,457.0625 118.65,457.7188 L118.65,459.2813 Q118.65,459.9375 118.3688,460.2188 Q118.0875,460.5 117.65,460.5 Q117.2594,460.5 117.0094,460.3281 Q116.7594,460.1563 116.65,459.7031 Q116.6031,459.3906 116.4313,459.2188 Q116.1188,458.8906 115.5563,458.7031 Q114.9938,458.5 114.4313,458.5 Q113.7281,458.5 113.1344,458.7813 Q112.5563,459.0625 112.1031,459.6875 Q111.65,460.3125 111.65,461.1719 L111.65,462.0938 Q111.65,463.125 112.4938,463.8125 Q113.3375,464.5 114.8375,464.5 Q115.7281,464.5 116.3531,464.2969 Q116.7125,464.1875 117.1188,463.8281 Q117.3844,463.625 117.525,463.5625 Q117.6656,463.5 117.8375,463.5 Q118.1656,463.5 118.4,463.7656 Q118.65,464.0156 118.65,464.375 Q118.65,464.7188 118.3063,465.125 Q117.8063,465.7188 117.0094,466.0469 Q115.9625,466.5 114.6813,466.5 Q113.1813,466.5 111.9781,465.9063 Q111.0094,465.4375 110.3219,464.4219 Q109.65,463.4063 109.65,462.2031 L109.65,461.1094 Q109.65,459.8594 110.2438,458.7656 Q110.8531,457.6719 111.9,457.0938 Q112.9625,456.5 114.15,456.5 Q114.8688,456.5 115.4938,456.75 Q116.1188,457 116.65,457.5 Z " fill="#000000"/><text fill="#000000" font-family="sans-serif" font-size="14" lengthAdjust="spacing" textLength="96" x="131.35" y="466.7285">EmployeeStore</text><line style="stroke:#181818;stroke-width:0.5;" x1="88.5" x2="241.5" y1="477" y2="477"/><line style="stroke:#181818;stroke-width:0.5;" x1="88.5" x2="241.5" y1="485" y2="485"/><ellipse cx="98.5" cy="496" fill="#84BE84" rx="3" ry="3" style="stroke:#038048;stroke-width:1.0;"/><text fill="#000000" font-family="sans-serif" font-size="14" lengthAdjust="spacing" textLength="126" x="107.5" y="503.5332">getEmployeeStore()</text><ellipse cx="98.5" cy="513.6094" fill="#84BE84" rx="3" ry="3" style="stroke:#038048;stroke-width:1.0;"/><text fill="#000000" font-family="sans-serif" font-size="14" lengthAdjust="spacing" textLength="129" x="107.5" y="521.1426">saveEmployee(emp)</text></g><!--MD5=[7421f545a0d8420c5bec41e74b387d9c]
class Employee--><g id="elem_Employee"><rect codeLine="18" fill="#F1F1F1" height="171.2656" id="Employee" rx="2.5" ry="2.5" style="stroke:#181818;stroke-width:0.5;" width="190" x="278" y="401"/><ellipse cx="337.75" cy="417" fill="#ADD1B2" rx="11" ry="11" style="stroke:#181818;stroke-width:1.0;"/><path d="M339.75,413.5 Q339.9531,413 340.1875,412.75 Q340.4219,412.5 340.6875,412.5 Q341.1563,412.5 341.4531,412.7813 Q341.75,413.0625 341.75,413.7188 L341.75,415.2813 Q341.75,415.9375 341.4688,416.2188 Q341.1875,416.5 340.75,416.5 Q340.3594,416.5 340.1094,416.3281 Q339.8594,416.1563 339.75,415.7031 Q339.7031,415.3906 339.5313,415.2188 Q339.2188,414.8906 338.6563,414.7031 Q338.0938,414.5 337.5313,414.5 Q336.8281,414.5 336.2344,414.7813 Q335.6563,415.0625 335.2031,415.6875 Q334.75,416.3125 334.75,417.1719 L334.75,418.0938 Q334.75,419.125 335.5938,419.8125 Q336.4375,420.5 337.9375,420.5 Q338.8281,420.5 339.4531,420.2969 Q339.8125,420.1875 340.2188,419.8281 Q340.4844,419.625 340.625,419.5625 Q340.7656,419.5 340.9375,419.5 Q341.2656,419.5 341.5,419.7656 Q341.75,420.0156 341.75,420.375 Q341.75,420.7188 341.4063,421.125 Q340.9063,421.7188 340.1094,422.0469 Q339.0625,422.5 337.7813,422.5 Q336.2813,422.5 335.0781,421.9063 Q334.1094,421.4375 333.4219,420.4219 Q332.75,419.4063 332.75,418.2031 L332.75,417.1094 Q332.75,415.8594 333.3438,414.7656 Q333.9531,413.6719 335,413.0938 Q336.0625,412.5 337.25,412.5 Q337.9688,412.5 338.5938,412.75 Q339.2188,413 339.75,413.5 Z " fill="#000000"/><text fill="#000000" font-family="sans-serif" font-size="14" lengthAdjust="spacing" textLength="62" x="358.25" y="422.7285">Employee</text><line style="stroke:#181818;stroke-width:0.5;" x1="279" x2="467" y1="433" y2="433"/><rect fill="none" height="6" style="stroke:#C82930;stroke-width:1.0;" width="6" x="286" y="441"/><text fill="#000000" font-family="sans-serif" font-size="14" lengthAdjust="spacing" textLength="56" x="298" y="451.5332">id: String</text><rect fill="none" height="6" style="stroke:#C82930;stroke-width:1.0;" width="6" x="286" y="458.6094"/><text fill="#000000" font-family="sans-serif" font-size="14" lengthAdjust="spacing" textLength="90" x="298" y="469.1426">role: UserRole</text><rect fill="none" height="6" style="stroke:#C82930;stroke-width:1.0;" width="6" x="286" y="476.2188"/><text fill="#000000" font-family="sans-serif" font-size="14" lengthAdjust="spacing" textLength="96" x="298" y="486.752">address: String</text><rect fill="none" height="6" style="stroke:#C82930;stroke-width:1.0;" width="6" x="286" y="493.8281"/><text fill="#000000" font-family="sans-serif" font-size="14" lengthAdjust="spacing" textLength="134" x="298" y="504.3613">phoneNumber: String</text><rect fill="none" height="6" style="stroke:#C82930;stroke-width:1.0;" width="6" x="286" y="511.4375"/><text fill="#000000" font-family="sans-serif" font-size="14" lengthAdjust="spacing" textLength="78" x="298" y="521.9707">email: String</text><rect fill="none" height="6" style="stroke:#C82930;stroke-width:1.0;" width="6" x="286" y="529.0469"/><text fill="#000000" font-family="sans-serif" font-size="14" lengthAdjust="spacing" textLength="164" x="298" y="539.5801">citizenCardNumber: String</text><line style="stroke:#181818;stroke-width:0.5;" x1="279" x2="467" y1="546.6563" y2="546.6563"/><ellipse cx="289" cy="557.6563" fill="#84BE84" rx="3" ry="3" style="stroke:#038048;stroke-width:1.0;"/><text fill="#000000" font-family="sans-serif" font-size="14" lengthAdjust="spacing" textLength="50" x="298" y="565.1895">create()</text></g><!--MD5=[8ae808d068a8995f06b9b3ec51357f0b]
class AuthFacade--><g id="elem_AuthFacade"><rect codeLine="29" fill="#F1F1F1" height="83.2188" id="AuthFacade" rx="2.5" ry="2.5" style="stroke:#181818;stroke-width:0.5;" width="288" x="566" y="258"/><ellipse cx="667.25" cy="274" fill="#ADD1B2" rx="11" ry="11" style="stroke:#181818;stroke-width:1.0;"/><path d="M669.25,270.5 Q669.4531,270 669.6875,269.75 Q669.9219,269.5 670.1875,269.5 Q670.6563,269.5 670.9531,269.7813 Q671.25,270.0625 671.25,270.7188 L671.25,272.2813 Q671.25,272.9375 670.9688,273.2188 Q670.6875,273.5 670.25,273.5 Q669.8594,273.5 669.6094,273.3281 Q669.3594,273.1563 669.25,272.7031 Q669.2031,272.3906 669.0313,272.2188 Q668.7188,271.8906 668.1563,271.7031 Q667.5938,271.5 667.0313,271.5 Q666.3281,271.5 665.7344,271.7813 Q665.1563,272.0625 664.7031,272.6875 Q664.25,273.3125 664.25,274.1719 L664.25,275.0938 Q664.25,276.125 665.0938,276.8125 Q665.9375,277.5 667.4375,277.5 Q668.3281,277.5 668.9531,277.2969 Q669.3125,277.1875 669.7188,276.8281 Q669.9844,276.625 670.125,276.5625 Q670.2656,276.5 670.4375,276.5 Q670.7656,276.5 671,276.7656 Q671.25,277.0156 671.25,277.375 Q671.25,277.7188 670.9063,278.125 Q670.4063,278.7188 669.6094,279.0469 Q668.5625,279.5 667.2813,279.5 Q665.7813,279.5 664.5781,278.9063 Q663.6094,278.4375 662.9219,277.4219 Q662.25,276.4063 662.25,275.2031 L662.25,274.1094 Q662.25,272.8594 662.8438,271.7656 Q663.4531,270.6719 664.5,270.0938 Q665.5625,269.5 666.75,269.5 Q667.4688,269.5 668.0938,269.75 Q668.7188,270 669.25,270.5 Z " fill="#000000"/><text fill="#000000" font-family="sans-serif" font-size="14" lengthAdjust="spacing" textLength="77" x="687.75" y="279.7285">AuthFacade</text><line style="stroke:#181818;stroke-width:0.5;" x1="567" x2="853" y1="290" y2="290"/><line style="stroke:#181818;stroke-width:0.5;" x1="567" x2="853" y1="298" y2="298"/><ellipse cx="577" cy="309" fill="#84BE84" rx="3" ry="3" style="stroke:#038048;stroke-width:1.0;"/><text fill="#000000" font-family="sans-serif" font-size="14" lengthAdjust="spacing" textLength="66" x="586" y="316.5332">getRoles()</text><ellipse cx="577" cy="326.6094" fill="#84BE84" rx="3" ry="3" style="stroke:#038048;stroke-width:1.0;"/><text fill="#000000" font-family="sans-serif" font-size="14" lengthAdjust="spacing" textLength="262" x="586" y="334.1426">addUserWithRole(name,email,pwd,roleID)</text></g><!--MD5=[3fd241ca11f270f6bde54c00b8a8581a]
link RegisterEmployeeUI to RegisterEmployeeController--><g id="link_RegisterEmployeeUI_RegisterEmployeeController"><path codeLine="35" d="M489,55.23 C489,70.56 489,91.16 489,109.7 " fill="none" id="RegisterEmployeeUI-to-RegisterEmployeeController" style="stroke:#181818;stroke-width:1.0;stroke-dasharray:7.0,7.0;"/><polygon fill="#181818" points="489,114.87,493,105.87,489,109.87,485,105.87,489,114.87" style="stroke:#181818;stroke-width:1.0;"/></g><!--MD5=[969ee03aa52aee79b0e607297418cbd4]
link RegisterEmployeeController to Company--><g id="link_RegisterEmployeeController_Company"><path codeLine="36" d="M425.66,198.09 C393.36,218.8 354.46,243.73 323.51,263.56 " fill="none" id="RegisterEmployeeController-to-Company" style="stroke:#181818;stroke-width:1.0;stroke-dasharray:7.0,7.0;"/><polygon fill="#181818" points="319,266.45,328.7359,264.9629,323.2101,263.7527,324.4203,258.2268,319,266.45" style="stroke:#181818;stroke-width:1.0;"/></g><!--MD5=[a569f6895d642c91e505293a30d28875]
link RegisterEmployeeController to AuthFacade--><g id="link_RegisterEmployeeController_AuthFacade"><path codeLine="37" d="M552.63,198.09 C580.59,215.93 613.46,236.91 641.91,255.06 " fill="none" id="RegisterEmployeeController-to-AuthFacade" style="stroke:#181818;stroke-width:1.0;stroke-dasharray:7.0,7.0;"/><polygon fill="#181818" points="646.44,257.95,641.0197,249.7268,642.2299,255.2527,636.7041,256.4629,646.44,257.95" style="stroke:#181818;stroke-width:1.0;"/></g><!--MD5=[09366576ee87d48d594df10cacc83f45]
link Company to Employee--><g id="link_Company_Employee"><path codeLine="38" d="M287.12,332.72 C297.1,350.49 310.04,373.5 322.83,396.25 " fill="none" id="Company-to-Employee" style="stroke:#181818;stroke-width:1.0;stroke-dasharray:7.0,7.0;"/><polygon fill="#181818" points="325.38,400.79,324.4814,390.9822,322.9409,396.4253,317.4978,394.8848,325.38,400.79" style="stroke:#181818;stroke-width:1.0;"/></g><!--MD5=[ce859576cba61219b3cb4d2d23fdcd81]
link Company to EmployeeStore--><g id="link_Company_EmployeeStore"><path codeLine="39" d="M250.88,332.72 C234.12,362.55 209.03,407.17 190.3,440.5 " fill="none" id="Company-to-EmployeeStore" style="stroke:#181818;stroke-width:1.0;stroke-dasharray:7.0,7.0;"/><polygon fill="#181818" points="187.81,444.92,195.7004,439.0258,190.2552,440.5587,188.7223,435.1135,187.81,444.92" style="stroke:#181818;stroke-width:1.0;"/></g><!--MD5=[236495fb1984d7b5e6e8f8848d0d6a79]
@startuml
class RegisterEmployeeUI{
}

class RegisterEmployeeController{
+getRoles()
+saveEmployee()
}

class Company{
+createEmployee(id,role,name,address,phoneNumber,email,citizenCardNumber)
}

class EmployeeStore{
+getEmployeeStore()
+saveEmployee(emp)
}

class Employee{
- id: String
- role: UserRole
-address: String
-phoneNumber: String
-email: String
-citizenCardNumber: String
+create()
}


class AuthFacade{
+getRoles()
+addUserWithRole(name,email,pwd,roleID)
}


RegisterEmployeeUI ..> RegisterEmployeeController
RegisterEmployeeController ..> Company
RegisterEmployeeController ..> AuthFacade
Company ..> Employee
Company ..> EmployeeStore


@enduml

PlantUML version 1.2022.4(Sat Apr 09 14:29:17 BST 2022)
(GPL source distribution)
Java Runtime: OpenJDK Runtime Environment
JVM: OpenJDK 64-Bit Server VM
Default Encoding: Cp1252
Language: pt
Country: PT
--></g></svg>