<?xml version="1.0" encoding="UTF-8" standalone="no"?><svg xmlns="http://www.w3.org/2000/svg" xmlns:xlink="http://www.w3.org/1999/xlink" contentStyleType="text/css" height="889px" preserveAspectRatio="none" style="width:2270px;height:889px;background:#FFFFFF;" version="1.1" viewBox="0 0 2270 889" width="2270px" zoomAndPan="magnify"><defs/><g><rect fill="#FFFFFF" height="705.6797" style="stroke:#181818;stroke-width:1.0;" width="10" x="44.5" y="92.6094"/><rect fill="#FFFFFF" height="30.3516" style="stroke:#181818;stroke-width:1.0;" width="10" x="466.5" y="114.9609"/><rect fill="#FFFFFF" height="30.3516" style="stroke:#181818;stroke-width:1.0;" width="10" x="466.5" y="175.6641"/><rect fill="#FFFFFF" height="284.8125" style="stroke:#181818;stroke-width:1.0;" width="10" x="466.5" y="236.3672"/><rect fill="#FFFFFF" height="246.7578" style="stroke:#181818;stroke-width:1.0;" width="10" x="466.5" y="551.5313"/><rect fill="#FFFFFF" height="232.1094" style="stroke:#181818;stroke-width:1.0;" width="10" x="902.5" y="266.7188"/><rect fill="#FFFFFF" height="216.4063" style="stroke:#181818;stroke-width:1.0;" width="10" x="902.5" y="581.8828"/><rect fill="#FFFFFF" height="30" style="stroke:#181818;stroke-width:1.0;" width="10" x="1082.5" y="297.0703"/><rect fill="#FFFFFF" height="55.7031" style="stroke:#181818;stroke-width:1.0;" width="10" x="1379.5" y="357.4219"/><rect fill="#FFFFFF" height="139.7031" style="stroke:#181818;stroke-width:1.0;" width="10" x="1379.5" y="612.2344"/><rect fill="#FFFFFF" height="28" style="stroke:#181818;stroke-width:1.0;" width="10" x="1384.5" y="650.5859"/><rect fill="#FFFFFF" height="28" style="stroke:#181818;stroke-width:1.0;" width="10" x="1384.5" y="723.9375"/><rect height="119.4063" style="stroke:#000000;stroke-width:1.5;fill:none;" width="943.5" x="1320" y="372.4219"/><line style="stroke:#181818;stroke-width:0.5;fill:none;stroke-dasharray:5.0,5.0;" x1="49" x2="49" y1="82.6094" y2="807.2891"/><line style="stroke:#181818;stroke-width:0.5;fill:none;stroke-dasharray:5.0,5.0;" x1="471.5" x2="471.5" y1="82.6094" y2="807.2891"/><line style="stroke:#181818;stroke-width:0.5;fill:none;stroke-dasharray:5.0,5.0;" x1="907.5" x2="907.5" y1="82.6094" y2="807.2891"/><line style="stroke:#181818;stroke-width:0.5;fill:none;stroke-dasharray:5.0,5.0;" x1="1087.5" x2="1087.5" y1="82.6094" y2="807.2891"/><line style="stroke:#181818;stroke-width:0.5;fill:none;stroke-dasharray:5.0,5.0;" x1="1384" x2="1384" y1="82.6094" y2="807.2891"/><line style="stroke:#181818;stroke-width:0.5;fill:none;stroke-dasharray:5.0,5.0;" x1="1895.5" x2="1895.5" y1="422.0781" y2="807.2891"/><line style="stroke:#181818;stroke-width:0.5;fill:none;stroke-dasharray:5.0,5.0;" x1="2119.5" x2="2119.5" y1="480.5234" y2="807.2891"/><text fill="#000000" font-family="sans-serif" font-size="14" lengthAdjust="spacing" textLength="83" x="5" y="79.5332">Administrator</text><ellipse cx="49.5" cy="13.5" fill="#E2E2F0" rx="8" ry="8" style="stroke:#181818;stroke-width:0.5;"/><path d="M49.5,21.5 L49.5,48.5 M36.5,29.5 L62.5,29.5 M49.5,48.5 L36.5,63.5 M49.5,48.5 L62.5,63.5 " fill="none" style="stroke:#181818;stroke-width:0.5;"/><text fill="#000000" font-family="sans-serif" font-size="14" lengthAdjust="spacing" textLength="83" x="5" y="820.8223">Administrator</text><ellipse cx="49.5" cy="832.3984" fill="#E2E2F0" rx="8" ry="8" style="stroke:#181818;stroke-width:0.5;"/><path d="M49.5,840.3984 L49.5,867.3984 M36.5,848.3984 L62.5,848.3984 M49.5,867.3984 L36.5,882.3984 M49.5,867.3984 L62.5,882.3984 " fill="none" style="stroke:#181818;stroke-width:0.5;"/><rect fill="#E2E2F0" height="31.6094" rx="2.5" ry="2.5" style="stroke:#181818;stroke-width:0.5;" width="126" x="408.5" y="50"/><text fill="#000000" font-family="sans-serif" font-size="14" lengthAdjust="spacing" textLength="112" x="415.5" y="71.5332">:RegisterCenterUI</text><rect fill="#E2E2F0" height="31.6094" rx="2.5" ry="2.5" style="stroke:#181818;stroke-width:0.5;" width="126" x="408.5" y="806.2891"/><text fill="#000000" font-family="sans-serif" font-size="14" lengthAdjust="spacing" textLength="112" x="415.5" y="827.8223">:RegisterCenterUI</text><rect fill="#E2E2F0" height="31.6094" rx="2.5" ry="2.5" style="stroke:#181818;stroke-width:0.5;" width="176" x="819.5" y="50"/><text fill="#000000" font-family="sans-serif" font-size="14" lengthAdjust="spacing" textLength="162" x="826.5" y="71.5332">:RegisterCenterController</text><rect fill="#E2E2F0" height="31.6094" rx="2.5" ry="2.5" style="stroke:#181818;stroke-width:0.5;" width="176" x="819.5" y="806.2891"/><text fill="#000000" font-family="sans-serif" font-size="14" lengthAdjust="spacing" textLength="162" x="826.5" y="827.8223">:RegisterCenterController</text><rect fill="#E2E2F0" height="31.6094" rx="2.5" ry="2.5" style="stroke:#181818;stroke-width:0.5;" width="78" x="1048.5" y="50"/><text fill="#000000" font-family="sans-serif" font-size="14" lengthAdjust="spacing" textLength="64" x="1055.5" y="71.5332">:Company</text><rect fill="#E2E2F0" height="31.6094" rx="2.5" ry="2.5" style="stroke:#181818;stroke-width:0.5;" width="78" x="1048.5" y="806.2891"/><text fill="#000000" font-family="sans-serif" font-size="14" lengthAdjust="spacing" textLength="64" x="1055.5" y="827.8223">:Company</text><rect fill="#E2E2F0" height="31.6094" rx="2.5" ry="2.5" style="stroke:#181818;stroke-width:0.5;" width="109" x="1330" y="50"/><text fill="#000000" font-family="sans-serif" font-size="14" lengthAdjust="spacing" textLength="95" x="1337" y="71.5332">cs:CenterStore</text><rect fill="#E2E2F0" height="31.6094" rx="2.5" ry="2.5" style="stroke:#181818;stroke-width:0.5;" width="109" x="1330" y="806.2891"/><text fill="#000000" font-family="sans-serif" font-size="14" lengthAdjust="spacing" textLength="95" x="1337" y="827.8223">cs:CenterStore</text><rect fill="#E2E2F0" height="31.6094" rx="2.5" ry="2.5" style="stroke:#181818;stroke-width:0.5;" width="160" x="1815.5" y="806.2891"/><text fill="#000000" font-family="sans-serif" font-size="14" lengthAdjust="spacing" textLength="146" x="1822.5" y="827.8223">cent: HealthcareCenter</text><rect fill="#E2E2F0" height="31.6094" rx="2.5" ry="2.5" style="stroke:#181818;stroke-width:0.5;" width="268" x="1985.5" y="806.2891"/><text fill="#000000" font-family="sans-serif" font-size="14" lengthAdjust="spacing" textLength="254" x="1992.5" y="827.8223">cent: CommunityMassVaccinationCenter</text><rect fill="#FFFFFF" height="705.6797" style="stroke:#181818;stroke-width:1.0;" width="10" x="44.5" y="92.6094"/><rect fill="#FFFFFF" height="30.3516" style="stroke:#181818;stroke-width:1.0;" width="10" x="466.5" y="114.9609"/><rect fill="#FFFFFF" height="30.3516" style="stroke:#181818;stroke-width:1.0;" width="10" x="466.5" y="175.6641"/><rect fill="#FFFFFF" height="284.8125" style="stroke:#181818;stroke-width:1.0;" width="10" x="466.5" y="236.3672"/><rect fill="#FFFFFF" height="246.7578" style="stroke:#181818;stroke-width:1.0;" width="10" x="466.5" y="551.5313"/><rect fill="#FFFFFF" height="232.1094" style="stroke:#181818;stroke-width:1.0;" width="10" x="902.5" y="266.7188"/><rect fill="#FFFFFF" height="216.4063" style="stroke:#181818;stroke-width:1.0;" width="10" x="902.5" y="581.8828"/><rect fill="#FFFFFF" height="30" style="stroke:#181818;stroke-width:1.0;" width="10" x="1082.5" y="297.0703"/><rect fill="#FFFFFF" height="55.7031" style="stroke:#181818;stroke-width:1.0;" width="10" x="1379.5" y="357.4219"/><rect fill="#FFFFFF" height="139.7031" style="stroke:#181818;stroke-width:1.0;" width="10" x="1379.5" y="612.2344"/><rect fill="#FFFFFF" height="28" style="stroke:#181818;stroke-width:1.0;" width="10" x="1384.5" y="650.5859"/><rect fill="#FFFFFF" height="28" style="stroke:#181818;stroke-width:1.0;" width="10" x="1384.5" y="723.9375"/><polygon fill="#181818" points="454.5,110.9609,464.5,114.9609,454.5,118.9609,458.5,114.9609" style="stroke:#181818;stroke-width:1.0;"/><line style="stroke:#181818;stroke-width:1.0;" x1="54.5" x2="460.5" y1="114.9609" y2="114.9609"/><text fill="#000000" font-family="sans-serif" font-size="13" font-weight="bold" lengthAdjust="spacing" textLength="7" x="61.5" y="110.1045">1</text><text fill="#000000" font-family="sans-serif" font-size="13" lengthAdjust="spacing" textLength="177" x="72.5" y="110.1045">Starts registering a new center</text><polygon fill="#181818" points="65.5,141.3125,55.5,145.3125,65.5,149.3125,61.5,145.3125" style="stroke:#181818;stroke-width:1.0;"/><line style="stroke:#181818;stroke-width:1.0;stroke-dasharray:2.0,2.0;" x1="59.5" x2="470.5" y1="145.3125" y2="145.3125"/><text fill="#000000" font-family="sans-serif" font-size="13" font-weight="bold" lengthAdjust="spacing" textLength="7" x="71.5" y="140.4561">2</text><text fill="#000000" font-family="sans-serif" font-size="13" lengthAdjust="spacing" textLength="175" x="82.5" y="140.4561">Asks to select the center type</text><polygon fill="#181818" points="454.5,171.6641,464.5,175.6641,454.5,179.6641,458.5,175.6641" style="stroke:#181818;stroke-width:1.0;"/><line style="stroke:#181818;stroke-width:1.0;" x1="54.5" x2="460.5" y1="175.6641" y2="175.6641"/><text fill="#000000" font-family="sans-serif" font-size="13" font-weight="bold" lengthAdjust="spacing" textLength="7" x="61.5" y="170.8076">3</text><text fill="#000000" font-family="sans-serif" font-size="13" lengthAdjust="spacing" textLength="188" x="72.5" y="170.8076">Selects the intended center type</text><polygon fill="#181818" points="65.5,202.0156,55.5,206.0156,65.5,210.0156,61.5,206.0156" style="stroke:#181818;stroke-width:1.0;"/><line style="stroke:#181818;stroke-width:1.0;stroke-dasharray:2.0,2.0;" x1="59.5" x2="470.5" y1="206.0156" y2="206.0156"/><text fill="#000000" font-family="sans-serif" font-size="13" font-weight="bold" lengthAdjust="spacing" textLength="7" x="71.5" y="201.1592">4</text><text fill="#000000" font-family="sans-serif" font-size="13" lengthAdjust="spacing" textLength="377" x="82.5" y="201.1592">Requests data (name, address, phoneNumber, emailAddress, ...)</text><polygon fill="#181818" points="454.5,232.3672,464.5,236.3672,454.5,240.3672,458.5,236.3672" style="stroke:#181818;stroke-width:1.0;"/><line style="stroke:#181818;stroke-width:1.0;" x1="54.5" x2="460.5" y1="236.3672" y2="236.3672"/><text fill="#000000" font-family="sans-serif" font-size="13" font-weight="bold" lengthAdjust="spacing" textLength="7" x="61.5" y="231.5107">5</text><text fill="#000000" font-family="sans-serif" font-size="13" lengthAdjust="spacing" textLength="125" x="72.5" y="231.5107">Types requested data</text><polygon fill="#181818" points="890.5,262.7188,900.5,266.7188,890.5,270.7188,894.5,266.7188" style="stroke:#181818;stroke-width:1.0;"/><line style="stroke:#181818;stroke-width:1.0;" x1="476.5" x2="896.5" y1="266.7188" y2="266.7188"/><text fill="#000000" font-family="sans-serif" font-size="13" font-weight="bold" lengthAdjust="spacing" textLength="7" x="483.5" y="261.8623">6</text><text fill="#000000" font-family="sans-serif" font-size="13" lengthAdjust="spacing" textLength="396" x="494.5" y="261.8623">createCenter(type, name, address, phoneNumber, emailAddress, ...)</text><polygon fill="#181818" points="1070.5,293.0703,1080.5,297.0703,1070.5,301.0703,1074.5,297.0703" style="stroke:#181818;stroke-width:1.0;"/><line style="stroke:#181818;stroke-width:1.0;" x1="912.5" x2="1076.5" y1="297.0703" y2="297.0703"/><text fill="#000000" font-family="sans-serif" font-size="13" font-weight="bold" lengthAdjust="spacing" textLength="7" x="919.5" y="292.2139">7</text><text fill="#000000" font-family="sans-serif" font-size="13" lengthAdjust="spacing" textLength="140" x="930.5" y="292.2139">store = getCenterStore()</text><polygon fill="#181818" points="1367.5,353.4219,1377.5,357.4219,1367.5,361.4219,1371.5,357.4219" style="stroke:#181818;stroke-width:1.0;"/><line style="stroke:#181818;stroke-width:1.0;" x1="912.5" x2="1373.5" y1="357.4219" y2="357.4219"/><text fill="#000000" font-family="sans-serif" font-size="13" font-weight="bold" lengthAdjust="spacing" textLength="7" x="919.5" y="352.5654">8</text><text fill="#000000" font-family="sans-serif" font-size="13" lengthAdjust="spacing" textLength="437" x="930.5" y="352.5654">cent = createCenter(type, name, address, phoneNumber, emailAddress, ...)</text><path d="M1320,372.4219 L1381,372.4219 L1381,380.7734 L1371,390.7734 L1320,390.7734 L1320,372.4219 " fill="#EEEEEE" style="stroke:#000000;stroke-width:1.5;"/><rect fill="none" height="119.4063" style="stroke:#000000;stroke-width:1.5;" width="943.5" x="1320" y="372.4219"/><text fill="#000000" font-family="sans-serif" font-size="13" font-weight="bold" lengthAdjust="spacing" textLength="16" x="1335" y="386.917">alt</text><text fill="#000000" font-family="sans-serif" font-size="11" font-weight="bold" lengthAdjust="spacing" textLength="112" x="1396" y="385.8408">[type = "healthcare"]</text><polygon fill="#181818" points="1803.5,409.125,1813.5,413.125,1803.5,417.125,1807.5,413.125" style="stroke:#181818;stroke-width:1.0;"/><line style="stroke:#181818;stroke-width:1.0;" x1="1384.5" x2="1809.5" y1="413.125" y2="413.125"/><text fill="#000000" font-family="sans-serif" font-size="13" font-weight="bold" lengthAdjust="spacing" textLength="7" x="1391.5" y="408.2686">9</text><text fill="#000000" font-family="sans-serif" font-size="13" lengthAdjust="spacing" textLength="391" x="1402.5" y="408.2686">create(name, address, phoneNumber, emailAddress, ...,  ars, ages)</text><rect fill="#E2E2F0" height="31.6094" rx="2.5" ry="2.5" style="stroke:#181818;stroke-width:0.5;" width="160" x="1815.5" y="390.7734"/><text fill="#000000" font-family="sans-serif" font-size="14" lengthAdjust="spacing" textLength="146" x="1822.5" y="412.3066">cent: HealthcareCenter</text><line style="stroke:#000000;stroke-width:1.0;stroke-dasharray:2.0,2.0;" x1="1320" x2="2263.5" y1="434.3828" y2="434.3828"/><text fill="#000000" font-family="sans-serif" font-size="11" font-weight="bold" lengthAdjust="spacing" textLength="85" x="1325" y="445.8018">[type = "mass"]</text><polygon fill="#181818" points="1973.5,467.5703,1983.5,471.5703,1973.5,475.5703,1977.5,471.5703" style="stroke:#181818;stroke-width:1.0;"/><line style="stroke:#181818;stroke-width:1.0;" x1="1384.5" x2="1979.5" y1="471.5703" y2="471.5703"/><text fill="#000000" font-family="sans-serif" font-size="13" font-weight="bold" lengthAdjust="spacing" textLength="14" x="1391.5" y="466.7139">10</text><text fill="#000000" font-family="sans-serif" font-size="13" lengthAdjust="spacing" textLength="325" x="1409.5" y="466.7139">create(name, address, phoneNumber, emailAddress, ...)</text><rect fill="#E2E2F0" height="31.6094" rx="2.5" ry="2.5" style="stroke:#181818;stroke-width:0.5;" width="268" x="1985.5" y="449.2188"/><text fill="#000000" font-family="sans-serif" font-size="14" lengthAdjust="spacing" textLength="254" x="1992.5" y="470.752">cent: CommunityMassVaccinationCenter</text><polygon fill="#181818" points="65.5,517.1797,55.5,521.1797,65.5,525.1797,61.5,521.1797" style="stroke:#181818;stroke-width:1.0;"/><line style="stroke:#181818;stroke-width:1.0;stroke-dasharray:2.0,2.0;" x1="59.5" x2="470.5" y1="521.1797" y2="521.1797"/><text fill="#000000" font-family="sans-serif" font-size="13" font-weight="bold" lengthAdjust="spacing" textLength="14" x="71.5" y="516.3232">11</text><text fill="#000000" font-family="sans-serif" font-size="13" lengthAdjust="spacing" textLength="254" x="89.5" y="516.3232">Shows the data and requests a confirmation</text><polygon fill="#181818" points="454.5,547.5313,464.5,551.5313,454.5,555.5313,458.5,551.5313" style="stroke:#181818;stroke-width:1.0;"/><line style="stroke:#181818;stroke-width:1.0;" x1="54.5" x2="460.5" y1="551.5313" y2="551.5313"/><text fill="#000000" font-family="sans-serif" font-size="13" font-weight="bold" lengthAdjust="spacing" textLength="14" x="61.5" y="546.6748">12</text><text fill="#000000" font-family="sans-serif" font-size="13" lengthAdjust="spacing" textLength="102" x="79.5" y="546.6748">Confirms the data</text><polygon fill="#181818" points="890.5,577.8828,900.5,581.8828,890.5,585.8828,894.5,581.8828" style="stroke:#181818;stroke-width:1.0;"/><line style="stroke:#181818;stroke-width:1.0;" x1="476.5" x2="896.5" y1="581.8828" y2="581.8828"/><text fill="#000000" font-family="sans-serif" font-size="13" font-weight="bold" lengthAdjust="spacing" textLength="14" x="483.5" y="577.0264">13</text><text fill="#000000" font-family="sans-serif" font-size="13" lengthAdjust="spacing" textLength="72" x="501.5" y="577.0264">saveCenter()</text><polygon fill="#181818" points="1367.5,608.2344,1377.5,612.2344,1367.5,616.2344,1371.5,612.2344" style="stroke:#181818;stroke-width:1.0;"/><line style="stroke:#181818;stroke-width:1.0;" x1="912.5" x2="1373.5" y1="612.2344" y2="612.2344"/><text fill="#000000" font-family="sans-serif" font-size="13" font-weight="bold" lengthAdjust="spacing" textLength="14" x="919.5" y="607.3779">14</text><text fill="#000000" font-family="sans-serif" font-size="13" lengthAdjust="spacing" textLength="97" x="937.5" y="607.3779">saveCenter(cent)</text><line style="stroke:#181818;stroke-width:1.0;" x1="1394.5" x2="1436.5" y1="642.5859" y2="642.5859"/><line style="stroke:#181818;stroke-width:1.0;" x1="1436.5" x2="1436.5" y1="642.5859" y2="655.5859"/><line style="stroke:#181818;stroke-width:1.0;" x1="1395.5" x2="1436.5" y1="655.5859" y2="655.5859"/><polygon fill="#181818" points="1405.5,651.5859,1395.5,655.5859,1405.5,659.5859,1401.5,655.5859" style="stroke:#181818;stroke-width:1.0;"/><text fill="#000000" font-family="sans-serif" font-size="13" font-weight="bold" lengthAdjust="spacing" textLength="14" x="1401.5" y="637.7295">15</text><text fill="#000000" font-family="sans-serif" font-size="13" lengthAdjust="spacing" textLength="114" x="1419.5" y="637.7295">validateCenter(cent)</text><line style="stroke:#181818;stroke-width:1.0;" x1="1394.5" x2="1436.5" y1="715.9375" y2="715.9375"/><line style="stroke:#181818;stroke-width:1.0;" x1="1436.5" x2="1436.5" y1="715.9375" y2="728.9375"/><line style="stroke:#181818;stroke-width:1.0;" x1="1395.5" x2="1436.5" y1="728.9375" y2="728.9375"/><polygon fill="#181818" points="1405.5,724.9375,1395.5,728.9375,1405.5,732.9375,1401.5,728.9375" style="stroke:#181818;stroke-width:1.0;"/><text fill="#000000" font-family="sans-serif" font-size="13" font-weight="bold" lengthAdjust="spacing" textLength="14" x="1401.5" y="711.0811">16</text><text fill="#000000" font-family="sans-serif" font-size="13" lengthAdjust="spacing" textLength="92" x="1419.5" y="711.0811">addCenter(cent)</text><polygon fill="#181818" points="65.5,785.2891,55.5,789.2891,65.5,793.2891,61.5,789.2891" style="stroke:#181818;stroke-width:1.0;"/><line style="stroke:#181818;stroke-width:1.0;stroke-dasharray:2.0,2.0;" x1="59.5" x2="465.5" y1="789.2891" y2="789.2891"/><text fill="#000000" font-family="sans-serif" font-size="13" font-weight="bold" lengthAdjust="spacing" textLength="14" x="71.5" y="784.4326">17</text><text fill="#000000" font-family="sans-serif" font-size="13" lengthAdjust="spacing" textLength="152" x="89.5" y="784.4326">Informs operation success</text><!--MD5=[548d2ab806000a3e405f4e3daca77104]
@startuml
'https://plantuml.com/sequence-diagram

autonumber

actor Administrator as adm
participant ":RegisterCenterUI" as rcui
participant ":RegisterCenterController" as rcc
participant ":Company" as comp
participant "cs:CenterStore" as cs

activate adm

adm-> rcui: Starts registering a new center
activate rcui
rcui- -> adm: Asks to select the center type
deactivate rcui

adm-> rcui: Selects the intended center type
activate rcui
rcui- -> adm: Requests data (name, address, phoneNumber, emailAddress, ...)
deactivate rcui

adm-> rcui: Types requested data
activate rcui
rcui-> rcc: createCenter(type, name, address, phoneNumber, emailAddress, ...)
activate rcc
rcc -> comp: store = getCenterStore()
activate comp
deactivate comp
rcc -> cs: cent = createCenter(type, name, address, phoneNumber, emailAddress, ...)
activate cs
alt type = "healthcare"
cs -> "cent: HealthcareCenter" **: create(name, address, phoneNumber, emailAddress, ...,  ars, ages)
deactivate cs
else type = "mass"
cs -> "cent: CommunityMassVaccinationCenter" **: create(name, address, phoneNumber, emailAddress, ...)
end
deactivate rcc

rcui - -> adm: Shows the data and requests a confirmation
deactivate rcui

adm -> rcui: Confirms the data
activate rcui
rcui -> rcc: saveCenter()
activate rcc
rcc -> cs: saveCenter(cent)
activate cs

cs -> cs: validateCenter(cent)
activate cs
deactivate cs
cs -> cs: addCenter(cent)
activate cs
deactivate cs
deactivate cs

rcui - -> adm: Informs operation success


@enduml

@startuml

autonumber

actor Administrator as adm
participant ":RegisterCenterUI" as rcui
participant ":RegisterCenterController" as rcc
participant ":Company" as comp
participant "cs:CenterStore" as cs

activate adm

adm-> rcui: Starts registering a new center
activate rcui
rcui- -> adm: Asks to select the center type
deactivate rcui

adm-> rcui: Selects the intended center type
activate rcui
rcui- -> adm: Requests data (name, address, phoneNumber, emailAddress, ...)
deactivate rcui

adm-> rcui: Types requested data
activate rcui
rcui-> rcc: createCenter(type, name, address, phoneNumber, emailAddress, ...)
activate rcc
rcc -> comp: store = getCenterStore()
activate comp
deactivate comp
rcc -> cs: cent = createCenter(type, name, address, phoneNumber, emailAddress, ...)
activate cs
alt type = "healthcare"
cs -> "cent: HealthcareCenter" **: create(name, address, phoneNumber, emailAddress, ...,  ars, ages)
deactivate cs
else type = "mass"
cs -> "cent: CommunityMassVaccinationCenter" **: create(name, address, phoneNumber, emailAddress, ...)
end
deactivate rcc

rcui - -> adm: Shows the data and requests a confirmation
deactivate rcui

adm -> rcui: Confirms the data
activate rcui
rcui -> rcc: saveCenter()
activate rcc
rcc -> cs: saveCenter(cent)
activate cs

cs -> cs: validateCenter(cent)
activate cs
deactivate cs
cs -> cs: addCenter(cent)
activate cs
deactivate cs
deactivate cs

rcui - -> adm: Informs operation success


@enduml

PlantUML version 1.2022.4(Sat Apr 09 14:29:17 BST 2022)
(GPL source distribution)
Java Runtime: OpenJDK Runtime Environment
JVM: OpenJDK 64-Bit Server VM
Default Encoding: Cp1252
Language: pt
Country: PT
--></g></svg>