<?xml version="1.0" encoding="UTF-8" standalone="no"?><svg xmlns="http://www.w3.org/2000/svg" xmlns:xlink="http://www.w3.org/1999/xlink" contentStyleType="text/css" height="258px" preserveAspectRatio="none" style="width:1311px;height:258px;background:#FFFFFF;" version="1.1" viewBox="0 0 1311 258" width="1311px" zoomAndPan="magnify"><defs/><g><!--MD5=[335f4d9be48430461c68bf6d6fdba145]
class App--><g id="elem_App"><rect codeLine="2" fill="#F1F1F1" height="65.6094" id="App" rx="2.5" ry="2.5" style="stroke:#181818;stroke-width:0.5;" width="116" x="63.5" y="24.5"/><ellipse cx="105.05" cy="40.5" fill="#ADD1B2" rx="11" ry="11" style="stroke:#181818;stroke-width:1.0;"/><path d="M107.05,37 Q107.2531,36.5 107.4875,36.25 Q107.7219,36 107.9875,36 Q108.4563,36 108.7531,36.2813 Q109.05,36.5625 109.05,37.2188 L109.05,38.7813 Q109.05,39.4375 108.7688,39.7188 Q108.4875,40 108.05,40 Q107.6594,40 107.4094,39.8281 Q107.1594,39.6563 107.05,39.2031 Q107.0031,38.8906 106.8313,38.7188 Q106.5188,38.3906 105.9563,38.2031 Q105.3938,38 104.8313,38 Q104.1281,38 103.5344,38.2813 Q102.9563,38.5625 102.5031,39.1875 Q102.05,39.8125 102.05,40.6719 L102.05,41.5938 Q102.05,42.625 102.8938,43.3125 Q103.7375,44 105.2375,44 Q106.1281,44 106.7531,43.7969 Q107.1125,43.6875 107.5188,43.3281 Q107.7844,43.125 107.925,43.0625 Q108.0656,43 108.2375,43 Q108.5656,43 108.8,43.2656 Q109.05,43.5156 109.05,43.875 Q109.05,44.2188 108.7063,44.625 Q108.2063,45.2188 107.4094,45.5469 Q106.3625,46 105.0813,46 Q103.5813,46 102.3781,45.4063 Q101.4094,44.9375 100.7219,43.9219 Q100.05,42.9063 100.05,41.7031 L100.05,40.6094 Q100.05,39.3594 100.6438,38.2656 Q101.2531,37.1719 102.3,36.5938 Q103.3625,36 104.55,36 Q105.2688,36 105.8938,36.25 Q106.5188,36.5 107.05,37 Z " fill="#000000"/><text fill="#000000" font-family="sans-serif" font-size="14" lengthAdjust="spacing" textLength="25" x="124.95" y="46.2285">App</text><line style="stroke:#181818;stroke-width:0.5;" x1="64.5" x2="178.5" y1="56.5" y2="56.5"/><line style="stroke:#181818;stroke-width:0.5;" x1="64.5" x2="178.5" y1="64.5" y2="64.5"/><ellipse cx="74.5" cy="75.5" fill="#84BE84" rx="3" ry="3" style="stroke:#038048;stroke-width:1.0;"/><text fill="#000000" font-family="sans-serif" font-size="14" lengthAdjust="spacing" textLength="90" x="83.5" y="83.0332">calulateTime()</text></g><!--MD5=[02e4b9b7573f1156f41e60aa5b4e25a4]
class Company--><g id="elem_Company"><rect codeLine="6" fill="#F1F1F1" height="100.8281" id="Company" rx="2.5" ry="2.5" style="stroke:#181818;stroke-width:0.5;" width="272" x="250.5" y="7"/><ellipse cx="352.25" cy="23" fill="#ADD1B2" rx="11" ry="11" style="stroke:#181818;stroke-width:1.0;"/><path d="M354.25,19.5 Q354.4531,19 354.6875,18.75 Q354.9219,18.5 355.1875,18.5 Q355.6563,18.5 355.9531,18.7813 Q356.25,19.0625 356.25,19.7188 L356.25,21.2813 Q356.25,21.9375 355.9688,22.2188 Q355.6875,22.5 355.25,22.5 Q354.8594,22.5 354.6094,22.3281 Q354.3594,22.1563 354.25,21.7031 Q354.2031,21.3906 354.0313,21.2188 Q353.7188,20.8906 353.1563,20.7031 Q352.5938,20.5 352.0313,20.5 Q351.3281,20.5 350.7344,20.7813 Q350.1563,21.0625 349.7031,21.6875 Q349.25,22.3125 349.25,23.1719 L349.25,24.0938 Q349.25,25.125 350.0938,25.8125 Q350.9375,26.5 352.4375,26.5 Q353.3281,26.5 353.9531,26.2969 Q354.3125,26.1875 354.7188,25.8281 Q354.9844,25.625 355.125,25.5625 Q355.2656,25.5 355.4375,25.5 Q355.7656,25.5 356,25.7656 Q356.25,26.0156 356.25,26.375 Q356.25,26.7188 355.9063,27.125 Q355.4063,27.7188 354.6094,28.0469 Q353.5625,28.5 352.2813,28.5 Q350.7813,28.5 349.5781,27.9063 Q348.6094,27.4375 347.9219,26.4219 Q347.25,25.4063 347.25,24.2031 L347.25,23.1094 Q347.25,21.8594 347.8438,20.7656 Q348.4531,19.6719 349.5,19.0938 Q350.5625,18.5 351.75,18.5 Q352.4688,18.5 353.0938,18.75 Q353.7188,19 354.25,19.5 Z " fill="#000000"/><text fill="#000000" font-family="sans-serif" font-size="14" lengthAdjust="spacing" textLength="60" x="372.75" y="28.7285">Company</text><line style="stroke:#181818;stroke-width:0.5;" x1="251.5" x2="521.5" y1="39" y2="39"/><line style="stroke:#181818;stroke-width:0.5;" x1="251.5" x2="521.5" y1="47" y2="47"/><ellipse cx="261.5" cy="58" fill="#84BE84" rx="3" ry="3" style="stroke:#038048;stroke-width:1.0;"/><text fill="#000000" font-family="sans-serif" font-size="14" lengthAdjust="spacing" textLength="61" x="270.5" y="65.5332">getTime()</text><ellipse cx="261.5" cy="75.6094" fill="#84BE84" rx="3" ry="3" style="stroke:#038048;stroke-width:1.0;"/><text fill="#000000" font-family="sans-serif" font-size="14" lengthAdjust="spacing" textLength="246" x="270.5" y="83.1426">startReportService(initialDelay,interval)</text><ellipse cx="261.5" cy="93.2188" fill="#84BE84" rx="3" ry="3" style="stroke:#038048;stroke-width:1.0;"/><text fill="#000000" font-family="sans-serif" font-size="14" lengthAdjust="spacing" textLength="150" x="270.5" y="100.752">WriteCSV(filePath,data)</text></g><!--MD5=[5ddb3901a3b177819463bfb72cbada42]
class VaccineAdministrationStore--><g id="elem_VaccineAdministrationStore"><rect codeLine="12" fill="#F1F1F1" height="65.6094" id="VaccineAdministrationStore" rx="2.5" ry="2.5" style="stroke:#181818;stroke-width:0.5;" width="241" x="593" y="24.5"/><ellipse cx="624.2" cy="40.5" fill="#ADD1B2" rx="11" ry="11" style="stroke:#181818;stroke-width:1.0;"/><path d="M626.2,37 Q626.4031,36.5 626.6375,36.25 Q626.8719,36 627.1375,36 Q627.6063,36 627.9031,36.2813 Q628.2,36.5625 628.2,37.2188 L628.2,38.7813 Q628.2,39.4375 627.9188,39.7188 Q627.6375,40 627.2,40 Q626.8094,40 626.5594,39.8281 Q626.3094,39.6563 626.2,39.2031 Q626.1531,38.8906 625.9813,38.7188 Q625.6688,38.3906 625.1063,38.2031 Q624.5438,38 623.9813,38 Q623.2781,38 622.6844,38.2813 Q622.1063,38.5625 621.6531,39.1875 Q621.2,39.8125 621.2,40.6719 L621.2,41.5938 Q621.2,42.625 622.0438,43.3125 Q622.8875,44 624.3875,44 Q625.2781,44 625.9031,43.7969 Q626.2625,43.6875 626.6688,43.3281 Q626.9344,43.125 627.075,43.0625 Q627.2156,43 627.3875,43 Q627.7156,43 627.95,43.2656 Q628.2,43.5156 628.2,43.875 Q628.2,44.2188 627.8563,44.625 Q627.3563,45.2188 626.5594,45.5469 Q625.5125,46 624.2313,46 Q622.7313,46 621.5281,45.4063 Q620.5594,44.9375 619.8719,43.9219 Q619.2,42.9063 619.2,41.7031 L619.2,40.6094 Q619.2,39.3594 619.7938,38.2656 Q620.4031,37.1719 621.45,36.5938 Q622.5125,36 623.7,36 Q624.4188,36 625.0438,36.25 Q625.6688,36.5 626.2,37 Z " fill="#000000"/><text fill="#000000" font-family="sans-serif" font-size="14" lengthAdjust="spacing" textLength="173" x="641.8" y="46.2285">VaccineAdministrationStore</text><line style="stroke:#181818;stroke-width:0.5;" x1="594" x2="833" y1="56.5" y2="56.5"/><line style="stroke:#181818;stroke-width:0.5;" x1="594" x2="833" y1="64.5" y2="64.5"/><ellipse cx="604" cy="75.5" fill="#84BE84" rx="3" ry="3" style="stroke:#038048;stroke-width:1.0;"/><text fill="#000000" font-family="sans-serif" font-size="14" lengthAdjust="spacing" textLength="215" x="613" y="83.0332">countAdministrations(centerStore)</text></g><!--MD5=[21decfe067c1a9d9926435088e0dcf8f]
class CenterStore--><g id="elem_CenterStore"><rect codeLine="16" fill="#F1F1F1" height="65.6094" id="CenterStore" rx="2.5" ry="2.5" style="stroke:#181818;stroke-width:0.5;" width="133" x="647" y="186"/><ellipse cx="672.8" cy="202" fill="#ADD1B2" rx="11" ry="11" style="stroke:#181818;stroke-width:1.0;"/><path d="M674.8,198.5 Q675.0031,198 675.2375,197.75 Q675.4719,197.5 675.7375,197.5 Q676.2063,197.5 676.5031,197.7813 Q676.8,198.0625 676.8,198.7188 L676.8,200.2813 Q676.8,200.9375 676.5188,201.2188 Q676.2375,201.5 675.8,201.5 Q675.4094,201.5 675.1594,201.3281 Q674.9094,201.1563 674.8,200.7031 Q674.7531,200.3906 674.5813,200.2188 Q674.2688,199.8906 673.7063,199.7031 Q673.1438,199.5 672.5813,199.5 Q671.8781,199.5 671.2844,199.7813 Q670.7063,200.0625 670.2531,200.6875 Q669.8,201.3125 669.8,202.1719 L669.8,203.0938 Q669.8,204.125 670.6438,204.8125 Q671.4875,205.5 672.9875,205.5 Q673.8781,205.5 674.5031,205.2969 Q674.8625,205.1875 675.2688,204.8281 Q675.5344,204.625 675.675,204.5625 Q675.8156,204.5 675.9875,204.5 Q676.3156,204.5 676.55,204.7656 Q676.8,205.0156 676.8,205.375 Q676.8,205.7188 676.4563,206.125 Q675.9563,206.7188 675.1594,207.0469 Q674.1125,207.5 672.8313,207.5 Q671.3313,207.5 670.1281,206.9063 Q669.1594,206.4375 668.4719,205.4219 Q667.8,204.4063 667.8,203.2031 L667.8,202.1094 Q667.8,200.8594 668.3938,199.7656 Q669.0031,198.6719 670.05,198.0938 Q671.1125,197.5 672.3,197.5 Q673.0188,197.5 673.6438,197.75 Q674.2688,198 674.8,198.5 Z " fill="#000000"/><text fill="#000000" font-family="sans-serif" font-size="14" lengthAdjust="spacing" textLength="77" x="689.2" y="207.7285">CenterStore</text><line style="stroke:#181818;stroke-width:0.5;" x1="648" x2="779" y1="218" y2="218"/><line style="stroke:#181818;stroke-width:0.5;" x1="648" x2="779" y1="226" y2="226"/><ellipse cx="658" cy="237" fill="#84BE84" rx="3" ry="3" style="stroke:#038048;stroke-width:1.0;"/><text fill="#000000" font-family="sans-serif" font-size="14" lengthAdjust="spacing" textLength="107" x="667" y="244.5332">getCenterStore()</text></g><!--MD5=[107cfa23aa516ff83d0cf17a6f9fe7ba]
class VaccineAdministration--><g id="elem_VaccineAdministration"><rect codeLine="20" fill="#F1F1F1" height="83.2188" id="VaccineAdministration" rx="2.5" ry="2.5" style="stroke:#181818;stroke-width:0.5;" width="171" x="905" y="16"/><ellipse cx="920" cy="32" fill="#ADD1B2" rx="11" ry="11" style="stroke:#181818;stroke-width:1.0;"/><path d="M922,28.5 Q922.2031,28 922.4375,27.75 Q922.6719,27.5 922.9375,27.5 Q923.4063,27.5 923.7031,27.7813 Q924,28.0625 924,28.7188 L924,30.2813 Q924,30.9375 923.7188,31.2188 Q923.4375,31.5 923,31.5 Q922.6094,31.5 922.3594,31.3281 Q922.1094,31.1563 922,30.7031 Q921.9531,30.3906 921.7813,30.2188 Q921.4688,29.8906 920.9063,29.7031 Q920.3438,29.5 919.7813,29.5 Q919.0781,29.5 918.4844,29.7813 Q917.9063,30.0625 917.4531,30.6875 Q917,31.3125 917,32.1719 L917,33.0938 Q917,34.125 917.8438,34.8125 Q918.6875,35.5 920.1875,35.5 Q921.0781,35.5 921.7031,35.2969 Q922.0625,35.1875 922.4688,34.8281 Q922.7344,34.625 922.875,34.5625 Q923.0156,34.5 923.1875,34.5 Q923.5156,34.5 923.75,34.7656 Q924,35.0156 924,35.375 Q924,35.7188 923.6563,36.125 Q923.1563,36.7188 922.3594,37.0469 Q921.3125,37.5 920.0313,37.5 Q918.5313,37.5 917.3281,36.9063 Q916.3594,36.4375 915.6719,35.4219 Q915,34.4063 915,33.2031 L915,32.1094 Q915,30.8594 915.5938,29.7656 Q916.2031,28.6719 917.25,28.0938 Q918.3125,27.5 919.5,27.5 Q920.2188,27.5 920.8438,27.75 Q921.4688,28 922,28.5 Z " fill="#000000"/><text fill="#000000" font-family="sans-serif" font-size="14" lengthAdjust="spacing" textLength="139" x="934" y="37.7285">VaccineAdministration</text><line style="stroke:#181818;stroke-width:0.5;" x1="906" x2="1075" y1="48" y2="48"/><line style="stroke:#181818;stroke-width:0.5;" x1="906" x2="1075" y1="56" y2="56"/><ellipse cx="916" cy="67" fill="#84BE84" rx="3" ry="3" style="stroke:#038048;stroke-width:1.0;"/><text fill="#000000" font-family="sans-serif" font-size="14" lengthAdjust="spacing" textLength="83" x="925" y="74.5332">getSnsUser()</text><ellipse cx="916" cy="84.6094" fill="#84BE84" rx="3" ry="3" style="stroke:#038048;stroke-width:1.0;"/><text fill="#000000" font-family="sans-serif" font-size="14" lengthAdjust="spacing" textLength="73" x="925" y="92.1426">getCenter()</text></g><!--MD5=[72be06cc7ae02ccc98efe28a50e62246]
class SNSUser--><g id="elem_SNSUser"><rect codeLine="25" fill="#F1F1F1" height="65.6094" id="SNSUser" rx="2.5" ry="2.5" style="stroke:#181818;stroke-width:0.5;" width="158" x="1146.5" y="24.5"/><ellipse cx="1193.25" cy="40.5" fill="#ADD1B2" rx="11" ry="11" style="stroke:#181818;stroke-width:1.0;"/><path d="M1195.25,37 Q1195.4531,36.5 1195.6875,36.25 Q1195.9219,36 1196.1875,36 Q1196.6563,36 1196.9531,36.2813 Q1197.25,36.5625 1197.25,37.2188 L1197.25,38.7813 Q1197.25,39.4375 1196.9688,39.7188 Q1196.6875,40 1196.25,40 Q1195.8594,40 1195.6094,39.8281 Q1195.3594,39.6563 1195.25,39.2031 Q1195.2031,38.8906 1195.0313,38.7188 Q1194.7188,38.3906 1194.1563,38.2031 Q1193.5938,38 1193.0313,38 Q1192.3281,38 1191.7344,38.2813 Q1191.1563,38.5625 1190.7031,39.1875 Q1190.25,39.8125 1190.25,40.6719 L1190.25,41.5938 Q1190.25,42.625 1191.0938,43.3125 Q1191.9375,44 1193.4375,44 Q1194.3281,44 1194.9531,43.7969 Q1195.3125,43.6875 1195.7188,43.3281 Q1195.9844,43.125 1196.125,43.0625 Q1196.2656,43 1196.4375,43 Q1196.7656,43 1197,43.2656 Q1197.25,43.5156 1197.25,43.875 Q1197.25,44.2188 1196.9063,44.625 Q1196.4063,45.2188 1195.6094,45.5469 Q1194.5625,46 1193.2813,46 Q1191.7813,46 1190.5781,45.4063 Q1189.6094,44.9375 1188.9219,43.9219 Q1188.25,42.9063 1188.25,41.7031 L1188.25,40.6094 Q1188.25,39.3594 1188.8438,38.2656 Q1189.4531,37.1719 1190.5,36.5938 Q1191.5625,36 1192.75,36 Q1193.4688,36 1194.0938,36.25 Q1194.7188,36.5 1195.25,37 Z " fill="#000000"/><text fill="#000000" font-family="sans-serif" font-size="14" lengthAdjust="spacing" textLength="56" x="1213.75" y="46.2285">SNSUser</text><line style="stroke:#181818;stroke-width:0.5;" x1="1147.5" x2="1303.5" y1="56.5" y2="56.5"/><line style="stroke:#181818;stroke-width:0.5;" x1="1147.5" x2="1303.5" y1="64.5" y2="64.5"/><ellipse cx="1157.5" cy="75.5" fill="#84BE84" rx="3" ry="3" style="stroke:#038048;stroke-width:1.0;"/><text fill="#000000" font-family="sans-serif" font-size="14" lengthAdjust="spacing" textLength="132" x="1166.5" y="83.0332">getSnsUserNumber()</text></g><!--MD5=[bbd32abb87742158d8b9937325662454]
class Center--><g id="elem_Center"><rect codeLine="29" fill="#F1F1F1" height="65.6094" id="Center" rx="2.5" ry="2.5" style="stroke:#181818;stroke-width:0.5;" width="92" x="897.5" y="186"/><ellipse cx="920.15" cy="202" fill="#ADD1B2" rx="11" ry="11" style="stroke:#181818;stroke-width:1.0;"/><path d="M922.15,198.5 Q922.3531,198 922.5875,197.75 Q922.8219,197.5 923.0875,197.5 Q923.5563,197.5 923.8531,197.7813 Q924.15,198.0625 924.15,198.7188 L924.15,200.2813 Q924.15,200.9375 923.8688,201.2188 Q923.5875,201.5 923.15,201.5 Q922.7594,201.5 922.5094,201.3281 Q922.2594,201.1563 922.15,200.7031 Q922.1031,200.3906 921.9313,200.2188 Q921.6188,199.8906 921.0563,199.7031 Q920.4938,199.5 919.9313,199.5 Q919.2281,199.5 918.6344,199.7813 Q918.0563,200.0625 917.6031,200.6875 Q917.15,201.3125 917.15,202.1719 L917.15,203.0938 Q917.15,204.125 917.9938,204.8125 Q918.8375,205.5 920.3375,205.5 Q921.2281,205.5 921.8531,205.2969 Q922.2125,205.1875 922.6188,204.8281 Q922.8844,204.625 923.025,204.5625 Q923.1656,204.5 923.3375,204.5 Q923.6656,204.5 923.9,204.7656 Q924.15,205.0156 924.15,205.375 Q924.15,205.7188 923.8063,206.125 Q923.3063,206.7188 922.5094,207.0469 Q921.4625,207.5 920.1813,207.5 Q918.6813,207.5 917.4781,206.9063 Q916.5094,206.4375 915.8219,205.4219 Q915.15,204.4063 915.15,203.2031 L915.15,202.1094 Q915.15,200.8594 915.7438,199.7656 Q916.3531,198.6719 917.4,198.0938 Q918.4625,197.5 919.65,197.5 Q920.3688,197.5 920.9938,197.75 Q921.6188,198 922.15,198.5 Z " fill="#000000"/><text fill="#000000" font-family="sans-serif" font-size="14" lengthAdjust="spacing" textLength="43" x="935.85" y="207.7285">Center</text><line style="stroke:#181818;stroke-width:0.5;" x1="898.5" x2="988.5" y1="218" y2="218"/><line style="stroke:#181818;stroke-width:0.5;" x1="898.5" x2="988.5" y1="226" y2="226"/><ellipse cx="908.5" cy="237" fill="#84BE84" rx="3" ry="3" style="stroke:#038048;stroke-width:1.0;"/><text fill="#000000" font-family="sans-serif" font-size="14" lengthAdjust="spacing" textLength="66" x="917.5" y="244.5332">getName()</text></g><!--MD5=[74054751ba3b9eca75fda5044dcc84d9]
class TimerTask--><g id="elem_TimerTask"><rect codeLine="33" fill="#F1F1F1" height="48" id="TimerTask" rx="2.5" ry="2.5" style="stroke:#181818;stroke-width:0.5;" width="99" x="389" y="195"/><ellipse cx="404" cy="211" fill="#ADD1B2" rx="11" ry="11" style="stroke:#181818;stroke-width:1.0;"/><path d="M406,207.5 Q406.2031,207 406.4375,206.75 Q406.6719,206.5 406.9375,206.5 Q407.4063,206.5 407.7031,206.7813 Q408,207.0625 408,207.7188 L408,209.2813 Q408,209.9375 407.7188,210.2188 Q407.4375,210.5 407,210.5 Q406.6094,210.5 406.3594,210.3281 Q406.1094,210.1563 406,209.7031 Q405.9531,209.3906 405.7813,209.2188 Q405.4688,208.8906 404.9063,208.7031 Q404.3438,208.5 403.7813,208.5 Q403.0781,208.5 402.4844,208.7813 Q401.9063,209.0625 401.4531,209.6875 Q401,210.3125 401,211.1719 L401,212.0938 Q401,213.125 401.8438,213.8125 Q402.6875,214.5 404.1875,214.5 Q405.0781,214.5 405.7031,214.2969 Q406.0625,214.1875 406.4688,213.8281 Q406.7344,213.625 406.875,213.5625 Q407.0156,213.5 407.1875,213.5 Q407.5156,213.5 407.75,213.7656 Q408,214.0156 408,214.375 Q408,214.7188 407.6563,215.125 Q407.1563,215.7188 406.3594,216.0469 Q405.3125,216.5 404.0313,216.5 Q402.5313,216.5 401.3281,215.9063 Q400.3594,215.4375 399.6719,214.4219 Q399,213.4063 399,212.2031 L399,211.1094 Q399,209.8594 399.5938,208.7656 Q400.2031,207.6719 401.25,207.0938 Q402.3125,206.5 403.5,206.5 Q404.2188,206.5 404.8438,206.75 Q405.4688,207 406,207.5 Z " fill="#000000"/><text fill="#000000" font-family="sans-serif" font-size="14" lengthAdjust="spacing" textLength="67" x="418" y="216.7285">TimerTask</text><line style="stroke:#181818;stroke-width:0.5;" x1="390" x2="487" y1="227" y2="227"/><line style="stroke:#181818;stroke-width:0.5;" x1="390" x2="487" y1="235" y2="235"/></g><!--MD5=[1b844c90688aafb95cd8c95626c3b83a]
class Timer--><g id="elem_Timer"><rect codeLine="36" fill="#F1F1F1" height="65.6094" id="Timer" rx="2.5" ry="2.5" style="stroke:#181818;stroke-width:0.5;" width="347" x="7" y="186"/><ellipse cx="158.25" cy="202" fill="#ADD1B2" rx="11" ry="11" style="stroke:#181818;stroke-width:1.0;"/><path d="M160.25,198.5 Q160.4531,198 160.6875,197.75 Q160.9219,197.5 161.1875,197.5 Q161.6563,197.5 161.9531,197.7813 Q162.25,198.0625 162.25,198.7188 L162.25,200.2813 Q162.25,200.9375 161.9688,201.2188 Q161.6875,201.5 161.25,201.5 Q160.8594,201.5 160.6094,201.3281 Q160.3594,201.1563 160.25,200.7031 Q160.2031,200.3906 160.0313,200.2188 Q159.7188,199.8906 159.1563,199.7031 Q158.5938,199.5 158.0313,199.5 Q157.3281,199.5 156.7344,199.7813 Q156.1563,200.0625 155.7031,200.6875 Q155.25,201.3125 155.25,202.1719 L155.25,203.0938 Q155.25,204.125 156.0938,204.8125 Q156.9375,205.5 158.4375,205.5 Q159.3281,205.5 159.9531,205.2969 Q160.3125,205.1875 160.7188,204.8281 Q160.9844,204.625 161.125,204.5625 Q161.2656,204.5 161.4375,204.5 Q161.7656,204.5 162,204.7656 Q162.25,205.0156 162.25,205.375 Q162.25,205.7188 161.9063,206.125 Q161.4063,206.7188 160.6094,207.0469 Q159.5625,207.5 158.2813,207.5 Q156.7813,207.5 155.5781,206.9063 Q154.6094,206.4375 153.9219,205.4219 Q153.25,204.4063 153.25,203.2031 L153.25,202.1094 Q153.25,200.8594 153.8438,199.7656 Q154.4531,198.6719 155.5,198.0938 Q156.5625,197.5 157.75,197.5 Q158.4688,197.5 159.0938,197.75 Q159.7188,198 160.25,198.5 Z " fill="#000000"/><text fill="#000000" font-family="sans-serif" font-size="14" lengthAdjust="spacing" textLength="36" x="178.75" y="207.7285">Timer</text><line style="stroke:#181818;stroke-width:0.5;" x1="8" x2="353" y1="218" y2="218"/><line style="stroke:#181818;stroke-width:0.5;" x1="8" x2="353" y1="226" y2="226"/><text fill="#000000" font-family="sans-serif" font-size="14" lengthAdjust="spacing" textLength="335" x="13" y="244.5332">scheduleAtFixedRate(timeReport,initialDelay,interval)</text></g><!--MD5=[5b0f1873c15ced29becf7ded48d12cb7]
link App to Company--><g id="link_App_Company"><path codeLine="40" d="M179.66,57.5 C200.68,57.5 225.4,57.5 250.29,57.5 " fill="none" id="App-Company" style="stroke:#181818;stroke-width:1.0;"/><polygon fill="#000000" points="207,45.6758,197.9549,42.7369,197.9549,48.6147,207,45.6758" style="stroke:#000000;stroke-width:1.0;"/><text fill="#000000" font-family="sans-serif" font-size="13" lengthAdjust="spacing" textLength="21" x="211" y="50.9951">has</text><text fill="#000000" font-family="sans-serif" font-size="13" lengthAdjust="spacing" textLength="7" x="187.5602" y="54.0177">1</text><text fill="#000000" font-family="sans-serif" font-size="13" lengthAdjust="spacing" textLength="7" x="235.6496" y="54.5719">1</text></g><!--MD5=[30ef39b2ee092a2de45b8d9be2f78c33]
link Company to VaccineAdministrationStore--><g id="link_Company_VaccineAdministrationStore"><path codeLine="41" d="M522.81,57.5 C546.03,57.5 570,57.5 592.78,57.5 " fill="none" id="Company-VaccineAdministrationStore" style="stroke:#181818;stroke-width:1.0;"/><polygon fill="#000000" points="549.75,45.6758,540.7049,42.7369,540.7049,48.6147,549.75,45.6758" style="stroke:#000000;stroke-width:1.0;"/><text fill="#000000" font-family="sans-serif" font-size="13" lengthAdjust="spacing" textLength="21" x="553.75" y="50.9951">has</text><text fill="#000000" font-family="sans-serif" font-size="13" lengthAdjust="spacing" textLength="7" x="530.4559" y="54.5719">1</text><text fill="#000000" font-family="sans-serif" font-size="13" lengthAdjust="spacing" textLength="7" x="577.8222" y="54.5064">1</text></g><!--MD5=[157550e802a606eda93b62604f431d62]
link Company to CenterStore--><g id="link_Company_CenterStore"><path codeLine="42" d="M488.17,108.09 C540.11,133.42 601.8,163.52 647.49,185.8 " fill="none" id="Company-CenterStore" style="stroke:#181818;stroke-width:1.0;"/><polygon fill="#000000" points="587.9939,149.3677,581.1527,142.761,578.5759,148.0439,587.9939,149.3677" style="stroke:#000000;stroke-width:1.0;"/><text fill="#000000" font-family="sans-serif" font-size="13" lengthAdjust="spacing" textLength="21" x="592.5" y="152.4951">has</text><text fill="#000000" font-family="sans-serif" font-size="13" lengthAdjust="spacing" textLength="7" x="494.3616" y="129.4933">1</text><text fill="#000000" font-family="sans-serif" font-size="13" lengthAdjust="spacing" textLength="7" x="632.0185" y="178.3191">1</text></g><!--MD5=[01558f40b86ad3407c4a50a817100da8]
link Company to Timer--><g id="link_Company_Timer"><path codeLine="43" d="M322.45,108.09 C291.27,132.24 254.5,160.7 226.2,182.62 " fill="none" id="Company-to-Timer" style="stroke:#181818;stroke-width:1.0;stroke-dasharray:7.0,7.0;"/><polygon fill="#181818" points="222.08,185.8,231.6435,183.4464,226.0314,182.7362,226.7415,177.1241,222.08,185.8" style="stroke:#181818;stroke-width:1.0;"/></g><!--MD5=[03dd72a493cbaf0de01e94b3c06dc3b0]
link Company to TimerTask--><g id="link_Company_TimerTask"><path codeLine="44" d="M402.67,108.09 C411.43,134.96 421.93,167.18 429.29,189.76 " fill="none" id="Company-to-TimerTask" style="stroke:#181818;stroke-width:1.0;stroke-dasharray:7.0,7.0;"/><polygon fill="#181818" points="430.91,194.72,431.903,184.9213,429.3503,189.9695,424.3022,187.4168,430.91,194.72" style="stroke:#181818;stroke-width:1.0;"/></g><!--MD5=[85e902382bbf7b6b5e73d3ba06f329aa]
link VaccineAdministrationStore to CenterStore--><g id="link_VaccineAdministrationStore_CenterStore"><path codeLine="45" d="M713.5,90.78 C713.5,116.72 713.5,153.2 713.5,180.45 " fill="none" id="VaccineAdministrationStore-to-CenterStore" style="stroke:#181818;stroke-width:1.0;stroke-dasharray:7.0,7.0;"/><polygon fill="#181818" points="713.5,185.77,717.5,176.77,713.5,180.77,709.5,176.77,713.5,185.77" style="stroke:#181818;stroke-width:1.0;"/></g><!--MD5=[951a07871a6512bd4f8e62baa1d062ce]
link VaccineAdministration to SNSUser--><g id="link_VaccineAdministration_SNSUser"><path codeLine="46" d="M1076.01,57.5 C1098.97,57.5 1123.7,57.5 1146.31,57.5 " fill="none" id="VaccineAdministration-SNSUser" style="stroke:#181818;stroke-width:1.0;"/><polygon fill="#000000" points="1103.25,45.6758,1094.2049,42.7369,1094.2049,48.6147,1103.25,45.6758" style="stroke:#000000;stroke-width:1.0;"/><text fill="#000000" font-family="sans-serif" font-size="13" lengthAdjust="spacing" textLength="21" x="1107.25" y="50.9951">has</text><text fill="#000000" font-family="sans-serif" font-size="13" lengthAdjust="spacing" textLength="7" x="1083.9375" y="54.2885">1</text><text fill="#000000" font-family="sans-serif" font-size="13" lengthAdjust="spacing" textLength="7" x="1131.4286" y="54.268">1</text></g><!--MD5=[71d84884d1e835d4167dda284985bc34]
link VaccineAdministration to Center--><g id="link_VaccineAdministration_Center"><path codeLine="47" d="M978.52,99.16 C970.58,126.11 960.3,160.98 952.94,185.96 " fill="none" id="VaccineAdministration-Center" style="stroke:#181818;stroke-width:1.0;"/><polygon fill="#000000" points="970.0866,151.9719,975.4625,144.1265,969.8244,142.4649,970.0866,151.9719" style="stroke:#000000;stroke-width:1.0;"/><text fill="#000000" font-family="sans-serif" font-size="13" lengthAdjust="spacing" textLength="21" x="980.5" y="152.4951">has</text><text fill="#000000" font-family="sans-serif" font-size="13" lengthAdjust="spacing" textLength="7" x="969.0529" y="120.5803">1</text><text fill="#000000" font-family="sans-serif" font-size="13" lengthAdjust="spacing" textLength="7" x="947.1651" y="175.0672">1</text></g><!--MD5=[ed389c7523bc925a69eb5d2b98a4a5f2]
link VaccineAdministrationStore to VaccineAdministration--><g id="link_VaccineAdministrationStore_VaccineAdministration"><path codeLine="48" d="M834.19,57.5 C857.95,57.5 882.43,57.5 904.76,57.5 " fill="none" id="VaccineAdministrationStore-VaccineAdministration" style="stroke:#181818;stroke-width:1.0;"/><polygon fill="#000000" points="861.5,45.6758,852.4549,42.7369,852.4549,48.6147,861.5,45.6758" style="stroke:#000000;stroke-width:1.0;"/><text fill="#000000" font-family="sans-serif" font-size="13" lengthAdjust="spacing" textLength="21" x="865.5" y="50.9951">has</text><text fill="#000000" font-family="sans-serif" font-size="13" lengthAdjust="spacing" textLength="7" x="842.1459" y="54.5064">1</text><text fill="#000000" font-family="sans-serif" font-size="13" lengthAdjust="spacing" textLength="5" x="891.9011" y="54.2885">*</text></g><!--MD5=[e93151bfde0f13801c8601e26aa5ffda]
link CenterStore to Center--><g id="link_CenterStore_Center"><path codeLine="49" d="M780.03,219 C817.57,219 863.56,219 897.18,219 " fill="none" id="CenterStore-Center" style="stroke:#181818;stroke-width:1.0;"/><polygon fill="#000000" points="830.75,207.1758,821.7049,204.2369,821.7049,210.1147,830.75,207.1758" style="stroke:#000000;stroke-width:1.0;"/><text fill="#000000" font-family="sans-serif" font-size="13" lengthAdjust="spacing" textLength="21" x="834.75" y="212.4951">has</text><text fill="#000000" font-family="sans-serif" font-size="13" lengthAdjust="spacing" textLength="7" x="788.1272" y="215.613">1</text><text fill="#000000" font-family="sans-serif" font-size="13" lengthAdjust="spacing" textLength="5" x="884.3993" y="215.2793">*</text></g><!--MD5=[f9bea3f707d1b1b0d82662dfb1842572]
@startuml

class App{
+calulateTime()
}

class Company{
+getTime()
+startReportService(initialDelay,interval)
+WriteCSV(filePath,data)
}

class VaccineAdministrationStore{
+countAdministrations(centerStore)
}

class CenterStore{
+getCenterStore()
}

class VaccineAdministration{
+getSnsUser()
+getCenter()
}

class SNSUser{
+getSnsUserNumber()
}

class Center{
+getName()
}

class TimerTask{
}

class Timer{
scheduleAtFixedRate(timeReport,initialDelay,interval)
}

App "1" -right- "1" Company: has >
Company "1" -right- "1" VaccineAdministrationStore: has >
Company "1" -right- "1" CenterStore: has >
Company ..> Timer
Company ..> TimerTask
VaccineAdministrationStore ..> CenterStore
VaccineAdministration "1" -right- "1" SNSUser: has >
VaccineAdministration "1" -right- "1" Center: has >
VaccineAdministrationStore "1" -right- "*" VaccineAdministration: has >
CenterStore "1" -right- "*" Center: has >


@enduml

PlantUML version 1.2022.4(Sat Apr 09 14:29:17 BST 2022)
(GPL source distribution)
Java Runtime: OpenJDK Runtime Environment
JVM: OpenJDK 64-Bit Server VM
Default Encoding: Cp1252
Language: pt
Country: PT
--></g></svg>