<?xml version="1.0" encoding="UTF-8" standalone="no"?><svg xmlns="http://www.w3.org/2000/svg" xmlns:xlink="http://www.w3.org/1999/xlink" contentStyleType="text/css" height="1703px" preserveAspectRatio="none" style="width:2478px;height:1703px;background:#FFFFFF;" version="1.1" viewBox="0 0 2478 1703" width="2478px" zoomAndPan="magnify"><defs/><g><rect fill="#FFFFFF" height="164.4063" style="stroke:#181818;stroke-width:1.0;" width="10" x="550" y="114.9609"/><rect fill="#FFFFFF" height="28" style="stroke:#181818;stroke-width:1.0;" width="10" x="555" y="214.0156"/><rect fill="#FFFFFF" height="1234.5234" style="stroke:#181818;stroke-width:1.0;" width="10" x="816" y="145.3125"/><rect fill="#FFFFFF" height="28" style="stroke:#181818;stroke-width:1.0;" width="10" x="821" y="1284.4844"/><rect fill="#FFFFFF" height="758.4922" style="stroke:#181818;stroke-width:1.0;" width="10" x="1053" y="394.9375"/><rect fill="#FFFFFF" height="30" style="stroke:#181818;stroke-width:1.0;" width="10" x="1247" y="467.8984"/><rect fill="#FFFFFF" height="60.3516" style="stroke:#181818;stroke-width:1.0;" width="10" x="1247" y="762.9688"/><rect fill="#FFFFFF" height="60.3516" style="stroke:#181818;stroke-width:1.0;" width="10" x="1424" y="646.9141"/><rect fill="#FFFFFF" height="60.3516" style="stroke:#181818;stroke-width:1.0;" width="10" x="1424" y="853.6719"/><rect fill="#FFFFFF" height="30" style="stroke:#181818;stroke-width:1.0;" width="10" x="1424" y="944.375"/><rect fill="#FFFFFF" height="30" style="stroke:#181818;stroke-width:1.0;" width="10" x="1592" y="677.2656"/><rect fill="#FFFFFF" height="30" style="stroke:#181818;stroke-width:1.0;" width="10" x="1669.5" y="793.3203"/><rect fill="#FFFFFF" height="30" style="stroke:#181818;stroke-width:1.0;" width="10" x="1669.5" y="884.0234"/><rect fill="#FFFFFF" height="30" style="stroke:#181818;stroke-width:1.0;" width="10" x="1793.5" y="1446.5391"/><rect fill="#FFFFFF" height="30" style="stroke:#181818;stroke-width:1.0;" width="10" x="1793.5" y="1543.2422"/><rect fill="#FFFFFF" height="30" style="stroke:#181818;stroke-width:1.0;" width="10" x="1933.5" y="1349.8359"/><rect fill="#FFFFFF" height="30" style="stroke:#181818;stroke-width:1.0;" width="10" x="1933.5" y="1446.5391"/><rect fill="#FFFFFF" height="30" style="stroke:#181818;stroke-width:1.0;" width="10" x="1933.5" y="1543.2422"/><rect fill="#FFFFFF" height="30" style="stroke:#181818;stroke-width:1.0;" width="10" x="2114.5" y="1086.0781"/><rect fill="#FFFFFF" height="30" style="stroke:#181818;stroke-width:1.0;" width="10" x="2114.5" y="1209.1328"/><rect fill="#FFFFFF" height="30" style="stroke:#181818;stroke-width:1.0;" width="10" x="2338" y="1004.7266"/><rect height="611.1797" style="stroke:#000000;stroke-width:1.5;fill:none;" width="1549.5" x="922.5" y="512.8984"/><rect height="475.8672" style="stroke:#000000;stroke-width:1.5;fill:none;" width="1529.5" x="932.5" y="580.8594"/><rect height="443.5156" style="stroke:#000000;stroke-width:1.5;fill:none;" width="1509.5" x="942.5" y="606.2109"/><rect height="320.4609" style="stroke:#000000;stroke-width:1.5;fill:none;" width="1489.5" x="952.5" y="722.2656"/><rect height="78.7031" style="stroke:#000000;stroke-width:1.5;fill:none;" width="1514.5" x="739.5" y="1168.4297"/><line style="stroke:#181818;stroke-width:0.5;fill:none;stroke-dasharray:5.0,5.0;" x1="26" x2="26" y1="82.6094" y2="1621.5938"/><line style="stroke:#181818;stroke-width:0.5;fill:none;stroke-dasharray:5.0,5.0;" x1="554.5" x2="554.5" y1="82.6094" y2="1621.5938"/><line style="stroke:#181818;stroke-width:0.5;fill:none;stroke-dasharray:5.0,5.0;" x1="820.5" x2="820.5" y1="82.6094" y2="1621.5938"/><line style="stroke:#181818;stroke-width:0.5;fill:none;stroke-dasharray:5.0,5.0;" x1="1057.5" x2="1057.5" y1="82.6094" y2="1621.5938"/><line style="stroke:#181818;stroke-width:0.5;fill:none;stroke-dasharray:5.0,5.0;" x1="1251.5" x2="1251.5" y1="82.6094" y2="1621.5938"/><line style="stroke:#181818;stroke-width:0.5;fill:none;stroke-dasharray:5.0,5.0;" x1="1428.5" x2="1428.5" y1="82.6094" y2="1621.5938"/><line style="stroke:#181818;stroke-width:0.5;fill:none;stroke-dasharray:5.0,5.0;" x1="1597" x2="1597" y1="82.6094" y2="1621.5938"/><line style="stroke:#181818;stroke-width:0.5;fill:none;stroke-dasharray:5.0,5.0;" x1="1674" x2="1674" y1="82.6094" y2="1621.5938"/><line style="stroke:#181818;stroke-width:0.5;fill:none;stroke-dasharray:5.0,5.0;" x1="1798" x2="1798" y1="361.2813" y2="1621.5938"/><line style="stroke:#181818;stroke-width:0.5;fill:none;stroke-dasharray:5.0,5.0;" x1="1938" x2="1938" y1="318.6719" y2="1621.5938"/><line style="stroke:#181818;stroke-width:0.5;fill:none;stroke-dasharray:5.0,5.0;" x1="2119" x2="2119" y1="434.2422" y2="1621.5938"/><line style="stroke:#181818;stroke-width:0.5;fill:none;stroke-dasharray:5.0,5.0;" x1="2343" x2="2343" y1="562.5547" y2="1621.5938"/><text fill="#000000" font-family="sans-serif" font-size="14" lengthAdjust="spacing" textLength="36" x="5" y="79.5332">Timer</text><ellipse cx="26" cy="13.5" fill="#E2E2F0" rx="8" ry="8" style="stroke:#181818;stroke-width:0.5;"/><path d="M26,21.5 L26,48.5 M13,29.5 L39,29.5 M26,48.5 L13,63.5 M26,48.5 L39,63.5 " fill="none" style="stroke:#181818;stroke-width:0.5;"/><text fill="#000000" font-family="sans-serif" font-size="14" lengthAdjust="spacing" textLength="36" x="5" y="1635.127">Timer</text><ellipse cx="26" cy="1646.7031" fill="#E2E2F0" rx="8" ry="8" style="stroke:#181818;stroke-width:0.5;"/><path d="M26,1654.7031 L26,1681.7031 M13,1662.7031 L39,1662.7031 M26,1681.7031 L13,1696.7031 M26,1681.7031 L39,1696.7031 " fill="none" style="stroke:#181818;stroke-width:0.5;"/><rect fill="#E2E2F0" height="31.6094" rx="2.5" ry="2.5" style="stroke:#181818;stroke-width:0.5;" width="43" x="533.5" y="50"/><text fill="#000000" font-family="sans-serif" font-size="14" lengthAdjust="spacing" textLength="29" x="540.5" y="71.5332">:App</text><rect fill="#E2E2F0" height="31.6094" rx="2.5" ry="2.5" style="stroke:#181818;stroke-width:0.5;" width="43" x="533.5" y="1620.5938"/><text fill="#000000" font-family="sans-serif" font-size="14" lengthAdjust="spacing" textLength="29" x="540.5" y="1642.127">:App</text><rect fill="#E2E2F0" height="31.6094" rx="2.5" ry="2.5" style="stroke:#181818;stroke-width:0.5;" width="143" x="749.5" y="50"/><text fill="#000000" font-family="sans-serif" font-size="14" lengthAdjust="spacing" textLength="129" x="756.5" y="71.5332">company : Company</text><rect fill="#E2E2F0" height="31.6094" rx="2.5" ry="2.5" style="stroke:#181818;stroke-width:0.5;" width="143" x="749.5" y="1620.5938"/><text fill="#000000" font-family="sans-serif" font-size="14" lengthAdjust="spacing" textLength="129" x="756.5" y="1642.127">company : Company</text><rect fill="#E2E2F0" height="31.6094" rx="2.5" ry="2.5" style="stroke:#181818;stroke-width:0.5;" width="191" x="962.5" y="50"/><text fill="#000000" font-family="sans-serif" font-size="14" lengthAdjust="spacing" textLength="177" x="969.5" y="71.5332">:VaccineAdministrationStore</text><rect fill="#E2E2F0" height="31.6094" rx="2.5" ry="2.5" style="stroke:#181818;stroke-width:0.5;" width="191" x="962.5" y="1620.5938"/><text fill="#000000" font-family="sans-serif" font-size="14" lengthAdjust="spacing" textLength="177" x="969.5" y="1642.127">:VaccineAdministrationStore</text><rect fill="#E2E2F0" height="31.6094" rx="2.5" ry="2.5" style="stroke:#181818;stroke-width:0.5;" width="177" x="1163.5" y="50"/><text fill="#000000" font-family="sans-serif" font-size="14" lengthAdjust="spacing" textLength="163" x="1170.5" y="71.5332">centerStore : CenterStore</text><rect fill="#E2E2F0" height="31.6094" rx="2.5" ry="2.5" style="stroke:#181818;stroke-width:0.5;" width="177" x="1163.5" y="1620.5938"/><text fill="#000000" font-family="sans-serif" font-size="14" lengthAdjust="spacing" textLength="163" x="1170.5" y="1642.127">centerStore : CenterStore</text><rect fill="#E2E2F0" height="31.6094" rx="2.5" ry="2.5" style="stroke:#181818;stroke-width:0.5;" width="157" x="1350.5" y="50"/><text fill="#000000" font-family="sans-serif" font-size="14" lengthAdjust="spacing" textLength="143" x="1357.5" y="71.5332">:VaccineAdministration</text><rect fill="#E2E2F0" height="31.6094" rx="2.5" ry="2.5" style="stroke:#181818;stroke-width:0.5;" width="157" x="1350.5" y="1620.5938"/><text fill="#000000" font-family="sans-serif" font-size="14" lengthAdjust="spacing" textLength="143" x="1357.5" y="1642.127">:VaccineAdministration</text><rect fill="#E2E2F0" height="31.6094" rx="2.5" ry="2.5" style="stroke:#181818;stroke-width:0.5;" width="74" x="1560" y="50"/><text fill="#000000" font-family="sans-serif" font-size="14" lengthAdjust="spacing" textLength="60" x="1567" y="71.5332">:SNSUser</text><rect fill="#E2E2F0" height="31.6094" rx="2.5" ry="2.5" style="stroke:#181818;stroke-width:0.5;" width="74" x="1560" y="1620.5938"/><text fill="#000000" font-family="sans-serif" font-size="14" lengthAdjust="spacing" textLength="60" x="1567" y="1642.127">:SNSUser</text><rect fill="#E2E2F0" height="31.6094" rx="2.5" ry="2.5" style="stroke:#181818;stroke-width:0.5;" width="61" x="1644" y="50"/><text fill="#000000" font-family="sans-serif" font-size="14" lengthAdjust="spacing" textLength="47" x="1651" y="71.5332">:Center</text><rect fill="#E2E2F0" height="31.6094" rx="2.5" ry="2.5" style="stroke:#181818;stroke-width:0.5;" width="61" x="1644" y="1620.5938"/><text fill="#000000" font-family="sans-serif" font-size="14" lengthAdjust="spacing" textLength="47" x="1651" y="1642.127">:Center</text><rect fill="#E2E2F0" height="31.6094" rx="2.5" ry="2.5" style="stroke:#181818;stroke-width:0.5;" width="167" x="1715" y="1620.5938"/><text fill="#000000" font-family="sans-serif" font-size="14" lengthAdjust="spacing" textLength="153" x="1722" y="1642.127">timerReport : TimerTask</text><rect fill="#E2E2F0" height="31.6094" rx="2.5" ry="2.5" style="stroke:#181818;stroke-width:0.5;" width="93" x="1892" y="1620.5938"/><text fill="#000000" font-family="sans-serif" font-size="14" lengthAdjust="spacing" textLength="79" x="1899" y="1642.127">timer : Timer</text><rect fill="#E2E2F0" height="31.6094" rx="2.5" ry="2.5" style="stroke:#181818;stroke-width:0.5;" width="249" x="1995" y="1620.5938"/><text fill="#000000" font-family="sans-serif" font-size="14" lengthAdjust="spacing" textLength="235" x="2002" y="1642.127">administrationCountList : List&lt;String&gt;</text><rect fill="#E2E2F0" height="31.6094" rx="2.5" ry="2.5" style="stroke:#181818;stroke-width:0.5;" width="178" x="2254" y="1620.5938"/><text fill="#000000" font-family="sans-serif" font-size="14" lengthAdjust="spacing" textLength="164" x="2261" y="1642.127">:snsUserList : List&lt;String&gt;</text><rect fill="#FFFFFF" height="164.4063" style="stroke:#181818;stroke-width:1.0;" width="10" x="550" y="114.9609"/><rect fill="#FFFFFF" height="28" style="stroke:#181818;stroke-width:1.0;" width="10" x="555" y="214.0156"/><rect fill="#FFFFFF" height="1234.5234" style="stroke:#181818;stroke-width:1.0;" width="10" x="816" y="145.3125"/><rect fill="#FFFFFF" height="28" style="stroke:#181818;stroke-width:1.0;" width="10" x="821" y="1284.4844"/><rect fill="#FFFFFF" height="758.4922" style="stroke:#181818;stroke-width:1.0;" width="10" x="1053" y="394.9375"/><rect fill="#FFFFFF" height="30" style="stroke:#181818;stroke-width:1.0;" width="10" x="1247" y="467.8984"/><rect fill="#FFFFFF" height="60.3516" style="stroke:#181818;stroke-width:1.0;" width="10" x="1247" y="762.9688"/><rect fill="#FFFFFF" height="60.3516" style="stroke:#181818;stroke-width:1.0;" width="10" x="1424" y="646.9141"/><rect fill="#FFFFFF" height="60.3516" style="stroke:#181818;stroke-width:1.0;" width="10" x="1424" y="853.6719"/><rect fill="#FFFFFF" height="30" style="stroke:#181818;stroke-width:1.0;" width="10" x="1424" y="944.375"/><rect fill="#FFFFFF" height="30" style="stroke:#181818;stroke-width:1.0;" width="10" x="1592" y="677.2656"/><rect fill="#FFFFFF" height="30" style="stroke:#181818;stroke-width:1.0;" width="10" x="1669.5" y="793.3203"/><rect fill="#FFFFFF" height="30" style="stroke:#181818;stroke-width:1.0;" width="10" x="1669.5" y="884.0234"/><rect fill="#FFFFFF" height="30" style="stroke:#181818;stroke-width:1.0;" width="10" x="1793.5" y="1446.5391"/><rect fill="#FFFFFF" height="30" style="stroke:#181818;stroke-width:1.0;" width="10" x="1793.5" y="1543.2422"/><rect fill="#FFFFFF" height="30" style="stroke:#181818;stroke-width:1.0;" width="10" x="1933.5" y="1349.8359"/><rect fill="#FFFFFF" height="30" style="stroke:#181818;stroke-width:1.0;" width="10" x="1933.5" y="1446.5391"/><rect fill="#FFFFFF" height="30" style="stroke:#181818;stroke-width:1.0;" width="10" x="1933.5" y="1543.2422"/><rect fill="#FFFFFF" height="30" style="stroke:#181818;stroke-width:1.0;" width="10" x="2114.5" y="1086.0781"/><rect fill="#FFFFFF" height="30" style="stroke:#181818;stroke-width:1.0;" width="10" x="2114.5" y="1209.1328"/><rect fill="#FFFFFF" height="30" style="stroke:#181818;stroke-width:1.0;" width="10" x="2338" y="1004.7266"/><polygon fill="#181818" points="538,110.9609,548,114.9609,538,118.9609,542,114.9609" style="stroke:#181818;stroke-width:1.0;"/><line style="stroke:#181818;stroke-width:1.0;" x1="26" x2="544" y1="114.9609" y2="114.9609"/><text fill="#000000" font-family="sans-serif" font-size="13" font-weight="bold" lengthAdjust="spacing" textLength="7" x="33" y="110.1045">1</text><text fill="#000000" font-family="sans-serif" font-size="13" lengthAdjust="spacing" textLength="66" x="44" y="110.1045">starts timer</text><polygon fill="#181818" points="804,141.3125,814,145.3125,804,149.3125,808,145.3125" style="stroke:#181818;stroke-width:1.0;"/><line style="stroke:#181818;stroke-width:1.0;" x1="560" x2="810" y1="145.3125" y2="145.3125"/><text fill="#000000" font-family="sans-serif" font-size="13" font-weight="bold" lengthAdjust="spacing" textLength="7" x="567" y="140.4561">2</text><text fill="#000000" font-family="sans-serif" font-size="13" lengthAdjust="spacing" textLength="150" x="578" y="140.4561">company = getCompany()</text><polygon fill="#181818" points="804,171.6641,814,175.6641,804,179.6641,808,175.6641" style="stroke:#181818;stroke-width:1.0;"/><line style="stroke:#181818;stroke-width:1.0;" x1="560" x2="810" y1="175.6641" y2="175.6641"/><text fill="#000000" font-family="sans-serif" font-size="13" font-weight="bold" lengthAdjust="spacing" textLength="7" x="567" y="170.8076">3</text><text fill="#000000" font-family="sans-serif" font-size="13" lengthAdjust="spacing" textLength="95" x="578" y="170.8076">time = getTime()</text><line style="stroke:#181818;stroke-width:1.0;" x1="565" x2="607" y1="206.0156" y2="206.0156"/><line style="stroke:#181818;stroke-width:1.0;" x1="607" x2="607" y1="206.0156" y2="219.0156"/><line style="stroke:#181818;stroke-width:1.0;" x1="566" x2="607" y1="219.0156" y2="219.0156"/><polygon fill="#181818" points="576,215.0156,566,219.0156,576,223.0156,572,219.0156" style="stroke:#181818;stroke-width:1.0;"/><text fill="#000000" font-family="sans-serif" font-size="13" font-weight="bold" lengthAdjust="spacing" textLength="7" x="572" y="201.1592">4</text><text fill="#000000" font-family="sans-serif" font-size="13" lengthAdjust="spacing" textLength="88" x="583" y="201.1592">calculateTime()</text><polygon fill="#181818" points="804,275.3672,814,279.3672,804,283.3672,808,279.3672" style="stroke:#181818;stroke-width:1.0;"/><line style="stroke:#181818;stroke-width:1.0;" x1="555" x2="810" y1="279.3672" y2="279.3672"/><text fill="#000000" font-family="sans-serif" font-size="13" font-weight="bold" lengthAdjust="spacing" textLength="7" x="562" y="274.5107">5</text><text fill="#000000" font-family="sans-serif" font-size="13" lengthAdjust="spacing" textLength="221" x="573" y="274.5107">startReportService(initialDelay,interval)</text><polygon fill="#181818" points="1880,305.7188,1890,309.7188,1880,313.7188,1884,309.7188" style="stroke:#181818;stroke-width:1.0;"/><line style="stroke:#181818;stroke-width:1.0;stroke-dasharray:2.0,2.0;" x1="826" x2="1886" y1="309.7188" y2="309.7188"/><text fill="#000000" font-family="sans-serif" font-size="13" font-weight="bold" lengthAdjust="spacing" textLength="7" x="833" y="304.8623">6</text><text fill="#000000" font-family="sans-serif" font-size="13" lengthAdjust="spacing" textLength="44" x="844" y="304.8623">create()</text><rect fill="#E2E2F0" height="31.6094" rx="2.5" ry="2.5" style="stroke:#181818;stroke-width:0.5;" width="93" x="1892" y="287.3672"/><text fill="#000000" font-family="sans-serif" font-size="14" lengthAdjust="spacing" textLength="79" x="1899" y="308.9004">timer : Timer</text><polygon fill="#181818" points="1703,348.3281,1713,352.3281,1703,356.3281,1707,352.3281" style="stroke:#181818;stroke-width:1.0;"/><line style="stroke:#181818;stroke-width:1.0;stroke-dasharray:2.0,2.0;" x1="826" x2="1709" y1="352.3281" y2="352.3281"/><text fill="#000000" font-family="sans-serif" font-size="13" font-weight="bold" lengthAdjust="spacing" textLength="7" x="833" y="347.4717">7</text><text fill="#000000" font-family="sans-serif" font-size="13" lengthAdjust="spacing" textLength="44" x="844" y="347.4717">create()</text><rect fill="#E2E2F0" height="31.6094" rx="2.5" ry="2.5" style="stroke:#181818;stroke-width:0.5;" width="167" x="1715" y="329.9766"/><text fill="#000000" font-family="sans-serif" font-size="14" lengthAdjust="spacing" textLength="153" x="1722" y="351.5098">timerReport : TimerTask</text><polygon fill="#181818" points="1041,390.9375,1051,394.9375,1041,398.9375,1045,394.9375" style="stroke:#181818;stroke-width:1.0;"/><line style="stroke:#181818;stroke-width:1.0;" x1="826" x2="1047" y1="394.9375" y2="394.9375"/><text fill="#000000" font-family="sans-serif" font-size="13" font-weight="bold" lengthAdjust="spacing" textLength="7" x="833" y="390.0811">8</text><text fill="#000000" font-family="sans-serif" font-size="13" lengthAdjust="spacing" textLength="197" x="844" y="390.0811">countAdministrations(centerStore)</text><polygon fill="#181818" points="1983,421.2891,1993,425.2891,1983,429.2891,1987,425.2891" style="stroke:#181818;stroke-width:1.0;"/><line style="stroke:#181818;stroke-width:1.0;stroke-dasharray:2.0,2.0;" x1="1063" x2="1989" y1="425.2891" y2="425.2891"/><text fill="#000000" font-family="sans-serif" font-size="13" font-weight="bold" lengthAdjust="spacing" textLength="7" x="1070" y="420.4326">9</text><text fill="#000000" font-family="sans-serif" font-size="13" lengthAdjust="spacing" textLength="44" x="1081" y="420.4326">create()</text><rect fill="#E2E2F0" height="31.6094" rx="2.5" ry="2.5" style="stroke:#181818;stroke-width:0.5;" width="249" x="1995" y="402.9375"/><text fill="#000000" font-family="sans-serif" font-size="14" lengthAdjust="spacing" textLength="235" x="2002" y="424.4707">administrationCountList : List&lt;String&gt;</text><polygon fill="#181818" points="1235,463.8984,1245,467.8984,1235,471.8984,1239,467.8984" style="stroke:#181818;stroke-width:1.0;"/><line style="stroke:#181818;stroke-width:1.0;" x1="1063" x2="1241" y1="467.8984" y2="467.8984"/><text fill="#000000" font-family="sans-serif" font-size="13" font-weight="bold" lengthAdjust="spacing" textLength="14" x="1070" y="463.042">10</text><text fill="#000000" font-family="sans-serif" font-size="13" lengthAdjust="spacing" textLength="95" x="1088" y="463.042">getCenterStore()</text><path d="M922.5,512.8984 L995.5,512.8984 L995.5,521.25 L985.5,531.25 L922.5,531.25 L922.5,512.8984 " fill="#EEEEEE" style="stroke:#000000;stroke-width:1.5;"/><rect fill="none" height="611.1797" style="stroke:#000000;stroke-width:1.5;" width="1549.5" x="922.5" y="512.8984"/><text fill="#000000" font-family="sans-serif" font-size="13" font-weight="bold" lengthAdjust="spacing" textLength="28" x="937.5" y="527.3936">loop</text><text fill="#000000" font-family="sans-serif" font-size="11" font-weight="bold" lengthAdjust="spacing" textLength="92" x="1010.5" y="526.3174">[for each center]</text><polygon fill="#181818" points="2242,549.6016,2252,553.6016,2242,557.6016,2246,553.6016" style="stroke:#181818;stroke-width:1.0;"/><line style="stroke:#181818;stroke-width:1.0;stroke-dasharray:2.0,2.0;" x1="1063" x2="2248" y1="553.6016" y2="553.6016"/><text fill="#000000" font-family="sans-serif" font-size="13" font-weight="bold" lengthAdjust="spacing" textLength="14" x="1070" y="548.7451">11</text><text fill="#000000" font-family="sans-serif" font-size="13" lengthAdjust="spacing" textLength="44" x="1088" y="548.7451">create()</text><rect fill="#E2E2F0" height="31.6094" rx="2.5" ry="2.5" style="stroke:#181818;stroke-width:0.5;" width="178" x="2254" y="531.25"/><text fill="#000000" font-family="sans-serif" font-size="14" lengthAdjust="spacing" textLength="164" x="2261" y="552.7832">:snsUserList : List&lt;String&gt;</text><path d="M932.5,580.8594 L1005.5,580.8594 L1005.5,589.2109 L995.5,599.2109 L932.5,599.2109 L932.5,580.8594 " fill="#EEEEEE" style="stroke:#000000;stroke-width:1.5;"/><rect fill="none" height="475.8672" style="stroke:#000000;stroke-width:1.5;" width="1529.5" x="932.5" y="580.8594"/><text fill="#000000" font-family="sans-serif" font-size="13" font-weight="bold" lengthAdjust="spacing" textLength="28" x="947.5" y="595.3545">loop</text><text fill="#000000" font-family="sans-serif" font-size="11" font-weight="bold" lengthAdjust="spacing" textLength="180" x="1020.5" y="594.2783">[for each vaccine administration]</text><path d="M942.5,606.2109 L1003.5,606.2109 L1003.5,614.5625 L993.5,624.5625 L942.5,624.5625 L942.5,606.2109 " fill="#EEEEEE" style="stroke:#000000;stroke-width:1.5;"/><rect fill="none" height="443.5156" style="stroke:#000000;stroke-width:1.5;" width="1509.5" x="942.5" y="606.2109"/><text fill="#000000" font-family="sans-serif" font-size="13" font-weight="bold" lengthAdjust="spacing" textLength="16" x="957.5" y="620.7061">alt</text><text fill="#000000" font-family="sans-serif" font-size="11" font-weight="bold" lengthAdjust="spacing" textLength="163" x="1018.5" y="619.6299">[not exists sns user number]</text><polygon fill="#181818" points="1412,642.9141,1422,646.9141,1412,650.9141,1416,646.9141" style="stroke:#181818;stroke-width:1.0;"/><line style="stroke:#181818;stroke-width:1.0;" x1="1063" x2="1418" y1="646.9141" y2="646.9141"/><text fill="#000000" font-family="sans-serif" font-size="13" font-weight="bold" lengthAdjust="spacing" textLength="14" x="1070" y="642.0576">12</text><text fill="#000000" font-family="sans-serif" font-size="13" lengthAdjust="spacing" textLength="76" x="1088" y="642.0576">getSnsUser()</text><polygon fill="#181818" points="1580,673.2656,1590,677.2656,1580,681.2656,1584,677.2656" style="stroke:#181818;stroke-width:1.0;"/><line style="stroke:#181818;stroke-width:1.0;" x1="1434" x2="1586" y1="677.2656" y2="677.2656"/><text fill="#000000" font-family="sans-serif" font-size="13" font-weight="bold" lengthAdjust="spacing" textLength="14" x="1441" y="672.4092">13</text><text fill="#000000" font-family="sans-serif" font-size="13" lengthAdjust="spacing" textLength="121" x="1459" y="672.4092">getSnsUserNumber()</text><path d="M952.5,722.2656 L1013.5,722.2656 L1013.5,730.6172 L1003.5,740.6172 L952.5,740.6172 L952.5,722.2656 " fill="#EEEEEE" style="stroke:#000000;stroke-width:1.5;"/><rect fill="none" height="320.4609" style="stroke:#000000;stroke-width:1.5;" width="1489.5" x="952.5" y="722.2656"/><text fill="#000000" font-family="sans-serif" font-size="13" font-weight="bold" lengthAdjust="spacing" textLength="16" x="967.5" y="736.7607">alt</text><text fill="#000000" font-family="sans-serif" font-size="11" font-weight="bold" lengthAdjust="spacing" textLength="343" x="1028.5" y="735.6846">[center = center and date of vaccineAdministration = localDate]</text><polygon fill="#181818" points="1235,758.9688,1245,762.9688,1235,766.9688,1239,762.9688" style="stroke:#181818;stroke-width:1.0;"/><line style="stroke:#181818;stroke-width:1.0;" x1="1063" x2="1241" y1="762.9688" y2="762.9688"/><text fill="#000000" font-family="sans-serif" font-size="13" font-weight="bold" lengthAdjust="spacing" textLength="14" x="1070" y="758.1123">14</text><text fill="#000000" font-family="sans-serif" font-size="13" lengthAdjust="spacing" textLength="29" x="1088" y="758.1123">get(i)</text><polygon fill="#181818" points="1657.5,789.3203,1667.5,793.3203,1657.5,797.3203,1661.5,793.3203" style="stroke:#181818;stroke-width:1.0;"/><line style="stroke:#181818;stroke-width:1.0;" x1="1257" x2="1663.5" y1="793.3203" y2="793.3203"/><text fill="#000000" font-family="sans-serif" font-size="13" font-weight="bold" lengthAdjust="spacing" textLength="14" x="1264" y="788.4639">15</text><text fill="#000000" font-family="sans-serif" font-size="13" lengthAdjust="spacing" textLength="60" x="1282" y="788.4639">getName()</text><polygon fill="#181818" points="1412,849.6719,1422,853.6719,1412,857.6719,1416,853.6719" style="stroke:#181818;stroke-width:1.0;"/><line style="stroke:#181818;stroke-width:1.0;" x1="1063" x2="1418" y1="853.6719" y2="853.6719"/><text fill="#000000" font-family="sans-serif" font-size="13" font-weight="bold" lengthAdjust="spacing" textLength="14" x="1070" y="848.8154">16</text><text fill="#000000" font-family="sans-serif" font-size="13" lengthAdjust="spacing" textLength="64" x="1088" y="848.8154">getCenter()</text><polygon fill="#181818" points="1657.5,880.0234,1667.5,884.0234,1657.5,888.0234,1661.5,884.0234" style="stroke:#181818;stroke-width:1.0;"/><line style="stroke:#181818;stroke-width:1.0;" x1="1434" x2="1663.5" y1="884.0234" y2="884.0234"/><text fill="#000000" font-family="sans-serif" font-size="13" font-weight="bold" lengthAdjust="spacing" textLength="14" x="1441" y="879.167">17</text><text fill="#000000" font-family="sans-serif" font-size="13" lengthAdjust="spacing" textLength="60" x="1459" y="879.167">getName()</text><polygon fill="#181818" points="1412,940.375,1422,944.375,1412,948.375,1416,944.375" style="stroke:#181818;stroke-width:1.0;"/><line style="stroke:#181818;stroke-width:1.0;" x1="1063" x2="1418" y1="944.375" y2="944.375"/><text fill="#000000" font-family="sans-serif" font-size="13" font-weight="bold" lengthAdjust="spacing" textLength="14" x="1070" y="939.5186">18</text><text fill="#000000" font-family="sans-serif" font-size="13" lengthAdjust="spacing" textLength="53" x="1088" y="939.5186">getDate()</text><polygon fill="#181818" points="2326,1000.7266,2336,1004.7266,2326,1008.7266,2330,1004.7266" style="stroke:#181818;stroke-width:1.0;"/><line style="stroke:#181818;stroke-width:1.0;" x1="1063" x2="2332" y1="1004.7266" y2="1004.7266"/><text fill="#000000" font-family="sans-serif" font-size="13" font-weight="bold" lengthAdjust="spacing" textLength="14" x="1070" y="999.8701">19</text><text fill="#000000" font-family="sans-serif" font-size="13" lengthAdjust="spacing" textLength="29" x="1088" y="999.8701">add()</text><polygon fill="#181818" points="2102.5,1082.0781,2112.5,1086.0781,2102.5,1090.0781,2106.5,1086.0781" style="stroke:#181818;stroke-width:1.0;"/><line style="stroke:#181818;stroke-width:1.0;" x1="1063" x2="2108.5" y1="1086.0781" y2="1086.0781"/><text fill="#000000" font-family="sans-serif" font-size="13" font-weight="bold" lengthAdjust="spacing" textLength="14" x="1070" y="1081.2217">20</text><text fill="#000000" font-family="sans-serif" font-size="13" lengthAdjust="spacing" textLength="29" x="1088" y="1081.2217">add()</text><polygon fill="#181818" points="837,1149.4297,827,1153.4297,837,1157.4297,833,1153.4297" style="stroke:#181818;stroke-width:1.0;"/><line style="stroke:#181818;stroke-width:1.0;stroke-dasharray:2.0,2.0;" x1="831" x2="1057" y1="1153.4297" y2="1153.4297"/><text fill="#000000" font-family="sans-serif" font-size="13" font-weight="bold" lengthAdjust="spacing" textLength="14" x="843" y="1148.5732">21</text><text fill="#000000" font-family="sans-serif" font-size="13" lengthAdjust="spacing" textLength="136" x="861" y="1148.5732">administrationCountList</text><path d="M739.5,1168.4297 L812.5,1168.4297 L812.5,1176.7813 L802.5,1186.7813 L739.5,1186.7813 L739.5,1168.4297 " fill="#EEEEEE" style="stroke:#000000;stroke-width:1.5;"/><rect fill="none" height="78.7031" style="stroke:#000000;stroke-width:1.5;" width="1514.5" x="739.5" y="1168.4297"/><text fill="#000000" font-family="sans-serif" font-size="13" font-weight="bold" lengthAdjust="spacing" textLength="28" x="754.5" y="1182.9248">loop</text><text fill="#000000" font-family="sans-serif" font-size="11" font-weight="bold" lengthAdjust="spacing" textLength="170" x="827.5" y="1181.8486">[for each administration count]</text><polygon fill="#181818" points="2102.5,1205.1328,2112.5,1209.1328,2102.5,1213.1328,2106.5,1209.1328" style="stroke:#181818;stroke-width:1.0;"/><line style="stroke:#181818;stroke-width:1.0;" x1="826" x2="2108.5" y1="1209.1328" y2="1209.1328"/><text fill="#000000" font-family="sans-serif" font-size="13" font-weight="bold" lengthAdjust="spacing" textLength="14" x="833" y="1204.2764">22</text><text fill="#000000" font-family="sans-serif" font-size="13" lengthAdjust="spacing" textLength="130" x="851" y="1204.2764">data += administration</text><line style="stroke:#181818;stroke-width:1.0;" x1="831" x2="873" y1="1276.4844" y2="1276.4844"/><line style="stroke:#181818;stroke-width:1.0;" x1="873" x2="873" y1="1276.4844" y2="1289.4844"/><line style="stroke:#181818;stroke-width:1.0;" x1="832" x2="873" y1="1289.4844" y2="1289.4844"/><polygon fill="#181818" points="842,1285.4844,832,1289.4844,842,1293.4844,838,1289.4844" style="stroke:#181818;stroke-width:1.0;"/><text fill="#000000" font-family="sans-serif" font-size="13" font-weight="bold" lengthAdjust="spacing" textLength="14" x="838" y="1271.6279">23</text><text fill="#000000" font-family="sans-serif" font-size="13" lengthAdjust="spacing" textLength="134" x="856" y="1271.6279">writeCSV(filePath,data)</text><polygon fill="#181818" points="1921.5,1345.8359,1931.5,1349.8359,1921.5,1353.8359,1925.5,1349.8359" style="stroke:#181818;stroke-width:1.0;"/><line style="stroke:#181818;stroke-width:1.0;" x1="826" x2="1927.5" y1="1349.8359" y2="1349.8359"/><text fill="#000000" font-family="sans-serif" font-size="13" font-weight="bold" lengthAdjust="spacing" textLength="14" x="833" y="1344.9795">24</text><text fill="#000000" font-family="sans-serif" font-size="13" lengthAdjust="spacing" textLength="310" x="851" y="1344.9795">scheduleAtFixedRate(timerReport,initialDelay,interval)</text><path d="M1707,1392.8359 L1707,1418.8359 L2030,1418.8359 L2030,1402.8359 L2020,1392.8359 L1707,1392.8359 " fill="#FEFFDD" style="stroke:#181818;stroke-width:0.5;"/><path d="M2020,1392.8359 L2020,1402.8359 L2030,1402.8359 L2020,1392.8359 " fill="#FEFFDD" style="stroke:#181818;stroke-width:0.5;"/><text fill="#000000" font-family="sans-serif" font-size="13" lengthAdjust="spacing" textLength="302" x="1713" y="1411.3311">After the time specified by "initialDelay" has elapsed</text><polygon fill="#181818" points="1814.5,1442.5391,1804.5,1446.5391,1814.5,1450.5391,1810.5,1446.5391" style="stroke:#181818;stroke-width:1.0;"/><line style="stroke:#181818;stroke-width:1.0;" x1="1808.5" x2="1932.5" y1="1446.5391" y2="1446.5391"/><text fill="#000000" font-family="sans-serif" font-size="13" font-weight="bold" lengthAdjust="spacing" textLength="14" x="1820.5" y="1441.6826">25</text><text fill="#000000" font-family="sans-serif" font-size="13" lengthAdjust="spacing" textLength="26" x="1838.5" y="1441.6826">run()</text><path d="M1718,1489.5391 L1718,1515.5391 L2018,1515.5391 L2018,1499.5391 L2008,1489.5391 L1718,1489.5391 " fill="#FEFFDD" style="stroke:#181818;stroke-width:0.5;"/><path d="M2008,1489.5391 L2008,1499.5391 L2018,1499.5391 L2008,1489.5391 " fill="#FEFFDD" style="stroke:#181818;stroke-width:0.5;"/><text fill="#000000" font-family="sans-serif" font-size="13" lengthAdjust="spacing" textLength="279" x="1724" y="1508.0342">After the time specified by "interval" has elapsed</text><polygon fill="#181818" points="1814.5,1539.2422,1804.5,1543.2422,1814.5,1547.2422,1810.5,1543.2422" style="stroke:#181818;stroke-width:1.0;"/><line style="stroke:#181818;stroke-width:1.0;" x1="1808.5" x2="1932.5" y1="1543.2422" y2="1543.2422"/><text fill="#000000" font-family="sans-serif" font-size="13" font-weight="bold" lengthAdjust="spacing" textLength="14" x="1820.5" y="1538.3857">26</text><text fill="#000000" font-family="sans-serif" font-size="13" lengthAdjust="spacing" textLength="26" x="1838.5" y="1538.3857">run()</text><polygon fill="#181818" points="37,1599.5938,27,1603.5938,37,1607.5938,33,1603.5938" style="stroke:#181818;stroke-width:1.0;"/><line style="stroke:#181818;stroke-width:1.0;stroke-dasharray:2.0,2.0;" x1="31" x2="554" y1="1603.5938" y2="1603.5938"/><text fill="#000000" font-family="sans-serif" font-size="13" font-weight="bold" lengthAdjust="spacing" textLength="14" x="43" y="1598.7373">27</text><text fill="#000000" font-family="sans-serif" font-size="13" lengthAdjust="spacing" textLength="487" x="61" y="1598.7373">generate report with the total number of people vaccinated in each vaccination center</text><!--MD5=[9705614c395a9cb9a0bf8306b4432054]
@startuml
autonumber

actor "Timer" as actor

participant ":App" as app
participant "company : Company" as comp
participant ":VaccineAdministrationStore" as as
participant "centerStore : CenterStore" as cs
participant ":VaccineAdministration" as va
participant ":SNSUser" as sns
participant ":Center" as cen
participant "timerReport : TimerTask" as task
participant "timer : Timer" as timer
participant "administrationCountList : List<String>" as list
participant ":snsUserList : List<String>" as listsns

actor -> app : starts timer
app++
app -> comp++ : company = getCompany()
app -> comp : time = getTime()
app -> app++: calculateTime()
app- -
app -> comp: startReportService(initialDelay,interval)
app- -
comp - -> timer** : create()
comp - -> task** : create()
comp -> as++: countAdministrations(centerStore)
as - -> list** : create()
as -> cs++ : getCenterStore()
cs- -
loop for each center
as - -> listsns** : create()
loop for each vaccine administration
alt not exists sns user number
as -> va++ : getSnsUser()
va -> sns++ : getSnsUserNumber()
sns- -
va- -
alt center = center and date of vaccineAdministration = localDate
as -> cs++ : get(i)
cs -> cen : getName()
cen++
cen- -
cs- -
as -> va : getCenter()
cen- -
va++
va -> cen++ : getName()
cen- -
va- -
as -> va++ : getDate()
va- -
cen- -
as -> listsns++ : add()
listsns- -
end
end
end
as -> list++ : add()
list- -
end
as - -> comp : administrationCountList
as- -
loop for each administration count
comp -> list++: data += administration
list- -
end
comp -> comp++ : writeCSV(filePath,data)
comp- -
comp -> timer++ : scheduleAtFixedRate(timerReport,initialDelay,interval)
comp- -
timer- -
note over timer,task : After the time specified by "initialDelay" has elapsed
timer -> task++ : run()
task- -
timer++
timer- -
note over timer,task : After the time specified by "interval" has elapsed
timer -> task++ : run()
task- -
timer++
timer- -
app - -> actor : generate report with the total number of people vaccinated in each vaccination center


@enduml

PlantUML version 1.2022.4(Sat Apr 09 14:29:17 BST 2022)
(GPL source distribution)
Java Runtime: OpenJDK Runtime Environment
JVM: OpenJDK 64-Bit Server VM
Default Encoding: Cp1252
Language: pt
Country: PT
--></g></svg>