<?xml version="1.0" encoding="UTF-8" standalone="no"?><svg xmlns="http://www.w3.org/2000/svg" xmlns:xlink="http://www.w3.org/1999/xlink" contentStyleType="text/css" height="1106px" preserveAspectRatio="none" style="width:1622px;height:1106px;background:#FFFFFF;" version="1.1" viewBox="0 0 1622 1106" width="1622px" zoomAndPan="magnify"><defs/><g><rect fill="#FFFFFF" height="922.4375" style="stroke:#181818;stroke-width:1.0;" width="10" x="44.5" y="92.6094"/><rect fill="#FFFFFF" height="30.3516" style="stroke:#181818;stroke-width:1.0;" width="10" x="266.5" y="114.9609"/><rect fill="#FFFFFF" height="830.3828" style="stroke:#181818;stroke-width:1.0;" width="10" x="266.5" y="175.6641"/><rect fill="#FFFFFF" height="538.2734" style="stroke:#181818;stroke-width:1.0;" width="10" x="391.5" y="206.0156"/><rect fill="#FFFFFF" height="28" style="stroke:#181818;stroke-width:1.0;" width="10" x="396.5" y="244.3672"/><rect fill="#FFFFFF" height="28" style="stroke:#181818;stroke-width:1.0;" width="10" x="396.5" y="378.4219"/><rect fill="#FFFFFF" height="30.3516" style="stroke:#181818;stroke-width:1.0;" width="10" x="542.5" y="309.7188"/><rect fill="#FFFFFF" height="212.4609" style="stroke:#181818;stroke-width:1.0;" width="10" x="708.5" y="469.125"/><rect fill="#FFFFFF" height="239.4063" style="stroke:#181818;stroke-width:1.0;" width="10" x="1037.5" y="744.2891"/><rect fill="#FFFFFF" height="28" style="stroke:#181818;stroke-width:1.0;" width="10" x="1042.5" y="782.6406"/><rect fill="#FFFFFF" height="30" style="stroke:#181818;stroke-width:1.0;" width="10" x="1291.5" y="847.9922"/><rect fill="#FFFFFF" height="15" style="stroke:#181818;stroke-width:1.0;" width="10" x="1400" y="968.6953"/><rect fill="#FFFFFF" height="30" style="stroke:#181818;stroke-width:1.0;" width="10" x="1529.5" y="908.3438"/><rect height="261.1641" style="stroke:#000000;stroke-width:1.5;fill:none;" width="450.5" x="316.5" y="428.4219"/><rect height="273.1094" style="stroke:#000000;stroke-width:1.5;fill:none;" width="1300" x="316.5" y="703.5859"/><line style="stroke:#181818;stroke-width:0.5;fill:none;stroke-dasharray:5.0,5.0;" x1="49" x2="49" y1="82.6094" y2="1024.0469"/><line style="stroke:#181818;stroke-width:0.5;fill:none;stroke-dasharray:5.0,5.0;" x1="271.5" x2="271.5" y1="82.6094" y2="1024.0469"/><line style="stroke:#181818;stroke-width:0.5;fill:none;stroke-dasharray:5.0,5.0;" x1="396.5" x2="396.5" y1="82.6094" y2="1024.0469"/><line style="stroke:#181818;stroke-width:0.5;fill:none;stroke-dasharray:5.0,5.0;" x1="547.5" x2="547.5" y1="82.6094" y2="1024.0469"/><line style="stroke:#181818;stroke-width:0.5;fill:none;stroke-dasharray:5.0,5.0;" x1="713" x2="713" y1="82.6094" y2="1024.0469"/><line style="stroke:#181818;stroke-width:0.5;fill:none;stroke-dasharray:5.0,5.0;" x1="1042.5" x2="1042.5" y1="82.6094" y2="1024.0469"/><line style="stroke:#181818;stroke-width:0.5;fill:none;stroke-dasharray:5.0,5.0;" x1="1296.5" x2="1296.5" y1="82.6094" y2="1024.0469"/><line style="stroke:#181818;stroke-width:0.5;fill:none;stroke-dasharray:5.0,5.0;" x1="1404.5" x2="1404.5" y1="82.6094" y2="1024.0469"/><line style="stroke:#181818;stroke-width:0.5;fill:none;stroke-dasharray:5.0,5.0;" x1="1534.5" x2="1534.5" y1="82.6094" y2="1024.0469"/><text fill="#000000" font-family="sans-serif" font-size="14" lengthAdjust="spacing" textLength="83" x="5" y="79.5332">Administrator</text><ellipse cx="49.5" cy="13.5" fill="#E2E2F0" rx="8" ry="8" style="stroke:#181818;stroke-width:0.5;"/><path d="M49.5,21.5 L49.5,48.5 M36.5,29.5 L62.5,29.5 M49.5,48.5 L36.5,63.5 M49.5,48.5 L62.5,63.5 " fill="none" style="stroke:#181818;stroke-width:0.5;"/><text fill="#000000" font-family="sans-serif" font-size="14" lengthAdjust="spacing" textLength="83" x="5" y="1037.5801">Administrator</text><ellipse cx="49.5" cy="1049.1563" fill="#E2E2F0" rx="8" ry="8" style="stroke:#181818;stroke-width:0.5;"/><path d="M49.5,1057.1563 L49.5,1084.1563 M36.5,1065.1563 L62.5,1065.1563 M49.5,1084.1563 L36.5,1099.1563 M49.5,1084.1563 L62.5,1099.1563 " fill="none" style="stroke:#181818;stroke-width:0.5;"/><rect fill="#E2E2F0" height="31.6094" rx="2.5" ry="2.5" style="stroke:#181818;stroke-width:0.5;" width="90" x="226.5" y="50"/><text fill="#000000" font-family="sans-serif" font-size="14" lengthAdjust="spacing" textLength="76" x="233.5" y="71.5332">:LoadCSVUI</text><rect fill="#E2E2F0" height="31.6094" rx="2.5" ry="2.5" style="stroke:#181818;stroke-width:0.5;" width="90" x="226.5" y="1023.0469"/><text fill="#000000" font-family="sans-serif" font-size="14" lengthAdjust="spacing" textLength="76" x="233.5" y="1044.5801">:LoadCSVUI</text><rect fill="#E2E2F0" height="31.6094" rx="2.5" ry="2.5" style="stroke:#181818;stroke-width:0.5;" width="140" x="326.5" y="50"/><text fill="#000000" font-family="sans-serif" font-size="14" lengthAdjust="spacing" textLength="126" x="333.5" y="71.5332">:LoadCSVController</text><rect fill="#E2E2F0" height="31.6094" rx="2.5" ry="2.5" style="stroke:#181818;stroke-width:0.5;" width="140" x="326.5" y="1023.0469"/><text fill="#000000" font-family="sans-serif" font-size="14" lengthAdjust="spacing" textLength="126" x="333.5" y="1044.5801">:LoadCSVController</text><rect fill="#E2E2F0" height="31.6094" rx="2.5" ry="2.5" style="stroke:#181818;stroke-width:0.5;" width="78" x="508.5" y="50"/><text fill="#000000" font-family="sans-serif" font-size="14" lengthAdjust="spacing" textLength="64" x="515.5" y="71.5332">:Company</text><rect fill="#E2E2F0" height="31.6094" rx="2.5" ry="2.5" style="stroke:#181818;stroke-width:0.5;" width="78" x="508.5" y="1023.0469"/><text fill="#000000" font-family="sans-serif" font-size="14" lengthAdjust="spacing" textLength="64" x="515.5" y="1044.5801">:Company</text><rect fill="#E2E2F0" height="31.6094" rx="2.5" ry="2.5" style="stroke:#181818;stroke-width:0.5;" width="87" x="670" y="50"/><text fill="#000000" font-family="sans-serif" font-size="14" lengthAdjust="spacing" textLength="73" x="677" y="71.5332">:Validations</text><rect fill="#E2E2F0" height="31.6094" rx="2.5" ry="2.5" style="stroke:#181818;stroke-width:0.5;" width="87" x="670" y="1023.0469"/><text fill="#000000" font-family="sans-serif" font-size="14" lengthAdjust="spacing" textLength="73" x="677" y="1044.5801">:Validations</text><rect fill="#E2E2F0" height="31.6094" rx="2.5" ry="2.5" style="stroke:#181818;stroke-width:0.5;" width="108" x="988.5" y="50"/><text fill="#000000" font-family="sans-serif" font-size="14" lengthAdjust="spacing" textLength="94" x="995.5" y="71.5332">:SNSUserStore</text><rect fill="#E2E2F0" height="31.6094" rx="2.5" ry="2.5" style="stroke:#181818;stroke-width:0.5;" width="108" x="988.5" y="1023.0469"/><text fill="#000000" font-family="sans-serif" font-size="14" lengthAdjust="spacing" textLength="94" x="995.5" y="1044.5801">:SNSUserStore</text><rect fill="#E2E2F0" height="31.6094" rx="2.5" ry="2.5" style="stroke:#181818;stroke-width:0.5;" width="102" x="1245.5" y="50"/><text fill="#000000" font-family="sans-serif" font-size="14" lengthAdjust="spacing" textLength="88" x="1252.5" y="71.5332">user:SNSUser</text><rect fill="#E2E2F0" height="31.6094" rx="2.5" ry="2.5" style="stroke:#181818;stroke-width:0.5;" width="102" x="1245.5" y="1023.0469"/><text fill="#000000" font-family="sans-serif" font-size="14" lengthAdjust="spacing" textLength="88" x="1252.5" y="1044.5801">user:SNSUser</text><rect fill="#E2E2F0" height="31.6094" rx="2.5" ry="2.5" style="stroke:#181818;stroke-width:0.5;" width="95" x="1357.5" y="50"/><text fill="#000000" font-family="sans-serif" font-size="14" lengthAdjust="spacing" textLength="81" x="1364.5" y="71.5332">:AuthFacade</text><rect fill="#E2E2F0" height="31.6094" rx="2.5" ry="2.5" style="stroke:#181818;stroke-width:0.5;" width="95" x="1357.5" y="1023.0469"/><text fill="#000000" font-family="sans-serif" font-size="14" lengthAdjust="spacing" textLength="81" x="1364.5" y="1044.5801">:AuthFacade</text><rect fill="#E2E2F0" height="31.6094" rx="2.5" ry="2.5" style="stroke:#181818;stroke-width:0.5;" width="144" x="1462.5" y="50"/><text fill="#000000" font-family="sans-serif" font-size="14" lengthAdjust="spacing" textLength="130" x="1469.5" y="71.5332">:PasswordGenerator</text><rect fill="#E2E2F0" height="31.6094" rx="2.5" ry="2.5" style="stroke:#181818;stroke-width:0.5;" width="144" x="1462.5" y="1023.0469"/><text fill="#000000" font-family="sans-serif" font-size="14" lengthAdjust="spacing" textLength="130" x="1469.5" y="1044.5801">:PasswordGenerator</text><rect fill="#FFFFFF" height="922.4375" style="stroke:#181818;stroke-width:1.0;" width="10" x="44.5" y="92.6094"/><rect fill="#FFFFFF" height="30.3516" style="stroke:#181818;stroke-width:1.0;" width="10" x="266.5" y="114.9609"/><rect fill="#FFFFFF" height="830.3828" style="stroke:#181818;stroke-width:1.0;" width="10" x="266.5" y="175.6641"/><rect fill="#FFFFFF" height="538.2734" style="stroke:#181818;stroke-width:1.0;" width="10" x="391.5" y="206.0156"/><rect fill="#FFFFFF" height="28" style="stroke:#181818;stroke-width:1.0;" width="10" x="396.5" y="244.3672"/><rect fill="#FFFFFF" height="28" style="stroke:#181818;stroke-width:1.0;" width="10" x="396.5" y="378.4219"/><rect fill="#FFFFFF" height="30.3516" style="stroke:#181818;stroke-width:1.0;" width="10" x="542.5" y="309.7188"/><rect fill="#FFFFFF" height="212.4609" style="stroke:#181818;stroke-width:1.0;" width="10" x="708.5" y="469.125"/><rect fill="#FFFFFF" height="239.4063" style="stroke:#181818;stroke-width:1.0;" width="10" x="1037.5" y="744.2891"/><rect fill="#FFFFFF" height="28" style="stroke:#181818;stroke-width:1.0;" width="10" x="1042.5" y="782.6406"/><rect fill="#FFFFFF" height="30" style="stroke:#181818;stroke-width:1.0;" width="10" x="1291.5" y="847.9922"/><rect fill="#FFFFFF" height="15" style="stroke:#181818;stroke-width:1.0;" width="10" x="1400" y="968.6953"/><rect fill="#FFFFFF" height="30" style="stroke:#181818;stroke-width:1.0;" width="10" x="1529.5" y="908.3438"/><polygon fill="#181818" points="254.5,110.9609,264.5,114.9609,254.5,118.9609,258.5,114.9609" style="stroke:#181818;stroke-width:1.0;"/><line style="stroke:#181818;stroke-width:1.0;" x1="54.5" x2="260.5" y1="114.9609" y2="114.9609"/><text fill="#000000" font-family="sans-serif" font-size="13" font-weight="bold" lengthAdjust="spacing" textLength="7" x="61.5" y="110.1045">1</text><text fill="#000000" font-family="sans-serif" font-size="13" lengthAdjust="spacing" textLength="109" x="72.5" y="110.1045">starts loading CSV</text><polygon fill="#181818" points="65.5,141.3125,55.5,145.3125,65.5,149.3125,61.5,145.3125" style="stroke:#181818;stroke-width:1.0;"/><line style="stroke:#181818;stroke-width:1.0;stroke-dasharray:2.0,2.0;" x1="59.5" x2="270.5" y1="145.3125" y2="145.3125"/><text fill="#000000" font-family="sans-serif" font-size="13" font-weight="bold" lengthAdjust="spacing" textLength="7" x="71.5" y="140.4561">2</text><text fill="#000000" font-family="sans-serif" font-size="13" lengthAdjust="spacing" textLength="144" x="82.5" y="140.4561">requests path of CSV file</text><polygon fill="#181818" points="254.5,171.6641,264.5,175.6641,254.5,179.6641,258.5,175.6641" style="stroke:#181818;stroke-width:1.0;"/><line style="stroke:#181818;stroke-width:1.0;" x1="54.5" x2="260.5" y1="175.6641" y2="175.6641"/><text fill="#000000" font-family="sans-serif" font-size="13" font-weight="bold" lengthAdjust="spacing" textLength="7" x="61.5" y="170.8076">3</text><text fill="#000000" font-family="sans-serif" font-size="13" lengthAdjust="spacing" textLength="126" x="72.5" y="170.8076">types path of CSV file</text><polygon fill="#181818" points="379.5,202.0156,389.5,206.0156,379.5,210.0156,383.5,206.0156" style="stroke:#181818;stroke-width:1.0;"/><line style="stroke:#181818;stroke-width:1.0;" x1="276.5" x2="385.5" y1="206.0156" y2="206.0156"/><text fill="#000000" font-family="sans-serif" font-size="13" font-weight="bold" lengthAdjust="spacing" textLength="7" x="283.5" y="201.1592">4</text><text fill="#000000" font-family="sans-serif" font-size="13" lengthAdjust="spacing" textLength="84" x="294.5" y="201.1592">loadCSV(path)</text><line style="stroke:#181818;stroke-width:1.0;" x1="406.5" x2="448.5" y1="236.3672" y2="236.3672"/><line style="stroke:#181818;stroke-width:1.0;" x1="448.5" x2="448.5" y1="236.3672" y2="249.3672"/><line style="stroke:#181818;stroke-width:1.0;" x1="407.5" x2="448.5" y1="249.3672" y2="249.3672"/><polygon fill="#181818" points="417.5,245.3672,407.5,249.3672,417.5,253.3672,413.5,249.3672" style="stroke:#181818;stroke-width:1.0;"/><text fill="#000000" font-family="sans-serif" font-size="13" font-weight="bold" lengthAdjust="spacing" textLength="7" x="413.5" y="231.5107">5</text><text fill="#000000" font-family="sans-serif" font-size="13" lengthAdjust="spacing" textLength="95" x="424.5" y="231.5107">identifyFile(path)</text><polygon fill="#181818" points="530.5,305.7188,540.5,309.7188,530.5,313.7188,534.5,309.7188" style="stroke:#181818;stroke-width:1.0;"/><line style="stroke:#181818;stroke-width:1.0;" x1="401.5" x2="536.5" y1="309.7188" y2="309.7188"/><text fill="#000000" font-family="sans-serif" font-size="13" font-weight="bold" lengthAdjust="spacing" textLength="7" x="408.5" y="304.8623">6</text><text fill="#000000" font-family="sans-serif" font-size="13" lengthAdjust="spacing" textLength="111" x="419.5" y="304.8623">getSNSUserStore()</text><polygon fill="#181818" points="535.5,336.0703,545.5,340.0703,535.5,344.0703,539.5,340.0703" style="stroke:#181818;stroke-width:1.0;"/><line style="stroke:#181818;stroke-width:1.0;" x1="401.5" x2="541.5" y1="340.0703" y2="340.0703"/><text fill="#000000" font-family="sans-serif" font-size="13" font-weight="bold" lengthAdjust="spacing" textLength="7" x="408.5" y="335.2139">7</text><text fill="#000000" font-family="sans-serif" font-size="13" lengthAdjust="spacing" textLength="96" x="419.5" y="335.2139">getAuthFacade()</text><line style="stroke:#181818;stroke-width:1.0;" x1="406.5" x2="448.5" y1="370.4219" y2="370.4219"/><line style="stroke:#181818;stroke-width:1.0;" x1="448.5" x2="448.5" y1="370.4219" y2="383.4219"/><line style="stroke:#181818;stroke-width:1.0;" x1="407.5" x2="448.5" y1="383.4219" y2="383.4219"/><polygon fill="#181818" points="417.5,379.4219,407.5,383.4219,417.5,387.4219,413.5,383.4219" style="stroke:#181818;stroke-width:1.0;"/><text fill="#000000" font-family="sans-serif" font-size="13" font-weight="bold" lengthAdjust="spacing" textLength="7" x="413.5" y="365.5654">8</text><text fill="#000000" font-family="sans-serif" font-size="13" lengthAdjust="spacing" textLength="97" x="424.5" y="365.5654">validateFile(path)</text><path d="M316.5,428.4219 L389.5,428.4219 L389.5,436.7734 L379.5,446.7734 L316.5,446.7734 L316.5,428.4219 " fill="#EEEEEE" style="stroke:#000000;stroke-width:1.5;"/><rect fill="none" height="261.1641" style="stroke:#000000;stroke-width:1.5;" width="450.5" x="316.5" y="428.4219"/><text fill="#000000" font-family="sans-serif" font-size="13" font-weight="bold" lengthAdjust="spacing" textLength="28" x="331.5" y="442.917">loop</text><polygon fill="#181818" points="696.5,465.125,706.5,469.125,696.5,473.125,700.5,469.125" style="stroke:#181818;stroke-width:1.0;"/><line style="stroke:#181818;stroke-width:1.0;" x1="401.5" x2="702.5" y1="469.125" y2="469.125"/><text fill="#000000" font-family="sans-serif" font-size="13" font-weight="bold" lengthAdjust="spacing" textLength="7" x="408.5" y="464.2686">9</text><text fill="#000000" font-family="sans-serif" font-size="13" lengthAdjust="spacing" textLength="109" x="419.5" y="464.2686">checkName(name)</text><polygon fill="#181818" points="696.5,495.4766,706.5,499.4766,696.5,503.4766,700.5,499.4766" style="stroke:#181818;stroke-width:1.0;"/><line style="stroke:#181818;stroke-width:1.0;" x1="401.5" x2="702.5" y1="499.4766" y2="499.4766"/><text fill="#000000" font-family="sans-serif" font-size="13" font-weight="bold" lengthAdjust="spacing" textLength="14" x="408.5" y="494.6201">10</text><text fill="#000000" font-family="sans-serif" font-size="13" lengthAdjust="spacing" textLength="87" x="426.5" y="494.6201">checkSex(sex)</text><polygon fill="#181818" points="696.5,525.8281,706.5,529.8281,696.5,533.8281,700.5,529.8281" style="stroke:#181818;stroke-width:1.0;"/><line style="stroke:#181818;stroke-width:1.0;" x1="401.5" x2="702.5" y1="529.8281" y2="529.8281"/><text fill="#000000" font-family="sans-serif" font-size="13" font-weight="bold" lengthAdjust="spacing" textLength="14" x="408.5" y="524.9717">11</text><text fill="#000000" font-family="sans-serif" font-size="13" lengthAdjust="spacing" textLength="149" x="426.5" y="524.9717">checkBirthDate(birthDate)</text><polygon fill="#181818" points="696.5,556.1797,706.5,560.1797,696.5,564.1797,700.5,560.1797" style="stroke:#181818;stroke-width:1.0;"/><line style="stroke:#181818;stroke-width:1.0;" x1="401.5" x2="702.5" y1="560.1797" y2="560.1797"/><text fill="#000000" font-family="sans-serif" font-size="13" font-weight="bold" lengthAdjust="spacing" textLength="14" x="408.5" y="555.3232">12</text><text fill="#000000" font-family="sans-serif" font-size="13" lengthAdjust="spacing" textLength="137" x="426.5" y="555.3232">checkAddress(address)</text><polygon fill="#181818" points="696.5,586.5313,706.5,590.5313,696.5,594.5313,700.5,590.5313" style="stroke:#181818;stroke-width:1.0;"/><line style="stroke:#181818;stroke-width:1.0;" x1="401.5" x2="702.5" y1="590.5313" y2="590.5313"/><text fill="#000000" font-family="sans-serif" font-size="13" font-weight="bold" lengthAdjust="spacing" textLength="14" x="408.5" y="585.6748">13</text><text fill="#000000" font-family="sans-serif" font-size="13" lengthAdjust="spacing" textLength="205" x="426.5" y="585.6748">checkPhoneNumber(phoneNumber)</text><polygon fill="#181818" points="696.5,616.8828,706.5,620.8828,696.5,624.8828,700.5,620.8828" style="stroke:#181818;stroke-width:1.0;"/><line style="stroke:#181818;stroke-width:1.0;" x1="401.5" x2="702.5" y1="620.8828" y2="620.8828"/><text fill="#000000" font-family="sans-serif" font-size="13" font-weight="bold" lengthAdjust="spacing" textLength="14" x="408.5" y="616.0264">14</text><text fill="#000000" font-family="sans-serif" font-size="13" lengthAdjust="spacing" textLength="107" x="426.5" y="616.0264">checkEmail(email)</text><polygon fill="#181818" points="696.5,647.2344,706.5,651.2344,696.5,655.2344,700.5,651.2344" style="stroke:#181818;stroke-width:1.0;"/><line style="stroke:#181818;stroke-width:1.0;" x1="401.5" x2="702.5" y1="651.2344" y2="651.2344"/><text fill="#000000" font-family="sans-serif" font-size="13" font-weight="bold" lengthAdjust="spacing" textLength="14" x="408.5" y="646.3779">15</text><text fill="#000000" font-family="sans-serif" font-size="13" lengthAdjust="spacing" textLength="235" x="426.5" y="646.3779">checkSNSUserNumber(snsUserNumber)</text><polygon fill="#181818" points="701.5,677.5859,711.5,681.5859,701.5,685.5859,705.5,681.5859" style="stroke:#181818;stroke-width:1.0;"/><line style="stroke:#181818;stroke-width:1.0;" x1="401.5" x2="707.5" y1="681.5859" y2="681.5859"/><text fill="#000000" font-family="sans-serif" font-size="13" font-weight="bold" lengthAdjust="spacing" textLength="14" x="408.5" y="676.7295">16</text><text fill="#000000" font-family="sans-serif" font-size="13" lengthAdjust="spacing" textLength="265" x="426.5" y="676.7295">checkCitizenCardNumber(citizenCardNumber)</text><path d="M316.5,703.5859 L389.5,703.5859 L389.5,711.9375 L379.5,721.9375 L316.5,721.9375 L316.5,703.5859 " fill="#EEEEEE" style="stroke:#000000;stroke-width:1.5;"/><rect fill="none" height="273.1094" style="stroke:#000000;stroke-width:1.5;" width="1300" x="316.5" y="703.5859"/><text fill="#000000" font-family="sans-serif" font-size="13" font-weight="bold" lengthAdjust="spacing" textLength="28" x="331.5" y="718.0811">loop</text><polygon fill="#181818" points="1025.5,740.2891,1035.5,744.2891,1025.5,748.2891,1029.5,744.2891" style="stroke:#181818;stroke-width:1.0;"/><line style="stroke:#181818;stroke-width:1.0;" x1="396.5" x2="1031.5" y1="744.2891" y2="744.2891"/><text fill="#000000" font-family="sans-serif" font-size="13" font-weight="bold" lengthAdjust="spacing" textLength="14" x="403.5" y="739.4326">17</text><text fill="#000000" font-family="sans-serif" font-size="13" lengthAdjust="spacing" textLength="599" x="421.5" y="739.4326">createUser(name,address,sex,phoneNumber,email,birthDate,SNSUserNumber,citizenCardNumber,auth)</text><line style="stroke:#181818;stroke-width:1.0;" x1="1052.5" x2="1094.5" y1="774.6406" y2="774.6406"/><line style="stroke:#181818;stroke-width:1.0;" x1="1094.5" x2="1094.5" y1="774.6406" y2="787.6406"/><line style="stroke:#181818;stroke-width:1.0;" x1="1053.5" x2="1094.5" y1="787.6406" y2="787.6406"/><polygon fill="#181818" points="1063.5,783.6406,1053.5,787.6406,1063.5,791.6406,1059.5,787.6406" style="stroke:#181818;stroke-width:1.0;"/><text fill="#000000" font-family="sans-serif" font-size="13" font-weight="bold" lengthAdjust="spacing" textLength="14" x="1059.5" y="769.7842">18</text><text fill="#000000" font-family="sans-serif" font-size="13" lengthAdjust="spacing" textLength="212" x="1077.5" y="769.7842">validateUser(email,SNSUserNumber)</text><polygon fill="#181818" points="1279.5,843.9922,1289.5,847.9922,1279.5,851.9922,1283.5,847.9922" style="stroke:#181818;stroke-width:1.0;"/><line style="stroke:#181818;stroke-width:1.0;" x1="1047.5" x2="1285.5" y1="847.9922" y2="847.9922"/><text fill="#000000" font-family="sans-serif" font-size="13" font-weight="bold" lengthAdjust="spacing" textLength="14" x="1054.5" y="843.1357">19</text><text fill="#000000" font-family="sans-serif" font-size="13" lengthAdjust="spacing" textLength="44" x="1072.5" y="843.1357">create()</text><polygon fill="#181818" points="1517.5,904.3438,1527.5,908.3438,1517.5,912.3438,1521.5,908.3438" style="stroke:#181818;stroke-width:1.0;"/><line style="stroke:#181818;stroke-width:1.0;" x1="1047.5" x2="1523.5" y1="908.3438" y2="908.3438"/><text fill="#000000" font-family="sans-serif" font-size="13" font-weight="bold" lengthAdjust="spacing" textLength="14" x="1054.5" y="903.4873">20</text><text fill="#000000" font-family="sans-serif" font-size="13" lengthAdjust="spacing" textLength="115" x="1072.5" y="903.4873">generatePassword()</text><polygon fill="#181818" points="1388,964.6953,1398,968.6953,1388,972.6953,1392,968.6953" style="stroke:#181818;stroke-width:1.0;"/><line style="stroke:#181818;stroke-width:1.0;" x1="1047.5" x2="1394" y1="968.6953" y2="968.6953"/><text fill="#000000" font-family="sans-serif" font-size="13" font-weight="bold" lengthAdjust="spacing" textLength="14" x="1054.5" y="963.8389">21</text><text fill="#000000" font-family="sans-serif" font-size="13" lengthAdjust="spacing" textLength="228" x="1072.5" y="963.8389">addUserWithRole(name,email,pwd,role)</text><polygon fill="#181818" points="65.5,1002.0469,55.5,1006.0469,65.5,1010.0469,61.5,1006.0469" style="stroke:#181818;stroke-width:1.0;"/><line style="stroke:#181818;stroke-width:1.0;stroke-dasharray:2.0,2.0;" x1="59.5" x2="270.5" y1="1006.0469" y2="1006.0469"/><text fill="#000000" font-family="sans-serif" font-size="13" font-weight="bold" lengthAdjust="spacing" textLength="14" x="71.5" y="1001.1904">22</text><text fill="#000000" font-family="sans-serif" font-size="13" lengthAdjust="spacing" textLength="170" x="89.5" y="1001.1904">informs operation (in)success</text><!--MD5=[6cefdf8f2c9d250b642868e4ca4b6f6f]
@startuml
autonumber
actor "Administrator" as ADM

participant ":LoadCSVUI" as ui
participant ":LoadCSVController" as ctrl
participant ":Company" as comp
participant ":Validations" as vd
participant ":SNSUserStore" as snsus
participant "user:SNSUser" as sns
participant ":AuthFacade" as af
participant ":PasswordGenerator" as pg


activate ADM
ADM -> ui : starts loading CSV
activate ui
ui - -> ADM :requests path of CSV file
deactivate ui
ADM -> ui: types path of CSV file
activate ui
ui -> ctrl: loadCSV(path)
activate ctrl
ctrl -> ctrl: identifyFile(path)
activate ctrl
deactivate ctrl
ctrl -> comp: getSNSUserStore()
activate comp
ctrl -> comp: getAuthFacade()
deactivate comp
ctrl -> ctrl: validateFile(path)
activate ctrl
deactivate ctrl
loop
ctrl -> vd : checkName(name)
activate vd
ctrl -> vd : checkSex(sex)
ctrl -> vd : checkBirthDate(birthDate)
ctrl -> vd : checkAddress(address)
ctrl -> vd : checkPhoneNumber(phoneNumber)
ctrl -> vd : checkEmail(email)
ctrl -> vd : checkSNSUserNumber(snsUserNumber)
ctrl -> vd : checkCitizenCardNumber(citizenCardNumber)
deactivate vd
end
loop
ctrl -> snsus : createUser(name,address,sex,phoneNumber,email,birthDate,SNSUserNumber,citizenCardNumber,auth)
deactivate ctrl
activate snsus
snsus -> snsus :validateUser(email,SNSUserNumber)
activate snsus
deactivate snsus
snsus -> sns : create()
activate sns
deactivate sns

deactivate sns
deactivate comp
snsus -> pg :generatePassword()
activate pg
deactivate pg
snsus -> af : addUserWithRole(name,email,pwd,role)
activate af
end
deactivate af
deactivate snsus
ui - -> ADM : informs operation (in)success
deactivate ui

@enduml

PlantUML version 1.2022.4(Sat Apr 09 14:29:17 BST 2022)
(GPL source distribution)
Java Runtime: OpenJDK Runtime Environment
JVM: OpenJDK 64-Bit Server VM
Default Encoding: Cp1252
Language: pt
Country: PT
--></g></svg>