<?xml version="1.0" encoding="UTF-8" standalone="no"?><svg xmlns="http://www.w3.org/2000/svg" xmlns:xlink="http://www.w3.org/1999/xlink" contentStyleType="text/css" height="650px" preserveAspectRatio="none" style="width:705px;height:650px;background:#FFFFFF;" version="1.1" viewBox="0 0 705 650" width="705px" zoomAndPan="magnify"><defs/><g><!--MD5=[518607cfae964d1346a7ff62d75aeb94]
class VaccineUI--><g id="elem_VaccineUI"><rect codeLine="1" fill="#F1F1F1" height="48" id="VaccineUI" rx="2.5" ry="2.5" style="stroke:#181818;stroke-width:0.5;" width="94" x="295" y="7"/><ellipse cx="310" cy="23" fill="#ADD1B2" rx="11" ry="11" style="stroke:#181818;stroke-width:1.0;"/><path d="M312,19.5 Q312.2031,19 312.4375,18.75 Q312.6719,18.5 312.9375,18.5 Q313.4063,18.5 313.7031,18.7813 Q314,19.0625 314,19.7188 L314,21.2813 Q314,21.9375 313.7188,22.2188 Q313.4375,22.5 313,22.5 Q312.6094,22.5 312.3594,22.3281 Q312.1094,22.1563 312,21.7031 Q311.9531,21.3906 311.7813,21.2188 Q311.4688,20.8906 310.9063,20.7031 Q310.3438,20.5 309.7813,20.5 Q309.0781,20.5 308.4844,20.7813 Q307.9063,21.0625 307.4531,21.6875 Q307,22.3125 307,23.1719 L307,24.0938 Q307,25.125 307.8438,25.8125 Q308.6875,26.5 310.1875,26.5 Q311.0781,26.5 311.7031,26.2969 Q312.0625,26.1875 312.4688,25.8281 Q312.7344,25.625 312.875,25.5625 Q313.0156,25.5 313.1875,25.5 Q313.5156,25.5 313.75,25.7656 Q314,26.0156 314,26.375 Q314,26.7188 313.6563,27.125 Q313.1563,27.7188 312.3594,28.0469 Q311.3125,28.5 310.0313,28.5 Q308.5313,28.5 307.3281,27.9063 Q306.3594,27.4375 305.6719,26.4219 Q305,25.4063 305,24.2031 L305,23.1094 Q305,21.8594 305.5938,20.7656 Q306.2031,19.6719 307.25,19.0938 Q308.3125,18.5 309.5,18.5 Q310.2188,18.5 310.8438,18.75 Q311.4688,19 312,19.5 Z " fill="#000000"/><text fill="#000000" font-family="sans-serif" font-size="14" lengthAdjust="spacing" textLength="62" x="324" y="28.7285">VaccineUI</text><line style="stroke:#181818;stroke-width:0.5;" x1="296" x2="388" y1="39" y2="39"/><line style="stroke:#181818;stroke-width:0.5;" x1="296" x2="388" y1="47" y2="47"/></g><!--MD5=[9bd1b76461a4c8de49e232f509682712]
class VaccineController--><g id="elem_VaccineController"><rect codeLine="2" fill="#F1F1F1" height="100.8281" id="VaccineController" rx="2.5" ry="2.5" style="stroke:#181818;stroke-width:0.5;" width="209" x="237.5" y="115"/><ellipse cx="281.75" cy="131" fill="#ADD1B2" rx="11" ry="11" style="stroke:#181818;stroke-width:1.0;"/><path d="M283.75,127.5 Q283.9531,127 284.1875,126.75 Q284.4219,126.5 284.6875,126.5 Q285.1563,126.5 285.4531,126.7813 Q285.75,127.0625 285.75,127.7188 L285.75,129.2813 Q285.75,129.9375 285.4688,130.2188 Q285.1875,130.5 284.75,130.5 Q284.3594,130.5 284.1094,130.3281 Q283.8594,130.1563 283.75,129.7031 Q283.7031,129.3906 283.5313,129.2188 Q283.2188,128.8906 282.6563,128.7031 Q282.0938,128.5 281.5313,128.5 Q280.8281,128.5 280.2344,128.7813 Q279.6563,129.0625 279.2031,129.6875 Q278.75,130.3125 278.75,131.1719 L278.75,132.0938 Q278.75,133.125 279.5938,133.8125 Q280.4375,134.5 281.9375,134.5 Q282.8281,134.5 283.4531,134.2969 Q283.8125,134.1875 284.2188,133.8281 Q284.4844,133.625 284.625,133.5625 Q284.7656,133.5 284.9375,133.5 Q285.2656,133.5 285.5,133.7656 Q285.75,134.0156 285.75,134.375 Q285.75,134.7188 285.4063,135.125 Q284.9063,135.7188 284.1094,136.0469 Q283.0625,136.5 281.7813,136.5 Q280.2813,136.5 279.0781,135.9063 Q278.1094,135.4375 277.4219,134.4219 Q276.75,133.4063 276.75,132.2031 L276.75,131.1094 Q276.75,129.8594 277.3438,128.7656 Q277.9531,127.6719 279,127.0938 Q280.0625,126.5 281.25,126.5 Q281.9688,126.5 282.5938,126.75 Q283.2188,127 283.75,127.5 Z " fill="#000000"/><text fill="#000000" font-family="sans-serif" font-size="14" lengthAdjust="spacing" textLength="112" x="302.25" y="136.7285">VaccineController</text><line style="stroke:#181818;stroke-width:0.5;" x1="238.5" x2="445.5" y1="147" y2="147"/><line style="stroke:#181818;stroke-width:0.5;" x1="238.5" x2="445.5" y1="155" y2="155"/><text fill="#000000" font-family="sans-serif" font-size="14" lengthAdjust="spacing" textLength="119" x="243.5" y="173.5332">getVaccineTypes()</text><text fill="#000000" font-family="sans-serif" font-size="14" lengthAdjust="spacing" textLength="197" x="243.5" y="191.1426">createVaccine(name, lot, id, ...)</text><text fill="#000000" font-family="sans-serif" font-size="14" lengthAdjust="spacing" textLength="90" x="243.5" y="208.752">saveVaccine()</text></g><!--MD5=[02e4b9b7573f1156f41e60aa5b4e25a4]
class Company--><g id="elem_Company"><rect codeLine="7" fill="#F1F1F1" height="100.8281" id="Company" rx="2.5" ry="2.5" style="stroke:#181818;stroke-width:0.5;" width="209" x="158.5" y="276"/><ellipse cx="228.75" cy="292" fill="#ADD1B2" rx="11" ry="11" style="stroke:#181818;stroke-width:1.0;"/><path d="M230.75,288.5 Q230.9531,288 231.1875,287.75 Q231.4219,287.5 231.6875,287.5 Q232.1563,287.5 232.4531,287.7813 Q232.75,288.0625 232.75,288.7188 L232.75,290.2813 Q232.75,290.9375 232.4688,291.2188 Q232.1875,291.5 231.75,291.5 Q231.3594,291.5 231.1094,291.3281 Q230.8594,291.1563 230.75,290.7031 Q230.7031,290.3906 230.5313,290.2188 Q230.2188,289.8906 229.6563,289.7031 Q229.0938,289.5 228.5313,289.5 Q227.8281,289.5 227.2344,289.7813 Q226.6563,290.0625 226.2031,290.6875 Q225.75,291.3125 225.75,292.1719 L225.75,293.0938 Q225.75,294.125 226.5938,294.8125 Q227.4375,295.5 228.9375,295.5 Q229.8281,295.5 230.4531,295.2969 Q230.8125,295.1875 231.2188,294.8281 Q231.4844,294.625 231.625,294.5625 Q231.7656,294.5 231.9375,294.5 Q232.2656,294.5 232.5,294.7656 Q232.75,295.0156 232.75,295.375 Q232.75,295.7188 232.4063,296.125 Q231.9063,296.7188 231.1094,297.0469 Q230.0625,297.5 228.7813,297.5 Q227.2813,297.5 226.0781,296.9063 Q225.1094,296.4375 224.4219,295.4219 Q223.75,294.4063 223.75,293.2031 L223.75,292.1094 Q223.75,290.8594 224.3438,289.7656 Q224.9531,288.6719 226,288.0938 Q227.0625,287.5 228.25,287.5 Q228.9688,287.5 229.5938,287.75 Q230.2188,288 230.75,288.5 Z " fill="#000000"/><text fill="#000000" font-family="sans-serif" font-size="14" lengthAdjust="spacing" textLength="60" x="249.25" y="297.7285">Company</text><line style="stroke:#181818;stroke-width:0.5;" x1="159.5" x2="366.5" y1="308" y2="308"/><line style="stroke:#181818;stroke-width:0.5;" x1="159.5" x2="366.5" y1="316" y2="316"/><text fill="#000000" font-family="sans-serif" font-size="14" lengthAdjust="spacing" textLength="146" x="164.5" y="334.5332">getVaccineTypeStore()</text><text fill="#000000" font-family="sans-serif" font-size="14" lengthAdjust="spacing" textLength="114" x="164.5" y="352.1426">getVaccineStore()</text><text fill="#000000" font-family="sans-serif" font-size="14" lengthAdjust="spacing" textLength="197" x="164.5" y="369.752">createVaccine(name, lot, id, ...)</text></g><!--MD5=[9532c95099058dfe385d7270fd32fc0d]
class VaccineTypeStore--><g id="elem_VaccineTypeStore"><rect codeLine="12" fill="#F1F1F1" height="65.6094" id="VaccineTypeStore" rx="2.5" ry="2.5" style="stroke:#181818;stroke-width:0.5;" width="148" x="7" y="507"/><ellipse cx="22" cy="523" fill="#ADD1B2" rx="11" ry="11" style="stroke:#181818;stroke-width:1.0;"/><path d="M24,519.5 Q24.2031,519 24.4375,518.75 Q24.6719,518.5 24.9375,518.5 Q25.4063,518.5 25.7031,518.7813 Q26,519.0625 26,519.7188 L26,521.2813 Q26,521.9375 25.7188,522.2188 Q25.4375,522.5 25,522.5 Q24.6094,522.5 24.3594,522.3281 Q24.1094,522.1563 24,521.7031 Q23.9531,521.3906 23.7813,521.2188 Q23.4688,520.8906 22.9063,520.7031 Q22.3438,520.5 21.7813,520.5 Q21.0781,520.5 20.4844,520.7813 Q19.9063,521.0625 19.4531,521.6875 Q19,522.3125 19,523.1719 L19,524.0938 Q19,525.125 19.8438,525.8125 Q20.6875,526.5 22.1875,526.5 Q23.0781,526.5 23.7031,526.2969 Q24.0625,526.1875 24.4688,525.8281 Q24.7344,525.625 24.875,525.5625 Q25.0156,525.5 25.1875,525.5 Q25.5156,525.5 25.75,525.7656 Q26,526.0156 26,526.375 Q26,526.7188 25.6563,527.125 Q25.1563,527.7188 24.3594,528.0469 Q23.3125,528.5 22.0313,528.5 Q20.5313,528.5 19.3281,527.9063 Q18.3594,527.4375 17.6719,526.4219 Q17,525.4063 17,524.2031 L17,523.1094 Q17,521.8594 17.5938,520.7656 Q18.2031,519.6719 19.25,519.0938 Q20.3125,518.5 21.5,518.5 Q22.2188,518.5 22.8438,518.75 Q23.4688,519 24,519.5 Z " fill="#000000"/><text fill="#000000" font-family="sans-serif" font-size="14" lengthAdjust="spacing" textLength="116" x="36" y="528.7285">VaccineTypeStore</text><line style="stroke:#181818;stroke-width:0.5;" x1="8" x2="154" y1="539" y2="539"/><line style="stroke:#181818;stroke-width:0.5;" x1="8" x2="154" y1="547" y2="547"/><text fill="#000000" font-family="sans-serif" font-size="14" lengthAdjust="spacing" textLength="119" x="13" y="565.5332">getVaccineTypes()</text></g><!--MD5=[d0d3f323c921ace052b18808f85f1ae6]
class VaccineTypeMapper--><g id="elem_VaccineTypeMapper"><rect codeLine="15" fill="#F1F1F1" height="65.6094" id="VaccineTypeMapper" rx="2.5" ry="2.5" style="stroke:#181818;stroke-width:0.5;" width="181" x="500.5" y="293.5"/><ellipse cx="524.05" cy="309.5" fill="#ADD1B2" rx="11" ry="11" style="stroke:#181818;stroke-width:1.0;"/><path d="M526.05,306 Q526.2531,305.5 526.4875,305.25 Q526.7219,305 526.9875,305 Q527.4563,305 527.7531,305.2813 Q528.05,305.5625 528.05,306.2188 L528.05,307.7813 Q528.05,308.4375 527.7688,308.7188 Q527.4875,309 527.05,309 Q526.6594,309 526.4094,308.8281 Q526.1594,308.6563 526.05,308.2031 Q526.0031,307.8906 525.8313,307.7188 Q525.5188,307.3906 524.9563,307.2031 Q524.3938,307 523.8313,307 Q523.1281,307 522.5344,307.2813 Q521.9563,307.5625 521.5031,308.1875 Q521.05,308.8125 521.05,309.6719 L521.05,310.5938 Q521.05,311.625 521.8938,312.3125 Q522.7375,313 524.2375,313 Q525.1281,313 525.7531,312.7969 Q526.1125,312.6875 526.5188,312.3281 Q526.7844,312.125 526.925,312.0625 Q527.0656,312 527.2375,312 Q527.5656,312 527.8,312.2656 Q528.05,312.5156 528.05,312.875 Q528.05,313.2188 527.7063,313.625 Q527.2063,314.2188 526.4094,314.5469 Q525.3625,315 524.0813,315 Q522.5813,315 521.3781,314.4063 Q520.4094,313.9375 519.7219,312.9219 Q519.05,311.9063 519.05,310.7031 L519.05,309.6094 Q519.05,308.3594 519.6438,307.2656 Q520.2531,306.1719 521.3,305.5938 Q522.3625,305 523.55,305 Q524.2688,305 524.8938,305.25 Q525.5188,305.5 526.05,306 Z " fill="#000000"/><text fill="#000000" font-family="sans-serif" font-size="14" lengthAdjust="spacing" textLength="130" x="539.95" y="315.2285">VaccineTypeMapper</text><line style="stroke:#181818;stroke-width:0.5;" x1="501.5" x2="680.5" y1="325.5" y2="325.5"/><line style="stroke:#181818;stroke-width:0.5;" x1="501.5" x2="680.5" y1="333.5" y2="333.5"/><text fill="#000000" font-family="sans-serif" font-size="14" lengthAdjust="spacing" textLength="169" x="506.5" y="352.0332">toDTOVacTypes(vacType)</text></g><!--MD5=[233190b6df0a515560ccad753d4d8686]
class VaccineTypeDTO--><g id="elem_VaccineTypeDTO"><rect codeLine="18" fill="#F1F1F1" height="65.6094" id="VaccineTypeDTO" rx="2.5" ry="2.5" style="stroke:#181818;stroke-width:0.5;" width="174" x="524" y="507"/><ellipse cx="552.5" cy="523" fill="#ADD1B2" rx="11" ry="11" style="stroke:#181818;stroke-width:1.0;"/><path d="M554.5,519.5 Q554.7031,519 554.9375,518.75 Q555.1719,518.5 555.4375,518.5 Q555.9063,518.5 556.2031,518.7813 Q556.5,519.0625 556.5,519.7188 L556.5,521.2813 Q556.5,521.9375 556.2188,522.2188 Q555.9375,522.5 555.5,522.5 Q555.1094,522.5 554.8594,522.3281 Q554.6094,522.1563 554.5,521.7031 Q554.4531,521.3906 554.2813,521.2188 Q553.9688,520.8906 553.4063,520.7031 Q552.8438,520.5 552.2813,520.5 Q551.5781,520.5 550.9844,520.7813 Q550.4063,521.0625 549.9531,521.6875 Q549.5,522.3125 549.5,523.1719 L549.5,524.0938 Q549.5,525.125 550.3438,525.8125 Q551.1875,526.5 552.6875,526.5 Q553.5781,526.5 554.2031,526.2969 Q554.5625,526.1875 554.9688,525.8281 Q555.2344,525.625 555.375,525.5625 Q555.5156,525.5 555.6875,525.5 Q556.0156,525.5 556.25,525.7656 Q556.5,526.0156 556.5,526.375 Q556.5,526.7188 556.1563,527.125 Q555.6563,527.7188 554.8594,528.0469 Q553.8125,528.5 552.5313,528.5 Q551.0313,528.5 549.8281,527.9063 Q548.8594,527.4375 548.1719,526.4219 Q547.5,525.4063 547.5,524.2031 L547.5,523.1094 Q547.5,521.8594 548.0938,520.7656 Q548.7031,519.6719 549.75,519.0938 Q550.8125,518.5 552,518.5 Q552.7188,518.5 553.3438,518.75 Q553.9688,519 554.5,519.5 Z " fill="#000000"/><text fill="#000000" font-family="sans-serif" font-size="14" lengthAdjust="spacing" textLength="112" x="569.5" y="528.7285">VaccineTypeDTO</text><line style="stroke:#181818;stroke-width:0.5;" x1="525" x2="697" y1="539" y2="539"/><line style="stroke:#181818;stroke-width:0.5;" x1="525" x2="697" y1="547" y2="547"/><text fill="#000000" font-family="sans-serif" font-size="14" lengthAdjust="spacing" textLength="162" x="530" y="565.5332">createVaccineTypeDTO()</text></g><!--MD5=[19e445fc4d3b48519cbe33da05496394]
class Vaccine--><g id="elem_Vaccine"><rect codeLine="21" fill="#F1F1F1" height="206.4844" id="Vaccine" rx="2.5" ry="2.5" style="stroke:#181818;stroke-width:0.5;" width="142" x="190" y="437"/><ellipse cx="232" cy="453" fill="#ADD1B2" rx="11" ry="11" style="stroke:#181818;stroke-width:1.0;"/><path d="M234,449.5 Q234.2031,449 234.4375,448.75 Q234.6719,448.5 234.9375,448.5 Q235.4063,448.5 235.7031,448.7813 Q236,449.0625 236,449.7188 L236,451.2813 Q236,451.9375 235.7188,452.2188 Q235.4375,452.5 235,452.5 Q234.6094,452.5 234.3594,452.3281 Q234.1094,452.1563 234,451.7031 Q233.9531,451.3906 233.7813,451.2188 Q233.4688,450.8906 232.9063,450.7031 Q232.3438,450.5 231.7813,450.5 Q231.0781,450.5 230.4844,450.7813 Q229.9063,451.0625 229.4531,451.6875 Q229,452.3125 229,453.1719 L229,454.0938 Q229,455.125 229.8438,455.8125 Q230.6875,456.5 232.1875,456.5 Q233.0781,456.5 233.7031,456.2969 Q234.0625,456.1875 234.4688,455.8281 Q234.7344,455.625 234.875,455.5625 Q235.0156,455.5 235.1875,455.5 Q235.5156,455.5 235.75,455.7656 Q236,456.0156 236,456.375 Q236,456.7188 235.6563,457.125 Q235.1563,457.7188 234.3594,458.0469 Q233.3125,458.5 232.0313,458.5 Q230.5313,458.5 229.3281,457.9063 Q228.3594,457.4375 227.6719,456.4219 Q227,455.4063 227,454.2031 L227,453.1094 Q227,451.8594 227.5938,450.7656 Q228.2031,449.6719 229.25,449.0938 Q230.3125,448.5 231.5,448.5 Q232.2188,448.5 232.8438,448.75 Q233.4688,449 234,449.5 Z " fill="#000000"/><text fill="#000000" font-family="sans-serif" font-size="14" lengthAdjust="spacing" textLength="50" x="252" y="458.7285">Vaccine</text><line style="stroke:#181818;stroke-width:0.5;" x1="191" x2="331" y1="469" y2="469"/><text fill="#000000" font-family="sans-serif" font-size="14" lengthAdjust="spacing" textLength="84" x="196" y="487.5332">String : name</text><text fill="#000000" font-family="sans-serif" font-size="14" lengthAdjust="spacing" textLength="42" x="196" y="505.1426">int : lot</text><text fill="#000000" font-family="sans-serif" font-size="14" lengthAdjust="spacing" textLength="38" x="196" y="522.752">int : id</text><text fill="#000000" font-family="sans-serif" font-size="14" lengthAdjust="spacing" textLength="74" x="196" y="540.3613">int : dosage</text><text fill="#000000" font-family="sans-serif" font-size="14" lengthAdjust="spacing" textLength="99" x="196" y="557.9707">int : timeInterval</text><text fill="#000000" font-family="sans-serif" font-size="14" lengthAdjust="spacing" textLength="113" x="196" y="575.5801">int : ageGroupMin</text><text fill="#000000" font-family="sans-serif" font-size="14" lengthAdjust="spacing" textLength="116" x="196" y="593.1895">int : ageGroupMax</text><text fill="#000000" font-family="sans-serif" font-size="14" lengthAdjust="spacing" textLength="130" x="196" y="610.7988">int : numberOfDoses</text><line style="stroke:#181818;stroke-width:0.5;" x1="191" x2="331" y1="617.875" y2="617.875"/><text fill="#000000" font-family="sans-serif" font-size="14" lengthAdjust="spacing" textLength="50" x="196" y="636.4082">create()</text></g><!--MD5=[16e898dea44373438d7a6991ca77efa0]
class VaccineStore--><g id="elem_VaccineStore"><rect codeLine="32" fill="#F1F1F1" height="83.2188" id="VaccineStore" rx="2.5" ry="2.5" style="stroke:#181818;stroke-width:0.5;" width="121" x="367.5" y="498.5"/><ellipse cx="384.75" cy="514.5" fill="#ADD1B2" rx="11" ry="11" style="stroke:#181818;stroke-width:1.0;"/><path d="M386.75,511 Q386.9531,510.5 387.1875,510.25 Q387.4219,510 387.6875,510 Q388.1563,510 388.4531,510.2813 Q388.75,510.5625 388.75,511.2188 L388.75,512.7813 Q388.75,513.4375 388.4688,513.7188 Q388.1875,514 387.75,514 Q387.3594,514 387.1094,513.8281 Q386.8594,513.6563 386.75,513.2031 Q386.7031,512.8906 386.5313,512.7188 Q386.2188,512.3906 385.6563,512.2031 Q385.0938,512 384.5313,512 Q383.8281,512 383.2344,512.2813 Q382.6563,512.5625 382.2031,513.1875 Q381.75,513.8125 381.75,514.6719 L381.75,515.5938 Q381.75,516.625 382.5938,517.3125 Q383.4375,518 384.9375,518 Q385.8281,518 386.4531,517.7969 Q386.8125,517.6875 387.2188,517.3281 Q387.4844,517.125 387.625,517.0625 Q387.7656,517 387.9375,517 Q388.2656,517 388.5,517.2656 Q388.75,517.5156 388.75,517.875 Q388.75,518.2188 388.4063,518.625 Q387.9063,519.2188 387.1094,519.5469 Q386.0625,520 384.7813,520 Q383.2813,520 382.0781,519.4063 Q381.1094,518.9375 380.4219,517.9219 Q379.75,516.9063 379.75,515.7031 L379.75,514.6094 Q379.75,513.3594 380.3438,512.2656 Q380.9531,511.1719 382,510.5938 Q383.0625,510 384.25,510 Q384.9688,510 385.5938,510.25 Q386.2188,510.5 386.75,511 Z " fill="#000000"/><text fill="#000000" font-family="sans-serif" font-size="14" lengthAdjust="spacing" textLength="84" x="399.25" y="520.2285">VaccineStore</text><line style="stroke:#181818;stroke-width:0.5;" x1="368.5" x2="487.5" y1="530.5" y2="530.5"/><line style="stroke:#181818;stroke-width:0.5;" x1="368.5" x2="487.5" y1="538.5" y2="538.5"/><text fill="#000000" font-family="sans-serif" font-size="14" lengthAdjust="spacing" textLength="109" x="373.5" y="557.0332">validateVaccine()</text><text fill="#000000" font-family="sans-serif" font-size="14" lengthAdjust="spacing" textLength="84" x="373.5" y="574.6426">addVaccine()</text></g><!--MD5=[f2e0045a3c67c0696cf082af1b4c8493]
link Company to VaccineStore--><g id="link_Company_VaccineStore"><path codeLine="37" d="M302.03,377.05 C316.78,395.81 333.69,417.37 349,437 C363.6,455.72 379.65,476.42 393.45,494.26 " fill="none" id="Company-to-VaccineStore" style="stroke:#181818;stroke-width:1.0;"/><polygon fill="#181818" points="396.54,498.25,394.2031,488.6824,393.4832,494.2933,387.8723,493.5733,396.54,498.25" style="stroke:#181818;stroke-width:1.0;"/></g><!--MD5=[26b80dd60d3305f854b992ec0b603e2d]
link Company to VaccineTypeStore--><g id="link_Company_VaccineTypeStore"><path codeLine="38" d="M220.33,377.09 C187.21,415.57 142.07,468.03 112.26,502.68 " fill="none" id="Company-to-VaccineTypeStore" style="stroke:#181818;stroke-width:1.0;"/><polygon fill="#181818" points="108.7,506.81,117.5941,502.5799,111.954,503.0137,111.5201,497.3735,108.7,506.81" style="stroke:#181818;stroke-width:1.0;"/></g><!--MD5=[21675b1e282ab75c53995a137329ce07]
link VaccineController to VaccineStore--><g id="link_VaccineController_VaccineStore"><path codeLine="39" d="M364.08,216.17 C371.61,234.66 379.51,256.01 385,276 C405.54,350.77 417.62,440.36 423.51,493.32 " fill="none" id="VaccineController-to-VaccineStore" style="stroke:#181818;stroke-width:1.0;"/><polygon fill="#181818" points="424.06,498.33,427.0594,488.949,423.5172,493.3595,419.1067,489.8174,424.06,498.33" style="stroke:#181818;stroke-width:1.0;"/></g><!--MD5=[4757629cf05d965cf9f7ac16e234db83]
link VaccineUI to VaccineController--><g id="link_VaccineUI_VaccineController"><path codeLine="40" d="M342,55.08 C342,70.13 342,90.43 342,109.47 " fill="none" id="VaccineUI-to-VaccineController" style="stroke:#181818;stroke-width:1.0;"/><polygon fill="#181818" points="342,114.8,346,105.8,342,109.8,338,105.8,342,114.8" style="stroke:#181818;stroke-width:1.0;"/></g><!--MD5=[bdc6a4818735376eac5e081dadc39218]
link VaccineController to Company--><g id="link_VaccineController_Company"><path codeLine="41" d="M317.22,216.37 C308.54,233.84 298.76,253.52 289.92,271.32 " fill="none" id="VaccineController-to-Company" style="stroke:#181818;stroke-width:1.0;"/><polygon fill="#181818" points="287.69,275.8,295.2846,269.5293,289.9203,271.325,288.1246,265.9607,287.69,275.8" style="stroke:#181818;stroke-width:1.0;"/></g><!--MD5=[b33a30879ec6205244aaa467f3858d7d]
link VaccineController to VaccineTypeMapper--><g id="link_VaccineController_VaccineTypeMapper"><path codeLine="42" d="M419.76,216.15 C457.59,240.31 502.15,268.77 536.33,290.59 " fill="none" id="VaccineController-to-VaccineTypeMapper" style="stroke:#181818;stroke-width:1.0;"/><polygon fill="#181818" points="540.87,293.49,535.4426,285.2715,536.6576,290.7964,531.1328,292.0114,540.87,293.49" style="stroke:#181818;stroke-width:1.0;"/></g><!--MD5=[e7a16f45944e1152345f6b693790613d]
link VaccineController to VaccineTypeStore--><g id="link_VaccineController_VaccineTypeStore"><path codeLine="43" d="M237.34,202.87 C201.99,219.97 165.35,243.85 141,276 C89.92,343.46 81.05,446.69 80.26,501.61 " fill="none" id="VaccineController-to-VaccineTypeStore" style="stroke:#181818;stroke-width:1.0;"/><polygon fill="#181818" points="80.21,506.77,84.3126,497.8163,80.2671,501.7703,76.3131,497.7249,80.21,506.77" style="stroke:#181818;stroke-width:1.0;"/></g><!--MD5=[0e839c4380054935901e6629d89a2df6]
link VaccineTypeMapper to VaccineTypeDTO--><g id="link_VaccineTypeMapper_VaccineTypeDTO"><path codeLine="44" d="M594.04,359.62 C597.65,397.78 603.65,461.32 607.47,501.64 " fill="none" id="VaccineTypeMapper-to-VaccineTypeDTO" style="stroke:#181818;stroke-width:1.0;"/><polygon fill="#181818" points="607.97,506.92,611.105,497.5834,607.4993,501.9422,603.1405,498.3365,607.97,506.92" style="stroke:#181818;stroke-width:1.0;"/></g><!--MD5=[c29c8d42883934cbaf5793c72a334947]
link Company to Vaccine--><g id="link_Company_Vaccine"><path codeLine="45" d="M262.53,377.09 C262.38,393.49 262.2,412.44 262.02,431.46 " fill="none" id="Company-to-Vaccine" style="stroke:#181818;stroke-width:1.0;"/><polygon fill="#181818" points="261.97,436.83,266.047,427.8646,262.0129,431.8302,258.0473,427.796,261.97,436.83" style="stroke:#181818;stroke-width:1.0;"/></g><!--MD5=[cb33c94cc44748dbbc171a2ec827f1fc]
@startuml
class VaccineUI
class VaccineController{
    getVaccineTypes()
    createVaccine(name, lot, id, ...)
    saveVaccine()
}
class Company {
    getVaccineTypeStore()
    getVaccineStore()
    createVaccine(name, lot, id, ...)
}
class VaccineTypeStore {
    getVaccineTypes()
}
class VaccineTypeMapper {
    toDTOVacTypes(vacType)
}
class VaccineTypeDTO {
    createVaccineTypeDTO()
}
class Vaccine {
    String : name
    int : lot
    int : id
    int : dosage
    int : timeInterval
    int : ageGroupMin
    int : ageGroupMax
    int : numberOfDoses
    create()
}
class VaccineStore {
    validateVaccine()
    addVaccine()
}

Company - -> VaccineStore
Company - -> VaccineTypeStore
VaccineController - -> VaccineStore
VaccineUI - -> VaccineController
VaccineController - -> Company
VaccineController - -> VaccineTypeMapper
VaccineController - -> VaccineTypeStore
VaccineTypeMapper - -> VaccineTypeDTO
Company - -> Vaccine

@enduml

PlantUML version 1.2022.4(Sat Apr 09 14:29:17 BST 2022)
(GPL source distribution)
Java Runtime: OpenJDK Runtime Environment
JVM: OpenJDK 64-Bit Server VM
Default Encoding: Cp1252
Language: en
Country: GB
--></g></svg>