<?xml version="1.0" encoding="UTF-8" standalone="no"?><svg xmlns="http://www.w3.org/2000/svg" xmlns:xlink="http://www.w3.org/1999/xlink" contentStyleType="text/css" height="1148px" preserveAspectRatio="none" style="width:1806px;height:1148px;background:#FFFFFF;" version="1.1" viewBox="0 0 1806 1148" width="1806px" zoomAndPan="magnify"><defs/><g><rect fill="#FFFFFF" height="933.1953" style="stroke:#181818;stroke-width:1.0;" width="10" x="306.5" y="114.9609"/><rect fill="#FFFFFF" height="872.4922" style="stroke:#181818;stroke-width:1.0;" width="10" x="511.5" y="145.3125"/><rect fill="#FFFFFF" height="30" style="stroke:#181818;stroke-width:1.0;" width="10" x="729.5" y="175.6641"/><rect fill="#FFFFFF" height="30" style="stroke:#181818;stroke-width:1.0;" width="10" x="826" y="236.0156"/><rect fill="#FFFFFF" height="30" style="stroke:#181818;stroke-width:1.0;" width="10" x="914" y="296.3672"/><rect fill="#FFFFFF" height="630.7344" style="stroke:#181818;stroke-width:1.0;" width="10" x="1011" y="356.7188"/><rect fill="#FFFFFF" height="30" style="stroke:#181818;stroke-width:1.0;" width="10" x="1162" y="455.0313"/><rect fill="#FFFFFF" height="30" style="stroke:#181818;stroke-width:1.0;" width="10" x="1371" y="920.1016"/><rect fill="#FFFFFF" height="30" style="stroke:#181818;stroke-width:1.0;" width="10" x="1550.5" y="515.3828"/><rect fill="#FFFFFF" height="30" style="stroke:#181818;stroke-width:1.0;" width="10" x="1550.5" y="575.7344"/><rect fill="#FFFFFF" height="30" style="stroke:#181818;stroke-width:1.0;" width="10" x="1550.5" y="636.0859"/><rect fill="#FFFFFF" height="30" style="stroke:#181818;stroke-width:1.0;" width="10" x="1550.5" y="696.4375"/><rect fill="#FFFFFF" height="30" style="stroke:#181818;stroke-width:1.0;" width="10" x="1550.5" y="756.7891"/><rect fill="#FFFFFF" height="30" style="stroke:#181818;stroke-width:1.0;" width="10" x="1550.5" y="817.1406"/><rect height="543.7734" style="stroke:#000000;stroke-width:1.5;fill:none;" width="851" x="949.5" y="414.3281"/><line style="stroke:#181818;stroke-width:0.5;fill:none;stroke-dasharray:5.0,5.0;" x1="26" x2="26" y1="82.6094" y2="1066.1563"/><line style="stroke:#181818;stroke-width:0.5;fill:none;stroke-dasharray:5.0,5.0;" x1="311.5" x2="311.5" y1="82.6094" y2="1066.1563"/><line style="stroke:#181818;stroke-width:0.5;fill:none;stroke-dasharray:5.0,5.0;" x1="516.5" x2="516.5" y1="82.6094" y2="1066.1563"/><line style="stroke:#181818;stroke-width:0.5;fill:none;stroke-dasharray:5.0,5.0;" x1="734.5" x2="734.5" y1="82.6094" y2="1066.1563"/><line style="stroke:#181818;stroke-width:0.5;fill:none;stroke-dasharray:5.0,5.0;" x1="830.5" x2="830.5" y1="82.6094" y2="1066.1563"/><line style="stroke:#181818;stroke-width:0.5;fill:none;stroke-dasharray:5.0,5.0;" x1="918.5" x2="918.5" y1="82.6094" y2="1066.1563"/><line style="stroke:#181818;stroke-width:0.5;fill:none;stroke-dasharray:5.0,5.0;" x1="1015.5" x2="1015.5" y1="82.6094" y2="1066.1563"/><line style="stroke:#181818;stroke-width:0.5;fill:none;stroke-dasharray:5.0,5.0;" x1="1166.5" x2="1166.5" y1="82.6094" y2="1066.1563"/><line style="stroke:#181818;stroke-width:0.5;fill:none;stroke-dasharray:5.0,5.0;" x1="1375.5" x2="1375.5" y1="396.0234" y2="1066.1563"/><line style="stroke:#181818;stroke-width:0.5;fill:none;stroke-dasharray:5.0,5.0;" x1="1555.5" x2="1555.5" y1="82.6094" y2="1066.1563"/><line style="stroke:#181818;stroke-width:0.5;fill:none;stroke-dasharray:5.0,5.0;" x1="1705.5" x2="1705.5" y1="886.4453" y2="1066.1563"/><text fill="#000000" font-family="sans-serif" font-size="14" lengthAdjust="spacing" textLength="37" x="5" y="79.5332">Nurse</text><ellipse cx="26.5" cy="13.5" fill="#E2E2F0" rx="8" ry="8" style="stroke:#181818;stroke-width:0.5;"/><path d="M26.5,21.5 L26.5,48.5 M13.5,29.5 L39.5,29.5 M26.5,48.5 L13.5,63.5 M26.5,48.5 L39.5,63.5 " fill="none" style="stroke:#181818;stroke-width:0.5;"/><text fill="#000000" font-family="sans-serif" font-size="14" lengthAdjust="spacing" textLength="37" x="5" y="1079.6895">Nurse</text><ellipse cx="26.5" cy="1091.2656" fill="#E2E2F0" rx="8" ry="8" style="stroke:#181818;stroke-width:0.5;"/><path d="M26.5,1099.2656 L26.5,1126.2656 M13.5,1107.2656 L39.5,1107.2656 M26.5,1126.2656 L13.5,1141.2656 M26.5,1126.2656 L39.5,1141.2656 " fill="none" style="stroke:#181818;stroke-width:0.5;"/><rect fill="#E2E2F0" height="31.6094" rx="2.5" ry="2.5" style="stroke:#181818;stroke-width:0.5;" width="170" x="226.5" y="50"/><text fill="#000000" font-family="sans-serif" font-size="14" lengthAdjust="spacing" textLength="156" x="233.5" y="71.5332">:ShowWaitingRoomListUI</text><rect fill="#E2E2F0" height="31.6094" rx="2.5" ry="2.5" style="stroke:#181818;stroke-width:0.5;" width="170" x="226.5" y="1065.1563"/><text fill="#000000" font-family="sans-serif" font-size="14" lengthAdjust="spacing" textLength="156" x="233.5" y="1086.6895">:ShowWaitingRoomListUI</text><rect fill="#E2E2F0" height="31.6094" rx="2.5" ry="2.5" style="stroke:#181818;stroke-width:0.5;" width="220" x="406.5" y="50"/><text fill="#000000" font-family="sans-serif" font-size="14" lengthAdjust="spacing" textLength="206" x="413.5" y="71.5332">:ShowWaitingRoomListController</text><rect fill="#E2E2F0" height="31.6094" rx="2.5" ry="2.5" style="stroke:#181818;stroke-width:0.5;" width="220" x="406.5" y="1065.1563"/><text fill="#000000" font-family="sans-serif" font-size="14" lengthAdjust="spacing" textLength="206" x="413.5" y="1086.6895">:ShowWaitingRoomListController</text><rect fill="#E2E2F0" height="31.6094" rx="2.5" ry="2.5" style="stroke:#181818;stroke-width:0.5;" width="78" x="695.5" y="50"/><text fill="#000000" font-family="sans-serif" font-size="14" lengthAdjust="spacing" textLength="64" x="702.5" y="71.5332">:Company</text><rect fill="#E2E2F0" height="31.6094" rx="2.5" ry="2.5" style="stroke:#181818;stroke-width:0.5;" width="78" x="695.5" y="1065.1563"/><text fill="#000000" font-family="sans-serif" font-size="14" lengthAdjust="spacing" textLength="64" x="702.5" y="1086.6895">:Company</text><rect fill="#E2E2F0" height="31.6094" rx="2.5" ry="2.5" style="stroke:#181818;stroke-width:0.5;" width="95" x="783.5" y="50"/><text fill="#000000" font-family="sans-serif" font-size="14" lengthAdjust="spacing" textLength="81" x="790.5" y="71.5332">:CenterStore</text><rect fill="#E2E2F0" height="31.6094" rx="2.5" ry="2.5" style="stroke:#181818;stroke-width:0.5;" width="95" x="783.5" y="1065.1563"/><text fill="#000000" font-family="sans-serif" font-size="14" lengthAdjust="spacing" textLength="81" x="790.5" y="1086.6895">:CenterStore</text><rect fill="#E2E2F0" height="31.6094" rx="2.5" ry="2.5" style="stroke:#181818;stroke-width:0.5;" width="61" x="888.5" y="50"/><text fill="#000000" font-family="sans-serif" font-size="14" lengthAdjust="spacing" textLength="47" x="895.5" y="71.5332">:Center</text><rect fill="#E2E2F0" height="31.6094" rx="2.5" ry="2.5" style="stroke:#181818;stroke-width:0.5;" width="61" x="888.5" y="1065.1563"/><text fill="#000000" font-family="sans-serif" font-size="14" lengthAdjust="spacing" textLength="47" x="895.5" y="1086.6895">:Center</text><rect fill="#E2E2F0" height="31.6094" rx="2.5" ry="2.5" style="stroke:#181818;stroke-width:0.5;" width="113" x="959.5" y="50"/><text fill="#000000" font-family="sans-serif" font-size="14" lengthAdjust="spacing" textLength="99" x="966.5" y="71.5332">:WaitingMapper</text><rect fill="#E2E2F0" height="31.6094" rx="2.5" ry="2.5" style="stroke:#181818;stroke-width:0.5;" width="113" x="959.5" y="1065.1563"/><text fill="#000000" font-family="sans-serif" font-size="14" lengthAdjust="spacing" textLength="99" x="966.5" y="1086.6895">:WaitingMapper</text><rect fill="#E2E2F0" height="31.6094" rx="2.5" ry="2.5" style="stroke:#181818;stroke-width:0.5;" width="169" x="1082.5" y="50"/><text fill="#000000" font-family="sans-serif" font-size="14" lengthAdjust="spacing" textLength="155" x="1089.5" y="71.5332">waitingList : SNSUserList</text><rect fill="#E2E2F0" height="31.6094" rx="2.5" ry="2.5" style="stroke:#181818;stroke-width:0.5;" width="169" x="1082.5" y="1065.1563"/><text fill="#000000" font-family="sans-serif" font-size="14" lengthAdjust="spacing" textLength="155" x="1089.5" y="1086.6895">waitingList : SNSUserList</text><rect fill="#E2E2F0" height="31.6094" rx="2.5" ry="2.5" style="stroke:#181818;stroke-width:0.5;" width="229" x="1261.5" y="1065.1563"/><text fill="#000000" font-family="sans-serif" font-size="14" lengthAdjust="spacing" textLength="215" x="1268.5" y="1086.6895">waitingListDTO : SNSUserDTOList</text><rect fill="#E2E2F0" height="31.6094" rx="2.5" ry="2.5" style="stroke:#181818;stroke-width:0.5;" width="110" x="1500.5" y="50"/><text fill="#000000" font-family="sans-serif" font-size="14" lengthAdjust="spacing" textLength="96" x="1507.5" y="71.5332">user : SNSUser</text><rect fill="#E2E2F0" height="31.6094" rx="2.5" ry="2.5" style="stroke:#181818;stroke-width:0.5;" width="110" x="1500.5" y="1065.1563"/><text fill="#000000" font-family="sans-serif" font-size="14" lengthAdjust="spacing" textLength="96" x="1507.5" y="1086.6895">user : SNSUser</text><rect fill="#E2E2F0" height="31.6094" rx="2.5" ry="2.5" style="stroke:#181818;stroke-width:0.5;" width="170" x="1620.5" y="1065.1563"/><text fill="#000000" font-family="sans-serif" font-size="14" lengthAdjust="spacing" textLength="156" x="1627.5" y="1086.6895">userDTO : SNSUserDTO</text><rect fill="#FFFFFF" height="933.1953" style="stroke:#181818;stroke-width:1.0;" width="10" x="306.5" y="114.9609"/><rect fill="#FFFFFF" height="872.4922" style="stroke:#181818;stroke-width:1.0;" width="10" x="511.5" y="145.3125"/><rect fill="#FFFFFF" height="30" style="stroke:#181818;stroke-width:1.0;" width="10" x="729.5" y="175.6641"/><rect fill="#FFFFFF" height="30" style="stroke:#181818;stroke-width:1.0;" width="10" x="826" y="236.0156"/><rect fill="#FFFFFF" height="30" style="stroke:#181818;stroke-width:1.0;" width="10" x="914" y="296.3672"/><rect fill="#FFFFFF" height="630.7344" style="stroke:#181818;stroke-width:1.0;" width="10" x="1011" y="356.7188"/><rect fill="#FFFFFF" height="30" style="stroke:#181818;stroke-width:1.0;" width="10" x="1162" y="455.0313"/><rect fill="#FFFFFF" height="30" style="stroke:#181818;stroke-width:1.0;" width="10" x="1371" y="920.1016"/><rect fill="#FFFFFF" height="30" style="stroke:#181818;stroke-width:1.0;" width="10" x="1550.5" y="515.3828"/><rect fill="#FFFFFF" height="30" style="stroke:#181818;stroke-width:1.0;" width="10" x="1550.5" y="575.7344"/><rect fill="#FFFFFF" height="30" style="stroke:#181818;stroke-width:1.0;" width="10" x="1550.5" y="636.0859"/><rect fill="#FFFFFF" height="30" style="stroke:#181818;stroke-width:1.0;" width="10" x="1550.5" y="696.4375"/><rect fill="#FFFFFF" height="30" style="stroke:#181818;stroke-width:1.0;" width="10" x="1550.5" y="756.7891"/><rect fill="#FFFFFF" height="30" style="stroke:#181818;stroke-width:1.0;" width="10" x="1550.5" y="817.1406"/><polygon fill="#181818" points="294.5,110.9609,304.5,114.9609,294.5,118.9609,298.5,114.9609" style="stroke:#181818;stroke-width:1.0;"/><line style="stroke:#181818;stroke-width:1.0;" x1="26.5" x2="300.5" y1="114.9609" y2="114.9609"/><text fill="#000000" font-family="sans-serif" font-size="13" font-weight="bold" lengthAdjust="spacing" textLength="7" x="33.5" y="110.1045">1</text><text fill="#000000" font-family="sans-serif" font-size="13" lengthAdjust="spacing" textLength="250" x="44.5" y="110.1045">Requests a list of users in the waiting room</text><polygon fill="#181818" points="499.5,141.3125,509.5,145.3125,499.5,149.3125,503.5,145.3125" style="stroke:#181818;stroke-width:1.0;"/><line style="stroke:#181818;stroke-width:1.0;" x1="316.5" x2="505.5" y1="145.3125" y2="145.3125"/><text fill="#000000" font-family="sans-serif" font-size="13" font-weight="bold" lengthAdjust="spacing" textLength="7" x="323.5" y="140.4561">2</text><text fill="#000000" font-family="sans-serif" font-size="13" lengthAdjust="spacing" textLength="158" x="334.5" y="140.4561">getWaitingList(centerIndex)</text><polygon fill="#181818" points="717.5,171.6641,727.5,175.6641,717.5,179.6641,721.5,175.6641" style="stroke:#181818;stroke-width:1.0;"/><line style="stroke:#181818;stroke-width:1.0;" x1="521.5" x2="723.5" y1="175.6641" y2="175.6641"/><text fill="#000000" font-family="sans-serif" font-size="13" font-weight="bold" lengthAdjust="spacing" textLength="7" x="528.5" y="170.8076">3</text><text fill="#000000" font-family="sans-serif" font-size="13" lengthAdjust="spacing" textLength="178" x="539.5" y="170.8076">centerStore = getCenterStore()</text><polygon fill="#181818" points="814,232.0156,824,236.0156,814,240.0156,818,236.0156" style="stroke:#181818;stroke-width:1.0;"/><line style="stroke:#181818;stroke-width:1.0;" x1="521.5" x2="820" y1="236.0156" y2="236.0156"/><text fill="#000000" font-family="sans-serif" font-size="13" font-weight="bold" lengthAdjust="spacing" textLength="7" x="528.5" y="231.1592">4</text><text fill="#000000" font-family="sans-serif" font-size="13" lengthAdjust="spacing" textLength="230" x="539.5" y="231.1592">center = getCenterByIndex(centerIndex)</text><polygon fill="#181818" points="902,292.3672,912,296.3672,902,300.3672,906,296.3672" style="stroke:#181818;stroke-width:1.0;"/><line style="stroke:#181818;stroke-width:1.0;" x1="521.5" x2="908" y1="296.3672" y2="296.3672"/><text fill="#000000" font-family="sans-serif" font-size="13" font-weight="bold" lengthAdjust="spacing" textLength="7" x="528.5" y="291.5107">5</text><text fill="#000000" font-family="sans-serif" font-size="13" lengthAdjust="spacing" textLength="168" x="539.5" y="291.5107">waitingList = getWaitingList()</text><polygon fill="#181818" points="999,352.7188,1009,356.7188,999,360.7188,1003,356.7188" style="stroke:#181818;stroke-width:1.0;"/><line style="stroke:#181818;stroke-width:1.0;" x1="521.5" x2="1005" y1="356.7188" y2="356.7188"/><text fill="#000000" font-family="sans-serif" font-size="13" font-weight="bold" lengthAdjust="spacing" textLength="7" x="528.5" y="351.8623">6</text><text fill="#000000" font-family="sans-serif" font-size="13" lengthAdjust="spacing" textLength="106" x="539.5" y="351.8623">toDTO(waitingList)</text><polygon fill="#181818" points="1249.5,383.0703,1259.5,387.0703,1249.5,391.0703,1253.5,387.0703" style="stroke:#181818;stroke-width:1.0;"/><line style="stroke:#181818;stroke-width:1.0;stroke-dasharray:2.0,2.0;" x1="1021" x2="1255.5" y1="387.0703" y2="387.0703"/><text fill="#000000" font-family="sans-serif" font-size="13" font-weight="bold" lengthAdjust="spacing" textLength="7" x="1028" y="382.2139">7</text><text fill="#000000" font-family="sans-serif" font-size="13" lengthAdjust="spacing" textLength="44" x="1039" y="382.2139">create()</text><rect fill="#E2E2F0" height="31.6094" rx="2.5" ry="2.5" style="stroke:#181818;stroke-width:0.5;" width="229" x="1261.5" y="364.7188"/><text fill="#000000" font-family="sans-serif" font-size="14" lengthAdjust="spacing" textLength="215" x="1268.5" y="386.252">waitingListDTO : SNSUserDTOList</text><path d="M949.5,414.3281 L1022.5,414.3281 L1022.5,422.6797 L1012.5,432.6797 L949.5,432.6797 L949.5,414.3281 " fill="#EEEEEE" style="stroke:#000000;stroke-width:1.5;"/><rect fill="none" height="543.7734" style="stroke:#000000;stroke-width:1.5;" width="851" x="949.5" y="414.3281"/><text fill="#000000" font-family="sans-serif" font-size="13" font-weight="bold" lengthAdjust="spacing" textLength="28" x="964.5" y="428.8232">loop</text><text fill="#000000" font-family="sans-serif" font-size="11" font-weight="bold" lengthAdjust="spacing" textLength="167" x="1037.5" y="427.7471">[for each object in waitingList]</text><polygon fill="#181818" points="1150,451.0313,1160,455.0313,1150,459.0313,1154,455.0313" style="stroke:#181818;stroke-width:1.0;"/><line style="stroke:#181818;stroke-width:1.0;" x1="1021" x2="1156" y1="455.0313" y2="455.0313"/><text fill="#000000" font-family="sans-serif" font-size="13" font-weight="bold" lengthAdjust="spacing" textLength="7" x="1028" y="450.1748">8</text><text fill="#000000" font-family="sans-serif" font-size="13" lengthAdjust="spacing" textLength="70" x="1039" y="450.1748">user = get(i)</text><polygon fill="#181818" points="1538.5,511.3828,1548.5,515.3828,1538.5,519.3828,1542.5,515.3828" style="stroke:#181818;stroke-width:1.0;"/><line style="stroke:#181818;stroke-width:1.0;" x1="1021" x2="1544.5" y1="515.3828" y2="515.3828"/><text fill="#000000" font-family="sans-serif" font-size="13" font-weight="bold" lengthAdjust="spacing" textLength="7" x="1028" y="510.5264">9</text><text fill="#000000" font-family="sans-serif" font-size="13" lengthAdjust="spacing" textLength="108" x="1039" y="510.5264">name = getName()</text><polygon fill="#181818" points="1538.5,571.7344,1548.5,575.7344,1538.5,579.7344,1542.5,575.7344" style="stroke:#181818;stroke-width:1.0;"/><line style="stroke:#181818;stroke-width:1.0;" x1="1021" x2="1544.5" y1="575.7344" y2="575.7344"/><text fill="#000000" font-family="sans-serif" font-size="13" font-weight="bold" lengthAdjust="spacing" textLength="14" x="1028" y="570.8779">10</text><text fill="#000000" font-family="sans-serif" font-size="13" lengthAdjust="spacing" textLength="86" x="1046" y="570.8779">sex = getSex()</text><polygon fill="#181818" points="1538.5,632.0859,1548.5,636.0859,1538.5,640.0859,1542.5,636.0859" style="stroke:#181818;stroke-width:1.0;"/><line style="stroke:#181818;stroke-width:1.0;" x1="1021" x2="1544.5" y1="636.0859" y2="636.0859"/><text fill="#000000" font-family="sans-serif" font-size="13" font-weight="bold" lengthAdjust="spacing" textLength="14" x="1028" y="631.2295">11</text><text fill="#000000" font-family="sans-serif" font-size="13" lengthAdjust="spacing" textLength="204" x="1046" y="631.2295">phoneNumber = getPhoneNumber()</text><polygon fill="#181818" points="1538.5,692.4375,1548.5,696.4375,1538.5,700.4375,1542.5,696.4375" style="stroke:#181818;stroke-width:1.0;"/><line style="stroke:#181818;stroke-width:1.0;" x1="1021" x2="1544.5" y1="696.4375" y2="696.4375"/><text fill="#000000" font-family="sans-serif" font-size="13" font-weight="bold" lengthAdjust="spacing" textLength="14" x="1028" y="691.5811">12</text><text fill="#000000" font-family="sans-serif" font-size="13" lengthAdjust="spacing" textLength="148" x="1046" y="691.5811">birthDate = getBirthDate()</text><polygon fill="#181818" points="1538.5,752.7891,1548.5,756.7891,1538.5,760.7891,1542.5,756.7891" style="stroke:#181818;stroke-width:1.0;"/><line style="stroke:#181818;stroke-width:1.0;" x1="1021" x2="1544.5" y1="756.7891" y2="756.7891"/><text fill="#000000" font-family="sans-serif" font-size="13" font-weight="bold" lengthAdjust="spacing" textLength="14" x="1028" y="751.9326">13</text><text fill="#000000" font-family="sans-serif" font-size="13" lengthAdjust="spacing" textLength="203" x="1046" y="751.9326">snsNumber = getSnsUserNumber()</text><polygon fill="#181818" points="1538.5,813.1406,1548.5,817.1406,1538.5,821.1406,1542.5,817.1406" style="stroke:#181818;stroke-width:1.0;"/><line style="stroke:#181818;stroke-width:1.0;" x1="1021" x2="1544.5" y1="817.1406" y2="817.1406"/><text fill="#000000" font-family="sans-serif" font-size="13" font-weight="bold" lengthAdjust="spacing" textLength="14" x="1028" y="812.2842">14</text><text fill="#000000" font-family="sans-serif" font-size="13" lengthAdjust="spacing" textLength="166" x="1046" y="812.2842">arrivalTime = getArrivalTime()</text><polygon fill="#181818" points="1608.5,873.4922,1618.5,877.4922,1608.5,881.4922,1612.5,877.4922" style="stroke:#181818;stroke-width:1.0;"/><line style="stroke:#181818;stroke-width:1.0;stroke-dasharray:2.0,2.0;" x1="1021" x2="1614.5" y1="877.4922" y2="877.4922"/><text fill="#000000" font-family="sans-serif" font-size="13" font-weight="bold" lengthAdjust="spacing" textLength="14" x="1028" y="872.6357">15</text><text fill="#000000" font-family="sans-serif" font-size="13" lengthAdjust="spacing" textLength="423" x="1046" y="872.6357">create(name, sex, phoneNumber, birthDate, snsUserNumber, arrivalTime)</text><rect fill="#E2E2F0" height="31.6094" rx="2.5" ry="2.5" style="stroke:#181818;stroke-width:0.5;" width="170" x="1620.5" y="855.1406"/><text fill="#000000" font-family="sans-serif" font-size="14" lengthAdjust="spacing" textLength="156" x="1627.5" y="876.6738">userDTO : SNSUserDTO</text><polygon fill="#181818" points="1359,916.1016,1369,920.1016,1359,924.1016,1363,920.1016" style="stroke:#181818;stroke-width:1.0;"/><line style="stroke:#181818;stroke-width:1.0;" x1="1021" x2="1365" y1="920.1016" y2="920.1016"/><text fill="#000000" font-family="sans-serif" font-size="13" font-weight="bold" lengthAdjust="spacing" textLength="14" x="1028" y="915.2451">16</text><text fill="#000000" font-family="sans-serif" font-size="13" lengthAdjust="spacing" textLength="80" x="1046" y="915.2451">add(userDTO)</text><polygon fill="#181818" points="532.5,983.4531,522.5,987.4531,532.5,991.4531,528.5,987.4531" style="stroke:#181818;stroke-width:1.0;"/><line style="stroke:#181818;stroke-width:1.0;stroke-dasharray:2.0,2.0;" x1="526.5" x2="1015" y1="987.4531" y2="987.4531"/><text fill="#000000" font-family="sans-serif" font-size="13" font-weight="bold" lengthAdjust="spacing" textLength="14" x="538.5" y="982.5967">17</text><text fill="#000000" font-family="sans-serif" font-size="13" lengthAdjust="spacing" textLength="87" x="556.5" y="982.5967">waitingListDTO</text><polygon fill="#181818" points="327.5,1013.8047,317.5,1017.8047,327.5,1021.8047,323.5,1017.8047" style="stroke:#181818;stroke-width:1.0;"/><line style="stroke:#181818;stroke-width:1.0;stroke-dasharray:2.0,2.0;" x1="321.5" x2="515.5" y1="1017.8047" y2="1017.8047"/><text fill="#000000" font-family="sans-serif" font-size="13" font-weight="bold" lengthAdjust="spacing" textLength="14" x="333.5" y="1012.9482">18</text><text fill="#000000" font-family="sans-serif" font-size="13" lengthAdjust="spacing" textLength="87" x="351.5" y="1012.9482">waitingListDTO</text><polygon fill="#181818" points="37.5,1044.1563,27.5,1048.1563,37.5,1052.1563,33.5,1048.1563" style="stroke:#181818;stroke-width:1.0;"/><line style="stroke:#181818;stroke-width:1.0;stroke-dasharray:2.0,2.0;" x1="31.5" x2="310.5" y1="1048.1563" y2="1048.1563"/><text fill="#000000" font-family="sans-serif" font-size="13" font-weight="bold" lengthAdjust="spacing" textLength="14" x="43.5" y="1043.2998">19</text><text fill="#000000" font-family="sans-serif" font-size="13" lengthAdjust="spacing" textLength="82" x="61.5" y="1043.2998">Shows the list</text><!--MD5=[5d3f78e146ab1feab349d0a403164e78]
@startuml
'https://plantuml.com/sequence-diagram

autonumber

actor "Nurse" as nurse
participant ":ShowWaitingRoomListUI" as waitUI
participant ":ShowWaitingRoomListController" as waitCon
participant ":Company" as comp
participant ":CenterStore" as centSto
participant ":Center" as cent
participant ":WaitingMapper" as waitMp
participant "waitingList : SNSUserList" as wait
participant "waitingListDTO : SNSUserDTOList" as waitDto

participant "user : SNSUser" as sns
participant "userDTO : SNSUserDTO" as snsDto



nurse -> waitUI++: Requests a list of users in the waiting room

waitUI -> waitCon++: getWaitingList(centerIndex)
waitCon -> comp++: centerStore = getCenterStore()
deactivate comp
waitCon -> centSto++: center = getCenterByIndex(centerIndex)
deactivate centSto
waitCon -> cent++: waitingList = getWaitingList()
deactivate cent
waitCon -> waitMp++: toDTO(waitingList)
'dentro do mapper
waitMp - -> waitDto**: create()
'abrir loop
loop for each object in waitingList
    waitMp -> wait++: user = get(i)
    deactivate wait
    waitMp -> sns++: name = getName()
    deactivate sns
    waitMp -> sns++: sex = getSex()
    deactivate sns
    waitMp -> sns++: phoneNumber = getPhoneNumber()
        deactivate sns
    waitMp -> sns++: birthDate = getBirthDate()
    deactivate sns
    waitMp -> sns++: snsNumber = getSnsUserNumber()
    deactivate sns
        waitMp -> sns++: arrivalTime = getArrivalTime()
    deactivate sns
    waitMp - -> snsDto**: create(name, sex, phoneNumber, birthDate, snsUserNumber, arrivalTime)
    waitMp -> waitDto++: add(userDTO)
    deactivate waitDto
end
waitMp - -> waitCon: waitingListDTO
deactivate waitMp
waitCon - -> waitUI: waitingListDTO
deactivate waitCon



waitUI - -> nurse- -: Shows the list



@enduml

@startuml

autonumber

actor "Nurse" as nurse
participant ":ShowWaitingRoomListUI" as waitUI
participant ":ShowWaitingRoomListController" as waitCon
participant ":Company" as comp
participant ":CenterStore" as centSto
participant ":Center" as cent
participant ":WaitingMapper" as waitMp
participant "waitingList : SNSUserList" as wait
participant "waitingListDTO : SNSUserDTOList" as waitDto

participant "user : SNSUser" as sns
participant "userDTO : SNSUserDTO" as snsDto



nurse -> waitUI++: Requests a list of users in the waiting room

waitUI -> waitCon++: getWaitingList(centerIndex)
waitCon -> comp++: centerStore = getCenterStore()
deactivate comp
waitCon -> centSto++: center = getCenterByIndex(centerIndex)
deactivate centSto
waitCon -> cent++: waitingList = getWaitingList()
deactivate cent
waitCon -> waitMp++: toDTO(waitingList)
waitMp - -> waitDto**: create()
loop for each object in waitingList
    waitMp -> wait++: user = get(i)
    deactivate wait
    waitMp -> sns++: name = getName()
    deactivate sns
    waitMp -> sns++: sex = getSex()
    deactivate sns
    waitMp -> sns++: phoneNumber = getPhoneNumber()
        deactivate sns
    waitMp -> sns++: birthDate = getBirthDate()
    deactivate sns
    waitMp -> sns++: snsNumber = getSnsUserNumber()
    deactivate sns
        waitMp -> sns++: arrivalTime = getArrivalTime()
    deactivate sns
    waitMp - -> snsDto**: create(name, sex, phoneNumber, birthDate, snsUserNumber, arrivalTime)
    waitMp -> waitDto++: add(userDTO)
    deactivate waitDto
end
waitMp - -> waitCon: waitingListDTO
deactivate waitMp
waitCon - -> waitUI: waitingListDTO
deactivate waitCon



waitUI - -> nurse- -: Shows the list



@enduml

PlantUML version 1.2022.4(Sat Apr 09 14:29:17 BST 2022)
(GPL source distribution)
Java Runtime: OpenJDK Runtime Environment
JVM: OpenJDK 64-Bit Server VM
Default Encoding: Cp1252
Language: pt
Country: PT
--></g></svg>